<svg xmlns="http://www.w3.org/2000/svg" viewBox="0 0 500 356.91"><defs><style>.cls-1{fill:#f6f8f9;}.cls-2{fill:#5d81fa;}.cls-3{fill:#323958;}.cls-4{fill:#a3cff5;}.cls-5{fill:#d2e9f5;}.cls-6{fill:#48b7e2;}.cls-7{fill:#85b4f5;}.cls-8{fill:#4b69dd;}.cls-9{fill:#5c81bf;}.cls-10{fill:#6d98f7;}.cls-11{fill:#4b8ade;}.cls-12{fill:#e7a98c;}.cls-13{fill:#d9d8e7;}.cls-14{fill:#fad476;}.cls-15{fill:#2d86cb;}.cls-16{fill:#f8f8f9;}</style></defs><g id="Layer_2" data-name="Layer 2"><g id="Layer_1-2" data-name="Layer 1"><path class="cls-1" d="M119.26,149.23l1,1,1,1,1,1,1,1.05,0,2.95c-5,0-9.92,0-14.88,0-1.45,0-3.34-.38-3.45,2s1.71,2.17,3.23,2.17q17.19,0,34.39,0c1.48,0,3.32.27,3.29-2.1s-1.88-2-3.34-2c-5.31-.07-10.61-.08-15.91-.1l-3.21-3-1-1-1-1-1-1-1-1-1-1-.6-.43.5.52Zm-14.38-14.4,1,1,1,1.06,1,1c-.15.49-.17,1.27-.49,1.41-1.89.87-3.32,2-2.39,4.29s2.94,1.15,4.52,1.4c6.94,1.08,13.88-.48,20.83,0,1.88.13,3.45-.25,3.36-2.71-.08-2.18-1.56-2.35-3.2-2.35-4.11,0-8.22,0-12.33,0-3.52-.06-7.26.82-10.19-2.12l-1-1-1-1-1-1-1-1-1-1-1-1-1-.81-.38.55,1.27.39,1,1,1,1ZM91.6,121.37,91,121l.45.54,1,1,1,1,1.07,1a1.8,1.8,0,0,0,2,2.06,1.85,1.85,0,0,0,2.05,2.08l.54.46-.41-.59-2.07-2a3.56,3.56,0,0,0-2.07-2.06l-1-1.06-1-1C92.29,122.05,92,121.71,91.6,121.37Zm88-44.9A100.27,100.27,0,0,0,195.1,92c1.75,3.22,4.94,5.12,7.19,7.87,2.53,3.09,6.53,5,7.71,9.17l-2.47.06a72.92,72.92,0,0,0-16.11,0c-2.32,2.71-1.75,4.08,1.87,4.08h30.77c3.92,0,4.27-1.42,1.68-4.08a23.15,23.15,0,0,0-5-.32c-5.4.78-9.31-1.3-12.87-5.29-3.81-4.28-7.6-8.67-12.39-12A103.6,103.6,0,0,0,180,76.14c-1.14-2.78-3.6-2.11-5.73-2.11q-20.49-.06-41,0c-1.34,0-2.88-.58-4.65,1.24h6.14q19.22,0,38.44,0C175.45,75.25,177.65,75.23,179.63,76.47Zm-25.35,79.67c-2,2.76-1.62,4.35,2.11,4.34,7.53,0,15.05,0,22.58,0,3.95,0,3.78-1.79,2-4.36A90.1,90.1,0,0,0,154.28,156.14Zm119.28,52.5c4.28,0,8.56,0,12.83,0,2.19,0,3.62-.45,3.58-3.07-.08-6.84-.07-13.68,0-20.52,0-2.14-.82-3.1-3-3.09-10.27.05-20.53,0-30.79,0-1.71,0-3.07.35-3.07,2.47,0,8.72-.09,17.44,0,26.16,0,3,1.81,2,2.86.67,2.12-2.62,4.86-2.78,7.86-2.68C267.06,208.74,270.32,208.65,273.56,208.64Zm-35-68.68c-7,0-14,0-21,0-1.47,0-3.33-.35-3.48,1.94s1.23,3.07,3.21,3.08q20.76,0,41.52,0c2,0,3.35-.89,3.22-3.07s-2-2-3.46-2C251.88,139.94,245.22,140,238.56,140ZM125,113.19c5.46,0,10.92,0,16.37,0,1.45,0,3.36.38,3.47-1.92s-1.75-2.13-3.25-2.13q-16.62,0-33.25,0c-1.51,0-3.37-.15-3.22,2.17s2.07,1.87,3.52,1.89C114.07,113.21,119.53,113.18,125,113.19Zm52.43,79.1c5.46,0,10.93,0,16.4,0,1.51,0,3.25.27,3.32-2.07s-1.44-2.27-3.1-2.27c-10.76,0-21.53,0-32.29.05-1.44,0-3.28-.42-3.32,2-.06,2.76,2,2.26,3.61,2.28C167.16,192.33,172.28,192.3,177.41,192.29Zm45.78-63.44c5.3,0,10.59,0,15.89,0,1.55,0,3.68.62,3.6-2.23-.06-2.41-1.82-2-3.29-2q-16.41,0-32.81,0c-1.56,0-3.22-.1-3.13,2.26s1.87,2,3.34,2C212.26,128.87,217.72,128.85,223.19,128.85Zm31.3-61.66c-4.26,0-7.84,0-11.41,0-1.12,0-2.8-.34-2.87,1.28S241.8,70,242.94,70c4.94,0,9.88,0,14.82,0,1.7,0,3.76-.24,4.37,1.77,1,3.15,3.66,3.29,6,3.79,1.68.35,4.07,1.3,4.92-1s-.89-3.78-3-5.14C265,65.94,259.26,67.73,254.49,67.19Zm4.67,93.27h15.89c1.47,0,2.74-.12,2.71-2.12s-1.33-2.1-2.76-2.1q-15.63,0-31.26,0c-1.34,0-2.86-.16-3,1.88-.14,2.3,1.4,2.34,3,2.34ZM171.2,145c3.76,0,7.52,0,11.29,0,1.9,0,3.45-.61,3.5-2.83S184.3,140,182.74,140H160.15c-1.83,0-3.67.36-3.56,2.66s2.06,2.39,3.83,2.39C164,145,167.6,145,171.2,145Zm-51.81,31.4v0c3.74,0,7.49,0,11.23,0,1.54,0,3.19.08,3.23-2.19s-1.43-2.35-3.07-2.35q-11.49,0-23,0c-1.71,0-3,.24-2.94,2.44.07,1.95,1.34,2.08,2.78,2.08Zm83,59.11c-4.09,0-8.17,0-12.26,0-1.42,0-2.84.15-2.8,2.1,0,1.57,1.12,1.94,2.43,1.94q12.25,0,24.51,0c1.28,0,2.44-.25,2.54-1.84.13-1.92-1.2-2.2-2.67-2.21ZM167.3,113.17c3.92,0,7.83,0,11.75,0,1.37,0,2.85,0,2.94-2s-1.29-2.16-2.73-2.16q-11.49,0-23,0c-1.37,0-2.88,0-2.93,2-.06,2.34,1.71,2.14,3.22,2.16C160.15,113.19,163.73,113.17,167.3,113.17Zm-26.58,75v0c-3.94,0-7.88,0-11.82,0-1.34,0-2.33.5-2.31,2.08s1.06,2,2.37,2q11.31,0,22.62,0c1.26,0,2.43-.19,2.55-1.83.13-1.91-1.08-2.28-2.62-2.29ZM195.24,53.59c5,.33,6.94,6.73,12.11,1.57,1.47-1.46,5.59-.21,8.48-.32,1.24,0,3,.49,3.12-1.63.14-2-1.31-2-2.71-2.23-3.88-.74-8.5,2-11.68-2.42-.12-.17-1.25.24-1.81.56C200.7,50.29,198.69,51.53,195.24,53.59Zm5.25,91.3h7.66c1.59,0,2.63-.58,2.62-2.36s-.94-2.4-2.57-2.4q-7.41,0-14.83,0a2.24,2.24,0,0,0-2.59,2.43c-.06,1.78.91,2.38,2.55,2.36C195.71,144.87,198.1,144.9,200.49,144.89Zm74.19.07h7.68a2.18,2.18,0,0,0,2.47-2.52c0-1.36-.59-2.37-2.07-2.38-4.94,0-9.89-.05-14.84,0-1.69,0-2.26,1.32-2.26,2.83s1,2,2.37,2C270.25,145,272.46,145,274.68,145Zm-56-81.21c-3.88.17-5.23-6.49-10.36-1.47-1.58,1.54-5.89.26-9,.36-1.23,0-2.95-.51-3.08,1.62-.13,2.3,1.67,2,3.14,2.33,3.6.82,8.21-2.8,10.86,2.43a3.8,3.8,0,0,0,1.83-.54C214.1,67.23,216.51,66.61,218.69,63.75ZM167,128.83h9.23c1.41,0,2.74,0,2.76-2.06s-1.07-2.24-2.62-2.24c-6,0-12,0-18,0-1.61,0-3.17,0-3.06,2.34.09,2,1.55,1.94,2.92,1.95C161.15,128.84,164.06,128.83,167,128.83Zm56.36,31.7c2.91,0,5.82,0,8.73,0,1.37,0,2.26-.63,2.24-2.17s-.91-2.12-2.29-2.13q-8.73,0-17.46,0c-1.28,0-2.41.36-2.51,1.93-.12,1.83,1,2.39,2.56,2.39Zm-45.25,63.66c3.08,0,6.16,0,9.23,0,1.41,0,2.24-.59,2.23-2.14s-1-2-2.3-2c-6.16,0-12.32,0-18.47,0-1.43,0-2.21.54-2.18,2.12s.87,2.08,2.26,2.08Zm-13.29-47.43h6.15c1.56,0,2.66-.52,2.73-2.3s-.64-2.64-2.35-2.66c-4.1,0-8.21,0-12.31,0a2.2,2.2,0,0,0-2.46,2.55c0,1.73.95,2.43,2.59,2.42C161,176.75,162.91,176.77,164.79,176.76Zm41.06,47.49v0h8.73c1.33,0,2.33-.41,2.44-2,.13-1.84-.94-2.38-2.53-2.37-5.64,0-11.29,0-16.93,0-1.38,0-2.25.64-2.22,2.18s.95,2.09,2.31,2.1C200.38,224.26,203.12,224.25,205.85,224.25ZM115,124.55c-2.72,0-5.44,0-8.16,0-1.62,0-2.6.55-2.52,2.36.08,1.61,1.16,1.91,2.44,1.91q8.16,0,16.32,0c1.24,0,2.4-.11,2.47-1.81s-.69-2.49-2.39-2.47C120.43,124.57,117.71,124.55,115,124.55Zm54.2,79.25v0H163.6c-1.45,0-2.71.18-2.74,2.12s1,2.33,2.57,2.33l12.19,0c1.41,0,2.22-.58,2.22-2.09s-.57-2.28-2.05-2.3C173.59,203.77,171.39,203.8,169.19,203.8Zm87.84-75h6.65c1.55,0,2.68-.44,2.53-2.34-.11-1.57-1.11-1.93-2.43-1.93-4.61,0-9.22,0-13.82,0-1.37,0-2.27.51-2.27,2.08a1.89,1.89,0,0,0,2.17,2.17ZM145.1,145.25c2.28-1.35,6.85,1.94,6.91-2.68s-4.42-2.39-6.79-2.41-6.83-2.14-6.92,2.26C138.19,147.11,142.84,143.91,145.1,145.25Zm3.13,58.15c-2.35,1.24-6.91-1.79-7,2.63-.1,4.57,4.42,2.37,6.83,2.42s6.95,1.94,6.85-2.61C154.8,201.61,150.44,204.62,148.23,203.4Zm48.39-42.71c2.17-1.25,6.6,1.75,6.53-2.33-.07-3.83-4.35-1.69-6.68-1.84-2-.13-5.75-1.56-5.84,1.71C190.53,162.29,194.6,159.55,196.62,160.69Zm-5.48-36.14c-1.35,0-2.7,0-4,0s-2.8,0-2.87,2,1.25,2.15,2.69,2.16c2.2,0,4.39.09,6.58,0,1.54-.07,3.75.64,3.85-2s-2.12-2-3.67-2.16C192.83,124.49,192,124.55,191.14,124.55Zm50.26-15.68c-2.17,1.25-6.6-1.76-6.53,2.34.07,3.82,4.36,1.69,6.69,1.84,2,.13,5.76,1.55,5.83-1.73C247.49,107.27,243.42,110,241.4,108.87Zm-96.09,62.95c-1.18,0-2.36,0-3.54,0-1.42,0-2.83.18-2.75,2.11s1.52,1.94,2.9,2q3,0,6.08,0c1.34,0,2.9.08,3-1.85.12-2.28-1.61-2.17-3.14-2.22C147,171.79,146.16,171.81,145.31,171.82Zm.66-42.39c1.9-.08,4,0,4-2.73s-2.09-2.26-3.73-2.23-4.14-.57-4,2.45C142.35,129.26,144.16,129.43,146,129.43Zm29.95,105.88c-1.59.35-4.11-.78-4.18,2.2s2.45,2.14,4.1,2.2,4.11.61,4-2.36C179.7,234.75,177.49,235.55,175.92,235.31Zm-41.8-106.46c1.64-.14,3.74.41,3.59-2.35-.12-2.37-2-2-3.43-2-1.63,0-3.71-.44-3.57,2.32C130.83,129.27,132.72,128.67,134.12,128.85Z"/><path class="cls-2" d="M343.49,298.27c33.71,0,67.41,0,101.12.11,3.92,0,5-1.16,4.82-4.94-.3-5.26-.07-10.55-.07-17.18l14.79,11.39,33.75,26c1.65,1.27,3.47,2.28.57,4.47-15.54,11.77-31,23.68-46.44,35.53a18.14,18.14,0,0,1-2.15,1.18c-1.1-5.31-.59-10.39-.4-15.37.16-4.24-1.09-5.51-5.41-5.48-24.47.21-48.93.11-73.4.09-1.88,0-3.75-.15-5.63-.23a14.41,14.41,0,0,1,.08-2.55c1.52-7.35-1.95-11-9.21-9.64a118.22,118.22,0,0,1-12,2.09c-2.2.17-5.23,1.8-6.64-1.72,3.66-1.92,6.48-4.83,9.22-7.84,2.22-2.46,2.44-4.82.62-7.77C345.55,303.87,342.91,301.73,343.49,298.27Z"/><path class="cls-2" d="M325.79,136.83c-.06-.51-.11-1-.17-1.52.26-1,.24-2-.83-2.59a.63.63,0,0,1-.1-.66,2,2,0,0,0-.87-2.4l-3.27-9.86c.56-2-.48-3.66-.92-5.45-2.08-8.49-3-17-.9-25.65L344,88.54l1.36.19c2,4.49,4.12,9,6.1,13.49.81,1.85,1.68,3.76,1.19,5.91.77,4,1.4,8,4.14,11.24l2.82,8.34c-1.91,4.52,1.16,8.53,1.54,12.85.68,7.67,3.91,15.05,3.09,23,0,.37,1,.84,1.5,1.27-2.13,3.44-1.25,7.37-1.43,11-.73,14.55-4.11,28.4-8.34,42.32a152.49,152.49,0,0,1-32.1,57.44c-.69-3.07,1.48-5.8,1-8.83-.27-3.5,2.23-7.25-1-10.48-.06-2.05.41-4.28-.26-6.1-3.56-9.72-.67-19.88-2.3-29.65-.92-5.52,4.06-9.8,2.32-15.23a.56.56,0,0,1,.09-.65c.59-.29,1.66-.54,1.69-.87.44-5.4,3.67-10.4,2.29-16l.12-1.56c1.77-1.83,2.15-4.14,2.16-6.53,0-8,.06-15.94,0-23.9a13.3,13.3,0,0,0-2.09-7.62c0-.56-.09-1.11-.13-1.66C327.46,143.19,329.9,139.33,325.79,136.83ZM334,120.28l-1,1.08c-1.07.7-1.09,1.83-1.23,2.92a7.47,7.47,0,0,0,.05,7.61c.33.7.65,1.4,1,2.09a2.79,2.79,0,0,0,2.08,2.13c.84,2.92-.36,6.13,1.19,9,.08.65.15,1.31.22,2l.75,1.22a8.25,8.25,0,0,0,9.3-.25c.16,0,.44-.09.44-.14a4.79,4.79,0,0,0-.09-.84l.1-3.73c.86-2.5,1-5.25,2.8-7.41,1.63-.81,2.08-2.3,2.3-3.93,2.63-3.9,1.72-7.39-1.22-10.65-.31-.38-.63-.75-1-1.12l-1.1-1c-5.21-3.86-8.47-3.84-13.55.09Z"/><path class="cls-3" d="M138.62,224.27,146,235.54a9.17,9.17,0,0,0,2.68,4.15c4.67,5.78,11.64,8.07,17.76,11.65,0,.5.08,1,.13,1.51l-1.35,3.72c-1.12,2-2.28,3.2-4.76,1.47-2.06-1.44-4.24-2.88-6.86-3.27a25,25,0,0,0-7.26-4c-3.73-2.5-6.52-5.94-9.28-9.39-1.35-1.69-3-2.37-4.9-1.81s-1.34,2.55-1.37,3.94c-.06,2.53-.48,5.12.68,7.55.13,1.34.26,2.68.4,4q.58,6,1.18,11.91l.66,4.34c1.12,5.16-1.92,10.19-.46,15.35-.83,7.63.59,15.2.47,22.81L133,321c-.22,3.68-.43,7.36-.65,11a11.73,11.73,0,0,0-.42,5.33c-1.52,3,2.2,7.68-3.09,9.67-.64.23.63,1.66,1.37,2.32,2.3,2.07,5.38,1.91,8.08,2.86,1,.34,2.19.68,1.87,1.94a2.48,2.48,0,0,1-1.86,1.43q-7.4.29-14.79.22c-1.57,0-2-1.37-1.61-2.6,1.54-5.41-.83-10.61-.7-15.94,0-5.8.72-11.63-.57-17.4l.38-5.25v-1.91c.19-7.84-1.36-15.46-2.94-23.07-.23-1.11-.44-2.56-2-2.43-1.22.1-1.46,1.32-1.63,2.3-1.83,10.16-6.2,19.77-6.62,30.24a78.84,78.84,0,0,0-1.86,17.46c-2.15,3.11.12,7.2-2.6,10.53-1,1.19,2.47,2.6,4.23,3.47,1.44.72,3.84.69,3.46,3s-2.69,1.48-4.25,1.71a10.79,10.79,0,0,1-2.05,0c-2.71-.11-5.93.64-8-.57-2.59-1.52.46-4.76-.18-7-1.07-3.7-.36-7.45-1.07-11.11l.24-16.42.12-1.69a2.36,2.36,0,0,0,.62-2.34l3.09-28.92.24-7.09a12.33,12.33,0,0,1-.07-7.05,60.58,60.58,0,0,0,2.4-15.47,10,10,0,0,0-1.3-8.22A12,12,0,0,1,96,238c.65-4.56,1.19-9.15,1.4-13.74.18-4,2.32-5.66,5.93-6.36,3-.59,6-1.48,8.92-2.24l9,.2c4.66,1.85,10.13,1.08,14.37,4.34A8.41,8.41,0,0,0,138.62,224.27Z"/><path class="cls-4" d="M233.4,40.27c-11.88-3.25-24.08-4.5-36.27-4.79a108.45,108.45,0,0,0-23.3,2.13c-2.44.47-3.24,1.86-3.19,4.32.14,7-.07,14,.09,21,.09,4.37-1.75,6.17-6.13,6.07q-11.52-.26-23,0c-4.4.08-6.2-1.68-5.89-6.13.27-3.73,0-7.51,0-11.26,0-8,.41-16.06,0-24.06-.31-5.35-1.14-10.4,4-14.13.54-.39.24-1.94.34-3C162.35,1.31,185.84-.92,209.73.31c8.78.45,17.65,1.45,26,4.68-3.44,0-4.59,1.53-4.48,5,.23,6.94,2.09,13.85,1,20.77C231.69,34.21,231,37.34,233.4,40.27Zm-64.76,1.42c0-5.31-.09-10.61,0-15.91.06-2.67-.51-4.14-3.64-4.07-7.87.16-15.74.11-23.62,0-2.58,0-3.69.83-3.67,3.54q.15,16.43,0,32.86c0,2.92,1.08,3.88,3.92,3.83,7.7-.13,15.4-.18,23.1,0,3.36.08,4-1.46,3.92-4.35C168.54,52.3,168.64,47,168.64,41.69Z"/><path class="cls-5" d="M139.92,10.47c-.1,1,.2,2.57-.34,3-5.12,3.73-4.29,8.78-4,14.13.45,8,.07,16,0,24.06-9.14,2.85-16.1,9.14-23.48,14.79C99.55,76.06,91,89.13,82.34,102c-1.85,2.75-2.83,6.07-4.21,9.13H76.21c0-6.62.09-13.25-.14-19.86-.18-5,.93-10.13-.75-15.09-.51-2.35-2.39-2-4-2Q64.44,74.1,57.59,74c3.34-2.25,5.11-5.82,7.51-8.86,12.74-16.09,27.1-30.31,45.15-40.55C119.83,19.18,129.2,13.45,139.92,10.47ZM109.4,53.58v0c2.2,0,4.41,0,6.62,0a2,2,0,0,0,2.18-2.24c0-1.56-.41-2.73-2.2-2.75-4.07,0-8.15-.07-12.23,0A2.64,2.64,0,0,0,101,51.48c0,1.9,1.39,2.08,2.83,2.1C105.66,53.6,107.53,53.58,109.4,53.58Z"/><path class="cls-3" d="M216.24,337.11c.07,2.29,3.41,4.6.47,6.77-4.15,3.06-7.2,8.75-13.86,6.49-1.15-.39-2.21-.93-2.3-2.39a3.18,3.18,0,0,1,2.1-3.22c3.44-1.43,4.9-5,7.77-7a.76.76,0,0,0-.15-.41,1.87,1.87,0,0,0-.44-.25c-.67-1.35-1.33-2.71-2-4.06-1.93-7.55-3.24-15.26-6.05-22.57-.71-3.16-1.58-6.29-2.07-9.47-.59-3.81-2.89-7.58-1.31-11.46,1.32-3.24-.44-3.48-2.67-3.61-1.53-.09-3.06.06-4.59.09-2.13-.41-4.81.85-5.95-2.35-1.49-4.17-3.2-8.25-4.81-12.38l-1.78-4.87-1.74-5.58c6.68,0,13,.69,19.19-.17,8.92-1.25,15,.74,16.87,10.37a8.47,8.47,0,0,0,1.93,5.56l.8,2.36c1.72,6.06,2.43,6.46,7.53,4.31,1.33,1.2,2.69,1.37,4,0,2.8-2.8,6.16-2.85,9.88-2.71,4.69.17,9.49.83,14.12-.71l3.7-.28,3.17,4.16a8.16,8.16,0,0,0,1.8,4.26l0,5.73A168.29,168.29,0,0,1,236,334.64c-1.74-1.52-4.08-1.54-6.09-2.4-.58-2.18.68-3.95,1.37-5.82,2.69-7.38,5.45-14.73,8.19-22.09,1.16-3.05,3.9-6.25,1.08-9.36s-6.7-3.68-10.8-2.62c-2.61.68-5.28,1.15-7.92,1.75-8.83,2-8.83,2-7.72,11.23,2.3,8.76,2.38,17.83,3.75,26.73A5.1,5.1,0,0,1,216.24,337.11ZM195.6,270.29c-1.92,0-2.47,1.11-2.45,2.66,0,2.3,1.11,4.05,3.43,4.32a2.34,2.34,0,0,0,2.43-2.68C198.86,272.44,197.88,270.7,195.6,270.29Z"/><path class="cls-6" d="M437.9,115.06c1.07-8.23,2.87-16.28,1.22-24.81-3-15.73-11.23-27.57-24.53-36.22-3.46-2.25-5.43-1.64-6.79,2.23a81.4,81.4,0,0,1-3.56,7.43l-11.4-21.95a2.48,2.48,0,0,1-.17-.48c-.95-3.4-5.39-6.52-3.69-9.44,1.18-2.05,6.14-2,9.45-2.71,7-1.51,14-2.86,21-4.41,3-.66,3.21.24,2.18,2.81-3.39,8.39-3.32,8.41,4.41,13.5C454.12,59.46,465,96.4,451.31,127c-.75,1.68-1.2,3.6-2.85,4.77-1,.34-1.19,1.18-1.19,2.11l0-.07-1.07,1.12.15,0a6.23,6.23,0,0,1-6.6-4.48c-.42-1.14-.68-2.87-2.68-2.39-3.34.8-3.08-1.64-3.31-3.65l-.05.07a2,2,0,0,0,1.08-2.12l0,.06a2.07,2.07,0,0,0,1.09-2.1l0,.06C437.62,119,438.05,117.16,437.9,115.06Z"/><path class="cls-3" d="M56.6,219.8c5.54.84,9,3.72,9.4,9.59A72,72,0,0,1,56.91,247a6.52,6.52,0,0,1-3.24-1.24c-1.66-.91-3.33-1.07-4.1,1.19-.72,2.08.19,3.21,2.3,3.53,1,.16,2,.39,3,.58-.78,2.86.21,4.11,3.24,3.86,1.84-.16,3.7,0,5.55,0,1.07,5.53,1,11.28,3.13,16.61.25,7.24,3.37,14.08,3,21.41l-13.16,4-7.18.17c-3.39-1.43-7-.69-10.46-.81a.7.7,0,0,0-.76,0c-1.61-.45-2-1.69-2.07-3.15-.83-9.76-.83-19.42,1.79-29,1.05-3.85,1.83-7.6,4.33-10.89,2-2.66,1.64-4.79-2.1-6.07-11.4-3.93-11.35-4-6.39-15.06a19.75,19.75,0,0,0,1.46-3.82c1.41-6.59,5.73-9.26,12.13-9.25a25.56,25.56,0,0,0,2.37,3.32c1.61,1.66,3.23,4.33,5.77,3.36S56.42,221.85,56.6,219.8Z"/><path class="cls-7" d="M233.4,40.27c-2.44-2.93-1.71-6.06-1.16-9.49,1.11-6.92-.75-13.83-1-20.77-.11-3.49,1-5.07,4.48-5C253.37,8.74,270,14.86,284.86,25.3c-1.39,7.25-3.92,14.27-3.22,21.89a47.43,47.43,0,0,1-1.29,17.09c-8-4.66-15.16-10.47-23.52-14.49a143.46,143.46,0,0,0-21.34-8.67l-1.24-.76A4,4,0,0,1,233.4,40.27Z"/><path class="cls-8" d="M201.78,310.48c2.81,7.31,4.12,15,6.05,22.57.08,3.82-2.7,3.19-5,3.19q-31.83,0-63.68,0c-1.82,0-3.79-.59-5.42.83l-1.76.22a11.73,11.73,0,0,1,.42-5.33c2.43-3.55,1.47-7.3.65-11q.35-5.71.68-11.43a10.38,10.38,0,0,0,5.46,1Q170.47,310.49,201.78,310.48Z"/><path class="cls-9" d="M337.24,322c1.41,3.52,4.44,1.89,6.64,1.72a118.22,118.22,0,0,0,12-2.09c7.26-1.36,10.73,2.29,9.21,9.64a14.41,14.41,0,0,0-.08,2.55c-1.33.24-3.09,0-3.93.79-7.26,6.66-16.67,8.25-25.52,11.16-.28.1-.48.45-.72.69-1.42,0-2.88-.12-3.95,1.13a5.65,5.65,0,0,0-6,2.92c-3.36,2.71-7.44-.11-10.95,1.43l-.07,0a3.67,3.67,0,0,1-3.23.19c-1.08-2.49,1.78-8.63-5.23-5.61l-4.39-.81c-6.55-2.71-13.94-3.24-19.78-7.89-1-.79-2.94-.5-4.45-.51q-19.14-.13-38.29-.21c1.27-1.23,2.88-.84,4.37-.84,9.9,0,19.79,0,29.68-.05,1.45,0,3.51.8,4.23-.76.89-1.94-1.5-2.28-2.57-3.11-2.79-2.15-3-4-1-7.27,3.36-5.38,7.63-4.27,12.51-3.37,3.74.69,7.47,3.57,11.51.88l3.39,1.49c.37,3.6,3.17,4.35,6,5.07,4.14,1.06,7.82,4.5,12.43,3,3.87-1.24,7.54-3.11,11.34-4.59,1.79-.69,2.84-1.77,2.89-3.72Z"/><path class="cls-8" d="M297.27,322.58c-4,2.69-7.77-.19-11.51-.88-4.88-.9-9.15-2-12.51,3.37-2,3.23-1.76,5.12,1,7.27,1.07.83,3.46,1.17,2.57,3.11-.72,1.56-2.78.75-4.23.76-9.89.06-19.78,0-29.68.05-1.49,0-3.1-.39-4.37.84l-2.36-.11-1.08-.6.84-1.75a168.29,168.29,0,0,0,23.87-40.87c.86,1.68,2.3,2.09,4.11,2.45,5.87,1.2,11.78.77,17.68,1,3.12.13,6.42-1.06,9.36,1a2.72,2.72,0,0,1-.13.49C283.83,313.35,283.83,313.35,297.27,322.58Z"/><path class="cls-5" d="M297.27,322.58c-13.44-9.23-13.44-9.23-6.41-23.89a2.72,2.72,0,0,0,.13-.49c2.65-3.05,4.25-6.74,6.25-10.19a22.83,22.83,0,0,1,11.07-4.25c0,2.94,1.77,5.13,3.33,7.34,3.81,5.35,8.23,5,11.45-.82,1.15-2.08,2-4.34,2.93-6.52,7.36-.38,11.38,3.95,14,10.06.79,1.82.88,4,3.43,4.44-.58,3.47,2.06,5.61,3.59,8.1,1.82,2.95,1.6,5.31-.62,7.77-2.74,3-5.56,5.92-9.22,7.84l-3.94,1.87a16.74,16.74,0,0,1,1.82-8.31c8.39-4.45,6-7.28-2.25-15-.84,3.48-1.63,6.72-2.43,10-8.93.43-17.86,1.31-26.83.68-.53-3.47-1.41-6.79-3.83-9.63-7.3,10.07-7.3,10.07-.72,15.31,1.57,2.19,1.32,4.78,1.6,7.26Z"/><path class="cls-10" d="M280.35,64.28a47.43,47.43,0,0,0,1.29-17.09c-.7-7.62,1.83-14.64,3.22-21.89,4.7,3.94,10.75,5.84,15.29,10,1.38,1.78,1.14,3.86,1.14,5.91,0,7.7.07,15.4,0,23.09-.06,4,1.33,6,5.71,5.77,5.29-.26,10.6,0,15.9,0,.4,4.15-3.47,7.11-3.15,11.24-1.45.23-2.58.6-.92,2.15v2.72l-.3.41-10.06-.27c-.65-.9-1.31-.94-2,0l-5.18.16-1-.06h0c-4.11-7.85-10.94-13.28-17.18-19.22C282.1,66.3,280.83,65.67,280.35,64.28Z"/><path class="cls-11" d="M433.8,124.42c.23,2,0,4.45,3.31,3.65,2-.48,2.26,1.25,2.68,2.39a6.23,6.23,0,0,0,6.6,4.48c-2.22,6.36-7.14,10.68-11.78,15.08-9.94,9.39-21.95,14.83-35.27,17.54a12.57,12.57,0,0,1-2.53,0,18.68,18.68,0,0,1-7.33-7.63c-1.62-3-2-7.94-7-8.54,15.93.63,30-3.83,41.75-15C428.05,132.86,430.57,128.38,433.8,124.42Z"/><path class="cls-4" d="M322.88,70.14c-5.31,0-10.62-.31-15.91,0-4.38.22-5.77-1.76-5.71-5.77.1-7.69,0-15.39,0-23.09,0-2,.24-4.13-1.14-5.91,2.17-2.55,1-5.59,1-8.38,0-3.66,1.25-5.28,5.08-5.26q29.53.13,59.06,0c3.54,0,4.87,1.45,4.85,4.92-.09,12.84-.12,25.68,0,38.51,0,3.89-1.64,5.06-5.29,5-8.38-.15-16.77,0-25.16,0l-8.72.07Zm12.57-7.38c9.08,0,18.15-.1,27.22.05,3.23.06,4.59-.83,4.53-4.31-.19-9.75-.16-19.51,0-29.26.05-3.22-.79-4.57-4.29-4.54-18.14.14-36.29.11-54.43,0-3,0-4.29.8-4.24,4,.16,9.92.19,19.85,0,29.77-.07,3.51,1.3,4.35,4.52,4.29C317.65,62.65,326.55,62.76,335.45,62.76Z"/><path class="cls-1" d="M23.75,334.15c-4.78,0-9.57.06-14.34,0-6.78-.08-10.51-4.42-9.12-11a37.79,37.79,0,0,0,.11-12.6c-.94-7.8,1.49-12.16,10-12.31,4.78-.08,9.57,0,14.35,0-2.76,4-4,8.47-2.87,13.25.62,2.52,1.32,5.1.64,7.48A21.38,21.38,0,0,0,23.75,334.15Z"/><path class="cls-5" d="M49.4,297.1l7.18-.17c1.75.94,2.47,2.59,3.31,4.31C65,311.68,64.55,323.79,70,334.09l-23.57.06c.3-8.34,1.32-16.65,1.05-25A34.31,34.31,0,0,1,49.4,297.1Z"/><path class="cls-5" d="M23.75,334.15a21.38,21.38,0,0,1-1.22-15.22c.68-2.38,0-5-.64-7.48-1.17-4.78.11-9.22,2.87-13.25l13.91,0c.88,11.91-.06,23.91,1.86,35.76Z"/><path class="cls-8" d="M216.24,337.11a5.1,5.1,0,0,0,1.59-5.05c-1.37-8.9-1.45-18-3.75-26.73,1.5-1,3.25-.69,4.86-1.05,6.86-1.52,13.67-.18,20.5.05-2.74,7.36-5.5,14.71-8.19,22.09-.69,1.87-1.95,3.64-1.38,5.82-.15.66-.3,1.32-.44,2-1.69.38-1.83,2.36-3.19,3.09Z"/><path class="cls-8" d="M382.52,151.41c4.94.6,5.34,5.56,7,8.54a18.68,18.68,0,0,0,7.33,7.63c-10.64,2.2-21,.76-31.1-2.74-.52-.43-1.53-.9-1.5-1.27.82-8-2.41-15.34-3.09-23-.38-4.32-3.45-8.33-1.54-12.85,1,4.79,2.32,9.54,3,14.39a5.56,5.56,0,0,0,4.1,5.05C371.81,149.05,376.89,151.23,382.52,151.41Z"/><path class="cls-12" d="M70,334.09c-5.46-10.3-5.05-22.41-10.12-32.85-.84-1.72-1.56-3.37-3.31-4.31l13.16-4c.15,1.74.29,3.48.44,5.22a19,19,0,0,0,1.62,10.35c.24,1.21,0,2.56,1,3.54L73,313.6a24.33,24.33,0,0,0,1.83,8.67c.18,5.13,1.58,10,2.71,15a47.58,47.58,0,0,0,4.8,15.1c-3.63,1-5.59-.36-6.47-4.05-.39-1.62.08-3.74-1.82-4.85C73.57,340,71.59,337.12,70,334.09Z"/><path class="cls-12" d="M56.6,219.8c-.18,2,1.48,4.93-1.13,5.92s-4.16-1.7-5.77-3.36A25.56,25.56,0,0,1,47.33,219c1.29-3.2,3-6.12-2.75-7.1-3.76-.64-5.17-6.46-2.17-8.6,2.65-1.88,3.08-4.76,4.88-6.91l.05-.05,1-1c7.3-2.45,10.31-1.73,13.12,3.11,2.25,3.86.28,14-3.65,17.29C56.34,217.07,55.15,217.87,56.6,219.8Z"/><path class="cls-12" d="M326,283.76c-1,2.18-1.78,4.44-2.93,6.52-3.22,5.86-7.64,6.17-11.45.82-1.56-2.21-3.31-4.4-3.33-7.34,2.8-1.73,5.86-3.56,3.95-7.49-1.45-3-1.71-6.2-2.65-9.27,2.77.09,1.71-3.67,4.75-4.2,4.68-.81,8,.1,10.52,4,.44,3-1.73,5.77-1,8.84l.06,0-1.38.44,1.09.9C323.32,279.57,323.85,282,326,283.76Z"/><path class="cls-12" d="M40.53,333.93c-1.92-11.85-1-23.85-1.86-35.76,0-.36,0-.72,0-1.09a.87.87,0,0,0,.28-.79c3.5.12,7.07-.62,10.46.81a34.31,34.31,0,0,0-1.91,12c.27,8.38-.75,16.69-1.05,25-1.9,6.28-.57,12.19,2,18-2.54,1.37-4,.14-5.12-2.07-1.22-2.46-1.12-5.14-1.32-7.77Z"/><path class="cls-8" d="M77.54,337.27c-1.13-5-2.53-9.87-2.71-15,.1-1.19.19-2.38.29-3.57,6.6,3.27,13.68,1.79,20.58,2.08l-.24,16.42Z"/><path class="cls-8" d="M120.64,319.82c1.29,5.77.58,11.6.57,17.4l-15.29-.06a78.84,78.84,0,0,1,1.86-17.46Z"/><path class="cls-4" d="M76.21,111.14h1.92c-.25,3.67-3,3-5.32,3-11.91,0-23.82,0-35.73,0-4.76,0-9.53,0-14.29-.11-2.64-.07-5.25-.38-2.67-4.05,1.05-1.51.62-3.3.62-5,0-8,0-16,0-24,0-1.64-.51-3.44.9-4.84L22,110c1.12,2,3,1.13,4.59,1.13,16.17.06,32.35,0,48.52,0Z"/><path class="cls-9" d="M42.2,146.13c1.49,7.05-4.06,4.51-7.18,5.26H28.85c-1.55.3-4.1-1.61-4.21,1.89-.33,1.88-1.21,2.13-2.81,1.15-3-1.85-6.17-3.58-9.6-5.55,2.94-3,6.51-4.24,9.61-6.18s2.24,1.12,2.82,2.35c5.05,2.06,10.29.56,15.44.79Z"/><path class="cls-9" d="M39.07,161.53c2.44,1.56,3,2.93-.15,4.46a61.94,61.94,0,0,0-6,3.71l-2.43.54c-1.27-6.31-6.27-3-9.68-3.65a29.26,29.26,0,0,0-6.14-.06c-1.85.05-2.9-.6-2.92-2.62s1-2.61,2.91-2.58c3.76.06,7.52,0,11.28,0,1,0,2.78.16,2.94-.25,2.92-7.45,5.9-.3,8.8-.08A5.93,5.93,0,0,1,39.07,161.53Z"/><path class="cls-4" d="M37.08,117.25l51.6.21,0,2H10v-2.2Z"/><path class="cls-13" d="M330.92,347.56c1.07-1.25,2.53-1.12,3.95-1.13,4.07.26,8.25-.58,12.18,1.09,2.24,1,4.83,2.3,4.15,5-.64,2.51-3.66,2.69-5.69,2-5.15-1.62-10.66.16-15.68-2A6,6,0,0,0,330.92,347.56Z"/><path class="cls-13" d="M301.09,345.71l4.39.81c-.19,2.12-.26,4.22.95,6.12-5.28,2-10.94.79-16.34,2a2.56,2.56,0,0,1-3.16-2.53,4,4,0,0,1,3.34-4.43C293.84,346.86,297.48,346.34,301.09,345.71Z"/><path class="cls-3" d="M226.24,337.31c1.36-.73,1.5-2.71,3.19-3.09,1.84.87,3.57,2,5.7,2.17l1.08.6c-1.68,2.45.7,4,1.36,5.94s1.64,3.55.06,5.19-3.48.48-5.24.07C226.36,346.81,227.48,341.39,226.24,337.31Z"/><path class="cls-14" d="M399.91,182.85c1.6,5.73,1.15,6.38-4.52,6.44-3.43,0-6.89-.28-10.27.08-5.25.55-6.86-1.63-5.7-6.48Z"/><path class="cls-10" d="M57.59,74q6.84.07,13.69.17c1.65,0,3.53-.36,4,2l-1.34.1H22.86l-.15-1.22c2.08-1.77,4.56-.84,6.84-.88C38.89,74,48.24,74.06,57.59,74Z"/><path class="cls-10" d="M331,70.13l8.72-.07c-.49,3.8.4,7.51.72,11.26h-8.41C332.08,77.55,332.47,73.76,331,70.13Z"/><path class="cls-9" d="M133.7,337.1c1.63-1.42,3.6-.83,5.42-.83q31.84-.06,63.68,0c2.33,0,5.11.63,5-3.19.67,1.35,1.33,2.71,2,4.06Z"/><path class="cls-13" d="M399.91,182.85l-20.49,0c-.22-2.28,1-2.94,3.07-2.91,4.77.07,9.53.06,14.29,0C398.83,180,400.1,180.55,399.91,182.85Z"/><path class="cls-3" d="M42,342.27c.2,2.63.1,5.31,1.32,7.77,1.09,2.21,2.58,3.44,5.12,2.07,1.67.82,3.29,2.4,1.77,3.82-1.88,1.75-4.7.89-6.64-.5C39.74,352.68,39.2,346.87,42,342.27Z"/><path class="cls-3" d="M74.05,343.47c1.9,1.11,1.43,3.23,1.82,4.85.88,3.69,2.84,5.05,6.47,4.05.75,1.27,3.07,2.8.53,3.93-2.28,1-5.32.74-6.83-1.65C73.94,351.31,72.05,347.66,74.05,343.47Z"/><path class="cls-14" d="M374.82,195.62c-2-1.05-6.11,1.55-6.1-2.34,0-3.33,3.84-1.81,5.88-1.76,2.52,0,7-1.83,6.9,2.5C381.41,196.9,377.12,194.67,374.82,195.62Z"/><path class="cls-7" d="M344,88.54l-25.24.16-11.23-.23c3.67-2,7.61-.55,11.4-.91l24.49-.06a3.76,3.76,0,0,1,.75,0C344.08,87.85,344,88.19,344,88.54Z"/><path class="cls-7" d="M332.06,81.31h8.41l1.93,1c-.1.44-.2.87-.29,1.31l-23.31-.09c-1.66-1.55-.53-1.92.92-2.15A16.56,16.56,0,0,0,332.06,81.31Z"/><path class="cls-12" d="M344,88.54c0-.35.11-.69.17-1h35.2c0,.41,0,.82,0,1.23h-34Z"/><path class="cls-12" d="M306.43,352.64c-1.21-1.9-1.14-4-.95-6.12,7-3,4.15,3.12,5.23,5.61Z"/><path class="cls-9" d="M22.71,75.07l.15,1.22q0,16.35,0,32.71L22,110l-.3-33.72Z"/><path class="cls-4" d="M342.11,83.62c.09-.44.19-.87.29-1.31a13.66,13.66,0,0,1,11.06.45c-3.46,1-7.28.17-10.21,2.8l-.91-.12Z"/><path class="cls-9" d="M342.34,85.44l.91.12c.05.65.09,1.3.14,1.94l-24.49.06a2.29,2.29,0,0,1-.4-.9l.3-.41C326.65,86,334.55,87.53,342.34,85.44Z"/><path class="cls-12" d="M330.92,347.56a6,6,0,0,1-1.09,5,6.26,6.26,0,0,1-4.87-2.08A5.65,5.65,0,0,1,330.92,347.56Z"/><path class="cls-10" d="M356.76,119.37c-2.74-3.25-3.37-7.27-4.14-11.24C356.08,111.11,356.85,115.08,356.76,119.37Z"/><path class="cls-13" d="M376.08,172.1v15h-.55V171.91Z"/><path class="cls-1" d="M40.1,145.84c-5.15-.23-10.39,1.27-15.44-.79C29.8,145.49,35,144.17,40.1,145.84Z"/><path class="cls-1" d="M24.64,153.28c.11-3.5,2.66-1.59,4.21-1.89C28.35,154,26.22,153.06,24.64,153.28Z"/><path class="cls-11" d="M437.9,115.06c.15,2.1-.28,4-2.06,5.33A9.79,9.79,0,0,1,437.9,115.06Z"/><path class="cls-2" d="M323.61,276.9l-1.09-.9,1.38-.44C323.8,276,323.71,276.45,323.61,276.9Z"/><path class="cls-11" d="M447.27,133.85c0-.93.15-1.77,1.19-2.11Z"/><path class="cls-11" d="M435.88,120.33a2.07,2.07,0,0,1-1.09,2.1C435.15,121.73,435.51,121,435.88,120.33Z"/><path class="cls-11" d="M434.83,122.37a2,2,0,0,1-1.08,2.12Z"/><path class="cls-5" d="M38.94,296.29a.87.87,0,0,1-.28.79,1.24,1.24,0,0,1-.48-.78A.7.7,0,0,1,38.94,296.29Z"/><path class="cls-11" d="M446.24,134.9l1.07-1.12C447.2,134.39,447,134.88,446.24,134.9Z"/><path class="cls-12" d="M313.94,351.94l.07,0Z"/><path class="cls-10" d="M309.61,267c.94,3.07,1.2,6.28,2.65,9.27,1.91,3.93-1.15,5.76-3.95,7.49A22.83,22.83,0,0,0,297.24,288c-1.47-1.72-3.47-1-5.28-1.1-10.73-.6-21.38.94-32.09,1.13a8.16,8.16,0,0,1-1.8-4.26c6.43-3.67,13.13-6.94,18.49-12.23,4.54,0,9.09,0,13.64-.12,1.55,0,3.78.54,3.68-2.12s-2.3-1.86-3.85-2c-1.84-.19-3.67-.33-5.51-.48.05-2.38,1.94-3.36,3.47-4.65,2-1.72,4.33-3.23,5.25-5.94,12.73-12.38,21.16-27.48,27.52-43.86.92-2.37,1.94-4.7,2.91-7.05,1.74,5.43-3.24,9.71-2.32,15.23,1.63,9.77-1.26,19.93,2.3,29.65.67,1.82.2,4.05.26,6.1-1.34-.12-2.69-.14-4-.36-9.42-1.54-10.85-.3-10.38,9.06C309.56,265.66,309.58,266.33,309.61,267Z"/><path class="cls-14" d="M254.9,279.62l-3.7.28H238.7a30.88,30.88,0,0,1,9.33-4.23c3.24-.93,4.56-2.35,3.14-5.91-1.76-4.4-3.55-1-5.41-.36-5.61,2-9.93,7.68-16.86,6,3.78-4.37,2.22-9,.68-14.16-1.88,2.49-2.91,5.09-5.49,6.19L219,265.25c.08-.64.17-1.28.25-1.91l1.79-1.4c4.3-2.73,2.74-7.11,3.07-11,.07-.37.14-.74.2-1.11a3.68,3.68,0,0,0,1.33-3.08c.38-2.35,1.71-4.51,1.4-7a11.8,11.8,0,0,0,4.34-4.31l6.06-1.28c0,2.68-2.76,5.86.53,7.88,2.28,1.39,5.06.91,7.66-.64s4.44-4.08,6.57-6.2l5.53,1.5c.11,2,2.14,2.09,3.23,3.12q1.19,5.55,2.36,11.1l-.06,15.93q-1.42,2.27-2.84,4.53C254.08,271.13,255,275.71,254.9,279.62ZM252,249.36c.07,3.76-.62,6.93,2,10.35C253.92,255.9,254.44,252.75,252,249.36Z"/><path class="cls-7" d="M273.56,208.64c-3.24,0-6.5.1-9.74,0-3-.1-5.74.06-7.86,2.68-1.05,1.31-2.82,2.32-2.86-.67-.12-8.72,0-17.44,0-26.16,0-2.12,1.36-2.48,3.07-2.47,10.26,0,20.52,0,30.79,0,2.2,0,3,1,3,3.09-.05,6.84-.06,13.68,0,20.52,0,2.62-1.39,3.1-3.58,3.07C282.12,208.59,277.84,208.64,273.56,208.64Z"/><path class="cls-5" d="M221,261.94l-1.79,1.4c-1,.26-1.23,1-1.28,1.91l-5.05,5.81c-1.84-9.64-7.95-11.63-16.87-10.38-6.15.86-12.51.17-19.19.17l1.74,5.58c-3.23.68-8.8-2.24-7.77,5-1.82-1.76-3.38-3.91-6.22-4.13l-28.84-.42a1.34,1.34,0,0,0-2-.13,3.79,3.79,0,0,0-.74.25q-.6-6-1.18-11.91l21.73-.34c2.62.39,4.8,1.83,6.86,3.27,2.48,1.73,3.64.53,4.76-1.47,4.63,5.3,7.07,5,9.53-1.14,2.37-.16,2-2,2.24-3.53,2.73,4.27,3.91-2.07,6.19-.91-.54,2.69.14,4.19,3.3,4.14,7.31-.13,14.62,0,21.93,0,1.6,0,3.13-.06,3.44-2.12l5.14,0C221.23,257.48,221.23,257.48,221,261.94Z"/><path class="cls-5" d="M66.78,271.5c-2.16-5.33-2.06-11.08-3.13-16.61,5-.26,7.59-3.56,9.46-7.7a13.59,13.59,0,0,0,4.25-6.71c1.7-2.27,2.45-5.17,4.71-7.06,3.23.31,3.54,3.46,4.73,5.41A39.43,39.43,0,0,0,98.45,251c1.52,1,2.09.53,2.35-1a10,10,0,0,1,1.3,8.22c-7.25.35-14.17,2.33-21.23,3.8-8.47,1.76-8.61,1.11-8.89,9.49Z"/><path class="cls-9" d="M73.11,247.19c-1.87,4.14-4.43,7.44-9.46,7.7-1.85,0-3.71-.17-5.55,0-3,.25-4-1-3.24-3.86l2-4.06A72,72,0,0,0,66,229.39l12.33.21c2.49.05,4.59.49,3.74,3.82-2.26,1.89-3,4.79-4.71,7.06C71.57,240.69,71.25,241.19,73.11,247.19Z"/><path class="cls-5" d="M263.26,266.9l.06-15.93,7.1,0c1.36,0,3.11-.08,3.52,1.39,1.4,5.05,5.3,3.58,8.66,3.61,3.55,0,7.14-1.55,10.63.29-.91,2.71-3.21,4.22-5.24,5.94-1.53,1.29-3.42,2.27-3.47,4.65Z"/><path class="cls-12" d="M252.2,235.25c-2.13,2.12-3.85,4.59-6.57,6.2s-5.38,2-7.66.64c-3.29-2-.53-5.2-.53-7.88l3.45-2.36c-5.74-2.95-6-8.45-6.42-13.92l5-.59c3.89-.43,7.05,1.25,10,3.46C249,225.87,246.39,231.34,252.2,235.25Z"/><path class="cls-12" d="M300.26,86.45c-.66.53-1.39,1.6-1.95,1.51-7.84-1.12-11.34,5-15.9,9.35-2.6,2.47-5.1,5-7.61,7.62-.7.71-1.68,1.55-.88,2.59a3.21,3.21,0,0,0,2.25.78c4.1.09,8.2,0,12.3.08,1.82,0,3.51.35,3.43,2.77s-1.81,2.12-3.32,2.13q-15.39,0-30.77,0c-1.56,0-3.34,0-3.34-2.17s1.83-2.49,3.31-2.15c9,2.08,14.35-3.23,19.54-9.13,1.47-1.66,3.34-3,4.68-4.74,4.63-6,10.29-9.74,18.26-8.63Z"/><path class="cls-13" d="M238.56,140c6.66,0,13.32,0,20,0,1.47,0,3.32-.33,3.46,2s-1.25,3.06-3.22,3.07q-20.76,0-41.52,0c-2,0-3.35-.91-3.21-3.08s2-1.94,3.48-1.94C224.55,139.94,231.55,140,238.56,140Z"/><path class="cls-3" d="M118.8,192.34c1.29,1.87,3.7,3.13,3.28,5.95-1.15,1.08-.74,1.93.4,2.67l.06.39c-1.79.68-2.37-1.9-4.38-1.47.34,5-1.61,8.42-7.18,8.7-.46-.49-.9-1-1.36-1.49-6.49-6.94-6.16-9.05,2.17-13.91A12.38,12.38,0,0,1,118.8,192.34Z"/><path class="cls-10" d="M307.5,88.47l11.23.23c-2.1,8.63-1.18,17.16.9,25.65.44,1.79,1.48,3.48.92,5.45-5.22-10.48-10.09-21.15-17.14-30.6A6.68,6.68,0,0,1,307.5,88.47Z"/><path class="cls-7" d="M126.68,156.23c5.3,0,10.6,0,15.91.1,1.46,0,3.32-.36,3.34,2s-1.81,2.09-3.29,2.1q-17.2,0-34.39,0c-1.52,0-3.34.19-3.23-2.17s2-1.93,3.45-2c5,0,9.92,0,14.88,0Z"/><path class="cls-13" d="M125,113.18c-5.45,0-10.91,0-16.36,0-1.45,0-3.37.38-3.52-1.89s1.71-2.16,3.22-2.17q16.64,0,33.25,0c1.5,0,3.37-.19,3.25,2.13s-2,1.91-3.47,1.92C135.9,113.21,130.44,113.19,125,113.18Z"/><path class="cls-15" d="M177.41,192.29c-5.13,0-10.25,0-15.38,0-1.61,0-3.67.48-3.61-2.28,0-2.43,1.88-2,3.32-2,10.76,0,21.53,0,32.29-.05,1.66,0,3.17,0,3.1,2.27s-1.81,2.07-3.32,2.07C188.34,192.3,182.87,192.29,177.41,192.29Z"/><path class="cls-15" d="M223.19,128.85c-5.47,0-10.93,0-16.4,0-1.47,0-3.25.34-3.34-2s1.57-2.26,3.13-2.26q16.41,0,32.81,0c1.47,0,3.23-.36,3.29,2,.08,2.85-2.05,2.21-3.6,2.23C233.78,128.89,228.49,128.85,223.19,128.85Z"/><path class="cls-3" d="M249.53,220.8c-3-2.21-6.14-3.89-10-3.46l-5,.59c-1.16-3.27-1.34-6.42,2-8.54,2.91-1.85,11.09-1.4,12.58,1C251,213.56,249.67,217.29,249.53,220.8Z"/><path class="cls-4" d="M108,137.82c2.93,2.94,6.67,2.06,10.19,2.12,4.11.07,8.22,0,12.33,0,1.64,0,3.12.17,3.2,2.35.09,2.46-1.48,2.84-3.36,2.71-7-.47-13.89,1.09-20.83,0-1.58-.25-3.65.74-4.52-1.4s.5-3.42,2.39-4.29c.32-.14.34-.92.49-1.41Z"/><path class="cls-14" d="M254.49,67.19c4.77.54,10.46-1.25,15.64,2.17,2.07,1.36,3.86,2.66,3,5.14s-3.24,1.4-4.92,1c-2.38-.5-5.07-.64-6-3.79-.61-2-2.67-1.76-4.37-1.77-4.94,0-9.88,0-14.82,0-1.14,0-2.8.1-2.73-1.49s1.75-1.26,2.87-1.28C246.65,67.16,250.23,67.19,254.49,67.19Z"/><path class="cls-15" d="M259.16,160.46H243.79c-1.63,0-3.17,0-3-2.34.12-2,1.64-1.88,3-1.88q15.63,0,31.26,0c1.43,0,2.74.12,2.76,2.1s-1.24,2.13-2.71,2.12Z"/><path class="cls-15" d="M207.53,109.06,210,109l15.75.11c2.59,2.66,2.24,4.08-1.68,4.08H193.29c-3.62,0-4.19-1.37-1.87-4.08Z"/><path class="cls-13" d="M171.2,145c-3.6,0-7.19,0-10.78,0-1.77,0-3.72-.1-3.83-2.39s1.73-2.65,3.56-2.66h22.59c1.56,0,3.3-.07,3.25,2.21s-1.6,2.82-3.5,2.83Z"/><path class="cls-15" d="M119.39,176.41H107.65c-1.44,0-2.71-.13-2.78-2.08-.09-2.2,1.23-2.45,2.94-2.44q11.49,0,23,0c1.64,0,3.12.13,3.07,2.35s-1.69,2.19-3.23,2.19c-3.74,0-7.49,0-11.23,0Z"/><path class="cls-12" d="M111,208.58c5.57-.28,7.52-3.68,7.18-8.7,2-.43,2.59,2.15,4.38,1.47.59.82,1.17,1.65,1.75,2.48l.27,3.93c-.66,2.9-4.33,4.55-3.38,8.12l-9-.2Q111.59,212.14,111,208.58Z"/><path class="cls-13" d="M202.37,235.52h11.75c1.47,0,2.8.29,2.67,2.21-.1,1.59-1.26,1.84-2.54,1.84q-12.25,0-24.51,0c-1.31,0-2.41-.37-2.43-1.94,0-1.95,1.38-2.09,2.8-2.1C194.2,235.51,198.28,235.52,202.37,235.52Z"/><path class="cls-15" d="M261,239.87c-1.09-1-3.12-1.09-3.23-3.12.71-1.67,2.22-1.32,3.52-1.33,7.51,0,15,0,22.52,0,1.94,0,4.18,0,4.16,2.54,0,2.73-2.51,1.67-3.95,1.7C276.31,239.82,268.64,239.81,261,239.87Z"/><path class="cls-7" d="M211.82,253c-.31,2.06-1.84,2.12-3.44,2.12-7.31,0-14.62-.09-21.93,0-3.16.05-3.84-1.45-3.3-4.14,8,0,16.08,0,24.11,0C209,251,211.23,250.17,211.82,253Z"/><path class="cls-15" d="M181,156.11c1.78,2.57,1.95,4.38-2,4.36-7.53,0-15.05,0-22.58,0-3.73,0-4.1-1.58-2.11-4.34Z"/><path class="cls-7" d="M167.3,113.17c-3.57,0-7.15,0-10.72,0-1.51,0-3.28.18-3.22-2.16,0-2,1.56-2,2.93-2q11.49,0,23,0c1.44,0,2.82.22,2.73,2.16s-1.57,1.94-2.94,2C175.13,113.18,171.22,113.17,167.3,113.17Z"/><path class="cls-7" d="M140.72,188.14h10.79c1.54,0,2.75.38,2.62,2.29-.12,1.64-1.29,1.83-2.55,1.83q-11.31,0-22.62,0c-1.31,0-2.36-.4-2.37-2s1-2.07,2.31-2.08c3.94,0,7.88,0,11.82,0Z"/><path class="cls-9" d="M195.24,53.59c3.45-2.06,5.46-3.3,7.51-4.47.56-.32,1.69-.73,1.81-.56,3.18,4.38,7.8,1.68,11.68,2.42,1.4.27,2.85.28,2.71,2.23-.15,2.12-1.88,1.59-3.12,1.63-2.89.11-7-1.14-8.48.32C202.18,60.32,200.22,53.92,195.24,53.59Z"/><path class="cls-11" d="M200.49,144.89c-2.39,0-4.78,0-7.16,0-1.64,0-2.61-.58-2.55-2.36a2.24,2.24,0,0,1,2.59-2.43q7.42,0,14.83,0c1.63,0,2.57.67,2.57,2.4s-1,2.36-2.62,2.36Z"/><path class="cls-7" d="M138.62,224.27a8.41,8.41,0,0,1-3.07-4.05c7-1.94,14.23.91,21.3-.76,1.44-.33,2.53.83,2.5,2.54,0,1.91-1.35,2.09-2.82,2.11Z"/><path class="cls-12" d="M274.68,145c-2.22,0-4.43,0-6.65,0-1.35,0-2.37-.48-2.37-2s.57-2.8,2.26-2.83c4.95-.09,9.9-.07,14.84,0,1.48,0,2,1,2.07,2.38a2.18,2.18,0,0,1-2.47,2.52Z"/><path class="cls-9" d="M218.69,63.75c-2.18,2.86-4.59,3.48-6.56,4.73a3.8,3.8,0,0,1-1.83.54c-2.65-5.23-7.26-1.61-10.86-2.43-1.47-.33-3.27,0-3.14-2.33.13-2.13,1.85-1.58,3.08-1.62,3.06-.1,7.37,1.18,9-.36C213.46,57.26,214.81,63.92,218.69,63.75Z"/><path class="cls-15" d="M167,128.83c-2.91,0-5.82,0-8.72,0-1.37,0-2.83.08-2.92-1.95-.11-2.31,1.45-2.34,3.06-2.34,6,0,12,0,18,0,1.55,0,2.65.31,2.62,2.24s-1.35,2.06-2.76,2.06Z"/><path class="cls-12" d="M223.33,160.53H214.6c-1.58,0-2.68-.56-2.56-2.39.1-1.57,1.23-1.93,2.51-1.93q8.73,0,17.46,0c1.38,0,2.27.6,2.29,2.13s-.87,2.15-2.24,2.17C229.15,160.55,226.24,160.53,223.33,160.53Z"/><path class="cls-15" d="M178.08,224.19h-9.23c-1.39,0-2.23-.52-2.26-2.08s.75-2.12,2.18-2.12c6.15,0,12.31,0,18.47,0,1.34,0,2.29.46,2.3,2s-.82,2.14-2.23,2.14C184.24,224.2,181.16,224.19,178.08,224.19Z"/><path class="cls-12" d="M164.79,176.76c-1.88,0-3.77,0-5.65,0-1.64,0-2.57-.69-2.59-2.42A2.2,2.2,0,0,1,159,171.8c4.1,0,8.21,0,12.31,0,1.71,0,2.41,1,2.35,2.66s-1.17,2.3-2.73,2.3Z"/><path class="cls-12" d="M205.85,224.25c-2.73,0-5.47,0-8.2,0-1.36,0-2.28-.56-2.31-2.1s.84-2.17,2.22-2.18c5.64,0,11.29,0,16.93,0,1.59,0,2.66.53,2.53,2.37-.11,1.56-1.11,2-2.44,2h-8.73Z"/><path class="cls-15" d="M115,124.55c2.72,0,5.44,0,8.16,0,1.7,0,2.46.75,2.39,2.47s-1.23,1.81-2.47,1.81q-8.16,0-16.32,0c-1.28,0-2.36-.3-2.44-1.91-.08-1.81.9-2.37,2.52-2.36C109.55,124.57,112.27,124.55,115,124.55Z"/><path class="cls-15" d="M169.19,203.8c2.2,0,4.4,0,6.6,0,1.48,0,2.05.9,2.05,2.3s-.81,2.09-2.22,2.09l-12.19,0c-1.54,0-2.6-.5-2.57-2.33s1.29-2.12,2.74-2.12h5.59Z"/><path class="cls-15" d="M118.8,192.34a12.38,12.38,0,0,0-7,.84c-1.43-1.31-3.21-.85-4.88-.89s-2.06-.83-2.07-2.25.55-2.23,2.09-2.22c4.09,0,8.17,0,12.26,0,1.34,0,2.85,0,3,2C122.4,192.44,120.54,192.31,118.8,192.34Z"/><path class="cls-15" d="M257,128.81h-7.17a1.89,1.89,0,0,1-2.17-2.17c0-1.57.9-2.07,2.27-2.08,4.6,0,9.21,0,13.82,0,1.32,0,2.32.36,2.43,1.93.15,1.9-1,2.33-2.53,2.34Z"/><path class="cls-13" d="M148.65,239.69a9.17,9.17,0,0,1-2.68-4.15c5.42,0,10.84,0,16.27,0,1.53,0,3.29-.08,3.15,2.21-.11,1.93-1.67,1.83-3,1.85C157.8,239.64,153.22,239.66,148.65,239.69Z"/><path class="cls-12" d="M145.1,145.25c-2.26-1.34-6.91,1.86-6.8-2.83.09-4.4,4.52-2.27,6.92-2.26s6.86-2.2,6.79,2.41S147.38,143.9,145.1,145.25Z"/><path class="cls-12" d="M148.23,203.4c2.21,1.22,6.57-1.79,6.67,2.44.1,4.55-4.4,2.65-6.85,2.61s-6.93,2.15-6.83-2.42C141.32,201.61,145.88,204.64,148.23,203.4Z"/><path class="cls-9" d="M225.74,109.11,210,109c-1.17-4.22-5.17-6.08-7.7-9.17-2.25-2.75-5.44-4.65-7.19-7.87a3.62,3.62,0,0,1,.36-.42c4.79,3.29,8.58,7.68,12.39,12,3.56,4,7.47,6.07,12.87,5.29A23.15,23.15,0,0,1,225.74,109.11Z"/><path class="cls-13" d="M196.62,160.69c-2-1.14-6.09,1.6-6-2.46.09-3.27,3.84-1.84,5.84-1.71,2.33.15,6.61-2,6.68,1.84C203.22,162.44,198.79,159.44,196.62,160.69Z"/><path class="cls-7" d="M191.14,124.55c.84,0,1.69-.06,2.53,0,1.55.15,3.78-.51,3.67,2.16s-2.31,1.9-3.85,2c-2.19.1-4.38,0-6.58,0-1.44,0-2.75-.26-2.69-2.16s1.5-2,2.87-2S189.79,124.55,191.14,124.55Z"/><path class="cls-13" d="M241.4,108.87c2,1.14,6.09-1.6,6,2.45-.07,3.28-3.83,1.86-5.83,1.73-2.33-.15-6.62,2-6.69-1.84C234.8,107.11,239.23,110.12,241.4,108.87Z"/><path class="cls-9" d="M179.62,76.48c-2-1.25-4.17-1.23-6.4-1.23q-19.23.06-38.44,0h-6.14c1.77-1.82,3.31-1.23,4.65-1.24q20.51-.08,41,0c2.13,0,4.59-.67,5.73,2.11Z"/><path class="cls-10" d="M327.91,148.14a13.3,13.3,0,0,1,2.09,7.62c.08,8,.05,15.93,0,23.9,0,2.39-.39,4.7-2.16,6.53A186.82,186.82,0,0,0,327.91,148.14Z"/><path class="cls-13" d="M145.31,171.81c.85,0,1.69,0,2.54,0,1.53.05,3.26-.06,3.14,2.22-.09,1.93-1.65,1.82-3,1.85q-3,0-6.08,0c-1.38,0-2.83,0-2.9-2s1.33-2.07,2.75-2.11C143,171.8,144.13,171.82,145.31,171.81Z"/><path class="cls-13" d="M124.56,207.76l-.27-3.93c2.52-.06,5-.19,7.56-.14,1.56,0,3.8-.53,3.67,2.12s-2.36,1.85-3.89,1.92C129.27,207.84,126.92,207.76,124.56,207.76Z"/><path class="cls-13" d="M221,261.94c.19-4.46.19-4.46-4.08-8.94,1.51-3.76,4.74-1.45,7.15-2C223.78,254.83,225.34,259.21,221,261.94Z"/><path class="cls-9" d="M195.1,92a100.77,100.77,0,0,1-15.48-15.49,4.12,4.12,0,0,0,.4-.33,103.6,103.6,0,0,1,15.44,15.4A3.62,3.62,0,0,0,195.1,92Z"/><path class="cls-12" d="M146,129.43c-1.81,0-3.62-.17-3.72-2.51-.14-3,2.24-2.43,4-2.45s3.72-.4,3.73,2.23S147.87,129.35,146,129.43Z"/><path class="cls-12" d="M175.92,235.31c1.57.24,3.78-.56,3.89,2,.14,3-2.22,2.43-4,2.36s-4.16.82-4.1-2.2S174.33,235.66,175.92,235.31Z"/><path class="cls-15" d="M134.12,128.85c-1.4-.18-3.29.42-3.41-2-.14-2.76,1.94-2.3,3.57-2.32,1.46,0,3.31-.42,3.43,2C137.86,129.26,135.76,128.71,134.12,128.85Z"/><path class="cls-9" d="M177,251.9c-.21,1.51.13,3.37-2.24,3.52-2.12-2.77-5.18-2.59-8.18-2.57,0-.5-.09-1-.13-1.51C170,251.13,173.53,250,177,251.9Z"/><path class="cls-10" d="M327.74,187.75c1.38,5.64-1.85,10.64-2.29,16,0,.33-1.1.58-1.69.87C324.82,199,325.8,193.24,327.74,187.75Z"/><path class="cls-5" d="M181,156.11l-26.69,0A90.1,90.1,0,0,1,181,156.11Z"/><path class="cls-12" d="M307.5,88.47a6.68,6.68,0,0,0-4.09.73c-.93-.73-2.3-1.1-2.14-2.69l5.17-.16,2,0,10.06.27a2.29,2.29,0,0,0,.4.9C315.11,87.92,311.17,86.42,307.5,88.47Z"/><path class="cls-12" d="M231.38,235.49A11.8,11.8,0,0,1,227,239.8c-1.54-.06-2.56-.73-2.45-2.4s1.46-2,2.85-2S230.07,235.45,231.38,235.49Z"/><path class="cls-9" d="M207.53,109.06l-16.11,0A72.92,72.92,0,0,1,207.53,109.06Z"/><path class="cls-10" d="M325.79,136.83c4.11,2.5,1.67,6.36,2,9.65A25.39,25.39,0,0,1,325.79,136.83Z"/><path class="cls-4" d="M126.68,156.23l-3.33.09,0-2.95.15-.15Z"/><path class="cls-12" d="M122.48,201c-1.14-.74-1.55-1.59-.4-2.67C123.07,199.05,123.34,199.92,122.48,201Z"/><path class="cls-13" d="M225.64,246.79a3.68,3.68,0,0,1-1.33,3.08C224.16,248.59,224.05,247.33,225.64,246.79Z"/><path class="cls-4" d="M94.67,124.47a3.56,3.56,0,0,1,2.07,2.06l-.11.1a1.82,1.82,0,0,1-2-2.07Z"/><path class="cls-4" d="M98.68,128.71a1.86,1.86,0,0,1-2.05-2.08l.11-.1,2.07,2Z"/><path class="cls-10" d="M323.82,129.66a2,2,0,0,1,.87,2.4A2.57,2.57,0,0,1,323.82,129.66Z"/><path class="cls-4" d="M101.77,131.78l-1.27-.39.38-.55,1,.82Z"/><path class="cls-10" d="M324.79,132.72c1.07.61,1.09,1.56.83,2.59A2.91,2.91,0,0,1,324.79,132.72Z"/><path class="cls-4" d="M120.37,150.16l1,1-.09.1-1-1Z"/><path class="cls-4" d="M98.81,128.57l.41.59-.54-.45Z"/><path class="cls-4" d="M94.58,124.56l-1.07-1,.16-.16,1,1.06Z"/><path class="cls-4" d="M102.81,132.8l-1-1,.12-.12,1,1Z"/><path class="cls-4" d="M123.32,153.37l-1-1.05.1-.11,1,1Z"/><path class="cls-4" d="M92.63,122.4l1,1-.16.16c-.34-.34-.68-.69-1-1Z"/><path class="cls-4" d="M92.5,122.53l-1-1,.13-.13c.35.34.69.68,1,1Z"/><path class="cls-4" d="M118.23,148.2l-.5-.52c.2.14.4.28.59.43Z"/><path class="cls-4" d="M91.47,121.5,91,121l.58.41Z"/><path class="cls-4" d="M121.41,151.19l1,1-.1.11c-.34-.35-.68-.69-1-1Z"/><path class="cls-4" d="M107.93,137.93l-1-1,.13-.13,1,1Z"/><path class="cls-4" d="M234.25,40.36l1.24.76Z"/><path class="cls-4" d="M106.89,136.92l-1-1.06.09-.09,1,1Z"/><path class="cls-4" d="M103.93,133.71l1,1-.09.08-1-1Z"/><path class="cls-4" d="M105,134.76l1,1-.09.09-1-1Z"/><path class="cls-4" d="M103.83,133.81l-1-1,.1-.1,1,1Z"/><path class="cls-16" d="M48.37,195.42l-1,1Z"/><path class="cls-4" d="M119.26,149.23l-1-1,.09-.09c.35.34.69.68,1,1Z"/><path class="cls-4" d="M120.28,150.26l-1-1,.09-.09,1,1Z"/><path class="cls-3" d="M309.61,267c0-.67-.05-1.34-.09-2-.47-9.36,1-10.6,10.38-9.06,1.32.22,2.67.24,4,.36,3.2,3.23.7,7,1,10.48-2.56-3.87-5.84-4.78-10.52-4C311.32,263.33,312.38,267.09,309.61,267Z"/><path class="cls-4" d="M349.64,135.88c-1.77,2.16-1.94,4.91-2.8,7.41l-2.55-.47c-.18-2-1.45-3.85-.74-5.94a1.67,1.67,0,0,0-1.6-2.48c-1.45-.06-2.71.69-2.51,2.44.23,2,.64,4,1,6-2-.38-3.07,1.06-4.29,2.21-1.55-2.83-.35-6-1.19-9l.33-.42a6.6,6.6,0,0,0,3-2.95l0,0c3.76-.05,9-2.21,7.13,5.43,1.86-.51,2.11-2.72,3.93-2.54Z"/><path class="cls-1" d="M336.12,145.07c1.22-1.15,2.29-2.59,4.29-2.21l3.88,0,2.55.47c0,1.24-.07,2.49-.1,3.73-.12.33-.23.66-.35,1a8.25,8.25,0,0,1-9.3.25l-.75-1.22C336.27,146.38,336.2,145.72,336.12,145.07Z"/><path class="cls-4" d="M335.11,119.31c5.09-3.93,8.35-4,13.56-.09l-.38.44a17.51,17.51,0,0,0-12.93-.07Z"/><path class="cls-4" d="M350.72,121.29c2.94,3.27,3.85,6.76,1.22,10.66l-.45-.34a19.53,19.53,0,0,0-1.27-9.89C350.39,121.58,350.56,121.44,350.72,121.29Z"/><path class="cls-4" d="M331.87,131.9a7.48,7.48,0,0,1-.05-7.62l.47.41c0,2.26,0,4.53,0,6.79Z"/><path class="cls-4" d="M351.94,132c-.22,1.63-.67,3.12-2.3,3.93l-.3-.28a5,5,0,0,1,2.15-4Z"/><path class="cls-4" d="M331.82,124.28c.14-1.09.16-2.22,1.23-2.92l.35.3q-.18,1.4-.33,2.79-.4.1-.78.24Z"/><path class="cls-4" d="M334.93,136.11a2.79,2.79,0,0,1-2.08-2.13l.59-.48,1.71,1.29c0,.3.07.6.11.9Z"/><path class="cls-4" d="M332.85,134c-.33-.69-.65-1.39-1-2.09l.44-.41.8.17c.11.38.22.76.32,1.14a1.28,1.28,0,0,0,0,.7Z"/><path class="cls-4" d="M346.39,148c.12-.32.23-.65.35-1a4.79,4.79,0,0,1,.09.84S346.55,148,346.39,148Z"/><path class="cls-4" d="M336.34,147l.75,1.22Z"/><path class="cls-4" d="M349.77,120.17l1,1.12-.49.43c-.31-.36-.61-.72-.92-1.07Z"/><path class="cls-4" d="M333.05,121.36l1-1.08.43.43-1.06,1Z"/><path class="cls-4" d="M348.67,119.22l1.1,1-.46.47-1-1Z"/><path class="cls-4" d="M334,120.28l1.08-1,.25.28-.9,1.12Z"/><path class="cls-11" d="M201.78,310.48q-31.32,0-62.63.07a10.38,10.38,0,0,1-5.46-1c.12-7.61-1.3-15.18-.47-22.81q27.3.14,54.61.25c1.17,0,2.41.12,3.31-.93,1.53,0,3.06-.18,4.59-.09,2.23.13,4,.37,2.67,3.61-1.58,3.88.72,7.65,1.31,11.46C200.2,304.19,201.07,307.32,201.78,310.48Z"/><path class="cls-11" d="M95.7,320.78c-6.9-.29-14,1.19-20.58-2.08-.05-2,.34-4.13-2.12-5.1,0-.53-.11-1.05-.16-1.58L73,288l26.51-.21-3.09,28.92a2.32,2.32,0,0,0-.62,2.34Z"/><path class="cls-4" d="M191.14,286c-.9,1.05-2.14.93-3.31.93q-27.32-.1-54.61-.25c-1.46-5.16,1.58-10.19.45-15.35,9,0,18-.14,27,0,3.17.06,4.4-1,4-4.08,2.84.22,4.4,2.37,6.22,4.13l9.55-.15c1.61,4.13,3.32,8.21,4.81,12.38C186.33,286.88,189,285.62,191.14,286Z"/><path class="cls-4" d="M72,271.51c.28-8.38.42-7.73,8.89-9.49,7.06-1.47,14-3.45,21.23-3.8a60.58,60.58,0,0,1-2.4,15.47,12.33,12.33,0,0,0,.07,7.05H82.86c-1.35,0-3.57-.22-3.69,1-.48,4.59-4.5,3.79-7.06,5.18Z"/><path class="cls-11" d="M120.64,319.82l-12.86-.12c.42-10.47,4.79-20.08,6.62-30.24.17-1,.41-2.2,1.63-2.3,1.61-.13,1.82,1.32,2,2.43,1.58,7.61,3.13,15.23,2.94,23.07a1.11,1.11,0,0,0,0,1.91Z"/><path class="cls-7" d="M72.11,286.93c2.56-1.39,6.58-.59,7.06-5.18.12-1.22,2.34-1,3.69-1H99.77l-.24,7.09L73,288a2.21,2.21,0,0,0-.85,0Z"/><path class="cls-15" d="M164.61,267.32c.41,3.06-.82,4.14-4,4.08-9-.18-18,0-27,0-.21-1.45-.43-2.9-.65-4.34a3.2,3.2,0,0,1,.74-.24l2,.12Z"/><path class="cls-1" d="M131.44,251.08c-1.16-2.43-.74-5-.68-7.55,0-1.39-.66-3.35,1.37-3.94s3.55.12,4.9,1.81c2.76,3.45,5.55,6.89,9.28,9.39Z"/><path class="cls-7" d="M131.44,251.08l14.87-.29a25,25,0,0,1,7.26,4l-21.73.34C131.7,253.76,131.57,252.42,131.44,251.08Z"/><path class="cls-12" d="M166.54,252.85c3,0,6.06-.2,8.18,2.57-2.46,6.16-4.9,6.45-9.53,1.15Z"/><path class="cls-9" d="M133,321c.82,3.74,1.78,7.49-.65,11C132.58,328.31,132.79,324.63,133,321Z"/><path class="cls-8" d="M121,314.57a1.11,1.11,0,0,1,0-1.91Z"/><path class="cls-8" d="M95.82,319.09a2.32,2.32,0,0,1,.62-2.34A2.36,2.36,0,0,1,95.82,319.09Z"/><path class="cls-16" d="M168.64,41.69c0,5.3-.1,10.61,0,15.91.09,2.89-.56,4.43-3.92,4.35-7.7-.18-15.4-.13-23.1,0-2.84,0-3.95-.91-3.92-3.83q.16-16.42,0-32.86c0-2.71,1.09-3.57,3.67-3.54,7.88.1,15.75.15,23.62,0,3.13-.07,3.7,1.4,3.64,4.07C168.55,31.08,168.64,36.38,168.64,41.69Zm-2,3.9c0-3.24-.19-6.49,0-9.71.32-4.46-2.66-4-5.37-3.83s-6.18-1.34-6,3.71c.2,5.79.31,11.61,0,17.39-.28,4.77,1.91,5.59,6.09,5.7,4.39.11,5.77-1.44,5.33-5.59A72.62,72.62,0,0,1,166.59,45.59Zm-20.6,13c4,.19,7.53,1.09,7.48-5.18-.05-6.46-4-4.85-7.41-5-.34,0-.69,0-1,0-3.88-.54-5.16.86-5.36,5C139.43,59,142.31,59.18,146,58.64Zm7.41-28.7c3.41,0,6.82,0,10.23,0,1.8,0,2.94-.58,2.93-2.61s-1.26-2.53-3-2.52q-10.49,0-21,0c-1.58,0-2.59.54-2.66,2.33-.08,2,.85,2.79,2.75,2.77C146.24,29.92,149.82,29.94,153.4,29.94Zm-6.79,1.84c-1.77,1.42-6-1.49-6.11,1.77-.06,2.89,4.16,1.37,6.41,1.41,2,0,5.7,1.5,5.7-1.61C152.6,30.9,148.92,32.59,146.61,31.78Zm.12,5.21c-2.12,1-6.16-1.42-6.2,1.93,0,2.57,4,1.21,6.11,1.2s6,1.49,6-1.36C152.66,35.66,148.73,38,146.73,37Zm.21,8.59c1.89-1,5.66,1.35,5.67-1.93,0-2.41-3.69-1.31-5.64-1.21-2.28.12-6.46-1.48-6.46,1.39C140.51,46.89,144.7,44.63,146.94,45.58Z"/><path class="cls-1" d="M109.4,53.58c-1.87,0-3.74,0-5.61,0-1.44,0-2.82-.2-2.83-2.1a2.64,2.64,0,0,1,2.81-2.93c4.08-.08,8.16,0,12.23,0,1.79,0,2.25,1.19,2.2,2.75A2,2,0,0,1,116,53.53c-2.21,0-4.42,0-6.62,0Z"/><path class="cls-7" d="M74,76.29l1.34-.1c1.68,5,.57,10.06.75,15.09.23,6.61.11,13.24.14,19.86l-1.12,0A2.18,2.18,0,0,0,74,109Q74,92.64,74,76.29Z"/><path class="cls-11" d="M259.87,288c10.71-.19,21.36-1.73,32.09-1.13,1.81.1,3.81-.62,5.28,1.1-2,3.45-3.6,7.14-6.25,10.19-2.94-2-6.24-.84-9.36-1-5.9-.24-11.81.19-17.68-1-1.81-.36-3.25-.77-4.11-2.45Z"/><path class="cls-11" d="M239.44,304.33c-6.83-.23-13.64-1.57-20.5-.05-1.61.36-3.36.09-4.86,1.05-1.11-9.22-1.11-9.22,7.72-11.23,2.64-.6,5.31-1.07,7.92-1.75,4.1-1.06,8-.46,10.8,2.62S240.6,301.28,239.44,304.33Z"/><path class="cls-12" d="M228.9,275.41c6.93,1.67,11.25-4,16.86-6,1.86-.67,3.65-4,5.41.36,1.42,3.56.1,5-3.14,5.91a30.88,30.88,0,0,0-9.33,4.23h12.5c-4.63,1.54-9.43.88-14.12.71-3.72-.14-7.08-.09-9.88,2.71-1.33,1.33-2.69,1.16-4,0-.15-1.55-.3-3.1-.46-4.65C224.71,277.42,226.3,275.44,228.9,275.41Z"/><path class="cls-4" d="M254.9,279.62c.08-3.91-.82-8.49,5.51-8.19l16.15.12c-5.36,5.29-12.06,8.56-18.49,12.23Q256.48,281.71,254.9,279.62Z"/><path class="cls-13" d="M228.9,275.41c-2.6,0-4.19,2-6.17,3.22l-7.08.34-.8-2.36a18.16,18.16,0,0,0,9.24-9.17c2.58-1.1,3.61-3.7,5.49-6.19C231.12,266.45,232.68,271,228.9,275.41Z"/><path class="cls-12" d="M224.09,267.44a18.16,18.16,0,0,1-9.24,9.17,8.47,8.47,0,0,1-1.93-5.56l5.05-5.8h1Z"/><path class="cls-12" d="M180.38,271.3l-9.55.15c-1-7.26,4.54-4.34,7.77-5Z"/><path class="cls-9" d="M215.65,279l7.08-.34.45,4.65C218.08,285.43,217.37,285,215.65,279Z"/><path class="cls-11" d="M195.6,270.29c2.28.41,3.26,2.15,3.41,4.3a2.34,2.34,0,0,1-2.43,2.68c-2.32-.27-3.39-2-3.43-4.32C193.13,271.4,193.68,270.29,195.6,270.29Z"/><path class="cls-12" d="M235.13,336.39c-2.13-.13-3.86-1.3-5.7-2.17.14-.66.29-1.32.44-2,2,.86,4.36.88,6.1,2.4Z"/><path class="cls-1" d="M72.11,286.93l.06,1.08q-.17,5.08-.34,10.17l-1.65-.05c-.15-1.74-.29-3.48-.44-5.22.41-7.33-2.71-14.17-3-21.41H72Q72,279.22,72.11,286.93Z"/><path class="cls-12" d="M56.91,247l-2,4.06c-1-.19-2-.42-3-.58-2.11-.32-3-1.45-2.3-3.53.77-2.26,2.44-2.1,4.1-1.19A6.52,6.52,0,0,0,56.91,247Z"/><path class="cls-3" d="M300.66,324.07c-.28-2.48,0-5.07-1.6-7.26-.14-3.22.86-5.53,4.55-5.68,9,.63,17.9-.25,26.83-.68,4.07-.61,5,1.67,4.68,5.08a16.74,16.74,0,0,0-1.82,8.31c-.05,2-1.1,3-2.89,3.72-3.8,1.48-7.47,3.35-11.34,4.59-4.61,1.49-8.29-1.95-12.43-3C303.83,328.42,301,327.67,300.66,324.07Z"/><path class="cls-2" d="M335.12,315.53c.31-3.41-.61-5.69-4.68-5.08.8-3.24,1.59-6.48,2.43-10C341.11,308.25,343.51,311.08,335.12,315.53Z"/><path class="cls-9" d="M303.61,311.13c-3.69.15-4.69,2.46-4.55,5.68-6.58-5.24-6.58-5.24.72-15.31C302.2,304.34,303.08,307.66,303.61,311.13Z"/><path class="cls-2" d="M332.06,81.31a16.56,16.56,0,0,1-12.34.07c-.32-4.13,3.55-7.09,3.15-11.24H331C332.47,73.76,332.08,77.55,332.06,81.31Z"/><path class="cls-2" d="M342.34,85.44c-7.79,2.09-15.69.58-23.54.81V83.53l23.31.09C342.18,84.23,342.26,84.83,342.34,85.44Z"/><path class="cls-2" d="M308.44,86.39l-2,0C307.13,85.45,307.79,85.49,308.44,86.39Z"/><path class="cls-16" d="M335.45,62.76c-8.9,0-17.8-.11-26.7.06-3.22.06-4.59-.78-4.52-4.29.19-9.92.16-19.85,0-29.77-.05-3.24,1.23-4.06,4.24-4,18.14.09,36.29.12,54.43,0,3.5,0,4.34,1.32,4.29,4.54C367,39,367,48.75,367.2,58.5c.06,3.48-1.3,4.37-4.53,4.31C353.6,62.66,344.53,62.76,335.45,62.76ZM364,47.7V43.08c0-6.95,0-7.1-6.87-6.9-4.37.12-10.18-2.06-12.75,1.06-2.79,3.39-.78,9.2-.86,13.95-.14,8.55,0,8.55,8.42,8.55C364,59.74,364,59.74,364,47.7Zm-28-14.64c7.87,0,15.74,0,23.61,0,1.94,0,4.44.62,4.36-2.7-.07-2.95-2.32-2.45-4.11-2.45q-23.61,0-47.22,0c-1.8,0-4-.49-4.1,2.46-.07,3.33,2.44,2.68,4.37,2.69C320.55,33.09,328.25,33.06,335.94,33.06ZM329.8,59.74c11.31-.18,10.1,1.41,10.62-6.31.35-5.09-1.54-6.65-6.34-6a33.17,33.17,0,0,1-8.15,0c-4.87-.61-6.26,1.14-6.38,6.1-.13,5.42,1.69,7.06,6.68,6.3A23.62,23.62,0,0,1,329.8,59.74Zm-13.14-12.2c0-2.73-.13-5.47,0-8.19.18-3-.68-4.42-4-4.29-3.06.12-5.43.33-5.31,4.33.16,5.12.2,10.25,0,15.36-.16,3.82,1.38,5,5.11,5.1,4.15.11,4.35-2.09,4.19-5.13C316.56,52.33,316.66,49.94,316.66,47.54Zm13.65-5.22c-2.71,0-5.42,0-8.13,0-1,0-2.15.2-2.1,1.57,0,1,.92,1.38,1.81,1.38q8.13,0,16.26,0c.88,0,1.77-.32,1.84-1.34.09-1.39-1-1.6-2.05-1.61C335.4,42.28,332.85,42.31,330.31,42.32Zm-.58-3.17c2.72,0,5.43,0,8.14,0,1.05,0,2.15-.21,2.13-1.57,0-1-.9-1.38-1.78-1.39q-8.14,0-16.28,0c-.88,0-1.77.28-1.86,1.32-.11,1.39,1,1.63,2,1.65C324.65,39.18,327.19,39.15,329.73,39.15Z"/><path class="cls-9" d="M71.83,298.18q.18-5.08.34-10.17a2.42,2.42,0,0,1,.85,0l-.18,24c-1-1-.8-2.33-1-3.54Z"/><path class="cls-13" d="M71.83,298.18l0,10.3a19,19,0,0,1-1.62-10.35Z"/><path class="cls-9" d="M73,313.6c2.46,1,2.07,3.13,2.12,5.1-.1,1.19-.19,2.38-.29,3.57A24.33,24.33,0,0,1,73,313.6Z"/><path class="cls-10" d="M74,109a2.18,2.18,0,0,1,1.13,2.11c-16.17,0-32.35.06-48.52,0C25,111.12,23.1,112,22,110l.84-1Z"/><path class="cls-1" d="M74,109H22.82q0-16.35,0-32.71H74Q74,92.66,74,109ZM72,96.48c0-11.27,0-11.15-10.94-11.07-3.14,0-4.27.89-4.86,4.15-.73,4.1-.4,8.13-.6,12.18-.19,3.84,1.5,5.36,5.51,5.35C72,107.05,72,107.21,72,96.48ZM53.54,96c0-10.78,0-10.78-10.9-10.52a8.68,8.68,0,0,1-1,0c-2.69-.26-3.61,1-3.55,3.61.11,4.77.12,9.53,0,14.3-.06,2.58.86,3.51,3.53,3.67C53.55,107.81,53.55,107.89,53.54,96ZM48.75,83.37h20c1.62,0,3.14-.1,3.23-2.3.08-2-.88-2.77-2.77-2.76q-20,0-40,0c-1.94,0-3.39.76-3.33,3s1.88,2.06,3.39,2.07C35.76,83.39,42.26,83.37,48.75,83.37ZM25.68,99.52c.23,4.09-1.18,7.77,4.67,7.66,4.62-.08,5-2.24,4.65-5.64-.31-3,1.68-6.94-4.34-7C25.83,94.55,25.24,96.71,25.68,99.52Zm4.18-5.85c1.53-.52,4.38,1.1,4.67-1.42S32,90.57,30.59,90.68c-1.79.13-4.8-1.37-5.1,1.38C25.28,94,28.12,93.48,29.86,93.67Zm.43-8.29c-1.79.52-4.85-.86-4.79,2.07,0,2,2.8,1,4.3,1,1.66,0,4.51,1,4.71-1.26C34.76,84.3,31.72,86.09,30.29,85.38Z"/><path class="cls-15" d="M276.56,271.55l-16.15-.12,2.85-4.53,21.26-.09c1.84.15,3.67.29,5.51.48,1.55.16,3.75-.56,3.85,2s-2.13,2.09-3.68,2.12C285.65,271.53,281.1,271.52,276.56,271.55Z"/><path class="cls-12" d="M252,249.36c2.48,3.39,2,6.54,2,10.35C251.34,256.29,252,253.12,252,249.36Z"/><path class="cls-13" d="M219,265.25h-1c.05-.89.29-1.65,1.28-1.91C219.17,264,219.08,264.61,219,265.25Z"/><path class="cls-4" d="M135.77,266.9l-2-.12A1.33,1.33,0,0,1,135.77,266.9Z"/><path class="cls-12" d="M73.11,247.19c-1.86-6-1.54-6.5,4.25-6.71A13.59,13.59,0,0,1,73.11,247.19Z"/><path class="cls-2" d="M334.46,120.71l.9-1.12a17.51,17.51,0,0,1,12.93.07l1,1c.31.35.61.71.92,1.07a19.64,19.64,0,0,1,1.26,9.89,5,5,0,0,0-2.15,4c-1.83-.18-2.08,2-3.94,2.54,1.86-7.64-3.37-5.48-7.13-5.43l-.4-.23.37.26a6.6,6.6,0,0,1-3,2.95c0-.3-.08-.6-.11-.9,0-1.14-.45-1.93-1.72-2-.1-.38-.21-.76-.32-1.14,0-2.4,0-4.8,0-7.2q.15-1.4.33-2.79C333.76,121.35,334.11,121,334.46,120.71Z"/><path class="cls-2" d="M344.29,142.82l-3.88,0c-.33-2-.74-4-1-6-.2-1.75,1.06-2.5,2.51-2.44a1.67,1.67,0,0,1,1.6,2.48C342.84,139,344.11,140.83,344.29,142.82Z"/><path class="cls-11" d="M333.07,124.45c0,2.4,0,4.8,0,7.2l-.8-.17c0-2.26,0-4.53,0-6.79Q332.67,124.56,333.07,124.45Z"/><path class="cls-11" d="M333.43,132.79c1.27.07,1.7.86,1.72,2l-1.71-1.29A1.32,1.32,0,0,1,333.43,132.79Z"/><path class="cls-13" d="M166.59,45.59a72.62,72.62,0,0,0,.06,7.67c.44,4.15-.94,5.7-5.33,5.59-4.18-.11-6.37-.93-6.09-5.7.34-5.78.23-11.6,0-17.39-.17-5,3.41-3.56,6-3.71s5.69-.63,5.37,3.83C166.4,39.1,166.59,42.35,166.59,45.59Z"/><path class="cls-13" d="M146,58.64c-3.68.54-6.56.36-6.31-5.22.2-4.14,1.48-5.54,5.36-5,.33,0,.68,0,1,0,3.45.18,7.36-1.43,7.41,5C153.52,59.73,150,58.83,146,58.64Z"/><path class="cls-13" d="M153.4,29.94c-3.58,0-7.16,0-10.74,0-1.9,0-2.83-.8-2.75-2.77.07-1.79,1.08-2.33,2.66-2.33q10.49,0,21,0c1.75,0,3,.44,3,2.52S165.43,30,163.63,30C160.22,29.92,156.81,29.94,153.4,29.94Z"/><path class="cls-13" d="M146.61,31.78c2.31.81,6-.88,6,1.57,0,3.11-3.71,1.66-5.7,1.61-2.25,0-6.47,1.48-6.41-1.41C140.57,30.29,144.84,33.2,146.61,31.78Z"/><path class="cls-13" d="M146.73,37c2,1,5.93-1.33,5.91,1.77,0,2.85-3.91,1.34-6,1.36s-6.13,1.37-6.11-1.2C140.57,35.57,144.61,38,146.73,37Z"/><path class="cls-13" d="M146.94,45.58c-2.24-.95-6.43,1.31-6.43-1.75,0-2.87,4.18-1.27,6.46-1.39,1.95-.1,5.64-1.2,5.64,1.21C152.6,46.93,148.83,44.56,146.94,45.58Z"/><path class="cls-13" d="M364,47.7c0,12,0,12-12.06,12-8.46,0-8.56,0-8.42-8.55.08-4.75-1.93-10.56.86-13.95,2.57-3.12,8.38-.94,12.75-1.06,6.86-.2,6.87,0,6.87,6.9Z"/><path class="cls-13" d="M335.94,33.06c-7.69,0-15.39,0-23.09,0-1.93,0-4.44.64-4.37-2.69.06-3,2.3-2.46,4.1-2.46q23.61,0,47.22,0c1.79,0,4-.5,4.11,2.45.08,3.32-2.42,2.69-4.36,2.7C351.68,33.09,343.81,33.06,335.94,33.06Z"/><path class="cls-13" d="M329.8,59.74a23.62,23.62,0,0,0-3.57,0c-5,.76-6.81-.88-6.68-6.3.12-5,1.51-6.71,6.38-6.1a33.17,33.17,0,0,0,8.15,0c4.8-.6,6.69,1,6.34,6C339.9,61.15,341.11,59.56,329.8,59.74Z"/><path class="cls-13" d="M316.66,47.54c0,2.4-.1,4.79,0,7.18.16,3,0,5.24-4.19,5.13-3.73-.1-5.27-1.28-5.11-5.1.22-5.11.18-10.24,0-15.36-.12-4,2.25-4.21,5.31-4.33,3.3-.13,4.16,1.33,4,4.29C316.53,42.07,316.66,44.81,316.66,47.54Z"/><path class="cls-13" d="M330.31,42.31c2.54,0,5.09,0,7.63,0,1,0,2.14.22,2.05,1.61-.07,1-1,1.34-1.84,1.34q-8.13,0-16.26,0c-.89,0-1.77-.37-1.81-1.38-.05-1.37,1.06-1.56,2.1-1.57C324.89,42.29,327.6,42.32,330.31,42.31Z"/><path class="cls-13" d="M329.73,39.15c-2.54,0-5.08,0-7.63,0-1.05,0-2.13-.26-2-1.65.09-1,1-1.31,1.86-1.32q8.13,0,16.28,0c.88,0,1.77.37,1.78,1.39,0,1.36-1.08,1.56-2.13,1.57C335.16,39.18,332.45,39.15,329.73,39.15Z"/><path class="cls-13" d="M72,96.48c0,10.73,0,10.57-10.89,10.61-4,0-5.7-1.51-5.51-5.35.2-4-.13-8.08.6-12.18.59-3.26,1.72-4.12,4.86-4.15C72,85.33,72,85.21,72,96.48Z"/><path class="cls-13" d="M53.54,96c0,11.89,0,11.81-11.94,11.06-2.67-.16-3.59-1.09-3.53-3.67.12-4.77.11-9.53,0-14.3-.06-2.58.86-3.87,3.55-3.61a8.68,8.68,0,0,0,1,0C53.54,85.22,53.54,85.22,53.54,96Z"/><path class="cls-13" d="M48.75,83.37c-6.49,0-13,0-19.48,0-1.51,0-3.32.23-3.39-2.07s1.39-3,3.33-3q20,0,40,0c1.89,0,2.85.77,2.77,2.76-.09,2.2-1.61,2.3-3.23,2.3Z"/><path class="cls-13" d="M25.68,99.52c-.44-2.81.15-5,5-5,6,0,4,4,4.34,7,.36,3.4,0,5.56-4.65,5.64C24.5,107.29,25.91,103.61,25.68,99.52Z"/><path class="cls-13" d="M29.86,93.67c-1.74-.19-4.58.36-4.37-1.61.3-2.75,3.31-1.25,5.1-1.38,1.42-.11,4.23-1,3.94,1.57S31.39,93.15,29.86,93.67Z"/><path class="cls-13" d="M30.29,85.38c1.43.71,4.47-1.08,4.22,1.83-.2,2.3-3,1.23-4.71,1.26-1.5,0-4.27,1-4.3-1C25.44,84.52,28.5,85.9,30.29,85.38Z"/><path class="cls-4" d="M338.24,132.74l-.37-.26.4.23Z"/></g></g></svg>