<svg xmlns="http://www.w3.org/2000/svg" xmlns:xlink="http://www.w3.org/1999/xlink" viewBox="0 0 668.65 314.63"><defs><style>.cls-1{fill:none;}.cls-2{isolation:isolate;}.cls-3{fill:#fff;}.cls-4{fill:#ff6e75;}.cls-5{clip-path:url(#clip-path);}.cls-6{fill:#f99678;}.cls-7{fill:#f98764;}.cls-8{fill:#0062a3;}.cls-9{fill:#ffa61a;}.cls-10,.cls-11{fill:#4de5fe;}.cls-11,.cls-13,.cls-15{opacity:0.5;mix-blend-mode:multiply;}.cls-12{fill:#def7f9;}.cls-14,.cls-15{fill:#96efff;}.cls-16{fill:#2f1a43;}.cls-17{fill:#ff8f71;}.cls-18{fill:#ffbe63;}</style><clipPath id="clip-path" transform="translate(82.9 -47.2)"><rect class="cls-1" width="531.41" height="354.27"/></clipPath></defs><g class="cls-2"><g id="Layer_2" data-name="Layer 2"><g id="Layer_1-2" data-name="Layer 1"><path class="cls-3" d="M338.7,100s1.64-11.16-12-13.29c-6.8-1.06-10.87,2.61-13.24,6.54a19.46,19.46,0,0,0-2.26,14,64.6,64.6,0,0,0,13.59,27.64,2.91,2.91,0,0,0,2.81,1c5.79-1.11,24.77-5.56,33-17.46,0,0,9.3-13.91-5.4-22C355.22,96.41,343.76,91.31,338.7,100Z" transform="translate(82.9 -47.2)"/><path class="cls-3" d="M172.05,136s-4.66-4.18-9.8,1.46a6.89,6.89,0,0,0-1,8.12A10.79,10.79,0,0,0,167,150.9a35.69,35.69,0,0,0,16.92,2.17,1.6,1.6,0,0,0,1.34-1c1.26-3,5-13.14,2-20.57,0,0-3.59-8.56-11.82-4.23C175.44,127.28,169.58,131,172.05,136Z" transform="translate(82.9 -47.2)"/><path class="cls-3" d="M145.66,131.27s-2.2-2-4.62.69a3.26,3.26,0,0,0-.49,3.83,5.14,5.14,0,0,0,2.72,2.51,17,17,0,0,0,8,1,.77.77,0,0,0,.63-.47c.59-1.42,2.36-6.2,1-9.7,0,0-1.69-4-5.58-2C147.26,127.15,144.5,128.91,145.66,131.27Z" transform="translate(82.9 -47.2)"/><path class="cls-4" d="M452.3,61.62s.71-5.35-5.8-6.26a5.93,5.93,0,0,0-6.28,3.21,9.31,9.31,0,0,0-1,6.68,30.84,30.84,0,0,0,6.68,13.1,1.39,1.39,0,0,0,1.35.48c2.76-.57,11.79-2.83,15.63-8.57,0,0,4.34-6.71-2.73-10.47C460.17,59.79,454.66,57.44,452.3,61.62Z" transform="translate(82.9 -47.2)"/><path class="cls-4" d="M52.61,218.77s-2.64-4.7-8.4-1.52a5.93,5.93,0,0,0-3.09,6.33,9.3,9.3,0,0,0,3.24,5.94A30.76,30.76,0,0,0,57.56,236a1.41,1.41,0,0,0,1.37-.43c1.86-2.11,7.72-9.34,7.34-16.23,0,0-.55-8-8.46-6.73C57.81,212.59,52,214,52.61,218.77Z" transform="translate(82.9 -47.2)"/><path class="cls-4" d="M46.24,78.47s-2.65-4.69-8.4-1.52a5.92,5.92,0,0,0-3.09,6.34A9.31,9.31,0,0,0,38,89.23a30.82,30.82,0,0,0,13.2,6.46,1.42,1.42,0,0,0,1.37-.43c1.86-2.11,7.72-9.34,7.35-16.24,0,0-.55-8-8.47-6.72C51.43,72.3,45.61,73.72,46.24,78.47Z" transform="translate(82.9 -47.2)"/><path class="cls-4" d="M68.29,58.68s-1.76-3.13-5.59-1a4,4,0,0,0-2.05,4.21,6.17,6.17,0,0,0,2.15,3.95,20.4,20.4,0,0,0,8.78,4.3.93.93,0,0,0,.91-.28c1.24-1.41,5.14-6.22,4.89-10.8,0,0-.37-5.31-5.63-4.48C71.75,54.57,67.88,55.52,68.29,58.68Z" transform="translate(82.9 -47.2)"/><path class="cls-4" d="M492.85,221.49s1.09-3.42-3.07-4.78a3.94,3.94,0,0,0-4.49,1.36,6.17,6.17,0,0,0-1.42,4.27,20.31,20.31,0,0,0,2.83,9.36.94.94,0,0,0,.83.47c1.87,0,8.05-.47,11.24-3.78,0,0,3.63-3.88-.56-7.17C498.21,221.22,494.88,219,492.85,221.49Z" transform="translate(82.9 -47.2)"/><g class="cls-5"><path class="cls-6" d="M99,126.37c.75-.53,2.18-1.88.9-6s-14-3.23-14.65-4.43,2.48-4.21,5-11-2.94-13.45-5-12.63-3.91,12.1-8.94,14.73c-3.71,1.94-9.14,8.41-11.73,11.67C48,116.78-42.79,105.38-80.09,85.35c0,0-8,38.09,3,50.51,10.64,12,126.28,14.32,147.72,9.78,4.92,1.56,16.09,1.82,20.94,1.32,5-.53,4.88-5.64,4.88-5.64,3.61-1.43,2.63-7.51,2.63-7.51C101.59,130.8,99,126.37,99,126.37Z" transform="translate(82.9 -47.2)"/><path class="cls-7" d="M98.21,126.13a20.11,20.11,0,0,1-5.78.9,21.89,21.89,0,0,1-5.85-.7,5.57,5.57,0,0,1-2.7-1.55,3.65,3.65,0,0,1-.77-1.44,2.66,2.66,0,0,1,.11-1.65,3.53,3.53,0,0,1,2.28-2,6.67,6.67,0,0,1,2.94-.16,8,8,0,0,0-2.78.57,3.13,3.13,0,0,0-1.78,1.86,2.3,2.3,0,0,0,.64,2.28,4.83,4.83,0,0,0,2.3,1.25,28,28,0,0,0,5.63.87A34.76,34.76,0,0,0,98.21,126.13Z" transform="translate(82.9 -47.2)"/><path class="cls-7" d="M96.11,133.64a52,52,0,0,1-5.72-.09,31.54,31.54,0,0,1-5.69-.92A8.9,8.9,0,0,1,82,131.46a3.69,3.69,0,0,1-1.67-2.58,3.31,3.31,0,0,1,1-2.84,3.15,3.15,0,0,1,2.73-.83,3.2,3.2,0,0,0-2.41,1.13,2.91,2.91,0,0,0-.61,2.43,3.11,3.11,0,0,0,1.45,2,8.61,8.61,0,0,0,2.5,1,49.13,49.13,0,0,0,5.53,1.09C92.33,133.12,94.22,133.34,96.11,133.64Z" transform="translate(82.9 -47.2)"/><path class="cls-7" d="M94.8,141.1a28.57,28.57,0,0,1-4.61-.64,35.4,35.4,0,0,1-4.5-1.27,9.24,9.24,0,0,1-2.16-1.07,4.59,4.59,0,0,1-1.6-1.91,2.92,2.92,0,0,1,0-2.47,2.2,2.2,0,0,1,1.92-1.31,2.16,2.16,0,0,0-1.51,1.48,2.51,2.51,0,0,0,.24,2A5.92,5.92,0,0,0,86,138.35c1.43.52,2.9,1,4.36,1.44Z" transform="translate(82.9 -47.2)"/><path class="cls-7" d="M88.67,145.45a11.79,11.79,0,0,1-2.84-.75,6.94,6.94,0,0,1-2.5-1.71,4.45,4.45,0,0,1-1.2-2.86,3.11,3.11,0,0,1,1.25-2.68,3.66,3.66,0,0,0-.55,2.62A4.55,4.55,0,0,0,84,142.39a8.89,8.89,0,0,0,2.14,1.68C87,144.55,87.82,145,88.67,145.45Z" transform="translate(82.9 -47.2)"/><path class="cls-7" d="M71.53,130.82a14.18,14.18,0,0,0,4.84-1.46A12.59,12.59,0,0,0,82.68,122a14.27,14.27,0,0,0,.69-5,10.64,10.64,0,0,1,0,5.2A11.5,11.5,0,0,1,81,126.89,11.64,11.64,0,0,1,76.67,130,10.72,10.72,0,0,1,71.53,130.82Z" transform="translate(82.9 -47.2)"/><path class="cls-6" d="M407.31,274.55c-.82-.4-2.44-1.52-1.81-5.8s13.31-5.34,13.79-6.63-3.09-3.78-6.66-10.07.83-13.74,3-13.25,5.73,11.35,11.11,13.18c4,1.34,10.31,6.9,13.38,9.73,16-4.47,104-29.7,137.78-55.23,0,0,13.77,36.4,4.77,50.37-8.67,13.46-122.57,33.58-144.45,32.39-4.62,2.3-15.63,4.28-20.49,4.53-5.06.25-5.7-4.82-5.7-4.82-3.78-.86-3.75-7-3.75-7C405.4,279.34,407.31,274.55,407.31,274.55Z" transform="translate(82.9 -47.2)"/><path class="cls-7" d="M408,274.21a20.12,20.12,0,0,0,5.85,0,21.85,21.85,0,0,0,5.68-1.59,5.55,5.55,0,0,0,2.42-1.95,3.43,3.43,0,0,0,.54-1.53,2.62,2.62,0,0,0-.36-1.62,3.58,3.58,0,0,0-2.57-1.66,6.71,6.71,0,0,0-2.93.3,8.14,8.14,0,0,1,2.84.13,3.19,3.19,0,0,1,2,1.57,2.29,2.29,0,0,1-.28,2.35,4.78,4.78,0,0,1-2.08,1.59,27.91,27.91,0,0,1-5.43,1.72A34,34,0,0,1,408,274.21Z" transform="translate(82.9 -47.2)"/><path class="cls-7" d="M411.25,281.3a48.87,48.87,0,0,0,5.64-1,31.3,31.3,0,0,0,5.48-1.78A8.78,8.78,0,0,0,424.9,277a3.68,3.68,0,0,0,1.25-2.81,3.3,3.3,0,0,0-1.4-2.65,3.17,3.17,0,0,0-2.83-.4,3.24,3.24,0,0,1,2.56.75,2.91,2.91,0,0,1,1,2.3,3.11,3.11,0,0,1-1.13,2.19,8.36,8.36,0,0,1-2.32,1.37,45.69,45.69,0,0,1-5.29,1.93C414.9,280.21,413.07,280.71,411.25,281.3Z" transform="translate(82.9 -47.2)"/><path class="cls-7" d="M413.7,288.47a28.21,28.21,0,0,0,4.46-1.34,37.62,37.62,0,0,0,4.24-1.94,9.71,9.71,0,0,0,2-1.4,4.63,4.63,0,0,0,1.29-2.13,2.91,2.91,0,0,0-.37-2.45,2.2,2.2,0,0,0-2.09-1,2.16,2.16,0,0,1,1.71,1.23,2.5,2.5,0,0,1,.08,2,5.92,5.92,0,0,1-3,2.94c-1.33.73-2.71,1.41-4.08,2.09Z" transform="translate(82.9 -47.2)"/><path class="cls-7" d="M420.42,291.83a11.89,11.89,0,0,0,2.69-1.18,6.85,6.85,0,0,0,2.21-2.08,4.5,4.5,0,0,0,.75-3,3.12,3.12,0,0,0-1.66-2.45,3.58,3.58,0,0,1,.95,2.51,4.5,4.5,0,0,1-.8,2.46,8.74,8.74,0,0,1-1.85,2C422,290.67,421.18,291.21,420.42,291.83Z" transform="translate(82.9 -47.2)"/><path class="cls-7" d="M435.1,274.73a14.24,14.24,0,0,1-5-.69,13,13,0,0,1-4.31-2.42,12.76,12.76,0,0,1-3-3.9,14.3,14.3,0,0,1-1.45-4.84,10.61,10.61,0,0,0,.81,5.14,11.61,11.61,0,0,0,3.1,4.28,11.5,11.5,0,0,0,4.71,2.41A10.52,10.52,0,0,0,435.1,274.73Z" transform="translate(82.9 -47.2)"/><path class="cls-8" d="M454.5,283.06c-.09,2.25-.22,4-.37,5.32-.5,4.26-1.22,4.43-1.83,4.57a2.32,2.32,0,0,1-.59.07c-2.1,0-4.55-2.41-5.89-3.93.87,0,1.8-.12,2.77-.2a7.51,7.51,0,0,0,2.92,2,11.6,11.6,0,0,0,.43-2.29,115.89,115.89,0,0,0,.54-15,89.56,89.56,0,0,0-1.18-15.13,7.28,7.28,0,0,0-.62-2c-1.15.07-2.84,1.72-4.14,3.4-.89.27-1.73.51-2.5.73l-.42-.26c.66-1.07,4.16-6.35,7.49-6,.61.07,1.49.17,2.24,3.54a59.25,59.25,0,0,1,1,8.41C454.66,271.56,454.72,277.81,454.5,283.06Z" transform="translate(82.9 -47.2)"/><path class="cls-9" d="M450.89,288.7A10.49,10.49,0,0,1,450,292a3.3,3.3,0,0,1-2.8,1.45,4.24,4.24,0,0,1-.92-.1,7.64,7.64,0,0,1-4.86-4.06c.75,0,1.56,0,2.43-.08a5.13,5.13,0,0,0,2.87,2.06,1.3,1.3,0,0,0,1.53-.47,6.68,6.68,0,0,0,.52-1.91c1.07-5.95,1.91-23.29-.65-29.44a7,7,0,0,0-.45-.91c-.62-1-1.13-1-1.3-1-.68.05-1.7,1.43-2.53,3.11l-2.67.75c.75-1.9,2.58-5.79,5-6,.94-.07,2.26.24,3.36,2.13a9,9,0,0,1,.6,1.28C452.77,265.58,452.09,281.6,450.89,288.7Z" transform="translate(82.9 -47.2)"/><path class="cls-6" d="M126.79,245.69c.74-3.83-3.68-6.47-3.68-6.47.41-.82,1-2.69-2.08-5.72s-13.82,3.83-15,3.09.17-4.88-.81-12-9-10.43-10.44-8.7,2.33,12.5-.84,17.21c-2.34,3.48-4,11.74-4.75,15.86-5.49,2.19-19.81,7.81-37.89,14.15.65,2.38,1.28,4.76,1.93,7.13,2.49,9,4.85,18.13,7.36,27.17,21.68-11.28,40.48-22.31,46.82-27.71,5.07-1,15-6.07,19-8.83,4.18-2.86,1.61-7.28,1.61-7.28C130.55,250.57,126.79,245.69,126.79,245.69Z" transform="translate(82.9 -47.2)"/><path class="cls-7" d="M122.34,239.37a20.4,20.4,0,0,1-4.65,3.55,22.13,22.13,0,0,1-5.49,2.17,5.47,5.47,0,0,1-3.1-.08,3.53,3.53,0,0,1-1.37-.89,2.67,2.67,0,0,1-.69-1.5,3.55,3.55,0,0,1,1-2.88,6.74,6.74,0,0,1,2.5-1.54,8,8,0,0,0-2.17,1.83,3.18,3.18,0,0,0-.68,2.48,2.33,2.33,0,0,0,1.65,1.7,4.76,4.76,0,0,0,2.62,0,27.44,27.44,0,0,0,5.36-1.92A34.29,34.29,0,0,0,122.34,239.37Z" transform="translate(82.9 -47.2)"/><path class="cls-7" d="M124.07,247a49,49,0,0,1-5.08,2.65,31.19,31.19,0,0,1-5.43,1.9,8.89,8.89,0,0,1-3,.29,3.74,3.74,0,0,1-2.7-1.48,3.31,3.31,0,0,1-.49-3,3.19,3.19,0,0,1,2-2,3.24,3.24,0,0,0-1.59,2.15,3,3,0,0,0,.63,2.43,3.07,3.07,0,0,0,2.22,1.05,8.57,8.57,0,0,0,2.68-.31,47.76,47.76,0,0,0,5.38-1.68C120.5,248.32,122.27,247.61,124.07,247Z" transform="translate(82.9 -47.2)"/><path class="cls-7" d="M126.47,254.15a27.93,27.93,0,0,1-4.36,1.65,37,37,0,0,1-4.55,1,9.21,9.21,0,0,1-2.41.09,4.6,4.6,0,0,1-2.32-.91,2.92,2.92,0,0,1-1.19-2.17,2.2,2.2,0,0,1,1-2.07,2.16,2.16,0,0,0-.61,2,2.49,2.49,0,0,0,1.16,1.65,5.87,5.87,0,0,0,4.19.5c1.5-.23,3-.52,4.52-.81Z" transform="translate(82.9 -47.2)"/><path class="cls-7" d="M123.16,260.9a11.51,11.51,0,0,1-2.86.7,6.76,6.76,0,0,1-3-.32,4.49,4.49,0,0,1-2.42-1.93,3.13,3.13,0,0,1-.17-3,3.63,3.63,0,0,0,.76,2.57,4.63,4.63,0,0,0,2.13,1.48,8.82,8.82,0,0,0,2.69.46C121.22,260.93,122.18,260.87,123.16,260.9Z" transform="translate(82.9 -47.2)"/><path class="cls-7" d="M101.12,256.21a14.12,14.12,0,0,0,3.56-3.59,12.66,12.66,0,0,0,2-9.49,14.21,14.21,0,0,0-1.79-4.73,10.49,10.49,0,0,1,2.47,4.58A11.27,11.27,0,0,1,105.24,253,10.54,10.54,0,0,1,101.12,256.21Z" transform="translate(82.9 -47.2)"/><path class="cls-10" d="M62,258.62s12.4,25.86,14.17,30.82c0,0-67.67,39.32-89.28,43.58,0,0-17-46.41-10.63-50.31S62,258.62,62,258.62Z" transform="translate(82.9 -47.2)"/><path class="cls-11" d="M-12,323.63l20.59-9.14,20.6-9.1q10.32-4.51,20.57-9.16,5.15-2.3,10.23-4.7c1.69-.82,3.41-1.57,5.07-2.44l2.52-1.27L70,286.43l-2.39,1.49-2.48,1.34c-1.64.91-3.34,1.72-5,2.58q-5.06,2.49-10.15,4.88c-6.8,3.2-13.66,6.26-20.51,9.32s-13.76,6-20.67,8.95S-5.08,320.82-12,323.63Z" transform="translate(82.9 -47.2)"/><path class="cls-6" d="M552,84.24q-.66-11.91-.59-23.83c-40.35,19.83-99.82,36.87-112.71,40.46-3.07-2.83-9.43-8.39-13.39-9.73-5.38-1.83-8.9-12.69-11.1-13.18s-6.6,7-3,13.25,7.15,8.77,6.67,10.07-13.17,2.35-13.8,6.63,1,5.4,1.82,5.8c0,0-1.92,4.79,1,7.38,0,0,0,6.16,3.76,7,0,0,.64,5.07,5.69,4.82,4.87-.25,15.87-2.23,20.49-4.52,15.45.83,76.74-8.94,114.51-19.51C551.39,100.68,551.59,92.45,552,84.24Z" transform="translate(82.9 -47.2)"/><path class="cls-7" d="M406.6,113.37a20.12,20.12,0,0,0,5.85,0,21.85,21.85,0,0,0,5.68-1.59,5.55,5.55,0,0,0,2.42-2,3.43,3.43,0,0,0,.54-1.53,2.69,2.69,0,0,0-.35-1.62,3.6,3.6,0,0,0-2.57-1.66,6.68,6.68,0,0,0-2.93.3,7.86,7.86,0,0,1,2.83.14,3.19,3.19,0,0,1,2.05,1.56,2.31,2.31,0,0,1-.28,2.35,4.87,4.87,0,0,1-2.09,1.59,28,28,0,0,1-5.42,1.72A34,34,0,0,1,406.6,113.37Z" transform="translate(82.9 -47.2)"/><path class="cls-7" d="M409.84,120.46a49.62,49.62,0,0,0,5.64-1,31.47,31.47,0,0,0,5.47-1.78,8.78,8.78,0,0,0,2.53-1.58,3.68,3.68,0,0,0,1.25-2.81,3.32,3.32,0,0,0-1.4-2.65,3.16,3.16,0,0,0-2.83-.4,3.23,3.23,0,0,1,2.56.75,2.91,2.91,0,0,1,1,2.3,3.07,3.07,0,0,1-1.13,2.19,8.17,8.17,0,0,1-2.31,1.37,46.53,46.53,0,0,1-5.3,1.93C413.49,119.37,411.65,119.87,409.84,120.46Z" transform="translate(82.9 -47.2)"/><path class="cls-7" d="M412.28,127.63a27.9,27.9,0,0,0,4.46-1.34,37.62,37.62,0,0,0,4.24-1.94,9.77,9.77,0,0,0,2-1.4,4.61,4.61,0,0,0,1.28-2.13,2.9,2.9,0,0,0-.36-2.45,2.23,2.23,0,0,0-2.1-1,2.17,2.17,0,0,1,1.72,1.23,2.54,2.54,0,0,1,.07,2,5.94,5.94,0,0,1-3,2.94c-1.34.73-2.71,1.42-4.09,2.09Z" transform="translate(82.9 -47.2)"/><path class="cls-7" d="M419,131a12,12,0,0,0,2.7-1.18,6.82,6.82,0,0,0,2.2-2.08,4.45,4.45,0,0,0,.75-3,3.11,3.11,0,0,0-1.65-2.45,3.69,3.69,0,0,1,.95,2.51,4.67,4.67,0,0,1-.8,2.46,8.79,8.79,0,0,1-1.86,2C420.57,129.83,419.76,130.37,419,131Z" transform="translate(82.9 -47.2)"/><path class="cls-7" d="M433.68,113.89a14.18,14.18,0,0,1-5-.69,12.77,12.77,0,0,1-4.32-2.42,12.92,12.92,0,0,1-3.05-3.9,14.3,14.3,0,0,1-1.45-4.84,10.61,10.61,0,0,0,.81,5.14,11.33,11.33,0,0,0,7.81,6.69A10.53,10.53,0,0,0,433.68,113.89Z" transform="translate(82.9 -47.2)"/><polygon class="cls-12" points="540.14 47.98 523.38 51.76 525.03 82 545.34 79.87 540.14 47.98"/><path class="cls-8" d="M455.83,94.24s81.48-31.18,103.68-45.11c0,0,11.58,38.49,10.63,55.5,0,0-72.51,21.49-111.71,23.62Z" transform="translate(82.9 -47.2)"/><g class="cls-13"><path class="cls-8" d="M461.73,93.06l2,14,2,14-.29-.21c8.11-1.66,16.22-3.35,24.31-5.15s16.15-3.66,24.2-5.63,16-4.1,24-6.43c4-1.19,7.91-2.45,11.82-3.83a74,74,0,0,0,11.38-4.94,74.34,74.34,0,0,1-11.29,5.19c-3.87,1.49-7.82,2.78-11.77,4s-8,2.38-11.94,3.48-8,2.13-12,3.14-8.05,2-12.09,2.93-8.08,1.84-12.13,2.72c-8.1,1.76-16.21,3.46-24.36,5l-.26,0,0-.26-1.8-14.06Z" transform="translate(82.9 -47.2)"/><path class="cls-8" d="M474.25,110.06a3,3,0,1,1-6,0,3.06,3.06,0,0,1,1-2.22,3,3,0,0,1,5.05,2.22Zm0,0a2.7,2.7,0,0,0-.86-2,2.76,2.76,0,0,0-2-.69,2.67,2.67,0,0,0,0,5.32,2.76,2.76,0,0,0,2-.69A2.7,2.7,0,0,0,474.25,110.06Z" transform="translate(82.9 -47.2)"/></g><path class="cls-10" d="M309.16,358.05s15.12-92.11,56.21-100.14-47.23,101.56-47.23,101.56Z" transform="translate(82.9 -47.2)"/><path class="cls-11" d="M319.79,339.16c3.19-7,6.58-13.81,10.07-20.62S337,305,340.81,298.37q2.87-5,5.9-9.85c2-3.25,4.09-6.47,6.29-9.6s4.48-6.22,7-9.13c.64-.72,1.29-1.41,1.94-2.12s1.35-1.36,2.05-2a19.26,19.26,0,0,1,4.71-3.26l-1.25.71a10.25,10.25,0,0,0-1.16.83,23.93,23.93,0,0,0-2.17,1.86c-.68.66-1.33,1.36-2,2.05s-1.25,1.44-1.86,2.17c-2.44,2.93-4.66,6-6.8,9.2-4.27,6.33-8.23,12.87-12,19.5s-7.48,13.33-11.08,20.07q-2.7,5.06-5.32,10.16C323.25,332.33,321.52,335.74,319.79,339.16Z" transform="translate(82.9 -47.2)"/><path class="cls-14" d="M313.88,359s51-73.69,73.22-65.66-67.55,66.13-67.55,66.13Z" transform="translate(82.9 -47.2)"/><path class="cls-15" d="M321.68,353.33c1.1-1.4,2.39-2.64,3.61-3.92l3.75-3.8c2.52-2.51,5.07-5,7.62-7.47q7.69-7.39,15.6-14.57c5.3-4.74,10.63-9.45,16.13-14,2.76-2.26,5.54-4.48,8.39-6.61a78.15,78.15,0,0,1,8.9-5.87,83.63,83.63,0,0,0-8.69,6.15c-2.8,2.18-5.54,4.45-8.25,6.74q-8.13,6.9-16,14.09c-5.29,4.75-10.49,9.59-15.69,14.44q-3.9,3.63-7.76,7.31l-3.86,3.69-1.9,1.86A20.91,20.91,0,0,0,321.68,353.33Z" transform="translate(82.9 -47.2)"/><path class="cls-14" d="M229.33,356.63s-21.25-96.36-69.91-96.83,62.35,101.08,62.35,101.08Z" transform="translate(82.9 -47.2)"/><path class="cls-15" d="M154.7,265q8.42,9.88,16.62,19.95t16.32,20.21c5.36,6.8,10.73,13.59,16,20.51,1.31,1.72,2.6,3.45,3.89,5.2s2.58,3.47,3.83,5.24,2.52,3.53,3.71,5.34c.59.9,1.23,1.78,1.79,2.71l1.66,2.79-1.75-2.73c-.59-.91-1.24-1.78-1.86-2.67-1.23-1.77-2.54-3.5-3.83-5.23s-2.6-3.46-3.91-5.18-2.63-3.44-4-5.14q-8-10.26-16.06-20.4c-5.36-6.8-10.79-13.54-16.19-20.3Z" transform="translate(82.9 -47.2)"/><path class="cls-10" d="M219.88,358.05s-52.09-64.55-67.07-53.38c-27.87,20.79,61.88,57.16,61.88,57.16Z" transform="translate(82.9 -47.2)"/><path class="cls-11" d="M152.57,310.58c5.39,3.45,10.72,7,16,10.59s10.54,7.25,15.77,10.94,10.39,7.48,15.47,11.38c2.54,1.95,5.06,3.93,7.52,6,1.22,1,2.44,2.07,3.61,3.17a21.75,21.75,0,0,1,3.26,3.52,24,24,0,0,0-3.38-3.38c-1.21-1-2.46-2-3.71-3-2.5-2-5-3.92-7.62-5.82q-7.71-5.7-15.56-11.24c-5.19-3.72-10.44-7.38-15.67-11.06Z" transform="translate(82.9 -47.2)"/><path class="cls-8" d="M221.7,262.16s-5,11.34-5,16.3,3.3,79.59,3.3,79.59h97.31s4-74.4,3.31-79.59-4-17.24-4-17.24Z" transform="translate(82.9 -47.2)"/><g class="cls-13"><path class="cls-8" d="M220.7,268a152.94,152.94,0,0,0,24,5.58,149,149,0,0,0,24.6,1.64,150.89,150.89,0,0,0,24.55-2.3l6.05-1.19,6-1.45,5.94-1.67,5.88-1.93-5.82,2.1L306,270.61l-6,1.54L294,273.44a144.32,144.32,0,0,1-24.63,2.48,145.74,145.74,0,0,1-24.69-1.81A135,135,0,0,1,220.7,268Z" transform="translate(82.9 -47.2)"/><path class="cls-8" d="M266.81,276.1c.13,4.46.2,8.93.26,13.39s.05,8.93.08,13.4l-.56-.27c2.17-1.69,4.59-2.89,6.69-4.5l-.12.26c0-3.75,0-7.5.09-11.24s.13-7.5.23-11.25q.16,5.63.24,11.25c.06,3.74.08,7.49.09,11.24v.16l-.12.1c-1.09.84-2.23,1.56-3.36,2.29s-2.26,1.43-3.31,2.23l-.56.43v-.7c0-4.47,0-8.93.09-13.4S266.67,280.56,266.81,276.1Z" transform="translate(82.9 -47.2)"/><path class="cls-8" d="M315.46,268.24c.8,7.47,1.24,15,1.38,22.51s-.06,15-.51,22.55-1.27,15-2.37,22.43l-.88,5.58-1,5.55L311,352.38l-1.24,5.5,1-5.53,1-5.55.89-5.57.78-5.57c1-7.44,1.75-14.91,2.2-22.41s.7-15,.68-22.5S316,275.74,315.46,268.24Z" transform="translate(82.9 -47.2)"/><path class="cls-8" d="M223.75,269.21c-.65,7.33-1.18,14.67-1.52,22s-.54,14.7-.51,22,.17,14.7.51,22l.28,5.51.36,5.51.4,5.5.47,5.5-.65-5.49-.57-5.49-.45-5.5-.39-5.51c-.45-7.34-.64-14.71-.67-22.07s.22-14.73.68-22.08S222.81,276.51,223.75,269.21Z" transform="translate(82.9 -47.2)"/><path class="cls-8" d="M303.67,271.14a44.19,44.19,0,0,0,1,8.28,44.19,44.19,0,0,0,6.53,15.18l1.21,1.7,1.3,1.63,1.36,1.58c.49.5,1,1,1.45,1.52-.53-.46-1.06-.92-1.58-1.39l-1.49-1.48-1.39-1.58-1.3-1.66a39.05,39.05,0,0,1-4.19-7.32,38.17,38.17,0,0,1-2.43-8.08A33.21,33.21,0,0,1,303.67,271.14Z" transform="translate(82.9 -47.2)"/><path class="cls-8" d="M236.8,272.55c0,.78.1,1.55.14,2.32l0,2.33-.19,2.33-.34,2.31a37.21,37.21,0,0,1-2.83,8.9,36.69,36.69,0,0,1-5.05,7.86l-1.57,1.72L225.26,302l-1.79,1.49-1.89,1.35c.59-.51,1.17-1,1.77-1.5l1.67-1.6,1.59-1.67,1.48-1.77a38.79,38.79,0,0,0,4.83-7.81,39.3,39.3,0,0,0,2.94-8.7A42.85,42.85,0,0,0,236.8,272.55Z" transform="translate(82.9 -47.2)"/><path class="cls-8" d="M224.89,302c.36,4.52.64,9,.92,13.56s.48,9.06.73,13.58.41,9.06.57,13.59l.22,6.79c0,2.27.13,4.53.15,6.8-.19-2.26-.33-4.52-.5-6.78l-.42-6.79c-.27-4.52-.49-9-.73-13.57s-.41-9.06-.57-13.59S225,306.49,224.89,302Z" transform="translate(82.9 -47.2)"/><path class="cls-8" d="M313.81,298.41c-.35,4.83-.8,9.65-1.29,14.47s-1,9.62-1.62,14.43-1.26,9.6-2,14.38c-.39,2.39-.8,4.78-1.28,7.15-.26,1.19-.51,2.37-.82,3.55a14.36,14.36,0,0,1-1.21,3.42,8,8,0,0,0,.61-1.7c.16-.59.29-1.18.42-1.77.25-1.18.46-2.37.66-3.56q.6-3.57,1.09-7.17c.66-4.79,1.3-9.58,1.88-14.39l1.79-14.4.89-7.2Z" transform="translate(82.9 -47.2)"/><path class="cls-8" d="M268.7,357.58c-.13-3.68-.2-7.36-.25-11s-.07-7.36-.09-11,0-7.37,0-11.05.09-7.36.14-11v-.1l.08-.05c1.92-1.13,3.83-2.28,5.77-3.39-1.85,1.25-3.72,2.46-5.58,3.69l.09-.15c.05,3.68.13,7.36.13,11s.06,7.36,0,11.05,0,7.36-.09,11S268.82,353.9,268.7,357.58Z" transform="translate(82.9 -47.2)"/></g><path class="cls-6" d="M280.67,140.25a32.16,32.16,0,0,0,9.18-3.14c-4.29-4.55-7.05-12.5-7.43-18l-.87-12.95H255.42l-.88,12.95a34.16,34.16,0,0,1-5.61,15.79C259.36,137.41,269.93,139.66,280.67,140.25Z" transform="translate(82.9 -47.2)"/><path class="cls-16" d="M281.4,107.2s-7.87,9.06-12.88,9.06h-.11c-5.06,0-13-9.06-13-9.06a21,21,0,0,0,13,4.24h.1A21,21,0,0,0,281.4,107.2Z" transform="translate(82.9 -47.2)"/><path class="cls-9" d="M303.77,141.47s-1.06-9.56-2.83-14.52S282,113.08,282,113.08l.39,7.73s-12.39,10-15.23,10c0,0-6.94-1-12.62-11.77l.49-7.32s-13.73,9.06-15.27,13.07-3.07,12.87-3.07,12.87-26.33,15.12-30.82,23.39,10.39,60.46,8.5,63.76-.7,30,6.85,39.21c0,0,59.52,12.28,96.6,0,0,0,3.31-26.45-.23-38.73,0,0,12.28-60.47,11.33-64.48S303.77,141.47,303.77,141.47Z" transform="translate(82.9 -47.2)"/><g class="cls-13"><path class="cls-9" d="M236.81,137.93a11,11,0,0,1,2.47,1.62,10.66,10.66,0,0,1,2,2.16,11,11,0,0,1-2.47-1.62A11.23,11.23,0,0,1,236.81,137.93Z" transform="translate(82.9 -47.2)"/><path class="cls-9" d="M303.25,139.82a1.78,1.78,0,0,1-.12,1.66,1.76,1.76,0,0,1-1.38.92c.29-.51.54-.87.77-1.28S303,140.33,303.25,139.82Z" transform="translate(82.9 -47.2)"/><path class="cls-9" d="M254.4,119.22a1,1,0,0,0-1.35-.09,1.34,1.34,0,0,0-.57,1.26,7.46,7.46,0,0,0,1.13,2.75,21.45,21.45,0,0,0,3.68,4.75,34.23,34.23,0,0,0,4.68,3.8c.84.56,1.69,1.09,2.57,1.59a8.25,8.25,0,0,0,2.68,1.11,4.22,4.22,0,0,0,2.73-.53,22.34,22.34,0,0,0,2.51-1.63q2.46-1.77,4.76-3.75a33.3,33.3,0,0,0,4.21-4.35,28.9,28.9,0,0,0,1.75-2.47,2.05,2.05,0,0,0,.43-1.37.83.83,0,0,0-.41-.57.6.6,0,0,0-.7,0,.63.63,0,0,1,.72,0,.94.94,0,0,1,.5.6,2.19,2.19,0,0,1-.38,1.49,24.94,24.94,0,0,1-1.64,2.58,34.13,34.13,0,0,1-4.11,4.55,53.15,53.15,0,0,1-4.76,3.86,22.55,22.55,0,0,1-2.57,1.72,5,5,0,0,1-3.15.62,8.89,8.89,0,0,1-2.91-1.22c-.88-.52-1.75-1.07-2.59-1.65a29.62,29.62,0,0,1-4.71-3.95,22,22,0,0,1-3.6-5,7.58,7.58,0,0,1-1-2.91,1.87,1.87,0,0,1,.16-.77A1.25,1.25,0,0,1,253,119,1.06,1.06,0,0,1,254.4,119.22Z" transform="translate(82.9 -47.2)"/><path class="cls-9" d="M260.77,144.3a5,5,0,0,1-1.21,2.19,25,25,0,0,1-1.83,1.74,23.28,23.28,0,0,0-3.37,3.65,17.28,17.28,0,0,0-3.59,9,13.13,13.13,0,0,0,2.64,9.2,6.86,6.86,0,0,0,1.78,1.62,3.54,3.54,0,0,0,2.27.55,2.07,2.07,0,0,0,1.08-.41,1.06,1.06,0,0,0,.43-1,.73.73,0,0,0-.77-.68.66.66,0,0,0-.5.91c-.27-.36.05-.9.48-1a.85.85,0,0,1,1,.75,1.27,1.27,0,0,1-.43,1.23,2.42,2.42,0,0,1-1.2.56,4,4,0,0,1-2.55-.51,7.36,7.36,0,0,1-2-1.66,13.44,13.44,0,0,1-2.92-9.61,17.36,17.36,0,0,1,3.86-9.31,23.31,23.31,0,0,1,3.58-3.58c.65-.53,1.32-1,1.91-1.61A5.17,5.17,0,0,0,260.77,144.3Z" transform="translate(82.9 -47.2)"/><path class="cls-9" d="M279.05,144.29a32.11,32.11,0,0,1,1.72,4.36,44.64,44.64,0,0,1,1.13,4.56,71.05,71.05,0,0,1,1,9.32,43.33,43.33,0,0,1-.32,9.38,19.74,19.74,0,0,1-.55,2.3,8.29,8.29,0,0,1-.9,2.22,2.17,2.17,0,0,1-1,.77,1.27,1.27,0,0,1-1.22-.15.93.93,0,0,1-.35-1.12.77.77,0,0,1,1-.37.71.71,0,0,0-.92.42.78.78,0,0,0,.36.92,1,1,0,0,0,1,0,1.75,1.75,0,0,0,.78-.72,8.23,8.23,0,0,0,.76-2.14,19.19,19.19,0,0,0,.44-2.26,47,47,0,0,0,.16-9.27,82,82,0,0,0-.88-9.26A44.83,44.83,0,0,0,279.05,144.29Z" transform="translate(82.9 -47.2)"/></g><path class="cls-17" d="M272.71,236.8a4.81,4.81,0,0,0-1.68-.27l-11.18-.45,7.77-1a5.6,5.6,0,0,0,1.84-.47,1.55,1.55,0,0,0,.93-1.42,1.82,1.82,0,0,0-1.2-1.37,5.85,5.85,0,0,0-1.95-.3c-3.38-.12-6.74-.13-10.11,0-.79,0-1.76,0-2.14-.7s.37-1.63,1.08-2.2a4.71,4.71,0,0,0,1.52-1.81,2.09,2.09,0,0,0-.33-2.23,2.77,2.77,0,0,0-2.68-.54,8.49,8.49,0,0,0-2.41,1.29,26.48,26.48,0,0,1-8.91,3.69l-1.42.28c-3.27-.72-8.41-1.89-14.92-3.44-1.14,7.56-2.8,15-4.32,22.55a102.65,102.65,0,0,0,17-1.43c.64,0,1.3,0,1.89.11q3.38.35,6.75.89,3.9.63,7.75,1.53c3.34.78,6.89,1.7,10.11.76.79-.23,1.67-.83,1.41-1.58-.16-.45-.68-.71-1.15-.92-2.24-1-4.75-1.36-7-2.36,3.29.18,6.83-.29,10.11-.11a4,4,0,0,0,1.63-.12,1.14,1.14,0,0,0,.83-1.15c-.1-.71-1-1-1.76-1.22L260,240.25c4.17.43,8.58.82,12.31-.76.7-.29,1.44-.78,1.41-1.5A1.51,1.51,0,0,0,272.71,236.8Z" transform="translate(82.9 -47.2)"/><path class="cls-9" d="M235.75,140.53s-22.32.82-35.07,11.81-51,48.89-52.44,73,40.39,31.53,90.7,23.38c0,0,2.48-16.65,1.41-23.74l-34.71-7.44,20.19-14.88S235.75,159.54,235.75,140.53Z" transform="translate(82.9 -47.2)"/><g class="cls-13"><path class="cls-9" d="M195.72,216.11c3.15.42,6.29.93,9.43,1.44s6.27,1.09,9.41,1.63,6.25,1.17,9.37,1.79l4.68,1c1.55.34,3.11.66,4.66,1-1.58-.2-3.15-.45-4.73-.68l-4.71-.76c-3.14-.51-6.27-1.09-9.4-1.63s-6.25-1.17-9.37-1.8S198.82,216.82,195.72,216.11Z" transform="translate(82.9 -47.2)"/><path class="cls-9" d="M199.53,210.35a29,29,0,0,1,3.24,3.5,27.65,27.65,0,0,1,2.69,3.94,28.12,28.12,0,0,1-3.24-3.5A28.82,28.82,0,0,1,199.53,210.35Z" transform="translate(82.9 -47.2)"/><path class="cls-9" d="M230.61,205.83c-1.46.61-2.94,1.17-4.41,1.76l-4.44,1.69c-1.48.57-3,1.09-4.46,1.64l-4.46,1.62-2.14.78,1.81-1.39,3.6-2.76c1.21-.92,2.4-1.86,3.62-2.75,2.43-1.82,4.86-3.62,7.34-5.37-2.3,2-4.65,3.89-7,5.79-1.17,1-2.37,1.89-3.55,2.83l-3.57,2.82-.34-.61,4.49-1.57c1.49-.52,3-1.06,4.48-1.55l4.51-1.5C227.59,206.79,229.09,206.29,230.61,205.83Z" transform="translate(82.9 -47.2)"/><path class="cls-9" d="M214.61,146a17.87,17.87,0,0,1,8.26,13,29.22,29.22,0,0,0-8.26-13Z" transform="translate(82.9 -47.2)"/><path class="cls-9" d="M224.29,163a3.25,3.25,0,0,1,.92,1.29,3.16,3.16,0,0,1,.27,1.55,3.12,3.12,0,0,1-.92-1.28A3.22,3.22,0,0,1,224.29,163Z" transform="translate(82.9 -47.2)"/><path class="cls-9" d="M215.79,251.06c1.59-.22,3.18-.37,4.77-.51s3.19-.23,4.78-.32,3.19-.14,4.79-.15l2.39,0c.8,0,1.6,0,2.4.06-.79.12-1.59.19-2.38.29l-2.39.21c-1.59.15-3.18.23-4.78.32s-3.18.14-4.78.16S217.39,251.13,215.79,251.06Z" transform="translate(82.9 -47.2)"/><path class="cls-9" d="M159.35,227.44a16.62,16.62,0,0,0,1.53,1.66,17.71,17.71,0,0,0,1.77,1.42,3.34,3.34,0,0,1-3.3-3.08Z" transform="translate(82.9 -47.2)"/></g><path class="cls-17" d="M258.7,236.8a4.74,4.74,0,0,1,1.68-.27l11.18-.45-7.77-1a5.6,5.6,0,0,1-1.84-.47,1.53,1.53,0,0,1-.93-1.42,1.8,1.8,0,0,1,1.2-1.37,5.85,5.85,0,0,1,1.95-.3q5.06-.18,10.1,0c.8,0,1.77,0,2.15-.7s-.37-1.63-1.08-2.2a4.82,4.82,0,0,1-1.53-1.81,2.1,2.1,0,0,1,.34-2.23,2.75,2.75,0,0,1,2.67-.54,8.54,8.54,0,0,1,2.42,1.29,26.48,26.48,0,0,0,8.91,3.69l1.41.28c3.28-.72,8.42-1.89,14.92-3.44,1.14,7.56,2.81,15,4.33,22.55a102.55,102.55,0,0,1-17-1.43c-.64,0-1.31,0-1.89.11-2.25.23-4.51.53-6.75.89q-3.9.63-7.75,1.53c-3.35.78-6.9,1.7-10.11.76-.79-.23-1.67-.83-1.41-1.58.15-.45.68-.71,1.14-.92,2.25-1,4.76-1.36,7-2.36-3.28.18-6.83-.29-10.11-.11a4,4,0,0,1-1.62-.12,1.14,1.14,0,0,1-.83-1.15c.1-.71,1-1,1.76-1.22l10.12-2.48c-4.18.43-8.58.82-12.32-.76-.69-.29-1.44-.78-1.4-1.5A1.51,1.51,0,0,1,258.7,236.8Z" transform="translate(82.9 -47.2)"/><path class="cls-9" d="M303.77,141.83a42.81,42.81,0,0,1,27,10.51c12.75,11,51,48.89,52.43,73s-40.38,31.53-90.69,23.38c0,0-2.48-16.65-1.42-23.74l34.72-7.44-20.19-14.88S303.77,160.84,303.77,141.83Z" transform="translate(82.9 -47.2)"/><g class="cls-13"><path class="cls-9" d="M319.87,147.55a36.24,36.24,0,0,0-5.11,12.58,17.69,17.69,0,0,1,5.11-12.58Z" transform="translate(82.9 -47.2)"/><path class="cls-9" d="M314.28,165.09a4.65,4.65,0,0,1,0,3.54,4.65,4.65,0,0,1,0-3.54Z" transform="translate(82.9 -47.2)"/><path class="cls-9" d="M308.85,202.41c.95.82,1.89,1.65,2.8,2.51s1.84,1.7,2.74,2.58c1.8,1.73,3.57,3.51,5.31,5.31l1.46,1.51-1.83-1c-1.1-.61-2.17-1.25-3.26-1.87s-2.15-1.29-3.21-2c1.15.51,2.29,1,3.41,1.59s2.25,1.09,3.36,1.67l-.38.51q-2.7-2.61-5.31-5.31c-.88-.9-1.72-1.83-2.58-2.74S309.67,203.36,308.85,202.41Z" transform="translate(82.9 -47.2)"/><path class="cls-9" d="M299.64,222.25c2.86-.66,5.75-1.24,8.63-1.81s5.78-1.07,8.66-1.61,5.79-1,8.7-1.46l4.35-.67c1.46-.2,2.91-.42,4.38-.59-1.44.33-2.88.62-4.31.93l-4.33.87c-2.88.57-5.77,1.08-8.66,1.61s-5.79,1-8.7,1.46S302.56,221.88,299.64,222.25Z" transform="translate(82.9 -47.2)"/><path class="cls-9" d="M332,212.33a23.2,23.2,0,0,1-6.14,5.19,20.83,20.83,0,0,1,2.84-2.87A21.27,21.27,0,0,1,332,212.33Z" transform="translate(82.9 -47.2)"/><path class="cls-9" d="M298.46,248c1.66.12,3.31.32,5,.54s3.29.47,4.92.74,3.28.59,4.9.95a36.51,36.51,0,0,1,4.82,1.31c-.81-.17-1.64-.28-2.46-.4l-2.46-.37c-1.64-.24-3.28-.52-4.92-.79s-3.27-.57-4.89-.91S300.07,248.4,298.46,248Z" transform="translate(82.9 -47.2)"/><path class="cls-9" d="M373.09,225.32a3.47,3.47,0,0,1-.47,3.78,9.8,9.8,0,0,1,.1-1.91A10.29,10.29,0,0,1,373.09,225.32Z" transform="translate(82.9 -47.2)"/></g><path class="cls-18" d="M234.32,217.29c6.82-1.12,35.91-5.25,64.56,0a1.26,1.26,0,0,1,1,1.48c-.91,4.54-3.67,20.82,0,36.23a1.25,1.25,0,0,1-.77,1.47c-5.43,2-31.59,10.62-63.85,0a1.25,1.25,0,0,1-.81-1.55,58.36,58.36,0,0,0-1.11-36A1.24,1.24,0,0,1,234.32,217.29Z" transform="translate(82.9 -47.2)"/><path class="cls-6" d="M298.23,82.72a4.54,4.54,0,0,0-4.85.3,50.48,50.48,0,0,0,.08-10c-1.73-19.11-24.18-20.17-24.18-20.17h-1.74S245.09,53.92,243.36,73a50.48,50.48,0,0,0,.08,10,4.54,4.54,0,0,0-4.85-.3c-3,1.79.93,14.41,8.54,13.93,4.12,8.74,11.34,14.83,21.28,14.79h0c9.94,0,17.16-6,21.28-14.79C297.3,97.13,301.19,84.51,298.23,82.72Z" transform="translate(82.9 -47.2)"/><path class="cls-7" d="M272,86a3.22,3.22,0,0,1,1.7,2.46c0,1.59-1.07,1.61-1.07,1.61a6.88,6.88,0,0,1-1.91.18,4,4,0,0,1-1-.67S268.11,85.75,272,86Z" transform="translate(82.9 -47.2)"/><path class="cls-16" d="M272.29,90.16a1.48,1.48,0,0,0,.83-1.6A3.12,3.12,0,0,0,272.2,87c-.23-.26-.48-.48-.77-.77a1.85,1.85,0,0,1-.46-1.34,3.68,3.68,0,0,1,.94-2.16,7.13,7.13,0,0,0-.13,2.12,1,1,0,0,0,.34.67c.25.22.56.49.83.77a3.18,3.18,0,0,1,1,2.3A1.59,1.59,0,0,1,272.29,90.16Z" transform="translate(82.9 -47.2)"/><path class="cls-16" d="M269.33,89.55A.39.39,0,1,1,270,90c-.3,0-.37,0-.44,0S269.48,89.81,269.33,89.55Z" transform="translate(82.9 -47.2)"/><circle class="cls-7" cx="337.74" cy="47.72" r="6.2"/><circle class="cls-7" cx="365.05" cy="47.72" r="6.2"/><path class="cls-16" d="M258.57,76.2A4.12,4.12,0,0,1,259.5,75a4.7,4.7,0,0,1,1.35-.88,4.41,4.41,0,0,1,1.59-.38,4.36,4.36,0,0,1,1.61.21.81.81,0,0,1,.49,1,.79.79,0,0,1-.79.53h0a11.7,11.7,0,0,0-1.18,0,6.58,6.58,0,0,0-1.16.15,5.45,5.45,0,0,0-1.13.4,8.61,8.61,0,0,0-1.1.68h0a.38.38,0,0,1-.53-.08A.39.39,0,0,1,258.57,76.2Z" transform="translate(82.9 -47.2)"/><path class="cls-16" d="M282,76.2A4.12,4.12,0,0,0,281,75a4.7,4.7,0,0,0-1.35-.88,4.41,4.41,0,0,0-1.6-.38,4.33,4.33,0,0,0-1.6.21.8.8,0,0,0,.3,1.55h0a11.7,11.7,0,0,1,1.18,0,6.58,6.58,0,0,1,1.16.15,5.45,5.45,0,0,1,1.13.4,8.61,8.61,0,0,1,1.1.68h0a.38.38,0,0,0,.53-.08A.39.39,0,0,0,282,76.2Z" transform="translate(82.9 -47.2)"/><path class="cls-16" d="M266.82,97.21a9.82,9.82,0,0,1,1,.36c.3.14.58.26,1,.49a1.27,1.27,0,0,1-2-.85Z" transform="translate(82.9 -47.2)"/><path class="cls-16" d="M264.5,84.19c0,1.67-.71,3-1.59,3s-1.59-1.36-1.59-3,.71-3,1.59-3S264.5,82.51,264.5,84.19Z" transform="translate(82.9 -47.2)"/><path class="cls-16" d="M278.36,84.19c0,1.67-.72,3-1.59,3s-1.59-1.36-1.59-3,.71-3,1.59-3S278.36,82.51,278.36,84.19Z" transform="translate(82.9 -47.2)"/><path class="cls-16" d="M239.82,87.33a1.24,1.24,0,0,1-.54-1.55,1.82,1.82,0,0,1,1.52-1.16,2.82,2.82,0,0,1,1.85.39,6,6,0,0,1,1.31,1.1A8.42,8.42,0,0,1,246.28,92a23.6,23.6,0,0,0-3.36-4.89,3.36,3.36,0,0,0-2-1.35,1.14,1.14,0,0,0-1,.37A1,1,0,0,0,239.82,87.33Z" transform="translate(82.9 -47.2)"/><path class="cls-16" d="M242.78,92.27a1.72,1.72,0,0,1-1.27-1.13,2.28,2.28,0,0,1,1.49-3,1.72,1.72,0,0,1,1.67.3,3.49,3.49,0,0,0-1.19.69,2.51,2.51,0,0,0-.64.82,2.54,2.54,0,0,0-.25,1A3.52,3.52,0,0,0,242.78,92.27Z" transform="translate(82.9 -47.2)"/><path class="cls-16" d="M297.06,87.33a1.25,1.25,0,0,0,.54-1.55,1.84,1.84,0,0,0-1.52-1.16,2.8,2.8,0,0,0-1.85.39,6,6,0,0,0-1.31,1.1A8.39,8.39,0,0,0,290.59,92,24,24,0,0,1,294,87.06a3.36,3.36,0,0,1,2-1.35,1.14,1.14,0,0,1,1,.37A1.05,1.05,0,0,1,297.06,87.33Z" transform="translate(82.9 -47.2)"/><path class="cls-16" d="M294.1,92.27a1.74,1.74,0,0,0,1.27-1.13,2.34,2.34,0,0,0-.07-1.85,2.3,2.3,0,0,0-1.42-1.2,1.72,1.72,0,0,0-1.67.3,3.49,3.49,0,0,1,1.19.69,2.48,2.48,0,0,1,.63.82,2.54,2.54,0,0,1,.26,1A3.52,3.52,0,0,1,294.1,92.27Z" transform="translate(82.9 -47.2)"/><path class="cls-3" d="M264,89.84c1.2.48,5.61,2.14,8.67,2a.21.21,0,0,1,.19.33c-.7,1.09-3,4.27-5.71,4s-3.34-4.76-3.43-6A.21.21,0,0,1,264,89.84Z" transform="translate(82.9 -47.2)"/><path class="cls-16" d="M310.05,77.83c-.82-2.55-3.43-4-5.75-5.39s-4.8-3.22-5-5.9c-.18-2,.95-3.82,1.82-5.61s1.54-4,.49-5.71-3.07-2.08-4.93-1.94-3.65.75-5.51.8c-3.6.1-6.85-1.92-10.1-3.45-6.14-2.91-13.16-4.27-19.81-2.9a21.1,21.1,0,0,0-15,12.15,11.29,11.29,0,0,0-9.84,3.61,13.8,13.8,0,0,0-3.44,10.06c.32,5.87,4,11.29,3.69,17.17-.1,2.34-.83,4.61-1.12,6.94s-.07,4.88,1.45,6.67a7.35,7.35,0,0,0,6.06,2.26,19.63,19.63,0,0,0,6.42-1.81q1.17-.5,2.34-1a30.33,30.33,0,0,1-4.63-7.17c-7.61.48-11.5-12.14-8.54-13.93a4.49,4.49,0,0,1,4.72.22c1.69,2.11,3.42,4.21,5,6.34a35.13,35.13,0,0,0,6.05-22.17,32.87,32.87,0,0,0,16.87,12.12c2.42.75,5.09,1.2,7.45.26,1.25-.49,2.43-1.37,3.77-1.29a4.85,4.85,0,0,1,3.19,2,9.88,9.88,0,0,0,2.77,2.7c1.7.86,3.43,1.21,5,.07h0a4.54,4.54,0,0,1,4.85-.3c3,1.79-.93,14.41-8.54,13.93a28,28,0,0,1-8,10.38c4.17-.13,8.49-1.73,10.89-5.13,1.9-2.7,2.39-6.2,4.37-8.83,2.15-2.87,5.68-4.27,8.63-6.29S311.15,81.25,310.05,77.83Z" transform="translate(82.9 -47.2)"/><g class="cls-13"><path class="cls-16" d="M247.54,60.49a10.63,10.63,0,0,1,3.3,2.15,10.45,10.45,0,0,1,2.37,3.15c-1-.87-1.91-1.77-2.85-2.63S248.47,61.44,247.54,60.49Z" transform="translate(82.9 -47.2)"/><path class="cls-16" d="M300.52,54.88a39.32,39.32,0,0,1-4.72,5.27,13.62,13.62,0,0,1-6.25,3.3,9,9,0,0,1-3.59,0,9.52,9.52,0,0,1-3.3-1.43,66.73,66.73,0,0,1-5.42-4.57,19.4,19.4,0,0,0-12.92-4.31,19.88,19.88,0,0,0-3.44.45,18.13,18.13,0,0,0-3.29,1.09,10.88,10.88,0,0,0-2.86,1.85,6.62,6.62,0,0,0-1.81,2.78l-.46-.43a13.52,13.52,0,0,1,6.54-.74,24.54,24.54,0,0,1,6.32,1.71c4.07,1.64,7.65,4.15,11.26,6.5s7.37,4.56,11.57,5.51a17,17,0,0,0,6.4.27,12.53,12.53,0,0,0,5.88-2.49,12.4,12.4,0,0,1-5.86,2.65,17.28,17.28,0,0,1-6.49-.11c-4.29-.88-8.14-3.09-11.79-5.38s-7.22-4.78-11.21-6.36a24.5,24.5,0,0,0-6.16-1.64,12.85,12.85,0,0,0-6.21.73l-.67.27.21-.7a7.1,7.1,0,0,1,2-3.08,11.72,11.72,0,0,1,3.05-2A19,19,0,0,1,260.73,53a21.52,21.52,0,0,1,3.57-.45A19.79,19.79,0,0,1,277.6,57a65.37,65.37,0,0,0,5.32,4.62,9.12,9.12,0,0,0,3.13,1.41,8.85,8.85,0,0,0,3.44,0A13.3,13.3,0,0,0,295.68,60,39.86,39.86,0,0,0,300.52,54.88Z" transform="translate(82.9 -47.2)"/><path class="cls-16" d="M290.07,77.49q.57-.1,1.14-.18l1.15-.08,1.15,0,1.15.13a14.5,14.5,0,0,1,8.14,4.2l.77.86.7.92.6,1c.17.34.34.68.5,1q-.35-.47-.66-.93l-.72-.88-.76-.83-.81-.77a18.18,18.18,0,0,0-3.68-2.52,17.61,17.61,0,0,0-8.67-2Z" transform="translate(82.9 -47.2)"/><path class="cls-16" d="M246.76,63a16.71,16.71,0,0,0-3.84,3.71,15.83,15.83,0,0,0-2.48,4.68,16.1,16.1,0,0,0-.85,5.2,16.88,16.88,0,0,0,.85,5.18l-.66.09a13.75,13.75,0,0,1,3.68-8.4,13.51,13.51,0,0,1,3.69-2.79A8.9,8.9,0,0,0,249,69.48a3.08,3.08,0,0,0,1.06-1.93,3.06,3.06,0,0,1-.94,2.06A9.9,9.9,0,0,1,247.31,71a13.66,13.66,0,0,0-3.47,2.85,13.1,13.1,0,0,0-1.32,1.81,12.86,12.86,0,0,0-1,2,13.43,13.43,0,0,0-1,4.32l-.11,1.67L239.79,82a16.14,16.14,0,0,1-.86-5.42,15.94,15.94,0,0,1,1-5.38,16.35,16.35,0,0,1,2.73-4.72A15.46,15.46,0,0,1,246.76,63Z" transform="translate(82.9 -47.2)"/><path class="cls-16" d="M252.14,73.75c-.89,2.21-2.12,4.23-3,6.36a14.75,14.75,0,0,0-1.39,6.75,8.42,8.42,0,0,1-.25-3.57,13.43,13.43,0,0,1,1-3.46A35,35,0,0,1,252.14,73.75Z" transform="translate(82.9 -47.2)"/></g></g></g></g></g></svg>