<svg xmlns="http://www.w3.org/2000/svg" viewBox="0 0 300 291.3"><defs><style>.cls-1{fill:#5b6e80;}.cls-2{fill:#98d4c9;}.cls-3{fill:#98d4c8;}</style></defs><g id="Layer_2" data-name="Layer 2"><g id="Layer_1-2" data-name="Layer 1"><path class="cls-1" d="M42.11,52.22C66.25,24,96.59,6.44,133.4,1.52c46.32-6.2,87.21,6.57,121.4,38.72C281.66,65.5,296.3,97,299.93,133.62c.28,2.84-.14,4.09-3.41,4.52-9.72,1.27-19.42,2.87-29.06,4.68-3.22.6-3.52-.42-3.71-3.22-2-29.71-13.92-54.81-35.92-74.89C181.09,22.07,106.11,28.45,68.07,78.17c-1.23.21-1.89-.68-2.62-1.41Q54.65,66,43.85,55.16C43,54.33,42.08,53.55,42.11,52.22Z"/><path class="cls-1" d="M253.19,253.7C194,308,99.08,302.81,46.11,242.41a147.76,147.76,0,0,1-35.95-78.89c-.4-2.92.05-4.26,3.38-4.36,9.57-.27,19-1.69,28.52-2.89,2.94-.38,4,.13,4.32,3.38,5.21,47.35,44.89,88.56,95.39,94.44,32.23,3.75,60.93-5,85.68-26.19.9-.25,1.46.3,2,.86L252,251.35A3.08,3.08,0,0,1,253.19,253.7Z"/><path class="cls-2" d="M253.19,253.7a3.08,3.08,0,0,0-1.17-2.35l-22.56-22.59c-.55-.56-1.11-1.11-2-.86-.38-1.8-1.78-2.85-3-4.05q-13.87-13.9-27.77-27.81c-.9-.9-2.6-1.73-2.33-2.95.39-1.73,2.48-1.05,3.73-1.25,16.36-2.57,32.75-5,49.13-7.42,15.1-2.23,30.22-4.28,45.29-6.67,3.09-.49,3.09.81,2.77,2.87-2.5,16.11-5.09,32.21-7.53,48.32-2.28,15.09-4.41,30.2-6.59,45.31-.2,1.42-.13,3.39-1.24,3.94-1.52.75-2.31-1.27-3.26-2.21-6.72-6.61-13.36-13.32-20.06-20C255.64,255.05,254.93,253.59,253.19,253.7Z"/><path class="cls-3" d="M42.11,52.22c0,1.33.91,2.11,1.74,2.94Q54.64,66,65.45,76.76c.73.73,1.39,1.62,2.62,1.41,0,1.84,1.51,2.67,2.59,3.75Q84.79,96.13,99,110.27c.73.73,1.9,1.71,1.8,2.4-.24,1.52-1.93.93-3,1.1q-24.92,3.89-49.84,7.66C33,123.71,18,126,3.1,128.3c-2.63.41-3.43-.06-3-3C3.53,102.85,6.75,80.4,10,58c1.32-9,2.62-18.06,4-27.07.19-1.22.05-2.95,1.35-3.4s1.91,1.12,2.71,1.91C25,36.22,31.79,43.09,38.66,49.92,39.65,50.89,40.38,52.32,42.11,52.22Z"/></g></g></svg>