<svg xmlns="http://www.w3.org/2000/svg" viewBox="0 0 410.12 324.6"><defs><style>.cls-1{fill:#403657;}.cls-2{fill:#7846d1;}.cls-3{fill:#ffa681;}.cls-4{fill:#9c78ed;}.cls-5{fill:#fff;}.cls-6{fill:#f97853;}.cls-7{fill:#ea5143;}.cls-8{fill:#6020bd;}.cls-9{fill:#e0d5f8;}.cls-10{fill:#1a0b42;}.cls-11{fill:#614c6e;}.cls-12{fill:#5b23a9;}.cls-13{opacity:0.5;}</style></defs><g id="Layer_2" data-name="Layer 2"><g id="Layer_1-2" data-name="Layer 1"><path class="cls-1" d="M97.3,61.37S98,46.63,89,43.8c-14-4.41-17.85,2.83-20,7.61-2.77,6.13-1.59,18.16,6.74,19.32C88.21,72.47,96.53,65.49,97.3,61.37Z"/><path class="cls-1" d="M106.3,110.66a15.33,15.33,0,0,0,15-12.19c1.07-5.11,2.12-9.64,2.12-12.18v-.07c.06-.8.1-1.61.1-2.4.1-11.63-7.07-32.87-32.29-29.5,0,0-20.93,2.39-23.31,22.84,0,0-1,9.44-1.66,16.27l0,.36A15.33,15.33,0,0,0,81.5,110.66Z"/><path class="cls-2" d="M136.25,135s4.45,35.33,9.55,53.47c0,0,7.24-3.37,16.71-7.95,10.27-5,25-14,25-14l3.73,9s-38.14,36-50.78,38-20.38-43.2-20.38-43.2Z"/><path class="cls-3" d="M186.77,167.53s-1.05-5,1.2-8.42,5.66-9.76,9.68-11.08c3.36-1.11-1.6,4.56-1.75,8.16a56.7,56.7,0,0,0,8.6-1.8c3.17-1,9.45-2.32,12.35-2.89a.8.8,0,0,1,.7,1.38c-1,.86-3.07,1.94-7.35,3,0,0,10.45-2,11.53-.37s-12,3.83-12,3.83,10.17-.6,10.43,1c.16,1-10.37,3.2-10.37,3.2s9.61.26,7.29,1.78c-.68.44-19.3,2.53-25.78,10.19C191.28,175.47,186.92,171,186.77,167.53Z"/><path class="cls-2" d="M71.92,128s-21.34,6.29-39.71,10.44c0,0-.48-8-1-18.48-.52-11.4.42-28.69.42-28.69l-9.69,1S8.46,143,12.68,155s57.77-4.84,57.77-4.84Z"/><path class="cls-3" d="M31.11,92.47S36,91,37.94,87.41s7.23-10.82,4-13.5c-1.19-1-2,3.29-5.15,5.13a57.58,57.58,0,0,1-2.51-8.42c-.6-3.28-2.45-9.41-3.33-12.24a.8.8,0,0,0-1.55,0c-.28,1.28-.25,3.62.88,7.88,0,0-3.23-10.13-5.15-10.32s2.35,12.4,2.35,12.4-4.31-9.23-5.84-8.7c-.93.32,2.12,10.64,2.12,10.64s-4.8-8.33-5-5.57c-.06.81,7,18.18,3.3,27.52C22,92.27,28,94,31.11,92.47Z"/><path class="cls-4" d="M135.45,271.86l.17.75c-16.62,11.25-78.78,3.57-78.78,3.57.11-1.3.25-2.66.43-4.08.19-1.57.43-3.2.71-4.88.75-4.52,1.76-9.42,2.89-14.45.36-1.59.73-3.19,1.11-4.81,1.12-4.81,2.31-9.68,3.45-14.42.39-1.64.77-3.25,1.14-4.85.52-2.22,1-4.4,1.48-6.52.61-2.82,1.16-5.52,1.62-8.07.3-1.72.57-3.36.78-4.92s.4-3.22.5-4.66c-1-3.65-1.91-7.23-2.77-10.7-.43-1.77-.85-3.49-1.26-5.2-1.27-5.47-2.4-10.67-3.38-15.54-.34-1.77-.69-3.49-1-5.17-1.09-5.75-2-10.95-2.67-15.49-.27-1.81-.53-3.49-.76-5.09s-.46-3.35-.64-4.81c-.84-6.44-1.13-10.08-1.13-10.08l.46-.34a34,34,0,0,1,8.11-3.72c3.46-1.19,7.28-2.22,10.66-3l1.5-.36c4.43-1,7.74-1.63,7.74-1.63,15.07,3.15,19.37,1.12,19.37,1.12l7.66,2.26.9.32,5.59,2,.22.08,10,3.53,6.68,2.34-2.6,11.95-1.13,5.22-3.41,15.74-1.12,5.2-3.4,15.68-1.12,5.15-2.81,13,.56,2.49,1.1,4.81,1.74,7.66,1.58,6.93,1.09,4.8L130,248l1.1,4.78,3.25,14.28Z"/><path class="cls-3" d="M113.74,127.06c-1.6,9.42-6.17,18.9-15.66,19.92-11.48,1.24-17.42-13.15-20-22,4.43-1,9-2,9-2,15.07,3.16,18,1.24,18,1.24l7.77,2.56Z"/><path class="cls-5" d="M96.91,139.07c-12,0-14.9-14.85-14.93-15a.6.6,0,0,1,.48-.69.61.61,0,0,1,.69.48c.11.6,2.84,14.61,14.46,14,10.17-.51,10.77-11.8,10.79-12.28A.59.59,0,0,1,109,125a.59.59,0,0,1,.57.62c0,.13-.66,12.85-11.91,13.42Z"/><path class="cls-2" d="M75.34,135A2.94,2.94,0,1,1,72.41,132,2.94,2.94,0,0,1,75.34,135Z"/><path class="cls-2" d="M69.46,149.29a2.94,2.94,0,1,1-2.93-2.93A2.94,2.94,0,0,1,69.46,149.29Z"/><path class="cls-2" d="M88.2,156.06a2.94,2.94,0,1,1-2.93-2.93A2.94,2.94,0,0,1,88.2,156.06Z"/><path class="cls-2" d="M75.13,164.07a2.93,2.93,0,1,1-3.81-1.64A2.93,2.93,0,0,1,75.13,164.07Z"/><path class="cls-2" d="M100.57,169.49a2.94,2.94,0,1,1-2.93-2.94A2.93,2.93,0,0,1,100.57,169.49Z"/><path class="cls-2" d="M119.29,175.54a2.94,2.94,0,1,1-2.93-2.94A2.93,2.93,0,0,1,119.29,175.54Z"/><path class="cls-2" d="M123.06,137.91a2.94,2.94,0,1,1-2.94-2.94A2.94,2.94,0,0,1,123.06,137.91Z"/><path class="cls-2" d="M101.76,188.23a2.94,2.94,0,1,1-2.94-2.94A2.93,2.93,0,0,1,101.76,188.23Z"/><path class="cls-2" d="M83.68,197.33a2.94,2.94,0,1,1-2.94-2.94A2.93,2.93,0,0,1,83.68,197.33Z"/><path class="cls-2" d="M81.57,180.76a2.94,2.94,0,1,1-2.93-2.94A2.93,2.93,0,0,1,81.57,180.76Z"/><path class="cls-2" d="M110.49,156.83a2.94,2.94,0,1,1-2.94-2.94A2.94,2.94,0,0,1,110.49,156.83Z"/><path class="cls-2" d="M126.71,153.13a2.94,2.94,0,1,1-2.93-2.94A2.93,2.93,0,0,1,126.71,153.13Z"/><path class="cls-2" d="M116.36,193.08a2.94,2.94,0,1,1-2.94-2.93A2.94,2.94,0,0,1,116.36,193.08Z"/><path class="cls-2" d="M117.14,216.3a2.94,2.94,0,1,1-2.93-2.93A2.93,2.93,0,0,1,117.14,216.3Z"/><path class="cls-2" d="M102.2,206.62A2.93,2.93,0,1,1,98.39,205,2.93,2.93,0,0,1,102.2,206.62Z"/><path class="cls-2" d="M82.23,215.22a2.94,2.94,0,1,1-3.82-1.64A2.94,2.94,0,0,1,82.23,215.22Z"/><polygon class="cls-4" points="141.66 308.87 141.06 305.21 138.69 291.03 137.88 286.17 135.62 272.61 131.51 272.8 77.02 275.27 56.84 276.18 55.55 286.73 54.94 291.64 53.15 306.2 52.82 308.87 141.66 308.87"/><path class="cls-1" d="M141.66,308.87l-.55-3.3-.05-.35-.39-2.33-.4-2.32L138.68,291l-.46-2.83-.35-2-.05-.3-2.06-12.37-.13-.88-.19-.76-.16-.67-.93-4.09-1.82-8-.53-2.29-.91-4L130,248l-.74-3.28-.53-2.29-2-8.85-.74-3.24-.35-1.57-.16-.72-1.41-6.22c-22.15,6.55-45.62,2.66-56,.33-.46,2.1-1,4.3-1.48,6.52-.12.48-.23,1-.35,1.45-.18.77-.37,1.53-.55,2.29-.07.37-.16.72-.26,1.09-.85,3.63-1.75,7.33-2.63,11-.19.77-.35,1.53-.53,2.27-.1.39-.19.76-.28,1.15-.37,1.62-.74,3.24-1.11,4.81-.46,2.11-.9,4.16-1.32,6.2-.16.76-.32,1.5-.46,2.24-.42,2.06-.79,4.07-1.11,6-.28,1.69-.51,3.31-.69,4.9-.07.49-.12,1-.19,1.44-.07.78-.16,1.55-.23,2.31,0,.11,0,.21,0,.32l-1.3,10.54-.21,1.65-.27,2.29-.12,1-1.43,11.53-.28,2.31-.09.74-.32,2.66Z"/><path class="cls-6" d="M114.86,87.63s3.6-4.57,6.28-.79S120,101.76,113.47,99Z"/><path class="cls-7" d="M114.91,95.6a.56.56,0,0,0,.53-.39c1-3.44,4.77-4.84,4.81-4.85a.52.52,0,0,0,.32-.68.58.58,0,0,0-.72-.31c-.17.07-4.31,1.59-5.48,5.56a.53.53,0,0,0,.39.65Z"/><path class="cls-7" d="M118.69,93.86a.61.61,0,0,0,.3-.08.51.51,0,0,0,.17-.73,5,5,0,0,0-2.08-1.59.56.56,0,0,0-.73.26.52.52,0,0,0,.28.7,4,4,0,0,1,1.6,1.2A.54.54,0,0,0,118.69,93.86Z"/><path class="cls-5" d="M113.24,99a3.9,3.9,0,1,0,5.32-.47,4,4,0,0,0-1.57-.75.7.7,0,0,1,.14-.74,4.71,4.71,0,0,1,2,1,4.66,4.66,0,1,1-6.59.66Z"/><path class="cls-3" d="M87.09,111v13.67s6.35,4.91,11.31,5.33,6.67-5.41,6.67-5.41V111.81Z"/><path class="cls-6" d="M87.09,112.29v5.45c3.33,3.7,9.23,5,18,3.71v-8.3Z"/><path class="cls-3" d="M117,92.83c-.16,1.32-.35,2.66-.59,4-1.57,8.89-7.19,18.5-14.3,20.11-15.33,3.48-21.7-8.56-24.15-17.45-.27-1,.23-2.12,0-3.29-.51-2.77-1.63-5.91-1.88-9C76,85,75.83,82.91,75.74,81a12.56,12.56,0,0,1,7.77-12.31c7-2.81,17.76-5,27.9.92a12.65,12.65,0,0,1,6.18,10.72A95.64,95.64,0,0,1,117,92.83Z"/><path class="cls-6" d="M97.58,99.71a.6.6,0,0,1-.59-.5.58.58,0,0,1,.49-.68l2-.35-2.82-7.5a.6.6,0,1,1,1.12-.42l3.33,8.86-3.48.58Z"/><path class="cls-1" d="M104.91,89.78c0,1.31.68,2.37,1.51,2.37s1.52-1.06,1.52-2.37-.68-2.38-1.52-2.38S104.91,88.46,104.91,89.78Z"/><path class="cls-1" d="M88.21,89.78c0,1.31.68,2.37,1.52,2.37s1.51-1.06,1.51-2.37-.68-2.38-1.51-2.38S88.21,88.46,88.21,89.78Z"/><path class="cls-1" d="M110.87,83.54a29.72,29.72,0,0,0-6.29-.53c-.69,0-1.24.54-1.15,1.09h0a1,1,0,0,0,1.09.69,33.48,33.48,0,0,1,8.62.54,1.14,1.14,0,0,0-.46-.94A3.64,3.64,0,0,0,110.87,83.54Z"/><path class="cls-1" d="M86.58,83.83a29,29,0,0,1,6.28-.62c.69,0,1.24.52,1.16,1.07v0a1,1,0,0,1-1.08.7,33.26,33.26,0,0,0-8.61.66,1.16,1.16,0,0,1,.44-1A3.75,3.75,0,0,1,86.58,83.83Z"/><path class="cls-5" d="M104.91,103.26c-.44,2.08-1.91,5.93-6.85,5.93s-6.35-3.51-6.82-5.93Z"/><path class="cls-6" d="M98.13,112.78a5.85,5.85,0,0,0,2.74-.8.59.59,0,0,0-.61-1h0a4.65,4.65,0,0,1-2.13.63,4.88,4.88,0,0,1-2.24-.63.57.57,0,0,0-.8.2.58.58,0,0,0,.19.8A6.18,6.18,0,0,0,98.13,112.78Z"/><path class="cls-1" d="M117.65,91.43c-.15.12-.28.08-.41-.15-2-3.57-.13-10.7-6.12-13.43a12.7,12.7,0,0,1-6.21-6.36,12.85,12.85,0,0,1-3.76,3.43,109.43,109.43,0,0,1-14.06,6.85,23.86,23.86,0,0,0-4.71,2.36l.13,0s-2,3.22-.54,8.23-.41,13.28-3.64,15.18c.06-.14,2.48-5.85,1.11-10.51-.78-2.68-.78-6.93-1.52-9.48-.83-.57-2.74-1.53-3.39-1.91-.18-2.19-.31-4.35-.41-6.31a12.79,12.79,0,0,1,8.2-12.55c7.43-2.85,18.72-5.12,29.41,1a12.84,12.84,0,0,1,6.51,10.92A93.09,93.09,0,0,1,117.65,91.43Z"/><path class="cls-3" d="M77.92,87.59s-4.19-5.08-6.66-1.42,1.17,14.91,7.23,12.26Z"/><path class="cls-5" d="M78.09,98.61A3.9,3.9,0,1,1,73,96.87a3.82,3.82,0,0,1,1.71-.34.89.89,0,0,0,0-.75,4.65,4.65,0,0,0-4.66,3.52,4.66,4.66,0,1,0,9,2.26,4.62,4.62,0,0,0-.31-3.08Z"/><path class="cls-6" d="M77,94.68a.51.51,0,0,1-.49-.38,7.93,7.93,0,0,0-4.44-4.71.51.51,0,0,1-.29-.66.5.5,0,0,1,.65-.29A8.78,8.78,0,0,1,77.5,94a.51.51,0,0,1-.35.63Z"/><path class="cls-6" d="M73.51,93a.45.45,0,0,1-.27-.08.52.52,0,0,1-.16-.71A4.79,4.79,0,0,1,75,90.66a.51.51,0,0,1,.68.26.5.5,0,0,1-.26.67,3.71,3.71,0,0,0-1.48,1.17A.5.5,0,0,1,73.51,93Z"/><path class="cls-3" d="M299.8,198c-9.75,7-25,11.8-25,11.8l-3.12-11.23-2.44-8.77-1.72-6.17H250c1,3.27,1.93,6.62,2.91,9.91,1.26,4.25,2.52,8.42,3.71,12.26,1.69,5.4,3.25,10.15,4.5,13.54.29.79.63,1.66,1,2.57,2.33,6.32,4.22,13.16,13.14,8.87,7.85-3.78,18.49-9,23.81-12.51Z"/><path class="cls-6" d="M253,193.49c1.26,4.25,2.52,8.42,3.71,12.25a24.85,24.85,0,0,0,15-7.21l-2.44-8.77Z"/><path class="cls-8" d="M249.24,132.19s18.23,43.49,26.08,57.58c0,0-11,9.34-21.7,9.6C253.62,199.37,247.45,151.62,249.24,132.19Z"/><path class="cls-4" d="M206.54,308.9c.19-3,.36-5.94.52-8.62.64-11,1.06-18.47,1.06-18.47l-4.3-.2-2.43-.11-29.22-1.29s-.54,8.38-1.16,20.68c-.13,2.52-.26,5.2-.4,8Z"/><path class="cls-2" d="M203.82,281.61l4.3.2s-.42,7.49-1.06,18.47a262.38,262.38,0,0,1-36.05.61c.62-12.3,1.16-20.68,1.16-20.68l29.22,1.29Z"/><path class="cls-2" d="M202.28,308.9c.68-11.72,1.24-21.77,1.54-27.29l-2.42-.1c-.31,5.54-.87,15.63-1.55,27.39Z"/><path class="cls-4" d="M216,308.9h35.93c-.13-2.81-.26-5.49-.39-8-.63-12.3-1.16-20.68-1.16-20.68l-29.23,1.29-2.42.11-4.3.2s.41,7.49,1.06,18.47C215.61,303,215.78,305.86,216,308.9Z"/><path class="cls-2" d="M218.69,281.61l-4.3.2s.41,7.49,1.06,18.47a262.38,262.38,0,0,0,36.05.61c-.63-12.3-1.16-20.68-1.16-20.68l-29.23,1.29Z"/><path class="cls-2" d="M222.65,308.9c-.68-11.76-1.24-21.85-1.54-27.39l-2.42.1c.3,5.52.85,15.57,1.53,27.29Z"/><path class="cls-2" d="M165.82,259.37v1.78c0,10.69.07,19,.12,23a172.06,172.06,0,0,0,31,5.44l1.4.1.75,0c.56,0,1.12.08,1.67.1l1.84.1a163.18,163.18,0,0,0,21.09-.38c1.42-.11,2.83-.25,4.25-.4l.27,0,1.09-.13.65-.08a172.62,172.62,0,0,0,24.53-4.77c0-1.85,0-4.59,0-8v-2h0c0-4.93,0-11.08-.09-18,0-.59,0-1.19,0-1.8,0-4.62-.09-9.58-.15-14.75,0-.59,0-1.19,0-1.8-.07-5.29-.15-10.8-.24-16.39-.06-3.41-.12-6.85-.19-10.3s-.15-7-.23-10.46l-.06-2.27c-.8-32.85-2.18-63-4.47-66.42-1.59-2.33-5.23-5.07-9.51-7.83l-1.6-1c-1.82-1.14-16.71-6.19-18.6-7.31l-15.73-1.1c-.1.06-15.14,5.14-15.24,5.19-.64.37-1.3.74-1.94,1.12-5.58,3.21-11.07,6.6-14.24,9.51a15.65,15.65,0,0,0-1.22,1.24,7.39,7.39,0,0,0-.74.94,5,5,0,0,0-.55,1.38c-1.9,6.92-2.9,34.1-3.4,63.68l-.09,6.39c0,.93,0,1.88,0,2.82,0,.64,0,1.29,0,1.94v1c0,1.61,0,3.22-.06,4.81,0,1.18,0,2.36,0,3.54C165.85,233.11,165.81,247.58,165.82,259.37Z"/><path class="cls-3" d="M137.69,301.61c-.39,4.2,4.72,1.92,3.28-6.59s2.65-16.21,4.42-16-1.46,9.29.11,12.55,3.6-3.07,5.63-6.91c2.09-4,2-12.69,1-18.9s10.3-43.94,10.36-54.87l1.37-4.63,5-17,7.86-26.57s-4.71-20.12-12.65-18.39c0,0-4.2,14-8.7,29.81-.76,2.68-1.53,5.42-2.29,8.14-3.2,11.46-6.21,22.77-7.61,29.48-3.69,17.72-4,54.54-4,54.54s-6.52,13.53-6.68,19.55C134.7,292.3,138.07,297.41,137.69,301.61Z"/><path class="cls-6" d="M153.12,182.31l10.76,24,5-17-13.49-15.15C154.65,176.85,153.88,179.59,153.12,182.31Z"/><path class="cls-2" d="M152.59,175.17c4.72,8.09,9.51,16.14,14.29,24.2,1.58-5.27,3.21-10.33,4.74-15,0,0,0,0,0,0,.61-1.86,1.21-3.65,1.78-5.37l0-.09.59-1.77h0c2.29-6.9,4.05-12.38,4.56-15.58,1.36-8.6-2.35-25.46-7.59-28.79h0c-.13.31-.54-.63-.79-.06-.92,2.13-5,7.37-7,12.48-.26.65-.52,1.33-.8,2C159.47,154.7,155.9,164.47,152.59,175.17Z"/><path class="cls-8" d="M210.76,130.42c6.81,0,11.62-6.22,11.82-6.48a.93.93,0,0,0-.12-1.24.79.79,0,0,0-1.16.13c-.06.08-4.53,5.83-10.54,5.83s-9.56-6.51-9.59-6.58a.78.78,0,0,0-1.12-.31.9.9,0,0,0-.3,1.2C199.91,123.27,203.87,130.42,210.76,130.42Z"/><path class="cls-8" d="M239.57,190a.74.74,0,0,0,.37-.1.92.92,0,0,0,.37-1.19l-3-6.28a.8.8,0,0,0-1.11-.39.91.91,0,0,0-.36,1.19l3,6.28A.81.81,0,0,0,239.57,190Z"/><path class="cls-8" d="M245.76,184.83a.78.78,0,0,0,.36.13.84.84,0,0,0,.9-.8l.59-7a.87.87,0,0,0-.76-1,.84.84,0,0,0-.9.8l-.58,7A.89.89,0,0,0,245.76,184.83Z"/><path class="cls-8" d="M229.8,174a.83.83,0,0,0,.81-.74l1.08-6.94a.89.89,0,0,0-.69-1,.84.84,0,0,0-.95.73L229,172.93a.87.87,0,0,0,.68,1Z"/><path class="cls-8" d="M203.1,176.55a.77.77,0,0,0,.43-.13.92.92,0,0,0,.29-1.21l-3.36-6.06a.79.79,0,0,0-1.13-.31.93.93,0,0,0-.29,1.22l3.35,6.05A.82.82,0,0,0,203.1,176.55Z"/><path class="cls-8" d="M235.9,149.41a.79.79,0,0,0,.44-.14l5.53-3.83a.93.93,0,0,0,.25-1.22A.81.81,0,0,0,241,144l-5.53,3.83a.92.92,0,0,0-.24,1.22A.82.82,0,0,0,235.9,149.41Z"/><path class="cls-8" d="M211.28,205.82a.85.85,0,0,0,.38-.09.92.92,0,0,0,.36-1.2l-3-6.27a.79.79,0,0,0-1.11-.39.91.91,0,0,0-.37,1.19l3,6.28A.84.84,0,0,0,211.28,205.82Z"/><path class="cls-8" d="M224.34,154.13a.84.84,0,0,0,.7-.41.93.93,0,0,0-.26-1.23l-5.58-3.73a.79.79,0,0,0-1.14.28.92.92,0,0,0,.26,1.22L223.9,154A.8.8,0,0,0,224.34,154.13Z"/><path class="cls-8" d="M237.6,128a.87.87,0,0,0,.1.48.8.8,0,0,0,.67.47.85.85,0,0,0,.88-.82l.27-4.05-1.6-1Z"/><path class="cls-8" d="M245,166.55a.82.82,0,0,0,.7-.42.92.92,0,0,0-.26-1.22l-5.58-3.73a.79.79,0,0,0-1.14.28.91.91,0,0,0,.26,1.22l5.58,3.73A.79.79,0,0,0,245,166.55Z"/><path class="cls-8" d="M200.56,135.91a.79.79,0,0,0,.46-.15.93.93,0,0,0,.23-1.23l-3.18-5.16a.8.8,0,0,0-1.15-.25.93.93,0,0,0-.23,1.23l3.18,5.16A.81.81,0,0,0,200.56,135.91Z"/><path class="cls-8" d="M197.71,225.08a.83.83,0,0,0,.6-.28l4.55-5.07a.94.94,0,0,0,0-1.26.78.78,0,0,0-1.17,0l-4.56,5.07a.93.93,0,0,0,0,1.26A.81.81,0,0,0,197.71,225.08Z"/><path class="cls-8" d="M214.45,224a.8.8,0,0,0,.6-.27l4.56-5.08a.92.92,0,0,0,0-1.25.8.8,0,0,0-1.18,0l-4.55,5.08a.92.92,0,0,0,0,1.25A.78.78,0,0,0,214.45,224Z"/><path class="cls-8" d="M226.49,258.33a.88.88,0,0,0,0-.69l-2.84-6.35a.81.81,0,0,0-1.11-.41.91.91,0,0,0-.38,1.18l2.84,6.35a.81.81,0,0,0,1.11.41A.83.83,0,0,0,226.49,258.33Z"/><path class="cls-8" d="M178.44,279.27a.92.92,0,0,0,0-.69l-2.84-6.35a.8.8,0,0,0-1.11-.41.91.91,0,0,0-.39,1.18l2.85,6.34a.8.8,0,0,0,1.1.42A.85.85,0,0,0,178.44,279.27Z"/><path class="cls-8" d="M199.07,289.78c.56,0,1.11.08,1.67.1l.58-3.95a.88.88,0,0,0-.7-1,.83.83,0,0,0-.94.74Z"/><path class="cls-8" d="M192.46,277.84a1,1,0,0,0,.34-.59l1-7a.88.88,0,0,0-.69-1,.84.84,0,0,0-.95.74l-1,7a.87.87,0,0,0,.69,1A.81.81,0,0,0,192.46,277.84Z"/><path class="cls-8" d="M232.46,219.7a.79.79,0,0,0,.42-.12.91.91,0,0,0,.3-1.21l-3.29-6.09a.81.81,0,0,0-1.14-.32.92.92,0,0,0-.3,1.21l3.3,6.09A.82.82,0,0,0,232.46,219.7Z"/><path class="cls-8" d="M222.79,204.48a.81.81,0,0,0,.73-.48l3-6.25a.92.92,0,0,0-.36-1.2.8.8,0,0,0-1.11.38l-3,6.26a.91.91,0,0,0,.36,1.19A.75.75,0,0,0,222.79,204.48Z"/><path class="cls-8" d="M249,203.56a.9.9,0,0,0,.31.25.81.81,0,0,0,.86-.14l3.39-3c0-.76,0-1.51-.06-2.27l-4.4,4A.93.93,0,0,0,249,203.56Z"/><path class="cls-8" d="M222.83,138.13a.84.84,0,0,0,.74-.48l3-6.26a.92.92,0,0,0-.35-1.19.81.81,0,0,0-1.12.38l-3,6.26a.91.91,0,0,0,.36,1.19A.75.75,0,0,0,222.83,138.13Z"/><path class="cls-8" d="M203.49,161a.41.41,0,0,0,.16,0,.87.87,0,0,0,.66-1l-1.25-6.91a.84.84,0,0,0-1-.71.9.9,0,0,0-.66,1l1.25,6.91A.84.84,0,0,0,203.49,161Z"/><path class="cls-8" d="M214.26,167.11l.16,0a.88.88,0,0,0,.65-1l-1.24-6.91a.84.84,0,0,0-1-.7.89.89,0,0,0-.65,1l1.25,6.91A.84.84,0,0,0,214.26,167.11Z"/><path class="cls-8" d="M206.55,144.31a.81.81,0,0,0,.7-.41l3.52-5.94a.92.92,0,0,0-.25-1.23.8.8,0,0,0-1.15.28L205.85,143a.92.92,0,0,0,.25,1.22A.77.77,0,0,0,206.55,144.31Z"/><path class="cls-8" d="M238.89,205.58a.93.93,0,0,0,.15-1l-2.84-6.35a.8.8,0,0,0-1.1-.42.9.9,0,0,0-.39,1.18l2.83,6.35a.81.81,0,0,0,1.11.42A.88.88,0,0,0,238.89,205.58Z"/><path class="cls-8" d="M217.56,187.15a.82.82,0,0,0,.77-.56l2.4-6.56a.89.89,0,0,0-.47-1.14.8.8,0,0,0-1.07.5l-2.4,6.55a.9.9,0,0,0,.47,1.15A.8.8,0,0,0,217.56,187.15Z"/><path class="cls-8" d="M191.22,227.63a.74.74,0,0,0,.37-.1.92.92,0,0,0,.37-1.19l-3-6.28a.8.8,0,0,0-1.11-.39.92.92,0,0,0-.37,1.19l3,6.28A.81.81,0,0,0,191.22,227.63Z"/><path class="cls-8" d="M234.88,272.75a.9.9,0,0,0,.09.4.8.8,0,0,0,1.12.38l5.84-3.23a.92.92,0,0,0,.36-1.2.81.81,0,0,0-1.12-.38L235.33,272A.89.89,0,0,0,234.88,272.75Z"/><path class="cls-8" d="M250.74,276.78a.93.93,0,0,0,.09.4.81.81,0,0,0,1.12.38l2.54-1.41v-2l-3.3,1.82A.91.91,0,0,0,250.74,276.78Z"/><path class="cls-8" d="M226.19,284.61l2,4.56,1.09-.13.65-.08-2.24-5.1a.8.8,0,0,0-1.1-.43A.92.92,0,0,0,226.19,284.61Z"/><path class="cls-8" d="M180.43,211.61a.84.84,0,0,0,.82-.74l1.07-6.94a.88.88,0,0,0-.68-1,.83.83,0,0,0-.95.73l-1.08,6.94a.89.89,0,0,0,.69,1Z"/><path class="cls-8" d="M179.75,160.38a.81.81,0,0,0,.42-.12.9.9,0,0,0,.29-1.21L177.11,153a.8.8,0,0,0-1.14-.31.92.92,0,0,0-.29,1.21L179,160A.81.81,0,0,0,179.75,160.38Z"/><path class="cls-8" d="M190.53,185a.85.85,0,0,0,.45-.14L196.5,181a.91.91,0,0,0,.25-1.22.81.81,0,0,0-1.15-.27l-5.52,3.83a.91.91,0,0,0-.25,1.22A.82.82,0,0,0,190.53,185Z"/><path class="cls-8" d="M249,226.28a.74.74,0,0,0,.37-.1.91.91,0,0,0,.36-1.19l-3-6.28a.8.8,0,0,0-1.11-.39.92.92,0,0,0-.37,1.19l3,6.28A.84.84,0,0,0,249,226.28Z"/><path class="cls-8" d="M181.11,194.54a.83.83,0,0,0,.71-.42.92.92,0,0,0-.27-1.22L176,189.16a.81.81,0,0,0-1.15.28.94.94,0,0,0,.27,1.23l5.57,3.73A.82.82,0,0,0,181.11,194.54Z"/><path class="cls-8" d="M194.48,203.42a.78.78,0,0,0,.78.2.89.89,0,0,0,.59-1.09l-1.73-6.79a.83.83,0,0,0-1-.62.9.9,0,0,0-.58,1.09l1.73,6.79A.86.86,0,0,0,194.48,203.42Z"/><path class="cls-8" d="M171,131.74l1.44,2.34a.81.81,0,0,0,.69.4.79.79,0,0,0,.46-.15.92.92,0,0,0,.23-1.22l-1.6-2.61A15.65,15.65,0,0,0,171,131.74Z"/><path class="cls-8" d="M164.64,147.18l1.53,2.49a.82.82,0,0,0,.7.4.78.78,0,0,0,.45-.15.92.92,0,0,0,.24-1.23l-2.18-3.53Z"/><path class="cls-8" d="M236.35,248.2a.8.8,0,0,0,.6-.27l4.56-5.08a.92.92,0,0,0,0-1.25.79.79,0,0,0-1.17,0l-4.56,5.08a.93.93,0,0,0,0,1.25A.78.78,0,0,0,236.35,248.2Z"/><path class="cls-8" d="M206,266a.8.8,0,0,0,.6-.27l4.56-5.08a.93.93,0,0,0,0-1.25.79.79,0,0,0-1.17,0l-4.56,5.08a.93.93,0,0,0,0,1.25A.78.78,0,0,0,206,266Z"/><path class="cls-8" d="M197.61,258.9a1,1,0,0,0,.17-.67l-.82-7a.84.84,0,0,0-.92-.77.87.87,0,0,0-.72,1l.82,7a.84.84,0,0,0,.92.77A.82.82,0,0,0,197.61,258.9Z"/><path class="cls-8" d="M214.88,278.58a.79.79,0,0,0,.59-.27l4.56-5.08a.92.92,0,0,0,0-1.25.8.8,0,0,0-1.18,0l-4.55,5.08a.92.92,0,0,0,0,1.25A.79.79,0,0,0,214.88,278.58Z"/><path class="cls-8" d="M165.82,259.37v1.78l5.15.46a.85.85,0,0,0,.89-.81.88.88,0,0,0-.75-1Z"/><path class="cls-8" d="M226.06,237.53a.81.81,0,0,0,.6-.28l4.55-5.07a.94.94,0,0,0,0-1.26.79.79,0,0,0-1.17,0L225.46,236a.92.92,0,0,0,0,1.25A.81.81,0,0,0,226.06,237.53Z"/><path class="cls-8" d="M204.14,235.32a.88.88,0,0,0,.29.62l5,4.53a.78.78,0,0,0,1.16-.11.93.93,0,0,0-.1-1.25l-5-4.53a.8.8,0,0,0-1.17.11A.91.91,0,0,0,204.14,235.32Z"/><path class="cls-8" d="M180.14,260.23a.81.81,0,0,0,.42-.12.92.92,0,0,0,.3-1.21l-3.3-6.09a.79.79,0,0,0-1.13-.32.91.91,0,0,0-.3,1.21l3.29,6.09A.83.83,0,0,0,180.14,260.23Z"/><path class="cls-8" d="M174.43,242.13a.82.82,0,0,0,.74-.48l3-6.25a.92.92,0,0,0-.36-1.2.8.8,0,0,0-1.11.38l-3,6.26a.91.91,0,0,0,.36,1.19A.74.74,0,0,0,174.43,242.13Z"/><path class="cls-8" d="M183.43,171.12a.82.82,0,0,0,.74-.48l3-6.25a.92.92,0,0,0-.36-1.2.82.82,0,0,0-1.12.38l-3,6.26a.92.92,0,0,0,.35,1.19A.8.8,0,0,0,183.43,171.12Z"/><path class="cls-8" d="M180.14,144.88l.16,0a.88.88,0,0,0,.65-1l-1.24-6.91a.84.84,0,0,0-1-.7.88.88,0,0,0-.66,1l1.25,6.91A.84.84,0,0,0,180.14,144.88Z"/><path class="cls-8" d="M165,168.72l.16,0a.87.87,0,0,0,.65-1l-1.24-6.9a.84.84,0,0,0-1-.71.88.88,0,0,0-.65,1l1.24,6.91A.85.85,0,0,0,165,168.72Z"/><path class="cls-8" d="M190.9,150.94h.16a.89.89,0,0,0,.66-1L190.47,143a.83.83,0,0,0-1-.7.89.89,0,0,0-.66,1l1.25,6.9A.84.84,0,0,0,190.9,150.94Z"/><path class="cls-8" d="M186,126.87a.79.79,0,0,0,.46,0,.89.89,0,0,0,.54-.63l1.39-6.35L186.4,121l-1.05,4.82A.88.88,0,0,0,186,126.87Z"/><path class="cls-8" d="M167,179.4a.82.82,0,0,0,.71-.41l3.52-5.94a.92.92,0,0,0-.25-1.22.8.8,0,0,0-1.15.27L166.3,178a.91.91,0,0,0,.25,1.22A.74.74,0,0,0,167,179.4Z"/><path class="cls-8" d="M190.54,243.23a.93.93,0,0,0,.15-1l-2.84-6.35a.81.81,0,0,0-1.1-.42.9.9,0,0,0-.39,1.18l2.83,6.35a.8.8,0,0,0,1.1.42A.79.79,0,0,0,190.54,243.23Z"/><path class="cls-8" d="M248.86,255.16l5.54,1c0-.59,0-1.19,0-1.8l-5.25-.91a.83.83,0,0,0-.95.73A.88.88,0,0,0,248.86,255.16Z"/><path class="cls-8" d="M250.55,238.94l3.69.64c0-.6,0-1.2,0-1.8l-3.4-.59a.83.83,0,0,0-.95.73A.87.87,0,0,0,250.55,238.94Z"/><path class="cls-8" d="M169.21,224.8a.82.82,0,0,0,.77-.56l2.4-6.56a.89.89,0,0,0-.47-1.14.8.8,0,0,0-1.07.5l-2.4,6.55a.9.9,0,0,0,.47,1.15A.8.8,0,0,0,169.21,224.8Z"/><path class="cls-8" d="M166.17,204.13c1.55-6.44,3.51-13.59,5.45-19.75v0c.6-1.91,1.2-3.71,1.78-5.37l0-.09c.18-.52.37-1,.55-1.52a1.18,1.18,0,0,0,0-.25h0a.73.73,0,0,0-.48-.68.73.73,0,0,0-.94.44c-2,5.42-4.33,13.22-6.35,20.87Z"/><path class="cls-1" d="M189.94,79.93s-5.77-6.37-3.6-13.77,8.14-7.32,8.14-7.32S198,51,203.89,50.71s11.5-10.78,16.89-7.93-.58,9.09-.58,9.09,9.23-9.74,12.28-6.88-4.23,10.52-4.23,10.52,7.76-5.45,10.31-3.38-6.08,11-6.08,11,5.58,10.07,0,14.58Z"/><path class="cls-6" d="M230.28,82.06s3.69-4.93,6.44-.86-1.14,16.1-7.86,13.16Z"/><path class="cls-7" d="M230.33,90.65a.57.57,0,0,0,.54-.42c1-3.71,4.89-5.21,4.93-5.23a.57.57,0,0,0-.4-1.06c-.18.07-4.42,1.71-5.62,6a.57.57,0,0,0,.39.7Z"/><path class="cls-7" d="M234.21,88.78a.55.55,0,0,0,.3-.09.57.57,0,0,0,.17-.79,5.1,5.1,0,0,0-2.13-1.72.58.58,0,0,0-.75.29.56.56,0,0,0,.29.75,4.1,4.1,0,0,1,1.64,1.3A.56.56,0,0,0,234.21,88.78Z"/><path class="cls-6" d="M192.23,82.06s-3.69-4.93-6.44-.86,1.14,16.1,7.86,13.16Z"/><path class="cls-7" d="M192.18,90.65a.56.56,0,0,1-.54-.42c-1-3.71-4.89-5.21-4.93-5.23a.57.57,0,1,1,.4-1.06c.18.07,4.42,1.71,5.62,6a.57.57,0,0,1-.39.7Z"/><path class="cls-7" d="M188.3,88.78a.61.61,0,0,1-.31-.09.58.58,0,0,1-.17-.79A5.26,5.26,0,0,1,190,86.18a.57.57,0,1,1,.46,1,4,4,0,0,0-1.64,1.3A.56.56,0,0,1,188.3,88.78Z"/><path class="cls-3" d="M202.17,104.56v12s3.56,6.09,8.38,6.5,9.1-5.24,9.1-5.24V105.4Z"/><path class="cls-6" d="M202.17,104.56v5.31c3.23,3.59,9,4.48,17.48,3.23v-7.7Z"/><path class="cls-3" d="M189.56,73.86A115.54,115.54,0,0,0,191.11,89h0s0,0,0,0h0c.21,1.14.46,2.2.73,3.16.16.57.33,1.16.53,1.76,2.83,8.89,9.4,21.76,25.9,15.87,7-2.48,10.57-9.65,12.41-17.44.11-.46.21-.92.3-1.36s.12-.59.18-.87l.08-.41c0-.07,0-.12,0-.15a.08.08,0,0,0,0,0,85.23,85.23,0,0,0,1.17-16.36,12.46,12.46,0,0,0-6.33-10.62c-10.4-5.9-21.37-3.7-28.6-.92A12.43,12.43,0,0,0,189.56,73.86Z"/><path class="cls-1" d="M191.11,89h0s0,0,0,0h0c.1.39.68,2.52,1.26,4.92,2.83,8.89,9.4,21.76,25.9,15.87,7-2.48,10.57-9.65,12.41-17.44.11-.46.21-.92.3-1.36s.12-.59.18-.87l.08-.41c0-.07,0-.12,0-.15a.08.08,0,0,0,0,0l-2.43-.49a18.66,18.66,0,0,1-2.75,6.39c-2.05-4.92-12.47-1.66-12.47-1.66l0,0a6.42,6.42,0,0,1-3.94,0s-10.29-3.41-12.42,1.29a64.87,64.87,0,0,1-3.58-6.3l-2.54.18ZM211.62,96c11.78-1.59,9.93,4.76,9.93,4.76a20,20,0,0,1-3.31,2.51,13.59,13.59,0,0,1-6.94,1.89c-1.8-.08-2.3.29-6.87-2.18a11.49,11.49,0,0,1-2.42-1.84h0C201.81,99.91,199.81,94,211.62,96Z"/><path class="cls-1" d="M201,82.5c0,1.28.66,2.31,1.47,2.31s1.47-1,1.47-2.31-.66-2.31-1.47-2.31S201,81.23,201,82.5Z"/><path class="cls-1" d="M219.31,82.5c0,1.28.66,2.31,1.47,2.31s1.47-1,1.47-2.31-.66-2.31-1.47-2.31S219.31,81.23,219.31,82.5Z"/><path class="cls-1" d="M197.19,74.71s6.07-2.4,10.74-.38l-.47,2.6s-6.86-.58-10.31.82A4.47,4.47,0,0,1,197.19,74.71Z"/><path class="cls-1" d="M226.05,74.72s-6.11-2.41-10.82-.38L215.7,77s6.91-.59,10.39.83A4.56,4.56,0,0,0,226.05,74.72Z"/><path class="cls-6" d="M211.06,92.83A6.12,6.12,0,0,1,209,92.4a.57.57,0,0,1,.43-1.05,3.46,3.46,0,0,0,2.28.21A.62.62,0,0,0,212,91c.2-2-.34-8.63-.34-8.7a.56.56,0,0,1,.51-.61.57.57,0,0,1,.62.52,86.7,86.7,0,0,1,.34,8.91,1.74,1.74,0,0,1-.83,1.39A2.46,2.46,0,0,1,211.06,92.83Z"/><path class="cls-5" d="M218.3,97.16c-.43,2.17-1.87,6.16-6.69,6.16s-6.2-3.65-6.67-6.16Z"/><path class="cls-1" d="M189.56,73.85A117.26,117.26,0,0,0,191.11,89l2.54-.18s-.61-3.93-.9-6.48S192,75,194.17,74.37s.89-6,3.92-8.4,9.8-3,14.27-.27,9.49-.21,11.55.27,4.85,3.31,4.1,6,1.51,4.26,2.06,7-1.21,10.13-1.21,10.13l2.43.49a85.23,85.23,0,0,0,1.17-16.36,12.46,12.46,0,0,0-6.33-10.62c-10.4-5.9-21.38-3.7-28.6-.92A12.44,12.44,0,0,0,189.56,73.85Z"/><path class="cls-2" d="M294.08,201.79c-1.54,14.09-10.74,45.54-17.1,51.71-8.29,8-35.57,24.91-49.77,33.57-2.57,1.56,9.47,12,9.47,12s37.72-16.13,52.13-28.85c4.08-3.6,12.35-14.95,21.69-36.56,2.83-6.56,9.7-19.77,9.34-28.39C319.43,195.32,303.67,197,294.08,201.79Z"/><path class="cls-3" d="M264.65,282.68s-10.26,3.9-13.9,8.19-8.44,7.92-7.27,9.61,6.49-3.25,6.49-3.25,1.46,5.42,6.62,6,14.94-9.52,14.94-9.52Z"/><path class="cls-4" d="M365.92,241.11c0,.89,0,1.95,0,3.14s0,2.52-.08,4q0,1.5-.09,3.15c0,.93-.07,1.89-.11,2.89s-.09,2.08-.15,3.16c-.71,14.75-2.44,35.11-6.24,51.44H279.41c2.67-11.87,6.74-30.58,10-54.86.14-1,.27-2.05.4-3.09s.27-2.1.4-3.16c.07-.56.13-1.13.2-1.7s.11-.94.16-1.4c.15-1.31.29-2.6.4-3.86.11-1,.2-2.09.29-3.11,1.37-16.33.88-28.56,2.85-35.89,2.29-8.53,29-18.31,29-18.31l16.74.88s15.95,5.21,24.48,12.7,1.4,29.84,1.61,42.53C365.91,240,365.92,240.53,365.92,241.11Z"/><path class="cls-9" d="M365.9,244.25a186.72,186.72,0,0,1-22.26,1.23,330.25,330.25,0,0,1-52.7-4.69c.11-1,.2-2.09.29-3.11,6.42,1.14,43.61,7.29,74.69,3.43C365.92,242,365.91,243.06,365.9,244.25Z"/><path class="cls-9" d="M365.82,248.22q0,1.5-.09,3.15a186.09,186.09,0,0,1-22.09,1.21,328.69,328.69,0,0,1-53.46-4.83c.07-.56.13-1.13.2-1.7s.11-.94.16-1.4C294.24,245.33,333.34,252.23,365.82,248.22Z"/><path class="cls-9" d="M365.62,254.26c-.05,1-.09,2.08-.15,3.16a183.11,183.11,0,0,1-23,1.33A330.36,330.36,0,0,1,289.38,254c.14-1,.27-2.05.4-3.09C295.54,251.93,334,258.41,365.62,254.26Z"/><path class="cls-2" d="M327.91,199.54c8.32,0,16-8.85,16.33-9.23a.59.59,0,1,0-.89-.77c-.08.1-8.12,9.36-16.16,8.8a.59.59,0,0,0-.08,1.17C327.38,199.53,327.64,199.54,327.91,199.54Z"/><path class="cls-2" d="M335.12,299a.59.59,0,0,0,.59-.52.59.59,0,0,0-.52-.65c-21.49-2.48-30.4-39.68-30.49-40.06a.58.58,0,0,0-.7-.44.59.59,0,0,0-.44.71c.36,1.56,9.19,38.38,31.5,40.95Z"/><path class="cls-2" d="M326.56,287.75a.59.59,0,0,0,.31-1.09c-11.43-7.05-13.13-17.44-13.15-17.54a.57.57,0,0,0-.66-.49.59.59,0,0,0-.5.66c.07.45,1.78,11,13.7,18.37A.55.55,0,0,0,326.56,287.75Z"/><circle class="cls-1" cx="333.24" cy="144.81" r="23.55"/><path class="cls-1" d="M310.08,140.59s-6.67-1.84-5.79-8.32c.75-5.5,7.22-1.93,6.65-6.24s-1.83-8.22,3.73-9.29c4.88-.94,5,2.39,11.35-2.45,7.56-5.72,13.37,7.53,20.11,7.93,9.95.58,11.2,6.21,12.18,10.71s-2.85,7.66-2.85,7.66Z"/><path class="cls-6" d="M313.65,151.4s-3.73-5-6.51-.86,1.15,16.26,7.94,13.29Z"/><path class="cls-7" d="M313.6,160.08a.58.58,0,0,1-.55-.42c-1.05-3.75-4.94-5.27-5-5.29a.57.57,0,1,1,.41-1.07c.18.07,4.46,1.73,5.67,6a.58.58,0,0,1-.39.71Z"/><path class="cls-7" d="M309.68,158.19a.56.56,0,0,1-.31-.09.58.58,0,0,1-.17-.8,5.22,5.22,0,0,1,2.15-1.73.58.58,0,0,1,.76.29.56.56,0,0,1-.29.75,4.34,4.34,0,0,0-1.66,1.31A.57.57,0,0,1,309.68,158.19Z"/><path class="cls-3" d="M340.7,174.13v12.08s-5,5.32-9.84,5.74S323,186.6,323,186.6V175Z"/><path class="cls-6" d="M340.7,174.13v5.36c-3.27,3.63-9.07,4.53-17.66,3.27V175Z"/><path class="cls-3" d="M353.43,143.11a117.62,117.62,0,0,1-1.56,15.26c-.23,1.17-.48,2.27-.76,3.26-2.54,8.9-8.9,24.16-26.7,17.8-7.86-2.8-11.5-11.56-13.13-20.46a86.32,86.32,0,0,1-1.19-16.53,12.62,12.62,0,0,1,6.4-10.73c10.51-6,21.6-3.74,28.89-.93A12.57,12.57,0,0,1,353.43,143.11Z"/><path class="cls-1" d="M332.08,151.64v1a7.12,7.12,0,0,0,7.11,7.13h.23a6.36,6.36,0,0,0,4.42-2,7,7,0,0,0,2.06-5v-1.13a2.34,2.34,0,0,0-.17-.88,2.39,2.39,0,0,0-.57-.89,2.48,2.48,0,0,0-1.77-.73h-8.81a2.49,2.49,0,0,0-2.25,1.43,2.43,2.43,0,0,0-.25,1Zm1,0a1.46,1.46,0,0,1,1.46-1.46h8.81a1.46,1.46,0,0,1,1.47,1.46v1.13a5.94,5.94,0,0,1-1.74,4.26,5.45,5.45,0,0,1-3.72,1.66h-.21a6.08,6.08,0,0,1-6.07-6.09Z"/><path class="cls-1" d="M314.44,151.64v1a7.12,7.12,0,0,0,7.11,7.13h.23a6.39,6.39,0,0,0,4.43-2,7,7,0,0,0,2.05-5v-1.18a2.44,2.44,0,0,0-.21-1,2.5,2.5,0,0,0-2.29-1.49h-8.82a2.47,2.47,0,0,0-2.4,1.83A2.18,2.18,0,0,0,314.44,151.64Zm1,0a1.46,1.46,0,0,1,1.46-1.46h8.82a1.46,1.46,0,0,1,1.46,1.46v1.13a5.94,5.94,0,0,1-1.74,4.26,5.41,5.41,0,0,1-3.72,1.66h-.21a6.08,6.08,0,0,1-6.07-6.09Z"/><path class="cls-1" d="M352.18,148.72a12.5,12.5,0,0,0-6,1.15c-.23.12-.86.53-.89.54l.5.89a10.66,10.66,0,0,1,1-.54,10.85,10.85,0,0,1,5.41-1Z"/><path class="cls-1" d="M332.78,151.68l.34-1a10.71,10.71,0,0,0-3.12-.52,7.05,7.05,0,0,0-2.85.54l.45.94a6,6,0,0,1,2.4-.44A10.07,10.07,0,0,1,332.78,151.68Z"/><path class="cls-1" d="M310.8,149v1a13.65,13.65,0,0,1,4.17,1.15l.46-.93A14,14,0,0,0,310.8,149Z"/><path class="cls-1" d="M322.6,153c0,1.29-.67,2.34-1.49,2.34s-1.48-1.05-1.48-2.34.66-2.33,1.48-2.33S322.6,151.68,322.6,153Z"/><path class="cls-1" d="M340,153c0,1.29-.67,2.34-1.49,2.34S337,154.26,337,153s.66-2.33,1.48-2.33S340,151.68,340,153Z"/><path class="cls-1" d="M316.28,145.8s6.18-2.44,10.94-.38l-.4,2.21a20,20,0,0,0-10.19.73C316.31,147.34,315.88,146.85,316.28,145.8Z"/><path class="cls-1" d="M344.56,145.8s-6.18-2.44-10.94-.38l.4,2.21a20,20,0,0,1,10.19.73C344.53,147.34,345,146.85,344.56,145.8Z"/><path class="cls-6" d="M330.71,162.76a6.13,6.13,0,0,0,2.08-.44.57.57,0,0,0,.31-.75.57.57,0,0,0-.74-.31,3.49,3.49,0,0,1-2.31.22.67.67,0,0,1-.28-.54,87.64,87.64,0,0,1,.35-8.79.58.58,0,0,0-.53-.62.57.57,0,0,0-.61.53,82.39,82.39,0,0,0-.35,9,1.74,1.74,0,0,0,.84,1.4A2.38,2.38,0,0,0,330.71,162.76Z"/><path class="cls-5" d="M323.6,165.67c.47,2.36,2,6.7,7.28,6.7s6.74-4,7.25-6.7Z"/><path class="cls-6" d="M330.81,175.37a5.94,5.94,0,0,0,2.8-.79.57.57,0,0,0,.19-.78.58.58,0,0,0-.79-.2,4.83,4.83,0,0,1-2.2.62,4.6,4.6,0,0,1-2.09-.62.58.58,0,0,0-.79.19.57.57,0,0,0,.19.79A5.74,5.74,0,0,0,330.81,175.37Z"/><path class="cls-1" d="M313.06,155.23c-.44-2.37-.86-5.43-.55-7,.56-2.77,2.85-4.4,2.09-7.07s2-5.55,4.14-6,6.93.55,11.71-1.72c4.57-2.17,12.5-.62,13.8,2.31,1.56,3.55-.57,3.89,3.7,7.72,1.7,1.53-.31,5.5-.6,8.08a17,17,0,0,0-.1,3.05v.65h5.12c.56-4,.88-8.43,1.06-12.12a12.57,12.57,0,0,0-8.06-12.33c-7.3-2.81-18.38-5-28.89.93a12.59,12.59,0,0,0-6.39,10.73,91.05,91.05,0,0,0,.61,12.79Z"/><path class="cls-3" d="M350.11,157.43a21.4,21.4,0,0,1,.31-4c.32-1.8.84-3.43,2.69-4.18,1.48-.6,3.06-.62,4.19,1.05,2.77,4.12-.32,16.91-7.11,13.95Z"/><path class="cls-6" d="M351.5,160.53A.56.56,0,0,0,352,160c.3-3.88,3.81-6.13,3.85-6.15a.57.57,0,0,0,.18-.79.58.58,0,0,0-.79-.19c-.16.11-4,2.57-4.38,7.05a.57.57,0,0,0,.53.61A.38.38,0,0,0,351.5,160.53Z"/><path class="cls-6" d="M355,157.91a.62.62,0,0,0,.29-.15.58.58,0,0,0,0-.81,5.27,5.27,0,0,0-2.45-1.28.57.57,0,1,0-.26,1.12,4,4,0,0,1,1.88,1A.6.6,0,0,0,355,157.91Z"/><path class="cls-2" d="M360.91,194.44c-8.39,12.71-40.48,56.65-47.73,61.76-9.42,6.65-35.12,16.1-49.88,25.95-5,3.35,6.83,12.82,6.83,12.82s36-10.11,52.17-20.45c4.58-2.93,23.64-22,35.79-38.95,4.16-5.8,10.93-13.86,11.91-22.43C371.13,203.28,368,198,360.91,194.44Z"/><rect class="cls-10" x="195" y="296.26" width="104.61" height="12.59" rx="2.31"/><path class="cls-1" d="M195,308.86l-19.66-73.64a6.51,6.51,0,0,1,6.29-8.2h43.27a6.52,6.52,0,0,1,6.27,4.76l21.65,77.08Z"/><path class="cls-10" d="M231.19,231.78l21.47,76.44h5l-21.47-76.44a6.54,6.54,0,0,0-6.28-4.76h-4.94A6.52,6.52,0,0,1,231.19,231.78Z"/><path class="cls-11" d="M220.07,271.24c1.12,4.86-1.9,8.79-6.76,8.79a11.73,11.73,0,0,1-10.83-8.79c-1.13-4.86,1.9-8.8,6.76-8.8A11.75,11.75,0,0,1,220.07,271.24Z"/><path class="cls-2" d="M354.14,37.63a6.6,6.6,0,1,1,6.61-6.6A6.61,6.61,0,0,1,354.14,37.63Zm0-11.13A4.53,4.53,0,1,0,358.68,31,4.54,4.54,0,0,0,354.14,26.5Z"/><path class="cls-4" d="M377.92,60.8a6.61,6.61,0,1,1,6.6-6.6A6.62,6.62,0,0,1,377.92,60.8Zm0-11.13a4.53,4.53,0,1,0,4.53,4.53A4.54,4.54,0,0,0,377.92,49.67Z"/><path class="cls-2" d="M386.07,82.26a1,1,0,0,1-1-1V76.65a1,1,0,0,1,2.07,0v4.57A1,1,0,0,1,386.07,82.26Z"/><path class="cls-2" d="M386.07,90.25a1,1,0,0,1-1-1V84.65a1,1,0,1,1,2.07,0v4.57A1,1,0,0,1,386.07,90.25Z"/><path class="cls-2" d="M392.49,84h-4.11a1,1,0,0,1,0-2.07h4.11a1,1,0,0,1,0,2.07Z"/><path class="cls-2" d="M383.77,84h-4.11a1,1,0,0,1,0-2.07h4.11a1,1,0,0,1,0,2.07Z"/><path class="cls-12" d="M349.61,56.66a1,1,0,0,1-1-1V51.06a1,1,0,1,1,2.07,0v4.57A1,1,0,0,1,349.61,56.66Z"/><path class="cls-12" d="M349.61,64.66a1,1,0,0,1-1-1V59.05a1,1,0,0,1,2.07,0v4.57A1,1,0,0,1,349.61,64.66Z"/><path class="cls-12" d="M356,58.38h-4.1a1,1,0,0,1,0-2.08H356a1,1,0,1,1,0,2.08Z"/><path class="cls-12" d="M347.3,58.38h-4.1a1,1,0,0,1,0-2.08h4.1a1,1,0,1,1,0,2.08Z"/><path class="cls-2" d="M47.69,7.32a6.61,6.61,0,1,1,6.61,6.6A6.62,6.62,0,0,1,47.69,7.32Zm2.08,0A4.53,4.53,0,1,0,54.3,2.78,4.53,4.53,0,0,0,49.77,7.32Z"/><path class="cls-4" d="M21.18,32.49a6.6,6.6,0,1,1,6.6,6.6A6.61,6.61,0,0,1,21.18,32.49Zm2.07,0A4.53,4.53,0,1,0,27.78,28,4.54,4.54,0,0,0,23.25,32.49Z"/><path class="cls-2" d="M7.45,41.75a1,1,0,0,0,1-1V36.15a1,1,0,1,0-2.07,0v4.57A1,1,0,0,0,7.45,41.75Z"/><path class="cls-2" d="M7.45,49.75a1,1,0,0,0,1-1V44.14a1,1,0,0,0-2.07,0v4.57A1,1,0,0,0,7.45,49.75Z"/><path class="cls-2" d="M1,43.47h4.1a1,1,0,0,0,0-2.08H1a1,1,0,0,0,0,2.08Z"/><path class="cls-2" d="M9.76,43.47h4.1a1,1,0,0,0,0-2.08H9.76a1,1,0,0,0,0,2.08Z"/><path class="cls-12" d="M31.31,6.64a1,1,0,0,0,1-1V1a1,1,0,1,0-2.07,0V5.6A1,1,0,0,0,31.31,6.64Z"/><path class="cls-12" d="M31.31,14.63a1,1,0,0,0,1-1V9a1,1,0,1,0-2.07,0V13.6A1,1,0,0,0,31.31,14.63Z"/><path class="cls-12" d="M24.9,8.35H29a1,1,0,0,0,0-2.07H24.9a1,1,0,0,0,0,2.07Z"/><path class="cls-12" d="M33.62,8.35h4.11a1,1,0,0,0,0-2.07H33.62a1,1,0,0,0,0,2.07Z"/><path class="cls-4" d="M302.43,14.33v20.1a4.82,4.82,0,0,1-4.82,4.82H261.1l-11,4a1.4,1.4,0,0,1-1.78-1.82l4.17-10.77V14.33a4.82,4.82,0,0,1,4.82-4.82h40.32A4.82,4.82,0,0,1,302.43,14.33Z"/><g class="cls-13"><path class="cls-9" d="M294.73,20H261.24a1.33,1.33,0,0,1-1.33-1.33h0a1.32,1.32,0,0,1,1.33-1.33h33.49a1.32,1.32,0,0,1,1.33,1.33h0A1.33,1.33,0,0,1,294.73,20Z"/><path class="cls-9" d="M294.73,25.37H261.24A1.33,1.33,0,0,1,259.91,24h0a1.32,1.32,0,0,1,1.33-1.33h33.49A1.32,1.32,0,0,1,296.06,24h0A1.33,1.33,0,0,1,294.73,25.37Z"/><path class="cls-9" d="M294.73,30.72H261.24a1.33,1.33,0,0,1-1.33-1.33h0a1.32,1.32,0,0,1,1.33-1.33h33.49a1.32,1.32,0,0,1,1.33,1.33h0A1.33,1.33,0,0,1,294.73,30.72Z"/></g><rect class="cls-12" x="5.67" y="308.87" width="404.45" height="15.73" rx="7.51"/><path class="cls-2" d="M410.12,316.38v.36H5.67v-.36a7.51,7.51,0,0,1,7.51-7.51H402.61A7.51,7.51,0,0,1,410.12,316.38Z"/></g></g></svg>