<svg xmlns="http://www.w3.org/2000/svg" xmlns:xlink="http://www.w3.org/1999/xlink" viewBox="0 0 280 256"><defs><style>.cls-1{fill:#5888dd;}.cls-2{fill:#2cb75e;}.cls-10,.cls-3,.cls-5{fill:#fff;}.cls-3{opacity:0.5;}.cls-4{fill:url(#linear-gradient);}.cls-6{fill:#3cd67b;}.cls-7{fill:url(#linear-gradient-2);}.cls-8{fill:#27ad57;}.cls-9{fill:#9df993;}.cls-10{font-size:27.48px;font-family:MyriadPro-Regular, Myriad Pro;}.cls-11{fill:#37f467;}</style><linearGradient id="linear-gradient" x1="6654.48" y1="4238.47" x2="6627.04" y2="4591.55" gradientTransform="translate(889.19 -7741) rotate(62.74)" gradientUnits="userSpaceOnUse"><stop offset="0" stop-color="#50e7b7"/><stop offset="1" stop-color="#323992"/></linearGradient><linearGradient id="linear-gradient-2" x1="6651.02" y1="4241.71" x2="6623.58" y2="4594.79" gradientTransform="translate(623.21 -7757.05) rotate(60.8)" xlink:href="#linear-gradient"/></defs><g id="Layer_2" data-name="Layer 2"><g id="Layer_1-2" data-name="Layer 1"><path class="cls-1" d="M196,234.65c-44.74,25.45-82.09,23.86-124.33,1.66a7.92,7.92,0,0,1-4.24-7.4l.08-1.79a7.93,7.93,0,0,1,10.91-7c36.67,15,64.26,23.14,110.18.48a7.93,7.93,0,0,1,11.4,6.58h0A7.93,7.93,0,0,1,196,234.65Z"/><path class="cls-1" d="M187.55,255.27l24.69-35a1.72,1.72,0,0,0-1.2-2.71l-40.91-5a2,2,0,0,0-2.09,2.75c9.35,13,14.61,26.19,16.51,39.63A1.72,1.72,0,0,0,187.55,255.27Z"/><path class="cls-1" d="M82,22.32c45-27.83,83.49-27.59,127.73-6.34a8.15,8.15,0,0,1,4.64,7.45l0,1.84a8.15,8.15,0,0,1-10.95,7.56c-38.25-14-66.91-21.39-113.27,3.61a8.16,8.16,0,0,1-12-6.34h0A8.15,8.15,0,0,1,82,22.32Z"/><path class="cls-1" d="M90,.8,65.89,37.7a1.77,1.77,0,0,0,1.33,2.74l42.24,3.62a2.06,2.06,0,0,0,2.05-2.91c-10.09-13-16-26.37-18.45-40.12A1.77,1.77,0,0,0,90,.8Z"/><rect class="cls-2" x="6.82" y="63.27" width="272.98" height="128.11" transform="translate(-0.41 0.46) rotate(-0.18)"/><path class="cls-3" d="M264.6,90l.24,72.83c-5.86,0-10.74,5.68-10.72,12.17a9.31,9.31,0,0,1,.06,1l-220.34.71c0-.83,0-.78,0-1,0-6.49-4.82-11.93-10.78-11.91-.09,0-.24-.19-.24-.19l-.22-71.18c10,0,11-6.83,11-13.32a1,1,0,0,0-.06-.38L253.86,78a1,1,0,0,0-.05.37C253.83,84.85,258.74,90,264.6,90Z"/><circle class="cls-4" cx="143.51" cy="126.81" r="40.04" transform="translate(-34.73 196.86) rotate(-62.92)"/><path class="cls-5" d="M139.55,153.84l0-4.24a34.7,34.7,0,0,1-11.89-2.53,2.47,2.47,0,0,1-1.36-2.89l1.06-4a2.48,2.48,0,0,1,3.35-1.63,28.72,28.72,0,0,0,11,2.28c4.25,0,7.41-1.47,7.4-4.42,0-2.67-2.46-4.25-8.37-5.81-8.44-2.28-14.51-5.93-14.53-13.36,0-6.7,4.86-11.83,13.36-13.23V99.83A2.47,2.47,0,0,1,142,97.35h2.48a2.46,2.46,0,0,1,2.48,2.46v3.8a31.46,31.46,0,0,1,9.42,1.66,2.46,2.46,0,0,1,1.55,3l-1,3.65a2.46,2.46,0,0,1-3.24,1.67,25.65,25.65,0,0,0-9.24-1.65c-5.05,0-6.48,2.11-6.48,4,0,2.3,3,3.88,9.61,5.87,9.37,2.78,13.27,6.66,13.3,13.65,0,6.41-4.72,12.19-13.94,13.67l0,4.73a2.48,2.48,0,0,1-2.46,2.48H142A2.47,2.47,0,0,1,139.55,153.84Z"/><path class="cls-5" d="M14.17,96.54a.45.45,0,0,1,0-.2l-.08-24.7a.55.55,0,0,1,.54-.55l66.57-.21a.55.55,0,1,1,0,1.09l-66,.21.08,24.16a.55.55,0,0,1-1.05.2Z"/><path class="cls-5" d="M204.94,183.43a.64.64,0,0,1,0-.2.55.55,0,0,1,.54-.55l66-.21-.07-24.16a.54.54,0,0,1,1.08,0l.08,24.7a.54.54,0,0,1-.15.39.57.57,0,0,1-.39.16l-66.57.21A.55.55,0,0,1,204.94,183.43Z"/><rect class="cls-6" x="3.37" y="66.52" width="272.98" height="128.11" transform="translate(-0.42 0.45) rotate(-0.18)"/><path class="cls-3" d="M261.15,93.21l.24,72.82c-5.87,0-10.74,5.69-10.72,12.18,0,.21,0,.16.06,1l-220.34.71c0-.83,0-.78,0-1,0-6.49-4.83-11.93-10.79-11.91-.08,0-.23-.19-.23-.19l-.23-71.18c10.05,0,11-6.83,11-13.32a1,1,0,0,0-.06-.38l220.33-.71a1.11,1.11,0,0,0,0,.38C250.38,88.1,255.29,93.23,261.15,93.21Z"/><circle class="cls-7" cx="140.06" cy="130.06" r="40.04" transform="translate(-41.62 189.44) rotate(-60.98)"/><path class="cls-5" d="M136.09,157.09v-4.24a34.46,34.46,0,0,1-11.89-2.54,2.44,2.44,0,0,1-1.36-2.88l1.06-4a2.48,2.48,0,0,1,3.35-1.63,28.7,28.7,0,0,0,11,2.28c4.26,0,7.42-1.47,7.41-4.42,0-2.67-2.46-4.25-8.37-5.81-8.44-2.28-14.51-5.94-14.53-13.36,0-6.7,4.86-11.83,13.36-13.23v-4.23a2.47,2.47,0,0,1,2.45-2.48H141a2.47,2.47,0,0,1,2.48,2.46v3.8a31.52,31.52,0,0,1,9.42,1.66,2.45,2.45,0,0,1,1.54,3l-1,3.65a2.47,2.47,0,0,1-3.25,1.67,25.56,25.56,0,0,0-9.24-1.65c-5,0-6.47,2.11-6.47,4,0,2.3,3,3.88,9.6,5.87,9.38,2.78,13.28,6.66,13.31,13.65,0,6.41-4.72,12.19-13.94,13.66l0,4.74a2.48,2.48,0,0,1-2.46,2.48h-2.49A2.48,2.48,0,0,1,136.09,157.09Z"/><path class="cls-5" d="M10.71,99.79a.64.64,0,0,1,0-.2l-.08-24.7a.55.55,0,0,1,.54-.55l66.57-.21a.55.55,0,0,1,.55.54.55.55,0,0,1-.55.55l-66,.21.08,24.16a.55.55,0,0,1-1.06.2Z"/><path class="cls-5" d="M201.49,186.68a.65.65,0,0,1,0-.2.55.55,0,0,1,.55-.55l66-.21-.08-24.16a.55.55,0,0,1,.55-.54.54.54,0,0,1,.54.54l.08,24.7a.51.51,0,0,1-.16.39.55.55,0,0,1-.38.16L202,187A.55.55,0,0,1,201.49,186.68Z"/><rect class="cls-8" x="0.32" y="70.44" width="272.98" height="128.11" transform="translate(-0.68 0.7) rotate(-0.29)"/><path class="cls-9" d="M258,97l.37,72.83c-5.86,0-10.79,5.64-10.76,12.13,0,.21,0,.09,0,.93L27.32,184c0-.84,0-.72,0-.93,0-6.49-4.78-11.89-10.74-11.86-.09,0-.17-.15-.17-.15l-.36-71.19C26.1,99.86,27,93,27,86.51a.92.92,0,0,0-.13-.44L247.15,85s0,.23,0,.44C247.2,91.88,252.18,97.06,258,97Z"/><circle class="cls-8" cx="136.89" cy="134.11" r="40.04" transform="translate(-54.74 136.07) rotate(-45)"/><text class="cls-10" transform="translate(124.49 140.83)">Rs</text><path class="cls-11" d="M6.86,104.1a.5.5,0,0,1-.12-.34l-.13-24.7a.57.57,0,0,1,.16-.39.55.55,0,0,1,.39-.16l67.4-.34a.55.55,0,0,1,0,1.09L7.7,79.6l.13,24.15a.54.54,0,0,1-.54.55A.55.55,0,0,1,6.86,104.1Z"/><path class="cls-11" d="M198.64,190.63a.5.5,0,0,1-.12-.34.54.54,0,0,1,.54-.55l66-.33L265,165.25a.55.55,0,0,1,.54-.55.55.55,0,0,1,.55.54l.12,24.71a.51.51,0,0,1-.16.38.53.53,0,0,1-.38.16l-66.57.34A.55.55,0,0,1,198.64,190.63Z"/><circle class="cls-8" cx="55.13" cy="138.23" r="11.34" transform="translate(-92.18 159.42) rotate(-76.44)"/><circle class="cls-8" cx="225.77" cy="137.37" r="11.34" transform="matrix(0.19, -0.98, 0.98, 0.19, 48.72, 333.57)"/></g></g></svg>