<svg xmlns="http://www.w3.org/2000/svg" xmlns:xlink="http://www.w3.org/1999/xlink" viewBox="0 0 400.03 350.19"><defs><style>.cls-1,.cls-26,.cls-4,.cls-9{fill:none;}.cls-2,.cls-28{fill:#fff;}.cls-3,.cls-31{fill:#f3f5f4;}.cls-28,.cls-31,.cls-4{stroke:#70927f;stroke-width:0.28px;}.cls-28,.cls-31,.cls-4,.cls-9{stroke-miterlimit:10;}.cls-5{clip-path:url(#clip-path);}.cls-6{fill:#f7a159;}.cls-7{fill:#ffb84f;}.cls-8{fill:#5f281c;}.cls-9{stroke:#422e2d;}.cls-26,.cls-9{stroke-width:1.12px;}.cls-10{fill:#422e2d;}.cls-11{fill:#9a2532;}.cls-12{fill:#ffd788;}.cls-13{fill:#a5bbaa;}.cls-14{fill:#e8dfcf;}.cls-15{fill:#86593e;}.cls-16{fill:#b58e67;}.cls-17{fill:#b7c9b9;}.cls-18{fill:#b2b6f9;}.cls-19{fill:#949eff;}.cls-20{fill:#709480;}.cls-21{fill:#b4c6b6;}.cls-22{fill:#f1eadf;}.cls-23{fill:#efebdf;}.cls-24{fill:#70927f;}.cls-25{fill:#e3e3e3;}.cls-26{stroke:#f3f5f4;stroke-linecap:round;stroke-linejoin:round;}.cls-27{fill:#d1cec7;}.cls-29{fill:#7ad324;}.cls-30{fill:#eac00f;}</style><clipPath id="clip-path"><circle class="cls-1" cx="86.38" cy="79.14" r="79.14" transform="translate(-30.66 84.26) rotate(-45)"/></clipPath></defs><g id="Layer_2" data-name="Layer 2"><g id="Layer_1-2" data-name="Layer 1"><circle class="cls-2" cx="92.79" cy="81.03" r="79.14"/><circle class="cls-3" cx="86.38" cy="79.14" r="79.14" transform="translate(-30.66 84.26) rotate(-45)"/><circle class="cls-4" cx="92.79" cy="81.03" r="79.14"/><g class="cls-5"><polygon class="cls-6" points="106.72 160.18 119.81 160.18 118.78 131.49 107.37 131.49 106.72 160.18"/><polygon class="cls-7" points="114.28 82.86 127.91 129.88 123.23 134.54 127.91 140.19 103.08 142.97 114.28 82.86"/><polygon class="cls-7" points="106.72 161.2 68.1 161.2 54.78 77.11 76.21 75.77 100.28 77.11 114.28 82.86 106.72 161.2"/><polygon class="cls-6" points="93.76 89.65 76.21 75.77 82.63 54.51 101.27 56.95 93.76 89.65"/><polygon class="cls-8" points="97.44 73.63 88.85 62.92 101.27 56.95 97.44 73.63"/><path class="cls-6" d="M113.89,45.64c.87,9.78-2.35,21.76-12.13,22.63S80.15,57.5,79.29,47.72s-4.48-26,8.78-27.2C107.34,18.81,113,35.86,113.89,45.64Z"/><path class="cls-9" d="M96.18,37a7.93,7.93,0,0,1-4.37,5.46"/><path class="cls-9" d="M111,37.55a5.86,5.86,0,0,1-4.68-.59"/><path class="cls-2" d="M107.75,54.51a75.84,75.84,0,0,1-11.31,0s3.43,4.22,8.53,3.79C106.14,58.2,107.75,54.51,107.75,54.51Z"/><ellipse class="cls-10" cx="96.44" cy="45.23" rx="1.38" ry="2.49"/><ellipse class="cls-10" cx="108.74" cy="43.7" rx="1.38" ry="2.49"/><path class="cls-11" d="M104.39,45.23a5.49,5.49,0,0,0,6,3.86S104.14,57,104.39,45.23Z"/><path class="cls-10" d="M76.21,51.71c-12.15-14.53-16.77-17.67,0-29.3,0,0,1.64-11,16.07-7.5,22.23,5.49,18.15,7.5,18.87,19.62,0,0-12,1.53-21.67-4.12,0,0-.33,6.81-4.32,10.28L85.85,48Z"/><path class="cls-9" d="M76.21,22.41a7.93,7.93,0,0,1,0-6.23"/><path class="cls-9" d="M77.19,24.08s-5.28-2.35-5.72-4.79"/><path class="cls-6" d="M84.61,48.45c1.43,3.78.21,7.75-2.73,8.86S75.39,56.26,74,52.47s-.21-7.75,2.73-8.86S83.18,44.66,84.61,48.45Z"/><polygon class="cls-7" points="72.73 77.11 77.19 65.85 102.09 71.65 95.06 92.86 72.73 77.11"/><polygon class="cls-12" points="101.27 74.12 87.33 73.38 100.28 77.11 101.27 74.12"/><polygon class="cls-7" points="54.78 77.11 51.61 139.34 71.21 149.62 72.73 77.11 54.78 77.11"/><rect class="cls-13" x="74.76" y="45.93" width="9.77" height="20.42" rx="1.31" transform="translate(172.39 86.04) rotate(162.69)"/><rect class="cls-14" x="72.98" y="46.43" width="10.12" height="20.42" rx="1.31" transform="translate(169.39 87.5) rotate(162.69)"/><path class="cls-13" d="M77.06,49a1,1,0,1,0,.68-1.29A1,1,0,0,0,77.06,49Z"/><path class="cls-6" d="M55.56,136.69,74.4,66.49l2.86,1.3s2.67,54.24-9.55,74.94Z"/><path class="cls-6" d="M74.4,66.49,68.8,54.21s14.74,3.49,8.46,13.58Z"/><path class="cls-6" d="M68.8,54.21l6.56-5.74S77.67,52.3,70,54.94Z"/><path class="cls-6" d="M77.27,59l-3.72-2.44,3.89-4.82s1.38,2.5-2.17,5Z"/><path class="cls-6" d="M70,54.94l6.91-5.48s2,3.49-5.84,5.91Z"/><polygon class="cls-12" points="106.72 161.2 114.28 82.86 102.09 161.2 106.72 161.2"/></g><rect class="cls-15" x="248.1" y="291.09" width="62.95" height="9.24" transform="translate(559.14 591.41) rotate(-180)"/><polygon class="cls-16" points="224.04 345.69 231.88 345.69 268.8 242.83 260.96 242.83 224.04 345.69"/><polygon class="cls-16" points="287.26 345.69 279.42 345.69 270.19 242.83 278.03 242.83 287.26 345.69"/><polygon class="cls-16" points="333.42 345.69 325.57 345.69 288.65 242.83 296.49 242.83 333.42 345.69"/><path class="cls-7" d="M255.87,170.07H326a0,0,0,0,1,0,0v68.27a5.42,5.42,0,0,1-5.42,5.42h-66a2.23,2.23,0,0,1-2.23-2.23v-67.9A3.55,3.55,0,0,1,255.87,170.07Z" transform="translate(578.32 413.82) rotate(-180)"/><path class="cls-7" d="M227.25,243.76h62.32a4.36,4.36,0,0,1,4.36,4.36v1.09a4.36,4.36,0,0,1-4.36,4.36H227.25a0,0,0,0,1,0,0v-9.81A0,0,0,0,1,227.25,243.76Z" transform="translate(521.18 497.32) rotate(180)"/><path class="cls-12" d="M320.7,233.21v-59a4.15,4.15,0,0,1,4.16-4.15h0a4.15,4.15,0,0,1,4.15,4.15V234a19.58,19.58,0,0,1-19.58,19.58H295.05a4.91,4.91,0,0,1-4.91-4.91h0a4.9,4.9,0,0,1,4.91-4.9h15.11A10.54,10.54,0,0,0,320.7,233.21Z"/><path class="cls-17" d="M254.08,242.83h33.1A22.86,22.86,0,0,0,309,213l-5.47-17.11L254.94,190Z"/><polygon class="cls-18" points="249.13 126.25 235.18 175.97 249.13 175.97 263.81 151.11 249.13 126.25"/><path class="cls-6" d="M235.82,173.68,200,180.61l1,3s31.76,7.57,48.14-7.62Z"/><path class="cls-6" d="M200,180.61l-15.39-1.4,4.26,3.84a9.54,9.54,0,0,0,12.1.54h0Z"/><path class="cls-6" d="M184.64,179.21l-2.8,6.29s4.06.92,4-5.22Z"/><path class="cls-6" d="M188,180l-2.53,6.64S190.19,187.19,188,180Z"/><path class="cls-6" d="M184.64,179.21l-5.24,4.14s3.53,1.86,5.6-3.33Z"/><rect class="cls-2" x="192.08" y="183.67" width="65.01" height="4.62" transform="translate(449.17 371.97) rotate(-180)"/><path class="cls-18" d="M249.14,126.25,264.58,120h18.23l23.3,6.93-10.48,44.28,9.56,23.9H260.05l3.46-25-.14-.44a10,10,0,0,0-5.06-5.72c-4-2-6.37-4.77-6.7-7.68a15,15,0,0,1,.26-4.35,43.09,43.09,0,0,0-1.29-21.27Z"/><path class="cls-19" d="M257.5,165.31A10.86,10.86,0,0,1,252,158s5.54,5,24.73,3.18c22.14-2.06,8.33,14.3,16.24,33.95h-33l3.46-25-.14-.44C262.54,167.16,259.87,166.51,257.5,165.31Z"/><polygon class="cls-6" points="267.38 132.22 282.81 120.02 274.63 103.48 260.77 103.48 267.38 132.22"/><polygon class="cls-8" points="264.14 118.15 271.69 108.73 260.77 103.48 264.14 118.15"/><path class="cls-10" d="M275.41,69.52a14.33,14.33,0,0,0-8.15-3c-3.95,0-14.11,4.18-17.89,13.72s-5.2,17.6-1.43,28.42l16.67-5.2Z"/><path class="cls-6" d="M249.68,93.54c-.76,8.6,2.07,19.13,10.67,19.89s21.42-9.46,22.18-18.06S284,72.49,272.38,71.45C255.44,70,250.44,84.94,249.68,93.54Z"/><path class="cls-9" d="M256.46,86.61a4.06,4.06,0,0,0-4.32.44"/><path class="cls-10" d="M283.62,94s-20.23-.23-24.69-17.89c0,0-3.08.53-7.32,5.3,0,0,2-10.44,18.89-10.44C287.69,71,283.62,94,283.62,94Z"/><path class="cls-9" d="M259.24,74.81s-3.33,13.75,18.25,18.33"/><path class="cls-10" d="M275.41,90.82s3.32,10.51-1.68,20.5c0,0,16.43,2.15,27.27-10,.27-11-5.21-21.58-12.09-28.65-5.75-5.92-22.1-7.85-26.25,3.45C262.66,76.13,273.93,75.8,275.41,90.82Z"/><path class="cls-9" d="M246.34,109.42S238.68,88,255.42,73.58"/><path class="cls-9" d="M302.69,99.75S301,66.54,272.51,69"/><path class="cls-2" d="M255.08,101.33a65.91,65.91,0,0,0,9.94,0s-3,3.71-7.49,3.34C256.5,104.58,255.08,101.33,255.08,101.33Z"/><ellipse class="cls-10" cx="265.02" cy="93.18" rx="1.21" ry="2.19"/><path class="cls-10" d="M253,91.83c0,1.21.54,2.19,1.21,2.19s1.21-1,1.21-2.19-.55-2.18-1.21-2.18S253,90.63,253,91.83Z"/><path class="cls-11" d="M258,93.18a4.82,4.82,0,0,1-5.24,3.39S258.25,103.56,258,93.18Z"/><path class="cls-6" d="M275.36,96c-1.26,3.33-.19,6.81,2.4,7.79s5.7-.93,6.95-4.25.19-6.82-2.4-7.8S276.61,92.68,275.36,96Z"/><rect class="cls-20" x="280.56" y="80.09" width="2.44" height="13.05" transform="translate(563.55 173.23) rotate(-180)"/><rect class="cls-21" x="282.18" y="80.09" width="2.44" height="13.05" transform="translate(566.8 173.23) rotate(-180)"/><path class="cls-20" d="M279.17,83V76.71a8.22,8.22,0,0,0-3.91-6.79c-1.21-.72-4.64-2.86-4.64-2.86s5.95,0,8.59,1l.69.27a7.22,7.22,0,0,1,4.63,6.74V83Z"/><path class="cls-21" d="M280.79,83V76.71a7.23,7.23,0,0,0-3.91-6.42l-6.26-3.23,1.92-.16a18.74,18.74,0,0,1,8.29,1.18l.7.27a7.22,7.22,0,0,1,4.63,6.74V83Z"/><path class="cls-21" d="M275.41,96.15a6.91,6.91,0,1,0,6.9-6.9A6.9,6.9,0,0,0,275.41,96.15Z"/><path class="cls-22" d="M276.77,96.15a6.91,6.91,0,1,0,6.9-6.9A6.9,6.9,0,0,0,276.77,96.15Z"/><path class="cls-21" d="M279.34,96.15a4.33,4.33,0,1,0,4.33-4.33A4.33,4.33,0,0,0,279.34,96.15Z"/><path class="cls-22" d="M281.71,96.15a2,2,0,1,0,2-2A2,2,0,0,0,281.71,96.15Z"/><polygon class="cls-22" points="259.12 109.97 275.55 108.08 284.13 96.49 283.22 95.82 274.94 107.02 258.99 108.86 259.12 109.97"/><rect class="cls-21" x="258.03" y="107.51" width="5.48" height="3.03" rx="0.64" transform="translate(521.55 218.05) rotate(-180)"/><polygon class="cls-23" points="294.46 153.62 297.61 162.89 299.47 156.48 294.46 153.62"/><polygon class="cls-18" points="306.11 126.95 326 176.56 309.57 176.56 294.46 153.62 306.11 126.95"/><path class="cls-17" d="M218.51,188.29h14.25a7.13,7.13,0,0,0-14.25,0Z"/><path class="cls-6" d="M307.22,173l-69.16,7.61,1,3s54,18.43,87-7Z"/><path class="cls-6" d="M238.06,180.61l-15.39-1.4,4.26,3.84a9.54,9.54,0,0,0,12.1.54h0Z"/><path class="cls-6" d="M222.67,179.21l-2.8,6.29s4.06.92,4-5.22Z"/><path class="cls-6" d="M226.07,180l-2.53,6.64S228.22,187.19,226.07,180Z"/><path class="cls-6" d="M222.67,179.21l-5.24,4.14S221,185.21,223,180Z"/><path class="cls-24" d="M158.6,168.13H222a6.91,6.91,0,0,0,6.9-7.29l-2.48-41.14a6.9,6.9,0,0,0-6.89-6.52H156.13a6.91,6.91,0,0,0-6.9,7.29l2.48,41.14A6.9,6.9,0,0,0,158.6,168.13Z"/><path class="cls-13" d="M154.64,168.13H218a6.91,6.91,0,0,0,6.9-7.29l-2.47-41.14a6.92,6.92,0,0,0-6.9-6.52H152.16a6.9,6.9,0,0,0-6.89,7.29l2.47,41.14A6.91,6.91,0,0,0,154.64,168.13Z"/><path class="cls-24" d="M168.61,182a5,5,0,0,0,4.84,6.34H208.9V184.9H189.61a1.56,1.56,0,0,1-1.51-2l8.3-30.34H176.63Zm5.07-9a4.47,4.47,0,1,1,4.47,4.47A4.47,4.47,0,0,1,173.68,173Z"/><path class="cls-24" d="M180.19,140.68h11.32a4.89,4.89,0,0,1,4.89,4.89v7H175.3v-7A4.89,4.89,0,0,1,180.19,140.68Z"/><path class="cls-25" d="M176.94,140.68h11.32a4.89,4.89,0,0,1,4.89,4.89v7h-21.1v-7A4.89,4.89,0,0,1,176.94,140.68Z"/><path class="cls-25" d="M169.09,188.37h18.27a3.2,3.2,0,0,1-2.86-4L192,157h0l1.19-4.37H172l-8,29.17A5.24,5.24,0,0,0,169.09,188.37Zm3-15.37a4.47,4.47,0,1,1,4.47,4.47A4.47,4.47,0,0,1,172.05,173Z"/><path class="cls-13" d="M176.94,140.68h11.32a4.89,4.89,0,0,1,4.89,4.89v7h-21.1v-7A4.89,4.89,0,0,1,176.94,140.68Z"/><path class="cls-13" d="M169.09,188.37h18.27a3.2,3.2,0,0,1-2.86-4L192,157h0l1.19-4.37H172l-8,29.17A5.24,5.24,0,0,0,169.09,188.37Zm3-15.37a4.47,4.47,0,1,1,4.47,4.47A4.47,4.47,0,0,1,172.05,173Z"/><path class="cls-26" d="M164,181.75l8-29.17h.06v-7a4.89,4.89,0,0,1,4.89-4.89h11.32"/><path class="cls-26" d="M172,152.58l-8,29.17a5.24,5.24,0,0,0,5.05,6.62"/><path class="cls-27" d="M216.45,149.87h0a.51.51,0,0,0,.47-.53L215.58,125a.49.49,0,0,0-.52-.47.5.5,0,0,0-.47.53L216,149.4A.51.51,0,0,0,216.45,149.87Z"/><path class="cls-27" d="M213.21,149.87h0a.51.51,0,0,0,.47-.53L212.34,125a.49.49,0,0,0-.52-.47.5.5,0,0,0-.47.53l1.36,24.32A.51.51,0,0,0,213.21,149.87Z"/><path class="cls-27" d="M210,149.87h0a.49.49,0,0,0,.46-.53L209.1,125a.49.49,0,0,0-.52-.47.5.5,0,0,0-.47.53l1.36,24.32A.51.51,0,0,0,210,149.87Z"/><path class="cls-27" d="M206.73,149.87h0a.5.5,0,0,0,.47-.53L205.86,125a.5.5,0,1,0-1,.06l1.36,24.32A.5.5,0,0,0,206.73,149.87Z"/><path class="cls-27" d="M203.48,149.87h0a.5.5,0,0,0,.47-.53L202.62,125a.5.5,0,0,0-.53-.47.49.49,0,0,0-.46.53L203,149.4A.49.49,0,0,0,203.48,149.87Z"/><path class="cls-27" d="M165.88,149.87h0a.49.49,0,0,0,.46-.53L165,125a.5.5,0,1,0-1,.06l1.36,24.32A.51.51,0,0,0,165.88,149.87Z"/><path class="cls-27" d="M162.64,149.87h0a.5.5,0,0,0,.47-.53L161.77,125a.5.5,0,1,0-1,.06l1.36,24.32A.5.5,0,0,0,162.64,149.87Z"/><path class="cls-27" d="M159.39,149.87h0a.5.5,0,0,0,.47-.53L158.53,125a.5.5,0,0,0-.53-.47.49.49,0,0,0-.46.53l1.36,24.32A.49.49,0,0,0,159.39,149.87Z"/><path class="cls-27" d="M156.15,149.87h0a.5.5,0,0,0,.47-.53L155.29,125a.5.5,0,0,0-.53-.47.51.51,0,0,0-.47.53l1.37,24.32A.49.49,0,0,0,156.15,149.87Z"/><path class="cls-27" d="M152.91,149.87h0a.51.51,0,0,0,.47-.53L152.05,125a.5.5,0,1,0-1,.06l1.37,24.32A.49.49,0,0,0,152.91,149.87Z"/><path class="cls-17" d="M222.73,207.56h22.14l10.92,118.25h-3.42c-25.69-68.71-33.06-99.63-35.18-111.66A5.63,5.63,0,0,1,222.73,207.56Z"/><path class="cls-13" d="M255.37,321.3s-24.52-63.19-18.21-105.9c.41-2.71,7.71-7.84,7.71-7.84Z"/><path class="cls-17" d="M244.16,207.56H263L307.1,321.3l-2.77,4.51c-31.81-48.89-60.85-92.28-66.86-108.64A7.13,7.13,0,0,1,244.16,207.56Z"/><path class="cls-13" d="M270.19,227.29c10.75,2.64,22.06-1.1,24.27-7.83,2.51-7.64-3.88-11.9-3.88-11.9l4.71-12.65,8.2,1L309,213a22.86,22.86,0,0,1-21.78,29.82H276.65L307.1,321.3C261.42,248.63,270.19,227.29,270.19,227.29Z"/><polygon class="cls-24" points="304.02 197.55 254.87 197.55 254.65 207.56 307.22 207.56 304.02 197.55"/><polygon class="cls-6" points="252.37 325.81 252.37 339.9 243.54 340.86 255.07 340.86 255.79 332.24 259.86 326.9 255.37 321.31 252.37 325.81"/><path class="cls-14" d="M243.54,340.86l1.38,4.83H254a2.84,2.84,0,0,0,2.83-2.84v-9.5l4.66-6.05-6.15-6-.3,19.56Z"/><polygon class="cls-14" points="261.52 327.3 261.52 345.69 258.32 329.33 261.52 327.3"/><polygon class="cls-6" points="304.09 325.81 304.09 339.9 295.27 340.86 306.79 340.86 307.51 332.24 311.58 326.9 307.1 321.31 304.09 325.81"/><path class="cls-14" d="M295.27,340.86l1.37,4.83h9.11a2.84,2.84,0,0,0,2.84-2.84v-9.5l4.65-6.05-6.14-6-.31,19.56Z"/><polygon class="cls-14" points="313.24 327.3 313.24 345.69 310.04 329.33 313.24 327.3"/><path class="cls-14" d="M314.47,197.55h30.61a7.34,7.34,0,0,1,7.34,7.34v140.8a0,0,0,0,1,0,0H307.13a0,0,0,0,1,0,0V204.89A7.34,7.34,0,0,1,314.47,197.55Z" transform="translate(659.55 543.24) rotate(-180)"/><path class="cls-13" d="M320.93,197.55h30.61a7.34,7.34,0,0,1,7.34,7.34v140.8a0,0,0,0,1,0,0H313.59a0,0,0,0,1,0,0V204.89A7.34,7.34,0,0,1,320.93,197.55Z" transform="translate(672.47 543.24) rotate(-180)"/><path class="cls-14" d="M139,197.55h30.61a7.34,7.34,0,0,1,7.34,7.34v140.8a0,0,0,0,1,0,0H131.7a0,0,0,0,1,0,0V204.89A7.34,7.34,0,0,1,139,197.55Z" transform="translate(308.69 543.24) rotate(-180)"/><path class="cls-13" d="M145.5,197.55h30.61a7.34,7.34,0,0,1,7.34,7.34v140.8a0,0,0,0,1,0,0H138.16a0,0,0,0,1,0,0V204.89A7.34,7.34,0,0,1,145.5,197.55Z" transform="translate(321.61 543.24) rotate(-180)"/><rect class="cls-13" x="137.4" y="188.29" width="240.19" height="14.26" rx="4.65" transform="translate(515 390.85) rotate(-180)"/><rect class="cls-14" x="102.77" y="188.29" width="170.77" height="14.26" rx="4.65" transform="translate(376.31 390.85) rotate(-180)"/><rect class="cls-24" x="313.59" y="202.56" width="45.29" height="8.34" transform="translate(672.47 413.45) rotate(-180)"/><rect class="cls-24" x="138.16" y="202.56" width="45.29" height="8.34" transform="translate(321.61 413.45) rotate(-180)"/><path class="cls-28" d="M123.07,51.06l11.57-9.26h73.19A8.83,8.83,0,0,0,216.66,33V20.86A8.83,8.83,0,0,0,207.83,12H131.9a8.84,8.84,0,0,0-8.83,8.83Z"/><line class="cls-4" x1="206.22" y1="19.4" x2="154.95" y2="19.4"/><line class="cls-4" x1="206.22" y1="26.21" x2="154.95" y2="26.21"/><line class="cls-4" x1="206.22" y1="33.02" x2="154.95" y2="33.02"/><path class="cls-28" d="M236.73,92.45,225.17,83.2H152a8.83,8.83,0,0,1-8.83-8.83V62.26A8.83,8.83,0,0,1,152,53.43H227.9a8.83,8.83,0,0,1,8.83,8.83Z"/><line class="cls-4" x1="153.59" y1="60.79" x2="204.85" y2="60.79"/><line class="cls-4" x1="153.59" y1="67.6" x2="204.85" y2="67.6"/><line class="cls-4" x1="153.59" y1="74.41" x2="204.85" y2="74.41"/><path class="cls-13" d="M57.51,44.51,54.58,46.4l-2.23-2.67c-4.45,1.9-9.07,2-12-2.61l-.05-.07c-2.9-4.53-1.28-9.56,3.79-12.81a13.11,13.11,0,0,1,11.3-1.59l-.85,4.64a9.41,9.41,0,0,0-7.74.93c-2.61,1.67-3.26,4.09-1.95,6.11l0,.07c1.54,2.39,4.59,2.53,9.28-.28l.3.07Zm6.21,7.36L58.87,55l-3.21-5,4.85-3.11Z"/><path class="cls-29" d="M366.86,243.17h0A11.82,11.82,0,0,1,378.68,255v76.31a3.09,3.09,0,0,1-3.09,3.09H358.14a3.09,3.09,0,0,1-3.09-3.09V255A11.81,11.81,0,0,1,366.86,243.17Z"/><path class="cls-29" d="M356.41,289.87h7.78a5.82,5.82,0,0,0,0-11.64h-7.78a7.86,7.86,0,0,1-7.85-7.85v-8.15a5.83,5.83,0,1,0-11.65,0v8.15A19.52,19.52,0,0,0,356.41,289.87Z"/><path class="cls-29" d="M368.75,305.22h8.15a19.52,19.52,0,0,0,19.49-19.5v-7.78a5.82,5.82,0,0,0-11.64,0v7.78a7.86,7.86,0,0,1-7.85,7.85h-8.15a5.83,5.83,0,0,0,0,11.65Z"/><rect class="cls-3" x="372.62" y="256.42" width="0.97" height="4.05"/><rect class="cls-3" x="360.24" y="250.35" width="0.97" height="4.05"/><rect class="cls-3" x="367.14" y="273.89" width="0.97" height="4.05"/><rect class="cls-3" x="363.7" y="261.63" width="0.97" height="4.05"/><rect class="cls-3" x="358.4" y="296.29" width="0.97" height="4.05"/><rect class="cls-3" x="345.16" y="260.2" width="0.97" height="4.05"/><rect class="cls-3" x="372.62" y="286.75" width="0.97" height="4.05"/><rect class="cls-3" x="371.61" y="304.05" width="0.97" height="4.05"/><rect class="cls-3" x="362.49" y="285.82" width="0.97" height="4.05"/><rect class="cls-3" x="392.01" y="286.64" width="0.97" height="4.05"/><rect class="cls-3" x="387.36" y="279.08" width="0.97" height="4.05"/><rect class="cls-3" x="385.22" y="290.69" width="0.97" height="4.05"/><rect class="cls-3" x="357.54" y="270.38" width="0.97" height="4.05"/><rect class="cls-3" x="343.14" y="275.92" width="0.97" height="4.05"/><path class="cls-3" d="M346.84,312h39.62a1.77,1.77,0,0,1,1.76,2l-4.11,30.73a6.32,6.32,0,0,1-6.26,5.49H354.78a6.33,6.33,0,0,1-6.29-5.63l-3.41-30.63A1.77,1.77,0,0,1,346.84,312Z"/><polygon class="cls-30" points="346.93 330.49 346.23 324.26 386.84 324.26 386.01 330.49 346.93 330.49"/><circle class="cls-31" cx="386.08" cy="153.62" r="9.83"/><circle class="cls-31" cx="79.43" cy="176.56" r="9.83" transform="translate(-27.33 15.05) rotate(-9.24)"/><path class="cls-31" d="M85.76,238.93A4.91,4.91,0,1,0,90.67,234,4.91,4.91,0,0,0,85.76,238.93Z"/><polygon class="cls-31" points="23.31 85.58 27.09 101.14 38.87 89.37 23.31 85.58"/><polygon class="cls-31" points="285.69 41.71 299.37 50.04 299.37 33.39 285.69 41.71"/><polygon class="cls-31" points="22.34 234.02 36.02 242.34 36.02 225.69 22.34 234.02"/><rect class="cls-28" x="0.14" y="176.43" width="79.29" height="27.22" rx="6.39" transform="translate(79.57 380.08) rotate(-180)"/><line class="cls-4" x1="14.16" y1="183.23" x2="65.42" y2="183.23"/><line class="cls-4" x1="14.16" y1="190.04" x2="65.42" y2="190.04"/><line class="cls-4" x1="14.16" y1="196.85" x2="65.42" y2="196.85"/><rect class="cls-28" x="320.6" y="89.18" width="79.29" height="27.22" rx="6.39" transform="translate(720.49 205.57) rotate(-180)"/><line class="cls-4" x1="334.61" y1="95.98" x2="385.88" y2="95.98"/><line class="cls-4" x1="334.61" y1="102.78" x2="385.88" y2="102.78"/><line class="cls-4" x1="334.61" y1="109.59" x2="385.88" y2="109.59"/></g></g></svg>