<svg xmlns="http://www.w3.org/2000/svg" viewBox="0 0 120 94.9"><defs><style>.cls-1{fill:#e0f4ff;}.cls-2{fill:#bbdcff;}.cls-3{fill:#5bc980;}.cls-4{fill:#9abadb;}</style></defs><g id="Layer_2" data-name="Layer 2"><g id="Layer_1-2" data-name="Layer 1"><path class="cls-1" d="M101.41,18.85V94.9H82.11V91.74A3.1,3.1,0,0,0,79,88.65a3.15,3.15,0,0,0-3.16,3.16V94.9h-22V91.74a3.1,3.1,0,0,0-3.09-3.09h0a3.16,3.16,0,0,0-3.13,3.16V94.9H25.22V91.74a3.1,3.1,0,0,0-3.1-3.09A3.15,3.15,0,0,0,19,91.81V94.9H0V18.85Z"/><path class="cls-2" d="M101.41,18.85V94.9H82.11V91.74A3.1,3.1,0,0,0,79,88.65a3.15,3.15,0,0,0-3.16,3.16V94.9h-22V91.74a3.1,3.1,0,0,0-3.09-3.09h0V18.85Z"/><circle class="cls-3" cx="98.03" cy="21.97" r="21.97"/><rect class="cls-1" x="99.07" y="11.9" width="4.94" height="20.14" rx="0.25" transform="translate(164.09 104.91) rotate(-139.24)"/><rect class="cls-1" x="91.78" y="20.1" width="4.94" height="11.17" rx="0.25" transform="translate(13.26 80.3) rotate(-49.24)"/><rect class="cls-4" x="55.6" y="55.84" width="10.14" height="5.07" rx="0.25"/><rect class="cls-4" x="70.37" y="55.84" width="10.14" height="5.07" rx="0.25"/><rect class="cls-4" x="85.14" y="55.84" width="10.14" height="5.07" rx="0.25"/><rect class="cls-4" x="62.77" y="68.04" width="25.35" height="5.07" rx="0.25"/><circle class="cls-2" cx="25.32" cy="44.22" r="8.14"/><path class="cls-2" d="M10.65,55.25H40a1.64,1.64,0,0,1,1.64,1.64V77.67a0,0,0,0,1,0,0H9a0,0,0,0,1,0,0V56.87a1.62,1.62,0,0,1,1.62-1.62Z"/></g></g></svg>