<svg xmlns="http://www.w3.org/2000/svg" viewBox="0 0 119.5 122.69"><defs><style>.cls-1{fill:#0e9890;}.cls-2{fill:#455d9e;}.cls-3{fill:#2a3d7c;}.cls-4{fill:#fc3846;}.cls-5{fill:#69ccfe;}.cls-6{fill:#6acdfe;}.cls-7{fill:#c3d9ef;}.cls-8{fill:#b6092b;}.cls-9{fill:#bfddf5;}.cls-10{fill:#d8e9fb;}.cls-11{fill:#be1832;}.cls-12{fill:#60d782;}.cls-13{fill:#edf5fe;}.cls-14{fill:#fefefe;}</style></defs><g id="Layer_2" data-name="Layer 2"><g id="Layer_1-2" data-name="Layer 1"><path class="cls-1" d="M110.53,92.25a23,23,0,0,1-1.12,16.34c-3.65,7.75-9.85,12.34-18.41,13.83-.25,0-.59-.1-.73.27H84.42c-1.61-.41-3.22-.78-4.81-1.25a34.7,34.7,0,0,1-6.35-3.06c-.22-.22-.43-.47-.67-.67a24.18,24.18,0,0,1-7.8-10.41,35,35,0,0,1-1.58-6.92,31.32,31.32,0,0,1,.94-7.89,27.89,27.89,0,0,1,4-7.88,26.9,26.9,0,0,1,10-7.62l2.87-.91a26.27,26.27,0,0,1,7.75-.78l.11,0H89a28.25,28.25,0,0,1,6,1.21A23.9,23.9,0,0,1,110.53,92.25ZM105.59,99a14.66,14.66,0,0,0,0-2.39,17.84,17.84,0,0,0-9.34-13.4c-2.46-1.35-5.14-2.49-8-1.95a17.92,17.92,0,0,0-4,34.22,10.89,10.89,0,0,0,5.49,1.29A17.75,17.75,0,0,0,105.59,99Z"/><path class="cls-2" d="M19.83,0a3.36,3.36,0,0,1,1.72,3.46c-.08,1.1,0,2.21,0,3.32,0,1.93,0,3.87,0,5.8,0,1.75-.67,2.5-2.4,2.86a4.11,4.11,0,0,1-1.51-3.69c.07-1.91,0-3.82,0-5.74,0-2.08-.29-4.22,1.21-6Z"/><path class="cls-2" d="M80.52,0a3.37,3.37,0,0,1,1.72,3.47c-.08,1.09,0,2.2,0,3.31,0,1.93,0,3.87,0,5.8,0,1.75-.66,2.5-2.4,2.86a4.11,4.11,0,0,1-1.51-3.69c.08-1.91,0-3.82,0-5.74,0-2.08-.29-4.22,1.22-6Z"/><path class="cls-3" d="M18.85,0c-1.5,1.79-1.21,3.93-1.21,6,0,1.92.05,3.83,0,5.74a4.11,4.11,0,0,0,1.51,3.69l-.39,0-1.62,0A2.23,2.23,0,0,1,15,13c0-2.09,0-4.18-.07-6.28,0-1,.12-2.05,0-3.06A3.7,3.7,0,0,1,16.42,0Z"/><path class="cls-3" d="M79.55,0C78,1.79,78.33,3.93,78.33,6c0,1.92.06,3.83,0,5.74a4.11,4.11,0,0,0,1.51,3.69l-.39,0-1.62,0A2.24,2.24,0,0,1,75.64,13c0-2.06,0-4.13,0-6.2V4.6a8,8,0,0,0,0-1.29A3.33,3.33,0,0,1,77.11,0Z"/><path class="cls-4" d="M79.43,15.39l.39,0c1.74-.36,2.38-1.11,2.4-2.86,0-1.93,0-3.87,0-5.8h3c2.95,0,3.62.62,3.79,3.49,0,.48,0,1,0,1.43q0,5.79,0,11.58l-1.58,0H13q0-6.34,0-12.68c0-1.28-.15-2.57,1-3.65H10.07c1.59-.45,3.21-.11,4.81-.19,0,2.1,0,4.19.07,6.28a2.23,2.23,0,0,0,2.17,2.36,1.81,1.81,0,0,0,1.62,0l.39,0c1.73-.36,2.37-1.11,2.4-2.86,0-1.93,0-3.87,0-5.8l16.67-.07c.52,0,1,.06,1.58.06H75.59c0,2.07,0,4.14,0,6.2a2.24,2.24,0,0,0,2.17,2.39A1.81,1.81,0,0,0,79.43,15.39Z"/><path class="cls-5" d="M63.21,100.38a35,35,0,0,0,1.58,6.92,24.18,24.18,0,0,0,7.8,10.41c.24.2.45.45.67.67a19.75,19.75,0,0,1-5.53,1.15,53.84,53.84,0,0,1-10.31.49,60,60,0,0,1-34.13-12.25,59.34,59.34,0,0,1-7.11-6.33c-.3-.32-.69-.57-.79-1l3.24-.06c.52,0,1.05,0,1.58,0Z"/><path class="cls-6" d="M7.89,90.33q-15.78-29,0-58c.43.45.22,1,.22,1.49q0,25.36,0,50.74c0,.67,0,1.35,0,2C8,87.84,8.38,89.11,7.89,90.33Z"/><path class="cls-7" d="M8.12,84.58q0-25.36,0-50.74c0-.5.21-1-.22-1.49.48-1,.1-2.14.28-3.2l4.8,0c0,.24,0,.47,0,.71v54.7Z"/><path class="cls-8" d="M10.07,6.92H14C12.84,8,13,9.29,13,10.57q0,6.33,0,12.68H8.14c0-4.74,0-9.48,0-14.22A2,2,0,0,1,10.07,6.92Z"/><path class="cls-9" d="M18.63,100.34l-3.24.06a12.55,12.55,0,0,1-2.85-3.1,33.71,33.71,0,0,1-3.21-4.56c1.2-.54,2.46-.1,3.68-.26l5.6,0Z"/><path class="cls-10" d="M13,92.48c-1.22.16-2.48-.28-3.68.26a8.43,8.43,0,0,1-1.44-2.41c.49-1.22.11-2.49.21-3.73.05-.67,0-1.35,0-2H13Z"/><path class="cls-11" d="M8.14,23.24H13c0,1.92,0,3.84,0,5.76,0,0,0,.1,0,.16l-4.8,0Z"/><path class="cls-5" d="M89,23.27q0-5.79,0-11.58c0-.48,0-.95,0-1.43a48.77,48.77,0,0,1,9.48,6.45,58,58,0,0,1,14.11,71.93c-.64,1.24-1.42,2.41-2.14,3.61a23.9,23.9,0,0,0-15.45-15.7,28.25,28.25,0,0,0-6-1.21L89,75V29l0-.25Z"/><path class="cls-10" d="M89,29.47V75l-.21.29a26.27,26.27,0,0,0-7.75.78c0-2.76-.06-5.51,0-8.26,0-1-.37-1.47-1.43-1.46-2.39,0-4.79,0-7.18,0-.84,0-1.16.3-1.15,1.13,0,2.75,0,5.51,0,8.26,0,.89.35,1.19,1.23,1.18,1.91,0,3.81,0,5.72.06a26.9,26.9,0,0,0-10,7.62L13,84.59h0V29.88c0-.24,0-.47,0-.71,0-.06,0-.11,0-.16.49,0,1,0,1.46,0H87.25c.52,0,1,0,1.58,0A.34.34,0,0,0,89,29.47ZM53.71,56.91c0-1.43-.05-2.87,0-4.3.05-1.09-.43-1.56-1.48-1.56H44.71c-.79,0-1.23.35-1.23,1.14q0,4.73,0,9.45a1,1,0,0,0,1.11,1.14c2.6,0,5.19,0,7.79,0a1.2,1.2,0,0,0,1.35-1.43C53.67,59.86,53.71,58.39,53.71,56.91Zm-24.13,0c0,1.51,0,3,0,4.54,0,.89.38,1.33,1.31,1.32H38.3c1,0,1.55-.39,1.53-1.51q-.07-4.37,0-8.73c0-1.13-.53-1.49-1.54-1.5-2.43,0-4.87,0-7.3,0-1.06,0-1.45.46-1.42,1.46C29.61,54,29.58,55.44,29.58,56.92Zm27.78,0c0,1.47,0,2.95,0,4.43,0,.93.34,1.41,1.34,1.4,2.47,0,4.95,0,7.42,0A1.3,1.3,0,0,0,67.6,61.3c0-2.91,0-5.82,0-8.74,0-1-.49-1.53-1.55-1.52-2.44,0-4.87,0-7.31,0-1,0-1.4.4-1.38,1.36C57.39,53.92,57.37,55.43,57.36,57Zm13.9-.16c0,1.52,0,3,0,4.55,0,1,.37,1.46,1.42,1.45q3.35,0,6.7,0c1.11,0,1.65-.45,1.64-1.56q0-4.3,0-8.61c0-1-.44-1.57-1.52-1.57H72.55c-.92,0-1.31.43-1.3,1.32C71.27,53.84,71.26,55.31,71.26,56.79Zm-45.34.08c0-1.44,0-2.88,0-4.31,0-1.05-.35-1.55-1.47-1.53-2.23,0-4.46,0-6.69,0-1.05,0-1.6.42-1.6,1.49q0,4.36,0,8.73c0,1.05.51,1.53,1.56,1.52,2.28,0,4.55,0,6.82,0,1,0,1.4-.41,1.38-1.37C25.9,59.9,25.92,58.38,25.92,56.87ZM29.58,42c0,1.4,0,2.79,0,4.19,0,.9.25,1.3,1.24,1.28,2.59,0,5.19,0,7.78,0,.83,0,1.22-.32,1.22-1.1q0-4.3,0-8.61c0-.79-.39-1.12-1.22-1.1-2.59,0-5.19,0-7.78,0-1,0-1.28.38-1.24,1.29C29.62,39.28,29.58,40.64,29.58,42Zm27.79,0c0,1.39,0,2.79,0,4.18,0,.91.26,1.3,1.25,1.28,2.59,0,5.18,0,7.78,0,.83,0,1.21-.33,1.21-1.11q0-4.31,0-8.61c0-.69-.29-1.1-1.1-1.09-2.68,0-5.35,0-8,0-.87,0-1.12.37-1.1,1.16C57.39,39.21,57.37,40.6,57.37,42Zm-13.9,0c0,1.43,0,2.87,0,4.3,0,.9.34,1.19,1.22,1.18,2.6,0,5.19,0,7.79,0,.91,0,1.24-.39,1.24-1.21V37.88c0-.8-.28-1.25-1.21-1.24-2.64,0-5.27,0-7.91,0-.85,0-1.15.34-1.13,1.14C43.5,39.19,43.47,40.58,43.47,42ZM29.58,71.5c0,1.39,0,2.79,0,4.19,0,.77.33,1.22,1.14,1.22h7.92c.73,0,1.16-.35,1.17-1.08q0-4.2,0-8.38c0-.7-.3-1.1-1.11-1.1q-4,0-8,0c-.77,0-1.1.28-1.09,1.06C29.6,68.78,29.58,70.14,29.58,71.5Zm13.89,0c0,1.4,0,2.79,0,4.19a1.05,1.05,0,0,0,1.18,1.2h7.91a1,1,0,0,0,1.14-1.1c0-2.8,0-5.59,0-8.39,0-.71-.35-1.07-1.14-1.06-2.64,0-5.28,0-7.91,0-.92,0-1.22.36-1.19,1.22C43.51,68.89,43.47,70.21,43.47,71.53Zm13.9-.11c0,1.4,0,2.8,0,4.2,0,.81.31,1.3,1.2,1.3h7.91a1,1,0,0,0,1.13-1.12c0-2.79,0-5.59,0-8.38,0-.72-.37-1.06-1.15-1-2.64,0-5.28,0-7.92,0-.93,0-1.19.39-1.17,1.23C57.4,68.87,57.37,70.15,57.37,71.42ZM25.92,42.09c0-1.43,0-2.87,0-4.3,0-.82-.29-1.15-1.13-1.14q-3.72,0-7.42,0c-.84,0-1.2.35-1.2,1.12,0,2.87,0,5.74,0,8.61,0,.7.32,1.09,1.12,1.08,2.51,0,5,0,7.54,0,.77,0,1.11-.29,1.09-1.06C25.9,45,25.92,43.53,25.92,42.09Zm45.34,0c0,1.4,0,2.79,0,4.19,0,.85.26,1.24,1.18,1.22,2.39,0,4.79,0,7.18,0,1,0,1.42-.37,1.41-1.34q0-4.07,0-8.13c0-1-.45-1.35-1.42-1.34q-3.59,0-7.17,0c-.93,0-1.2.38-1.18,1.23C71.29,39.26,71.26,40.66,71.26,42.05ZM25.92,71.59c0-1.32,0-2.64,0-4,0-.91-.27-1.3-1.25-1.28-2.39,0-4.79,0-7.18,0-1,0-1.34.34-1.34,1.24q0,4,0,8c0,.91.41,1.31,1.33,1.3,2.36,0,4.71,0,7.06,0,1,0,1.39-.44,1.37-1.39C25.9,74.22,25.92,72.91,25.92,71.59Z"/><path class="cls-12" d="M105.59,99A17.75,17.75,0,0,1,89.73,116.8a10.89,10.89,0,0,1-5.49-1.29,17.92,17.92,0,0,1,4-34.22c2.86-.54,5.54.6,8,1.95a17.84,17.84,0,0,1,9.34,13.4A14.66,14.66,0,0,1,105.59,99Zm-7.5-5.89a1.63,1.63,0,0,0-1-1.59c-1-.55-1.77-.07-2.48.62-3,3-6.1,6-9.12,9-.56.56-.9.56-1.45,0-1.31-1.36-2.67-2.67-4-4-1-.94-2-1-2.79-.25s-.76,1.8.19,2.75c1.94,1.94,3.89,3.85,5.86,5.75,1,1,1.94,1,3,0,3.72-3.62,7.41-7.27,11.11-10.91A1.81,1.81,0,0,0,98.09,93.14Z"/><path class="cls-13" d="M13,84.59l55.14,0a27.89,27.89,0,0,0-4,7.88H18.61l-5.6,0Z"/><path class="cls-10" d="M18.61,92.5H64.15a31.32,31.32,0,0,0-.94,7.89h-43c-.53,0-1.06,0-1.58,0C18.62,97.73,18.62,95.11,18.61,92.5Z"/><path class="cls-14" d="M78.19,77c-1.91,0-3.81-.08-5.72-.06-.88,0-1.24-.29-1.23-1.18,0-2.75,0-5.51,0-8.26,0-.83.31-1.14,1.15-1.13,2.39,0,4.79,0,7.18,0,1.06,0,1.44.46,1.43,1.46,0,2.75,0,5.5,0,8.26Z"/><path class="cls-7" d="M88.81,75.3,89,75c0,.11,0,.22,0,.33h-.12Z"/><path class="cls-6" d="M75.59,6.78H39.82c-.53,0-1.06,0-1.58-.06a37.65,37.65,0,0,1,8.29-2.6,60.55,60.55,0,0,1,27.76.26c.43.11.88.16,1.31.23C75.6,5.33,75.59,6.06,75.59,6.78Z"/><path class="cls-2" d="M18.74,15.39a1.81,1.81,0,0,1-1.62,0Z"/><path class="cls-2" d="M79.43,15.39a1.81,1.81,0,0,1-1.62,0Z"/><path class="cls-8" d="M88.83,29.09c-.53,0-1.06,0-1.58,0H14.47c-.49,0-1,0-1.46,0,0-1.92,0-3.84,0-5.76H87.42l1.58,0v5.49l-.2.22Z"/><path class="cls-7" d="M89,29.47a.34.34,0,0,1-.19-.38l0-.11.11,0H89Z"/><path class="cls-11" d="M89,29h-.12l-.11,0,.2-.22Z"/><path class="cls-14" d="M53.71,56.91c0,1.48,0,3,0,4.43a1.2,1.2,0,0,1-1.35,1.43c-2.6,0-5.19,0-7.79,0a1,1,0,0,1-1.11-1.14q0-4.73,0-9.45c0-.79.44-1.14,1.23-1.14h7.54c1,0,1.53.47,1.48,1.56C53.66,54,53.71,55.48,53.71,56.91Z"/><path class="cls-14" d="M29.58,56.92c0-1.48,0-3,0-4.43,0-1,.36-1.47,1.42-1.46,2.43,0,4.87,0,7.3,0,1,0,1.56.37,1.54,1.5q-.07,4.37,0,8.73c0,1.12-.52,1.5-1.53,1.51H30.88c-.93,0-1.32-.43-1.31-1.32C29.59,60,29.58,58.43,29.58,56.92Z"/><path class="cls-14" d="M57.36,57c0-1.52,0-3,0-4.55,0-1,.41-1.37,1.38-1.36,2.44,0,4.87,0,7.31,0,1.06,0,1.56.48,1.55,1.52,0,2.92,0,5.83,0,8.74a1.3,1.3,0,0,1-1.48,1.48c-2.47,0-5,0-7.42,0-1,0-1.36-.47-1.34-1.4C57.39,59.9,57.36,58.42,57.36,57Z"/><path class="cls-14" d="M71.26,56.79c0-1.48,0-2.95,0-4.43,0-.89.38-1.33,1.3-1.32h6.94c1.08,0,1.52.54,1.52,1.57q0,4.3,0,8.61c0,1.11-.53,1.58-1.64,1.56q-3.36,0-6.7,0c-1,0-1.45-.45-1.42-1.45C71.28,59.82,71.26,58.31,71.26,56.79Z"/><path class="cls-14" d="M25.92,56.87c0,1.51,0,3,0,4.54,0,1-.4,1.39-1.38,1.37-2.27,0-4.54,0-6.82,0-1.05,0-1.56-.47-1.56-1.52q0-4.36,0-8.73c0-1.07.55-1.5,1.6-1.49,2.23,0,4.46,0,6.69,0,1.12,0,1.51.48,1.47,1.53C25.89,54,25.92,55.43,25.92,56.87Z"/><path class="cls-14" d="M29.58,42c0-1.35,0-2.71,0-4.06,0-.91.25-1.31,1.24-1.29,2.59,0,5.19,0,7.78,0,.83,0,1.22.31,1.22,1.1q0,4.3,0,8.61c0,.78-.39,1.11-1.22,1.1-2.59,0-5.19,0-7.78,0-1,0-1.28-.38-1.24-1.28C29.62,44.78,29.58,43.39,29.58,42Z"/><path class="cls-14" d="M57.37,42c0-1.4,0-2.79,0-4.19,0-.79.23-1.17,1.1-1.16,2.68,0,5.35,0,8,0,.81,0,1.1.4,1.1,1.09q0,4.31,0,8.61c0,.78-.38,1.12-1.21,1.11-2.6,0-5.19,0-7.78,0-1,0-1.28-.37-1.25-1.28C57.4,44.79,57.37,43.39,57.37,42Z"/><path class="cls-14" d="M43.47,42c0-1.4,0-2.79,0-4.19,0-.8.28-1.15,1.13-1.14,2.64,0,5.27,0,7.91,0,.93,0,1.21.44,1.21,1.24v8.37c0,.82-.33,1.23-1.24,1.21-2.6,0-5.19,0-7.79,0-.88,0-1.25-.28-1.22-1.18C43.51,44.85,43.47,43.41,43.47,42Z"/><path class="cls-14" d="M29.58,71.5c0-1.36,0-2.72,0-4.07,0-.78.32-1.07,1.09-1.06q4,0,8,0c.81,0,1.11.4,1.11,1.1q0,4.19,0,8.38c0,.73-.44,1.08-1.17,1.08H30.72c-.81,0-1.15-.45-1.14-1.22C29.59,74.29,29.58,72.89,29.58,71.5Z"/><path class="cls-14" d="M43.47,71.53c0-1.32,0-2.64,0-4,0-.86.27-1.23,1.19-1.22,2.63,0,5.27,0,7.91,0,.79,0,1.14.35,1.14,1.06,0,2.8,0,5.59,0,8.39a1,1,0,0,1-1.14,1.1H44.65a1.05,1.05,0,0,1-1.18-1.2C43.48,74.32,43.47,72.93,43.47,71.53Z"/><path class="cls-14" d="M57.37,71.42c0-1.27,0-2.55,0-3.83,0-.84.24-1.24,1.17-1.23,2.64,0,5.28,0,7.92,0,.78,0,1.15.33,1.15,1,0,2.79,0,5.59,0,8.38a1,1,0,0,1-1.13,1.12H58.56c-.89,0-1.21-.49-1.2-1.3C57.38,74.22,57.37,72.82,57.37,71.42Z"/><path class="cls-14" d="M25.92,42.09c0,1.44,0,2.87,0,4.31,0,.77-.32,1.06-1.09,1.06-2.51,0-5,0-7.54,0-.8,0-1.11-.38-1.12-1.08,0-2.87,0-5.74,0-8.61,0-.77.36-1.14,1.2-1.12q3.71,0,7.42,0c.84,0,1.15.32,1.13,1.14C25.9,39.22,25.92,40.66,25.92,42.09Z"/><path class="cls-14" d="M71.26,42.05c0-1.39,0-2.79,0-4.18,0-.85.25-1.24,1.18-1.23q3.58.06,7.17,0c1,0,1.43.36,1.42,1.34q0,4.07,0,8.13c0,1-.45,1.35-1.41,1.34-2.39,0-4.79,0-7.18,0-.92,0-1.2-.37-1.18-1.22C71.29,44.84,71.26,43.45,71.26,42.05Z"/><path class="cls-14" d="M25.92,71.59c0,1.32,0,2.63,0,4,0,.95-.37,1.4-1.37,1.39-2.35,0-4.7,0-7.06,0-.92,0-1.33-.39-1.33-1.3q0-4,0-8c0-.9.39-1.26,1.34-1.24,2.39,0,4.79,0,7.18,0,1,0,1.28.37,1.25,1.28C25.88,69,25.92,70.27,25.92,71.59Z"/><path class="cls-14" d="M98.09,93.14a1.81,1.81,0,0,1-.71,1.42c-3.7,3.64-7.39,7.29-11.11,10.91-1,1-1.92,1-3,0-2-1.9-3.92-3.81-5.86-5.75-1-1-1-2-.19-2.75s1.81-.69,2.79.25c1.37,1.31,2.73,2.62,4,4,.55.57.89.57,1.45,0,3-3,6.08-6,9.12-9,.71-.69,1.47-1.17,2.48-.62A1.63,1.63,0,0,1,98.09,93.14Z"/></g></g></svg>