<svg xmlns="http://www.w3.org/2000/svg" viewBox="0 0 80.17 107.39"><defs><style>.cls-1{fill:#edeaee;}.cls-2{fill:#dbd4dd;}.cls-3{fill:#50a6ea;}.cls-4{fill:#c9bfcb;}.cls-5{fill:#e7714e;}.cls-6{fill:#fbc137;}.cls-7{fill:#fde09b;}.cls-8{font-size:10.95px;fill:#f57702;font-family:Nunito-ExtraBold, Nunito ExtraBold;font-weight:800;}</style></defs><g id="Layer_2" data-name="Layer 2"><g id="Layer_1-2" data-name="Layer 1"><polygon class="cls-1" points="80.17 0 80.17 96 68.52 107.39 0.01 107.39 0.01 0 80.17 0"/><rect class="cls-2" width="6.85" height="107.39"/><ellipse class="cls-3" cx="24.61" cy="18.2" rx="4.78" ry="4.74"/><path class="cls-3" d="M23.87,24.62h1.34a9,9,0,0,1,9,9v4.11a0,0,0,0,1,0,0H15.06a0,0,0,0,1,0,0V33.43A8.81,8.81,0,0,1,23.87,24.62Z"/><path class="cls-2" d="M80.17,96,68.52,107.39V98.1A2.11,2.11,0,0,1,70.64,96Z"/><rect class="cls-4" x="43.97" y="14.56" width="26.95" height="3.64" rx="1.7"/><rect class="cls-4" x="43.97" y="22.04" width="26.95" height="3.64" rx="1.7"/><rect class="cls-4" x="43.97" y="29.33" width="26.95" height="3.64" rx="1.7"/><path class="cls-5" d="M65.87,77.67,71.45,82a1.37,1.37,0,0,1-.08,1.56,1.47,1.47,0,0,1-1.24.47H52.8A1.84,1.84,0,0,1,51,82.23V73.1a1.84,1.84,0,0,1,1.84-1.82H70.13a1,1,0,0,1,1.24.47,1,1,0,0,1-.19,1.13Z"/><path class="cls-5" d="M19.37,77.67,13.79,82a1.35,1.35,0,0,0,.08,1.56,1.46,1.46,0,0,0,1.23.47H32.44a1.83,1.83,0,0,0,1.83-1.83V73.1a1.83,1.83,0,0,0-1.83-1.82H15.1a1,1,0,0,0-1.23.47,1,1,0,0,0,.19,1.13Z"/><ellipse class="cls-6" cx="42.37" cy="76.36" rx="13.78" ry="13.69"/><ellipse class="cls-7" cx="42.37" cy="76.36" rx="10.11" ry="10.04"/><text class="cls-8" transform="translate(38.8 80.12) scale(0.83 1)">A</text></g></g></svg>