<svg xmlns="http://www.w3.org/2000/svg" viewBox="0 0 106.05 103.31"><defs><style>.cls-1{fill:#49cd8a;}.cls-2{fill:#279b61;}.cls-3{fill:#fddc40;}.cls-4{fill:#feb333;}.cls-5{fill:#3b3868;}.cls-6{fill:#3c3969;}.cls-7{fill:#36b177;}.cls-8{fill:#289b61;}.cls-9{fill:#36b176;}.cls-10{fill:#1c8c51;}.cls-11{fill:#66e6a2;}.cls-12{fill:#fbeba8;}.cls-13{fill:#fe9101;}.cls-14{fill:#fedc40;}</style></defs><g id="Layer_2" data-name="Layer 2"><g id="Layer_1-2" data-name="Layer 1"><path class="cls-1" d="M106.05,62.33c-1,2.65-2.9,3.72-5.66,3.5a11.81,11.81,0,0,0-1.33,0l-2.17,0c-1.57,0-1.57,0-1.66,1.53a26.69,26.69,0,0,0-5.34-3q0-4.52,0-9,0-9.09,0-18.16c0-4.63,0-9.25,0-13.88a1.82,1.82,0,0,0-2-2H24.07l-.19,0a1.83,1.83,0,0,0-.51-1,4,4,0,0,1-1.15-3A6.49,6.49,0,0,0,22,16H84.94c1.86,0,3.73.11,5.58,0a4.52,4.52,0,0,1,4.76,4.77c0,1.85,0,3.7,0,5.55q0,15.5,0,31c0,1-.44,2.36.18,3s2.1.21,3.18.23a1.83,1.83,0,0,0,2-2q0-16,0-32,0-6.9,0-13.81a1.85,1.85,0,0,0-2-2c-4.62,0-9.25,0-13.87,0H35.87l-.19,0a1,1,0,0,0-.41-.69c-1.51-1.28-1.39-2.92-1-4.62l4.86,0,34,0c9.07,0,18.14.07,27.21,0,2.77,0,4.74.85,5.71,3.53Z"/><path class="cls-2" d="M23.88,21.31l.19,0a4.24,4.24,0,0,1,.08,1.19c-.24,2.14-.15,4.23,1.26,6.06a11.69,11.69,0,0,0,3.51,2.62,1.6,1.6,0,0,0,1.78,0A15.37,15.37,0,0,1,41,30.09a16,16,0,0,1,11.62,9.28,15.7,15.7,0,0,1-.32,14.35,15.76,15.76,0,0,1-10,8.25c-.51.15-.65.32-.64,1a4,4,0,0,0,1.33,2.67,23.38,23.38,0,0,0-6.25,5.56H29l-24.46,0A41.52,41.52,0,0,1,1.31,61.9,47.41,47.41,0,0,1,.09,47.76,48.83,48.83,0,0,1,9.37,21.33Zm11.83,15.5a8.58,8.58,0,0,0-2.73,2c-.12-.68-.71-1-1.15-1.39a7.87,7.87,0,0,1-.62-.53,5.05,5.05,0,0,1-1.35-3.76c0-.44.1-1-.35-1.21s-.68.23-1,.44a17.42,17.42,0,0,0-3.82,3.4,16.37,16.37,0,0,0,2.94,23.58,16.31,16.31,0,0,0,12.53,3.13c.33,0,.82-.13.92-.34.19-.41-.32-.62-.57-.85A4.27,4.27,0,0,1,39,57.78a3.48,3.48,0,0,0,.37-2.28c.35-.21.7-.41,1-.63a5.61,5.61,0,0,0,2.84-5.25A5,5,0,0,0,39.5,45c-.94-.31-1.86-.71-2.79-1.06a1.6,1.6,0,0,1-1.25-1.76,2.07,2.07,0,0,1,1.77-1.87,4.2,4.2,0,0,1,3.14.57A1.82,1.82,0,0,0,43,40.28a1.75,1.75,0,0,0-.68-2.47,8.89,8.89,0,0,0-2.93-1.22c0-1.78-.73-2.64-2.15-2.48C36.16,34.22,35.63,35.18,35.71,36.81ZM8,47.91c1,0,1.93,0,2.89,0,1.26,0,1.95-.56,2-1.59a1.9,1.9,0,0,0-2-1.91c-1.92,0-3.85,0-5.77,0a1.76,1.76,0,1,0,0,3.5C6.1,47.92,7.06,47.91,8,47.91Z"/><path class="cls-3" d="M89.89,64.36a26.69,26.69,0,0,1,5.34,3l2.48,2.28A21.15,21.15,0,0,1,102,77.42c2.07,7.82.34,14.64-5.5,20.35a3.83,3.83,0,0,1-2-1.86c0-.13,0-.26,0-.4a8.12,8.12,0,0,0,2.88-3.25,16.67,16.67,0,0,0,2.44-11.78,17,17,0,0,0-6.47-11,17.21,17.21,0,0,0-9.24-3.65,11.9,11.9,0,0,0-5.15.47,36.51,36.51,0,0,1,3.68,3c.26.36.51.73.79,1.07a19.53,19.53,0,0,1,4.27,16.17c-.59,3.5,1.26,6,4.86,6.25V93a.88.88,0,0,0-.55.25,13.48,13.48,0,0,1-7.56,3.54c-.89.13-2-.19-2.65.75-1.33.08-1.78-.81-2.07-1.87,0-.07,0-.13,0-.2a9.37,9.37,0,0,0,1.66-1.67,17.35,17.35,0,0,0-12.15-28,15.62,15.62,0,0,0-4.42.21.72.72,0,0,0-.44.23c-.12.17.06.32.2.4a27.52,27.52,0,0,1,3.15,2.64c.43.54.88,1.05,1.29,1.6a19,19,0,0,1,3.85,15.19c-.83,4.74,1.82,6.3,4.78,6.71,0,.07,0,.13,0,.2a5.64,5.64,0,0,0-.77.5,13.85,13.85,0,0,1-7.81,3.36c-.78.1-1.6,0-2.16.69a1.77,1.77,0,0,1-1.76-1c-.32-.71.07-1.13.5-1.62a17.4,17.4,0,0,0,4.59-12.28,16.34,16.34,0,0,0-7-13.43c-5.52-4-11.58-4.53-17.85-1.69a1.36,1.36,0,0,1-2.11-1.16c0-.26.06-.56-.19-.77a19.76,19.76,0,0,1,16.41-1.49,2.4,2.4,0,0,0,1.69,0,19.66,19.66,0,0,1,4.51-1,22,22,0,0,1,9,1.05.87.87,0,0,0,1,.14A20.76,20.76,0,0,1,89.89,64.36Z"/><path class="cls-4" d="M43.14,65.63c.25.21.15.51.19.77a1.36,1.36,0,0,0,2.11,1.16c6.27-2.84,12.33-2.3,17.85,1.69a16.34,16.34,0,0,1,7,13.43A17.4,17.4,0,0,1,65.68,95c-.43.49-.82.91-.5,1.62a1.77,1.77,0,0,0,1.76,1A14.92,14.92,0,0,1,64.27,100a14.3,14.3,0,0,0,6.59.19,17.49,17.49,0,0,0,8.9-4.43c.29,1.06.74,2,2.07,1.87-.7,1-1.86,1.53-2.74,2.39a14.56,14.56,0,0,0,6.69.17,19.41,19.41,0,0,0,8.7-4.23,3.83,3.83,0,0,0,2,1.86,19.55,19.55,0,0,1-11.33,5.36,19.92,19.92,0,0,1-9.53-1.1,1.24,1.24,0,0,0-.89,0,20.23,20.23,0,0,1-13.83,0,1.49,1.49,0,0,0-1.08,0,20.07,20.07,0,0,1-17.08-1.55c-.36-.2-.74-.34-1.11-.51-.14-.4-.53-.53-.82-.76a19.94,19.94,0,0,1-8.09-16,24.68,24.68,0,0,1,1-6.67,29.75,29.75,0,0,1,2.86-5.37,23.38,23.38,0,0,1,6.25-5.56ZM62.79,92.87a13.23,13.23,0,0,0,3.53-13.34C63.9,70.79,54.53,66.84,46.41,71h-.2a2.86,2.86,0,0,1-1.71-2.87,17.14,17.14,0,0,0-8.58,18.31,17.37,17.37,0,0,0,22.81,13,15.11,15.11,0,0,0,5.63-3.33c.18-.17.69-.55.19-.67-1.31-.33-1.52-1.33-1.77-2.37A1.09,1.09,0,0,1,62.79,92.87Z"/><path class="cls-5" d="M33.79,76.55a24.68,24.68,0,0,0-1,6.67,19.94,19.94,0,0,0,8.09,16c.29.23.68.36.82.76a21,21,0,0,1-5.61-1.22A50.46,50.46,0,0,1,7.59,77c0-.09-.09-.19-.13-.28a1.58,1.58,0,0,1,.91-.13Z"/><path class="cls-6" d="M73.13,5.24l-34,0-4.87,0-5.78,0A43.24,43.24,0,0,1,40.37,1.09,50.54,50.54,0,0,1,72.8,5,2.44,2.44,0,0,1,73.13,5.24Z"/><path class="cls-7" d="M33.79,76.55H8.37a1.58,1.58,0,0,0-.91.13,28.33,28.33,0,0,1-2.91-5.46l24.46,0h7.64A29.75,29.75,0,0,0,33.79,76.55Z"/><path class="cls-8" d="M37.11,16H22c-2.33,0-4.66,0-7,0-.36,0-.76.14-1.07-.18a33.82,33.82,0,0,1,5.78-5.17h16l.19,0a4.72,4.72,0,0,1-.08,1.31A3.38,3.38,0,0,0,36.45,15C36.67,15.31,37.11,15.49,37.11,16Z"/><path class="cls-9" d="M13.94,15.78c.31.32.71.18,1.07.18,2.33,0,4.66,0,7,0a6.49,6.49,0,0,1,.22,1.4,4,4,0,0,0,1.15,3,1.83,1.83,0,0,1,.51,1l-14.51,0A42.66,42.66,0,0,1,13.94,15.78Z"/><path class="cls-7" d="M35.68,10.6h-16a37.78,37.78,0,0,1,8.72-5.37l5.78,0c-.34,1.7-.46,3.34,1.05,4.62A1,1,0,0,1,35.68,10.6Z"/><path class="cls-6" d="M97.71,69.64l-2.48-2.28c.09-1.54.09-1.54,1.66-1.53l2.17,0A36.32,36.32,0,0,1,97.71,69.64Z"/><path class="cls-9" d="M43.14,65.63H42.9A4,4,0,0,1,41.57,63c0-.66.13-.83.64-1a15.76,15.76,0,0,0,10-8.25,15.7,15.7,0,0,0,.32-14.35A16,16,0,0,0,41,30.09,15.37,15.37,0,0,0,30.7,31.23a1.6,1.6,0,0,1-1.78,0,11.69,11.69,0,0,1-3.51-2.62c-1.41-1.83-1.5-3.92-1.26-6.06a4.24,4.24,0,0,0-.08-1.19H74c0,.93,0,1.85,0,2.78.14,5.15,2.7,8.84,7,11.41,2.73,1.63,5.78,1.82,8.87,1.65q0,9.07,0,18.16a13.81,13.81,0,0,0-11.72,3.58,10.84,10.84,0,0,0-3.37,5.26,22,22,0,0,0-9-1.05,19.66,19.66,0,0,0-4.51,1,2.4,2.4,0,0,1-1.69,0A19.76,19.76,0,0,0,43.14,65.63ZM67,47.91c1,0,2,0,3,0a1.68,1.68,0,0,0,1.86-1.64,1.85,1.85,0,0,0-1.72-1.85q-3.15-.06-6.3,0a1.86,1.86,0,0,0-1.7,1.88,1.61,1.61,0,0,0,1.76,1.61C65,47.93,66,47.91,67,47.91Z"/><path class="cls-9" d="M37.11,16c0-.47-.44-.65-.66-1a3.38,3.38,0,0,1-.66-3.05,4.72,4.72,0,0,0,.08-1.31H84.74a29.53,29.53,0,0,0,.2,5.32Z"/><path class="cls-2" d="M89.87,37.18c-3.09.17-6.14,0-8.87-1.65-4.34-2.57-6.9-6.26-7-11.41,0-.93,0-1.85,0-2.78H87.91a1.82,1.82,0,0,1,2,2C89.9,27.93,89.88,32.55,89.87,37.18Z"/><path class="cls-9" d="M100.65,26.47q0,16,0,32a1.83,1.83,0,0,1-2,2c-1.08,0-2.46.49-3.18-.23s-.18-2-.18-3q0-15.49,0-31A29.11,29.11,0,0,0,100.65,26.47Z"/><path class="cls-2" d="M100.65,26.47a29.11,29.11,0,0,1-5.36-.2c0-1.85,0-3.7,0-5.55A4.52,4.52,0,0,0,90.52,16c-1.85.11-3.72,0-5.58,0a29.53,29.53,0,0,1-.2-5.32c4.62,0,9.25,0,13.87,0a1.85,1.85,0,0,1,2,2Q100.68,19.58,100.65,26.47Z"/><path class="cls-8" d="M74.79,64.18a10.84,10.84,0,0,1,3.37-5.26,13.81,13.81,0,0,1,11.72-3.58q0,4.5,0,9a20.76,20.76,0,0,0-14.14,0A.87.87,0,0,1,74.79,64.18Z"/><path class="cls-10" d="M39,57.78a4.27,4.27,0,0,0,1.56,3.54c.25.23.76.44.57.85-.1.21-.59.29-.92.34a16.31,16.31,0,0,1-12.53-3.13A16.37,16.37,0,0,1,24.71,35.8a17.42,17.42,0,0,1,3.82-3.4c.3-.21.61-.62,1-.44s.38.77.35,1.21a5.05,5.05,0,0,0,1.35,3.76,7.87,7.87,0,0,0,.62.53c.44.42,1,.71,1.15,1.39l-.24.46c-1.89,3.45-.71,6.62,3,8,.84.32,1.66.67,2.51,1a1.68,1.68,0,0,1,1.36,1.9A2.07,2.07,0,0,1,37.66,52a4.53,4.53,0,0,1-3-.66,1.74,1.74,0,0,0-2.5.61,1.85,1.85,0,0,0,.63,2.43,10.54,10.54,0,0,0,3,1.3,2.12,2.12,0,0,0,.91,2.38A1.86,1.86,0,0,0,39,57.78Z"/><path class="cls-11" d="M35.74,55.71a10.54,10.54,0,0,1-3-1.3A1.85,1.85,0,0,1,32.11,52a1.74,1.74,0,0,1,2.5-.61,4.53,4.53,0,0,0,3,.66,2.07,2.07,0,0,0,1.93-1.83,1.68,1.68,0,0,0-1.36-1.9c-.85-.29-1.67-.64-2.51-1-3.69-1.41-4.87-4.58-3-8l.24-.46a8.58,8.58,0,0,1,2.73-2,14.06,14.06,0,0,1,3.66-.22,8.89,8.89,0,0,1,2.93,1.22A1.75,1.75,0,0,1,43,40.28a1.82,1.82,0,0,1-2.61.55,4.2,4.2,0,0,0-3.14-.57,2.07,2.07,0,0,0-1.77,1.87,1.6,1.6,0,0,0,1.25,1.76c.93.35,1.85.75,2.79,1.06a5,5,0,0,1,3.73,4.67,5.61,5.61,0,0,1-2.84,5.25c-.35.22-.7.42-1,.63A16.71,16.71,0,0,1,35.74,55.71Z"/><path class="cls-9" d="M8,47.91c-1,0-1.92,0-2.88,0a1.76,1.76,0,1,1,0-3.5c1.92,0,3.85,0,5.77,0a1.9,1.9,0,0,1,2,1.91c0,1-.72,1.58-2,1.59C10,47.92,9,47.91,8,47.91Z"/><path class="cls-1" d="M35.74,55.71a16.71,16.71,0,0,0,3.6-.21A3.48,3.48,0,0,1,39,57.78a1.86,1.86,0,0,1-2.32.31A2.12,2.12,0,0,1,35.74,55.71Z"/><path class="cls-1" d="M39.37,36.59a14.06,14.06,0,0,0-3.66.22c-.08-1.63.45-2.59,1.51-2.7C38.64,34,39.39,34.81,39.37,36.59Z"/><path class="cls-12" d="M92.58,92.83c-3.6-.25-5.45-2.75-4.86-6.25a19.53,19.53,0,0,0-4.27-16.17c-.28-.34-.53-.71-.79-1.07a10.18,10.18,0,0,1,2.46.2,13.81,13.81,0,0,1,7.46,23.29Z"/><path class="cls-12" d="M77.69,92.85c-3-.41-5.61-2-4.78-6.71A19,19,0,0,0,69.06,71c-.41-.55-.86-1.06-1.29-1.6a12.86,12.86,0,0,1,7.08,1.87,13.65,13.65,0,0,1,6.63,14.25A13.82,13.82,0,0,1,77.69,92.85Z"/><path class="cls-4" d="M92.58,92.83a13.81,13.81,0,0,0-7.46-23.29,10.18,10.18,0,0,0-2.46-.2,36.51,36.51,0,0,0-3.68-3,11.9,11.9,0,0,1,5.15-.47,17.21,17.21,0,0,1,9.24,3.65,17,17,0,0,1,6.47,11A16.67,16.67,0,0,1,97.4,92.26a8.12,8.12,0,0,1-2.88,3.25A2.38,2.38,0,0,1,92.59,93Z"/><path class="cls-4" d="M77.69,92.85a13.82,13.82,0,0,0,3.79-7.38,13.65,13.65,0,0,0-6.63-14.25,12.86,12.86,0,0,0-7.08-1.87,27.52,27.52,0,0,0-3.15-2.64c-.14-.08-.32-.23-.2-.4a.72.72,0,0,1,.44-.23,15.62,15.62,0,0,1,4.42-.21,17.3,17.3,0,0,1,12.15,28,9.37,9.37,0,0,1-1.66,1.67,2.43,2.43,0,0,1-2.09-2.46C77.68,93,77.69,92.92,77.69,92.85Z"/><path class="cls-13" d="M77.68,93.05a2.43,2.43,0,0,0,2.09,2.46c0,.07,0,.13,0,.2a17.49,17.49,0,0,1-8.9,4.43,14.3,14.3,0,0,1-6.59-.19,14.92,14.92,0,0,0,2.67-2.35c.56-.74,1.38-.59,2.16-.69a13.85,13.85,0,0,0,7.81-3.36A5.64,5.64,0,0,1,77.68,93.05Z"/><path class="cls-13" d="M92.59,93a2.38,2.38,0,0,0,1.93,2.47c0,.14,0,.27,0,.4a19.41,19.41,0,0,1-8.7,4.23,14.56,14.56,0,0,1-6.69-.17c.88-.86,2-1.38,2.74-2.39s1.76-.62,2.65-.75A13.48,13.48,0,0,0,92,93.29.88.88,0,0,1,92.59,93Z"/><path class="cls-14" d="M46.21,71h.2v1.53a3.44,3.44,0,0,0,2.22,3.43,7.1,7.1,0,0,1,.7.41,2.33,2.33,0,0,1-.17.26,4.77,4.77,0,0,0,2.26,7.7c.7.18,1.34.55,2,.76s1.19.72,1,1.52a1.61,1.61,0,0,1-1.53,1.3,4.29,4.29,0,0,1-2.44-.65,1.66,1.66,0,0,0-2.25.61,1.81,1.81,0,0,0,.46,2.2,5.38,5.38,0,0,0,2.5,1.13c0,1.5.69,2.43,1.76,2.43s1.74-.94,1.74-2.43c0-.07,0-.14,0-.21a6.2,6.2,0,0,0,3.09-3.09c.19,2.88,1.86,4.55,5,5a1.09,1.09,0,0,0,0,.18c-.16.12-.34.23-.49.36a13.95,13.95,0,0,1-20.11-1.6,13.94,13.94,0,0,1-1-16A15.9,15.9,0,0,1,46.21,71Z"/><path class="cls-12" d="M49.33,76.35a7.1,7.1,0,0,0-.7-.41,3.44,3.44,0,0,1-2.22-3.43V71c8.12-4.14,17.49-.19,19.91,8.55a13.23,13.23,0,0,1-3.53,13.34c-3.14-.44-4.81-2.11-5-5,.58-3.22-.38-4.93-3.47-6.16l-2-.79c-.56-.22-1-.58-.86-1.23a1.55,1.55,0,0,1,1.26-1.33,3.67,3.67,0,0,1,2.57.42,1.72,1.72,0,1,0,1.63-3,7.19,7.19,0,0,0-2.19-.88c0-1.35-.62-2.14-1.63-2.22a1.82,1.82,0,0,0-1.85,1.69,5.77,5.77,0,0,0,0,.72Z"/><path class="cls-13" d="M46.21,71a15.9,15.9,0,0,0-5.06,4.87,13.94,13.94,0,0,0,1,16,13.95,13.95,0,0,0,20.11,1.6c.15-.13.33-.24.49-.36.25,1,.46,2,1.77,2.37.5.12,0,.5-.19.67a15.11,15.11,0,0,1-5.63,3.33,17.37,17.37,0,0,1-22.81-13A17.14,17.14,0,0,1,44.5,68.12,2.86,2.86,0,0,0,46.21,71Z"/><path class="cls-1" d="M67,47.91c-1,0-2.07,0-3.1,0a1.61,1.61,0,0,1-1.76-1.61,1.86,1.86,0,0,1,1.7-1.88q3.15-.06,6.3,0a1.85,1.85,0,0,1,1.72,1.85A1.68,1.68,0,0,1,70,47.91C69,47.92,68,47.91,67,47.91Z"/><path class="cls-4" d="M49.33,76.35l1.9-1.26a15,15,0,0,1,3.48-.19,7.19,7.19,0,0,1,2.19.88,1.72,1.72,0,1,1-1.63,3,3.67,3.67,0,0,0-2.57-.42,1.55,1.55,0,0,0-1.26,1.33c-.12.65.3,1,.86,1.23l2,.79c3.09,1.23,4,2.94,3.47,6.16A6.2,6.2,0,0,1,54.7,91a12.39,12.39,0,0,1-3.49.21,5.38,5.38,0,0,1-2.5-1.13,1.81,1.81,0,0,1-.46-2.2,1.66,1.66,0,0,1,2.25-.61,4.29,4.29,0,0,0,2.44.65,1.61,1.61,0,0,0,1.53-1.3c.16-.8-.24-1.28-1-1.52s-1.32-.58-2-.76a4.77,4.77,0,0,1-2.26-7.7A2.33,2.33,0,0,0,49.33,76.35Z"/><path class="cls-13" d="M51.21,91.18A12.39,12.39,0,0,0,54.7,91c0,.07,0,.14,0,.21,0,1.49-.66,2.42-1.74,2.43S51.22,92.68,51.21,91.18Z"/><path class="cls-13" d="M54.71,74.9a15,15,0,0,0-3.48.19,5.77,5.77,0,0,1,0-.72,1.82,1.82,0,0,1,1.85-1.69C54.09,72.76,54.67,73.55,54.71,74.9Z"/></g></g></svg>