<svg xmlns="http://www.w3.org/2000/svg" viewBox="0 0 98.96 100.84"><defs><style>.cls-1{fill:#404a80;}.cls-2{fill:#e3336d;}.cls-3{fill:#fc5d80;}</style></defs><g id="Layer_2" data-name="Layer 2"><g id="Layer_1-2" data-name="Layer 1"><path class="cls-1" d="M58.37,100.84H51.8a2.75,2.75,0,0,1-1.38-2.75c.06-2.21,0-4.43,0-6.64a22,22,0,0,0,2-10.59c-.09-4.25,0-8.51,0-12.77a18.13,18.13,0,0,0,0-35.34c0-4.49-.09-9,0-13.47A21.21,21.21,0,0,0,50.26,9c0-2.15.07-4.3,0-6.45A2.4,2.4,0,0,1,51.8,0h6.57c2.25.8,3.06,2.5,3.12,4.84s.34,4.91.49,7.36a2.1,2.1,0,0,0,1.39,1.94c.7.31,1.41.62,2.11,1a2.21,2.21,0,0,0,2.74-.41C70.09,13,72,11.33,73.89,9.64s4-1.75,6,.21q4.38,4.44,8.75,8.9c1.92,2,2,4,.17,6.08s-3.35,3.9-5,5.84a2.11,2.11,0,0,0-.38,2.53,35.06,35.06,0,0,1,1.82,4.44,2.11,2.11,0,0,0,2.09,1.56c2.67.16,5.33.35,8,.55a3.82,3.82,0,0,1,3.68,4q0,6.65,0,13.29a3.81,3.81,0,0,1-3.65,4c-2.63.21-5.27.38-7.9.55a2.13,2.13,0,0,0-2.28,1.72,32.89,32.89,0,0,1-1.66,4.08,2.3,2.3,0,0,0,.38,2.87c1.73,2,3.42,3.93,5.11,5.91a3.93,3.93,0,0,1-.18,5.71q-4.5,4.6-9,9.18a3.82,3.82,0,0,1-5.76.17c-1.92-1.7-3.85-3.39-5.74-5.12a2.26,2.26,0,0,0-2.83-.39c-.65.34-1.34.63-2,.92a2.12,2.12,0,0,0-1.41,2c-.12,2.56-.36,5.11-.42,7.67A4.31,4.31,0,0,1,58.37,100.84Z"/><path class="cls-2" d="M50.26,9A21.21,21.21,0,0,1,52.4,19.28c-.09,4.49,0,9,0,13.47q0,8.91,0,17.82,0,8.76,0,17.52c0,4.26-.09,8.52,0,12.77a22,22,0,0,1-2,10.59A18.82,18.82,0,0,1,42,99.39a28.84,28.84,0,0,1-4.86,1.45H33.05c-.07-.19-.24-.18-.4-.21A17,17,0,0,1,20,91a1,1,0,0,0-.9-.58A17.42,17.42,0,0,1,4.21,71.56a2.12,2.12,0,0,0-.45-1.62A17.76,17.76,0,0,1,.45,63,4.63,4.63,0,0,0,0,61.26V56.53c.35-.28.27-.71.34-1.07A17.42,17.42,0,0,1,6.4,45.24c.56-.46.54-.76.25-1.37A17.68,17.68,0,0,1,17.45,19c.72-.21.87-.49.87-1.2A17.45,17.45,0,0,1,31.33.49,4.48,4.48,0,0,0,33.05,0h4.44c.09.25.32.18.49.21a18.08,18.08,0,0,1,4.24,1.3A18,18,0,0,1,50.26,9ZM46.58,40V26.18c0-1.24-.17-1.36-1.26-.72a8.58,8.58,0,0,0-4,4.74c-.24.71-.38,1.45-.6,2.17a2.92,2.92,0,0,1-3.15,2.05,2.82,2.82,0,0,1-2.4-2.88,6.41,6.41,0,0,1,.2-1.95c1.6-5.33,4.89-9,10.19-10.65.74-.22,1.05-.52,1-1.34A11.41,11.41,0,0,0,34.19,6.08a11.52,11.52,0,0,0-9.86,13.86,11.23,11.23,0,0,0,4.17,6.88,3.1,3.1,0,0,1,.63,4.43,2.9,2.9,0,0,1-4.23.29,17,17,0,0,1-4.57-5.64c-.69-1.39-.69-1.39-2.12-.86a11.78,11.78,0,0,0-6.43,16.1c.3.63.63.87,1.35.69a15.62,15.62,0,0,1,6.42-.28,3,3,0,0,1,2.67,3.17,2.9,2.9,0,0,1-3.06,2.76,26.8,26.8,0,0,0-3.36-.07A11.56,11.56,0,0,0,6,61.17a11.16,11.16,0,0,0,14.14,8.89c.72-.21,1.22-.45,1.05-1.41a9.88,9.88,0,0,1,2.07-8.11,3,3,0,0,1,4.37-.65,3.15,3.15,0,0,1,.19,4.41,3.91,3.91,0,0,0-1,2.41c-.08,2.29,1.36,3.69,4.08,4a2.84,2.84,0,0,1,2.68,3,2.89,2.89,0,0,1-2.92,2.91A9.08,9.08,0,0,1,25.32,75a1.12,1.12,0,0,0-1.25-.15,15.81,15.81,0,0,1-12.93.57c-.23-.08-.49-.26-.73-.06s-.1.49,0,.74a11.14,11.14,0,0,0,10.5,8.35,3.7,3.7,0,0,1,3.95,2.82,11,11,0,0,0,12.43,7.37,11.13,11.13,0,0,0,8.29-6.57c.32-.69,0-.91-.57-1.15a11.6,11.6,0,0,1-6.75-8.54,3.06,3.06,0,0,1,2.37-3.86,2.94,2.94,0,0,1,3.27,2.5,6,6,0,0,0,1.81,3.29c.21.19.38.55.69.43s.2-.52.2-.8c0-5.84,0-11.68,0-17.53a1.16,1.16,0,0,0-.91-1.27,11.35,11.35,0,0,1-7.45-8.94,3,3,0,0,1,2.29-3.71A2.92,2.92,0,0,1,43.88,51a5.81,5.81,0,0,0,1.63,3.17c.26.24.49.68.85.55s.21-.63.21-1Q46.58,46.86,46.58,40Z"/><path class="cls-3" d="M46.58,40q0,6.89,0,13.79c0,.33.2.82-.21,1s-.59-.31-.85-.55A5.81,5.81,0,0,1,43.88,51a2.92,2.92,0,0,0-3.36-2.48,3,3,0,0,0-2.29,3.71,11.35,11.35,0,0,0,7.45,8.94,1.16,1.16,0,0,1,.91,1.27c0,5.85,0,11.69,0,17.53,0,.28.13.67-.2.8s-.48-.24-.69-.43a6,6,0,0,1-1.81-3.29,2.94,2.94,0,0,0-3.27-2.5,3.06,3.06,0,0,0-2.37,3.86A11.6,11.6,0,0,0,45,87c.54.24.89.46.57,1.15a11.13,11.13,0,0,1-8.29,6.57A11,11,0,0,1,24.83,87.3a3.7,3.7,0,0,0-3.95-2.82,11.14,11.14,0,0,1-10.5-8.35c-.07-.25-.21-.53,0-.74s.5,0,.73.06a15.81,15.81,0,0,0,12.93-.57,1.12,1.12,0,0,1,1.25.15,9.08,9.08,0,0,0,5.39,1.58,2.89,2.89,0,0,0,2.92-2.91,2.84,2.84,0,0,0-2.68-3c-2.72-.29-4.16-1.69-4.08-4a3.91,3.91,0,0,1,1-2.41,3.15,3.15,0,0,0-.19-4.41,3,3,0,0,0-4.37.65,9.88,9.88,0,0,0-2.07,8.11c.17,1-.33,1.2-1.05,1.41A11.16,11.16,0,0,1,6,61.17,11.56,11.56,0,0,1,15.8,47.41a26.8,26.8,0,0,1,3.36.07,2.9,2.9,0,0,0,3.06-2.76,3,3,0,0,0-2.67-3.17,15.62,15.62,0,0,0-6.42.28c-.72.18-1.05-.06-1.35-.69A11.78,11.78,0,0,1,18.21,25c1.43-.53,1.43-.53,2.12.86a17,17,0,0,0,4.57,5.64,2.9,2.9,0,0,0,4.23-.29,3.1,3.1,0,0,0-.63-4.43,11.23,11.23,0,0,1-4.17-6.88A11.52,11.52,0,0,1,34.19,6.08,11.41,11.41,0,0,1,46.59,17.6c0,.82-.3,1.12-1,1.34-5.3,1.65-8.59,5.32-10.19,10.65a6.41,6.41,0,0,0-.2,1.95,2.82,2.82,0,0,0,2.4,2.88,2.92,2.92,0,0,0,3.15-2.05c.22-.72.36-1.46.6-2.17a8.58,8.58,0,0,1,4-4.74c1.09-.64,1.25-.52,1.26.72Z"/></g></g></svg>