<svg xmlns="http://www.w3.org/2000/svg" viewBox="0 0 103.54 107.42"><defs><style>.cls-1{fill:#4d5680;}.cls-2{fill:#80a2fe;}.cls-3{fill:#80ebc5;}.cls-4{fill:#f2f3f7;}.cls-5{fill:#fed731;}.cls-6{fill:#7fa2fe;}.cls-7{fill:#7ea0fa;}.cls-8{fill:#7fa2fd;}.cls-9{fill:#fcd633;}.cls-10{fill:#f1f3f8;}.cls-11{fill:#7feac6;}.cls-12{fill:#4e5884;}.cls-13{fill:#4e5782;}.cls-14{fill:#4d5780;}.cls-15{fill:#fed8b3;}</style></defs><g id="Layer_2" data-name="Layer 2"><g id="Layer_1-2" data-name="Layer 1"><path class="cls-1" d="M28.1.06c.35,0,.69,0,1,0q26,0,52.06,0c.94,0,1.18.24,1.18,1.22q0,26.46,0,52.91a24.34,24.34,0,0,0-3.28-.43,25.83,25.83,0,0,0-12.29,2.42L35,56.09a1.52,1.52,0,1,0,0,3h9.67l17.26,0a27.73,27.73,0,0,0-4.75,4.93H37.88c-1,0-2,0-3,0a1.53,1.53,0,0,0-1.57,1.51,1.54,1.54,0,0,0,1.59,1.5c.28,0,.55,0,.83,0l19.41,0L53,72H45.67c-1.19,0-1.91.55-2,1.46s.72,1.55,2,1.56l6.54,0c-.14,1.27-.33,2.54-.41,3.82a28.61,28.61,0,0,0,2,12.15c-2.29,0-4.57,0-6.86,0-1.26,0-2,.86-1.73,2s1,1.19,1.86,1.18h8.31A40.75,40.75,0,0,0,58.67,99c-2.14,0-4.28,0-6.42,0a1.51,1.51,0,1,0,0,3c3.25,0,6.49,0,9.74,0a27.8,27.8,0,0,0,6.79,3.84,32.14,32.14,0,0,0,6.09,1.53c-.31,0-.62,0-.93,0H28.72l-.62,0c0-1.11,0-2.23,0-3.34Q28.11,52,28.1.06ZM43.69,37.37a15.73,15.73,0,0,0,12,4.73,15.67,15.67,0,0,0,11.12-4.73,16.7,16.7,0,0,0,5.35-11.32c.48-6.81-2-12.35-7.51-16.15s-11.31-4-17.16-1C37,14.32,35,29.58,43.69,37.37ZM55.22,48.11H35.47a4.12,4.12,0,0,0-.93,0,1.5,1.5,0,0,0,0,2.94,3.26,3.26,0,0,0,.83.05h39.8c1.28,0,2-.54,2-1.51s-.71-1.51-2-1.51Z"/><path class="cls-2" d="M28.1.06q0,52,0,104c0,1.11,0,2.23,0,3.34l-22.54,0c-1.6,0-3.19,0-4.78,0-.59,0-.84-.19-.77-.8A4.68,4.68,0,0,0,0,106Q0,53.71,0,1.46C0-.17-.17,0,1.4,0H26.86C27.27,0,27.69.05,28.1.06ZM14,70c1.28,0,2.56,0,3.84,0a3.47,3.47,0,1,0,0-6.93q-3.83-.06-7.67,0a3.47,3.47,0,1,0,0,6.93C11.54,70,12.78,70,14,70Zm0,30.5c1.35,0,2.7,0,4.05,0a3.45,3.45,0,0,0,0-6.89c-2.67,0-5.33,0-8,0a3.45,3.45,0,0,0,0,6.89C11.37,100.52,12.69,100.51,14,100.51Zm.08-15.31H18a3.44,3.44,0,0,0,.26-6.86c-2.8-.1-5.61-.1-8.41,0a3.44,3.44,0,0,0,.27,6.87Zm.08-65.29H7.42a5,5,0,0,0-1,.1,1.36,1.36,0,0,0-1.17,1.43,1.35,1.35,0,0,0,1.11,1.47,4.7,4.7,0,0,0,1.12.13H20.63A3.36,3.36,0,0,0,22,22.87a1.4,1.4,0,0,0,.92-1.41,1.35,1.35,0,0,0-1-1.38,4.61,4.61,0,0,0-1.23-.16C18.52,19.9,16.34,19.91,14.16,19.91Zm0-7.19H7c-1.16,0-1.76.53-1.76,1.49S5.89,15.73,7,15.74H21.12c1.1,0,1.77-.62,1.77-1.54s-.6-1.47-1.77-1.48ZM14,30.24h7.17c1.1,0,1.68-.51,1.71-1.44a1.55,1.55,0,0,0-1.73-1.57H6.92a1.54,1.54,0,0,0-1.7,1.49c0,1,.58,1.52,1.73,1.52Zm.15-24.83H7c-1.09,0-1.77.59-1.77,1.5S5.9,8.43,7,8.43H21.11c1.09,0,1.77-.59,1.77-1.5s-.67-1.51-1.76-1.51Z"/><path class="cls-3" d="M74.86,107.36a32.14,32.14,0,0,1-6.09-1.53A27.8,27.8,0,0,1,62,102c-1.17-.93-2-2.21-3.31-3a40.75,40.75,0,0,1-3.34-4.77c-.53-1-1.06-2.1-1.58-3.15a28.61,28.61,0,0,1-2-12.15c.08-1.28.27-2.55.41-3.82A15.27,15.27,0,0,0,53,72l2.1-4.92a30,30,0,0,0,2.06-3,27.73,27.73,0,0,1,4.75-4.93l4.84-3A25.83,25.83,0,0,1,79.07,53.7a24.34,24.34,0,0,1,3.28.43,25.13,25.13,0,0,1,11.4,5.39,26.49,26.49,0,0,1,9.63,18.17A26.63,26.63,0,0,1,96,99.55a24.44,24.44,0,0,1-15.5,7.68A45.53,45.53,0,0,1,74.86,107.36Zm17.67-36A1.65,1.65,0,0,0,92,70.25c-.71-.58-1.36-.45-2.26.49q-7.73,8-15.42,16c-.65.69-1,.67-1.63,0-2.34-2.5-4.73-4.95-7.12-7.4-.78-.8-1.57-.85-2.2-.22s-.67,1.5.14,2.34q4.35,4.55,8.74,9.07c.86.89,1.53,1,2.33.12q8.73-9,17.42-18.06A1.78,1.78,0,0,0,92.53,71.36Z"/><path class="cls-4" d="M43.69,37.37C35,29.58,37,14.32,47.44,8.9c5.85-3,11.71-2.76,17.16,1s8,9.34,7.51,16.15a16.7,16.7,0,0,1-5.35,11.32c0-.22,0-.43-.05-.65-.44-4.4-3.35-7.17-7.59-7.19-2.77,0-5.54,0-8.31,0a6.35,6.35,0,0,0-3.17.87C45,31.89,43.85,34.34,43.69,37.37ZM51,18.52c0,.29,0,.58,0,.86a4.44,4.44,0,0,0,4,4.56,4.35,4.35,0,0,0,4.45-3.55,11.53,11.53,0,0,0,.07-3.32,4.2,4.2,0,0,0-5-3.71C52,13.94,51,15.48,51,18.52Z"/><path class="cls-5" d="M43.69,37.37c.16-3,1.27-5.48,4-7a6.35,6.35,0,0,1,3.17-.87c2.77,0,5.54,0,8.31,0,4.24,0,7.15,2.79,7.59,7.19,0,.22,0,.43.05.65A15.67,15.67,0,0,1,55.64,42.1,15.73,15.73,0,0,1,43.69,37.37Z"/><path class="cls-6" d="M55.22,48.11h20c1.26,0,2,.57,2,1.51s-.73,1.51-2,1.51H35.34a3.26,3.26,0,0,1-.83-.05,1.5,1.5,0,0,1,0-2.94,4.12,4.12,0,0,1,.93,0Z"/><path class="cls-6" d="M66.78,56.12l-4.84,3-17.26,0H35a1.52,1.52,0,1,1,0-3Z"/><path class="cls-6" d="M57.19,64.07a30,30,0,0,1-2.06,3l-19.41,0c-.28,0-.55,0-.83,0a1.54,1.54,0,0,1-1.59-1.5,1.53,1.53,0,0,1,1.57-1.51c1,0,2,0,3,0Z"/><path class="cls-7" d="M53.75,91.05c.52,1,1,2.1,1.58,3.15H47c-.87,0-1.61-.22-1.86-1.18s.47-1.94,1.73-2C49.18,91,51.46,91.05,53.75,91.05Z"/><path class="cls-8" d="M58.67,99c1.27.81,2.14,2.09,3.31,3-3.25,0-6.49,0-9.74,0a1.51,1.51,0,1,1,0-3C54.39,99,56.53,99,58.67,99Z"/><path class="cls-8" d="M53,72a15.27,15.27,0,0,1-.82,3l-6.54,0c-1.23,0-2-.62-2-1.56s.76-1.45,2-1.46Z"/><path class="cls-9" d="M14,70c-1.25,0-2.49,0-3.74,0a3.47,3.47,0,1,1,0-6.93q3.84-.06,7.67,0a3.47,3.47,0,1,1,0,6.93C16.59,70,15.31,70,14,70Z"/><path class="cls-10" d="M14,100.51c-1.31,0-2.63,0-3.94,0a3.45,3.45,0,0,1,0-6.89c2.67,0,5.33,0,8,0a3.45,3.45,0,0,1,0,6.89C16.7,100.52,15.35,100.51,14,100.51Z"/><path class="cls-11" d="M14.08,85.2H10.14a3.44,3.44,0,0,1-.27-6.87c2.8-.09,5.61-.09,8.41,0A3.44,3.44,0,0,1,18,85.2Z"/><path class="cls-12" d="M14.16,19.91c2.18,0,4.36,0,6.53,0a4.61,4.61,0,0,1,1.23.16,1.35,1.35,0,0,1,1,1.38A1.4,1.4,0,0,1,22,22.87a3.36,3.36,0,0,1-1.33.19H7.46a4.7,4.7,0,0,1-1.12-.13,1.35,1.35,0,0,1-1.11-1.47A1.36,1.36,0,0,1,6.4,20a5,5,0,0,1,1-.1Z"/><path class="cls-13" d="M14.15,12.72h7c1.17,0,1.76.52,1.77,1.48s-.67,1.53-1.77,1.54H7c-1.1,0-1.78-.62-1.77-1.53s.6-1.48,1.76-1.49Z"/><path class="cls-13" d="M14,30.24H7c-1.15,0-1.75-.55-1.73-1.52a1.54,1.54,0,0,1,1.7-1.49H21.16a1.55,1.55,0,0,1,1.73,1.57c0,.93-.61,1.44-1.71,1.44Z"/><path class="cls-1" d="M14.16,5.41h7c1.09,0,1.77.59,1.76,1.51s-.68,1.5-1.77,1.5H7c-1.09,0-1.77-.6-1.77-1.51S5.9,5.42,7,5.42Z"/><path class="cls-14" d="M92.53,71.36A1.78,1.78,0,0,1,92,72.59q-8.7,9-17.42,18.06c-.8.83-1.47.77-2.33-.12Q67.83,86,63.47,81.46c-.81-.84-.84-1.64-.14-2.34s1.42-.58,2.2.22c2.39,2.45,4.78,4.9,7.12,7.4.63.68,1,.7,1.63,0q7.68-8,15.42-16c.9-.94,1.55-1.07,2.26-.49A1.65,1.65,0,0,1,92.53,71.36Z"/><path class="cls-15" d="M51,18.52c0-3,1-4.58,3.49-5.16a4.2,4.2,0,0,1,5,3.71,11.53,11.53,0,0,1-.07,3.32,4.35,4.35,0,0,1-4.45,3.55,4.44,4.44,0,0,1-4-4.56C51,19.1,51,18.81,51,18.52Z"/></g></g></svg>