<svg xmlns="http://www.w3.org/2000/svg" viewBox="0 0 119.25 117.73"><defs><style>.cls-1{fill:#fe669d;}.cls-2{fill:#fd6666;}.cls-3{fill:#fdfdfd;}.cls-4{fill:#4d4c4c;}.cls-5{fill:#17daa2;}.cls-6{fill:#78909c;}.cls-7{fill:#fed550;}.cls-8{fill:#b2bfc6;}.cls-9{fill:#414040;}.cls-10{fill:#bbbbbc;}.cls-11{fill:#6184f1;}.cls-12{fill:#85a5f8;}.cls-13{fill:#fdc0b0;}.cls-14{fill:#d4d5d5;}.cls-15{fill:#fdd5ca;}</style></defs><g id="Layer_2" data-name="Layer 2"><g id="Layer_1-2" data-name="Layer 1"><path class="cls-1" d="M111,104.64l3.25,0c.37,0,.75,0,.75.5s-.4.58-.75.52c-1-.18-1.13.49-1.27,1.19-.54,2.7-1.15,5.38-1.61,8.09a3.45,3.45,0,0,1-2,2.77h-8.15a4,4,0,0,1-1.86-3c-.48-2.62-1.08-5.21-1.55-7.83-.15-.83-.33-1.37-1.33-1.26a.55.55,0,0,1-.68-.59c0-.38.39-.42.71-.42l3.36,0,3.22,0h4.65Z"/><path class="cls-2" d="M3.42,41.83,1,41.85,0,40.94V26c.94-1.07,2.19-.92,3.42-.85A2.72,2.72,0,0,0,2.5,27c.06,4.32,0,8.64,0,13A2,2,0,0,0,3.42,41.83Z"/><path class="cls-3" d="M0,49a.8.8,0,0,1,.08.16s0,0-.08.07Z"/><path class="cls-4" d="M75.6,7.58c.49-1.24,1.59-1.58,2.75-1.82a10.53,10.53,0,0,1,9.84,3L91,12.2c.16.34.31.69.49,1a30,30,0,0,1,3.91,13.52,21.22,21.22,0,0,0,4,11.38.25.25,0,0,0,.23.27v0c0,.51.33.85.55,1.24a19.44,19.44,0,0,1,3,11A10.29,10.29,0,0,1,92.87,60.74c-2.73.12-4.11-1.57-3.38-4.18A87.89,87.89,0,0,0,91.58,48c.48-2.73,1.11-5.48.45-8.28a2.32,2.32,0,0,0-.49-1.38,29.41,29.41,0,0,1-3.62-7.51c.14-.56.69-.89.62-1.64a62.55,62.55,0,0,1-.18-9.87,5.88,5.88,0,0,0-3.24-5.9A16.3,16.3,0,0,0,79,11.51c-1.78-.21-1.8-.18-1.21,1.46a5.77,5.77,0,0,1-1,6.33c-1.51,1.64-1.56,3.6-1.18,5.62a10.1,10.1,0,0,0,4.29,6.58c0,.68-.12,1.37-.12,2,0,1.38-.39,2.3-2,2.16-.61-.05-.72.4-.61.95.4,2.18.78,4.36,1.17,6.54.11,2,.19,4,.33,6a84.18,84.18,0,0,1-.22,10.17,2.66,2.66,0,0,1-2.21,2.71,1.58,1.58,0,0,0-.88-.51c-5.1-1.79-7.12-5.83-7.23-10.51-.08-3.27,1.11-6.36,2.16-9.42A47.34,47.34,0,0,0,73.11,24a41.28,41.28,0,0,1,.22-8.24c.4-2.59.66-5.26,2.84-7.17.2-.17.45-.38.34-.68S75.92,7.66,75.6,7.58Z"/><path class="cls-5" d="M52,5.08V8.51a.22.22,0,0,0,0,.22v3.51c0,1.57,0,3.14-.06,4.71,0,1.25-.49,1.72-1.76,1.76a15.29,15.29,0,0,1-2.44,0c-1.08-.12-1.32.32-1.27,1.3a8.82,8.82,0,0,1-.14,2.91c-1.55-1.22-3-2.31-4.37-3.47a2.86,2.86,0,0,0-2-.69q-11.46.06-22.91.08c-1.8,0-2.33-.55-2.35-2.34,0-1.41,0-2.83,0-4.24l0-3.52q0-3.33,0-6.66C14.7.53,15.23,0,16.77,0q16.51,0,33,0a2.23,2.23,0,0,1,2.1.93L52,2.32V5.08ZM33.35,6c3.84,0,7.68,0,11.52,0,.41,0,1.07.21,1.07-.49s-.6-.46-1-.46H21.79c-.4,0-1-.14-1,.45s.64.5,1.06.5C25.67,6.05,29.51,6,33.35,6Zm-4.07,7.1h7.56c.39,0,1,.16,1-.44s-.55-.51-1-.51H21.68c-.37,0-.89-.1-.91.44s.56.51.95.51Z"/><path class="cls-6" d="M115.69,78.17c1,.1,2.19-.4,2.78.2s.17,1.88.2,2.86a15.54,15.54,0,0,1-.21,3.85,2,2,0,0,0-1.59.52c-1.18,1-2.34,2-3.52,2.93h-4.66a44,44,0,0,0-1.63-6.08c-.34-.85-.65-2-1.63-2s-1.3,1.17-1.62,2a37.73,37.73,0,0,0-1.63,6.09H97.52c-.27-.22-.52-.45-.8-.66-1.17-.86-2.07-2.07-3.43-2.69-1-.47-1.48-.18-1.59.94a10,10,0,0,0,.23,2.38l-39.56,0A5.12,5.12,0,0,1,52,88c-2.29-4-5.13-7.58-9.4-9.77.93,0,1.86,0,2.79,0l21.83,0q9.87,0,19.74,0c4.1,0,8.2,0,12.3-.05l9,0,3.71,0Z"/><path class="cls-7" d="M3.42,41.83A2,2,0,0,1,2.52,40c0-4.32,0-8.64,0-13a2.72,2.72,0,0,1,.92-1.88l3.09-.06h5.77c1.82,0,3.64,0,5.46,0,4.11,0,8.22,0,12.33,0,1.32,0,2,.54,2,1.69,0,4.48,0,9,0,13.44a1.49,1.49,0,0,1-1.7,1.6c-1,0-1.94,0-2.91,0-.7,0-1,.19-.93.91.05,1,0,2.08,0,3.39-1.72-1.37-3.2-2.53-4.67-3.71a2.23,2.23,0,0,0-1.45-.59c-2.71,0-5.43,0-8.14,0H8.61ZM14.73,29.69H5.78c-.43,0-1.07-.16-1.09.51s.61.56,1.06.56H23.64c.46,0,1.08.05,1.1-.55s-.63-.52-1.07-.52Zm-4.14,7.12H15.7c.4,0,1,.1.95-.52s-.55-.43-.92-.43H5.63c-.37,0-1-.18-.94.5s.54.45.91.45Z"/><path class="cls-8" d="M115.69,78.17h-3.76c0-.38,0-.76,0-1.15V14.56c0-1.92-.42-2.33-2.4-2.33L91,12.2,88.19,8.77l22,0a5.14,5.14,0,0,1,5.47,5.41q0,10.62,0,21.26v2.3a.89.89,0,0,0,0,.23v2.53a.89.89,0,0,0,0,.23v7.82a.81.81,0,0,0,0,.22v2.54a.81.81,0,0,0,0,.22V67.38a.89.89,0,0,0,0,.23v2.53a.89.89,0,0,0,0,.23V72.9a.81.81,0,0,0,0,.22v5Z"/><path class="cls-9" d="M75.6,7.58c.32.08.75-.14.91.3s-.14.51-.34.68c-2.18,1.91-2.44,4.58-2.84,7.17A41.28,41.28,0,0,0,73.11,24a47.34,47.34,0,0,1-2.94,17.71c-1,3.06-2.24,6.15-2.16,9.42.11,4.68,2.13,8.72,7.23,10.51a1.58,1.58,0,0,1,.88.51,2.35,2.35,0,0,1-2,0,17.23,17.23,0,0,1-5.27-2.58l-.31-.22a12.8,12.8,0,0,1-2.74-11.67c.64-2.75,1.66-5.38,2.36-8.1a39.53,39.53,0,0,0,2.34-11.82c.22-5.09-.48-10.24.78-15.28a12.73,12.73,0,0,1,1.83-3.69A4.2,4.2,0,0,1,75.6,7.58Z"/><path class="cls-10" d="M113.35,88.53c1.18-1,2.34-2,3.52-2.93a2,2,0,0,1,1.59-.52c1.14.45.74,1.44.64,2.17a28.76,28.76,0,0,1-1.69,6.3A37.5,37.5,0,0,1,111.28,104a3.09,3.09,0,0,0-.31.6l-3.21,0A61.61,61.61,0,0,0,109,97.09c.1-1.08-.16-2.23.37-3.27.71-1.09,1.52-2.11,2.29-3.15C112.23,89.94,113.07,89.45,113.35,88.53Z"/><path class="cls-8" d="M73.12,8.79a12.73,12.73,0,0,0-1.83,3.69c-.26-.31-.62-.25-1-.25H52c0-1.17,0-2.34,0-3.51h.4l19.13,0C72,8.75,72.58,8.77,73.12,8.79Z"/><path class="cls-8" d="M12.28,25.09H8.62l0-3.23c0-2.33.17-4.68,0-7a5.45,5.45,0,0,1,6.06-6.12c0,1.17,0,2.34,0,3.52-1.89,0-2.32.41-2.33,2.27Q12.3,19.8,12.28,25.09Z"/><path class="cls-11" d="M42.57,78.22c4.27,2.19,7.11,5.72,9.4,9.77a5.12,5.12,0,0,0,.4.55,1.46,1.46,0,0,0,.46.91,5.4,5.4,0,0,0,1,1.84,1.51,1.51,0,0,0,.44.92,5.49,5.49,0,0,0,.92,1.84,1.63,1.63,0,0,0,.45.93l.26.92-6.52,4.84-.47-.7-.39-.73c-.31-.61-.62-1.22-.92-1.83-.12-.22-.23-.44-.34-.67l-1-2-.19.07v2.6l0,.43a1.78,1.78,0,0,0-.64.2c-2.21,1.84-4.4,3.71-6.6,5.56-2.76,2.31-5.55,4.59-8.29,6.92a44,44,0,0,0-4.65,4.07c-2.83,0-5.65,0-8.48.08-1,0-.82-.53-.82-1.09q0-7.86,0-15.72c0-.46,0-.92,0-1.37,0-.62,0-1.24,0-1.86.17-1,0-1.36-1.14-1s-2,.48-3,.73a5,5,0,0,1-6.26-4.3c-.23-2.46-.38-4.94-.45-7.42,0-1.53-.19-3.05-.28-4.57.13-.46-.16-1,.27-1.39a46.74,46.74,0,0,0,6.32-2h0l.36-.07c.47,1.1.31,2.33.74,3.43a65.49,65.49,0,0,0,1.1,6.73A11,11,0,0,1,17,81.07a26,26,0,0,1,4.46-2.85l1.83-.52a3.45,3.45,0,0,0,.3.61,9.89,9.89,0,0,0,16.22-1Z"/><path class="cls-5" d="M65.64,117.3c-1.36,0-2.72-.09-4.07,0a3.14,3.14,0,0,1-3.38-1.86l0-.91,0-2.25A4.65,4.65,0,0,0,60,109.34c.12-.55,0-1.15.26-1.67h25c1,0,2.09,0,3.13-.06,1.36,0,2.72.08,4.07,0,.91,0,1.09.28,1.07,1.11,0,2.48-.06,5,0,7.46,0,.88-.26,1.07-1.11,1.06-8.4,0-16.8,0-25.2,0C66.72,117.25,66.18,117.28,65.64,117.3Zm13.61-2.57c1.78,0,3.56,0,5.34,0,1.14,0,2.67.52,3.33-.24s.15-2.28.2-3.46v-.11c0-.54-.19-.74-.75-.74q-8.07,0-16.15,0c-.71,0-1,.29-.94,1a21.53,21.53,0,0,1,0,2.41c-.07.9.26,1.22,1.19,1.2C74.05,114.69,76.65,114.73,79.25,114.73Zm-15.6-3.91a1.71,1.71,0,0,0-1.75,1.74,1.76,1.76,0,0,0,3.51,0A1.71,1.71,0,0,0,63.65,110.82Z"/><path class="cls-12" d="M25.82,114.69a44,44,0,0,1,4.65-4.07c2.74-2.33,5.53-4.61,8.29-6.92,2.2-1.85,4.39-3.72,6.6-5.56a1.78,1.78,0,0,1,.64-.2c0,.47.07.94.11,1.4v.91c0,.54,0,1.08,0,1.62v9.21l0,1.59v1.85a1.54,1.54,0,0,1-.52.21Z"/><path class="cls-13" d="M11.91,74.82a46.74,46.74,0,0,1-6.32,2c-.24-2.14-.12-4.31-.48-6.44a.81.81,0,0,0,0-.22,42.07,42.07,0,0,0-.22-5A2.56,2.56,0,0,0,4.38,64a10,10,0,0,1-1.07-7.83c.84-2.88,2.5-3.57,5.3-2.54a6.84,6.84,0,0,1,2,4c.48-.82.92-1.21,1.64-1.11.8.35.86,1,.69,1.71-.22.91-.47,1.82-.7,2.73-.22.52-.46,1-.67,1.56-.29.74-.85,1.44-.78,2.23.31,3.36.71,6.7,1.07,10Z"/><path class="cls-14" d="M109.39,93.82c-.53,1-.27,2.19-.37,3.27a61.61,61.61,0,0,1-1.26,7.53H105.9v-17c0-.23,0-.45,0-.68s-.11-.45-.4-.48A.43.43,0,0,0,105,87c0,.26,0,.53,0,.8v16.86h-1.86a46.43,46.43,0,0,1-1.27-7.33c-.1-1.15.19-2.37-.36-3.47.45-.48.14-1.07.23-1.61l0-.68c.41-.66.11-1.38.22-2.07.31-.25.18-.61.22-.92a37.73,37.73,0,0,1,1.63-6.09c.32-.85.65-2,1.62-2s1.29,1.18,1.63,2a44,44,0,0,1,1.63,6.08,31.68,31.68,0,0,1,.27,3.24A4.06,4.06,0,0,0,109.39,93.82Z"/><path class="cls-10" d="M101.48,93.82c.55,1.1.26,2.32.36,3.47a46.43,46.43,0,0,0,1.27,7.33l-3.22,0a17.78,17.78,0,0,0-2.11-2.79A7.3,7.3,0,0,0,96.6,100l-.45-.68a4.18,4.18,0,0,0-.92-1.61,1.71,1.71,0,0,0-.46-.93,7.68,7.68,0,0,0-.93-2.09c0-.23,0-.49-.27-.65a7.08,7.08,0,0,0-.68-1.85,1.57,1.57,0,0,0-.27-.91l-.46-1.61a2.07,2.07,0,0,0-.23-1.17,10,10,0,0,1-.23-2.38c.11-1.12.56-1.41,1.59-.94,1.36.62,2.26,1.83,3.43,2.69.28.21.53.44.8.66,0,.46.35.69.69.92l1.86,2.29.43.48Z"/><path class="cls-10" d="M105,104.63V87.77c0-.27,0-.54,0-.8a.43.43,0,0,1,.51-.48c.29,0,.39.23.4.48s0,.45,0,.68v17Z"/><path class="cls-8" d="M12.29,56.55c-.72-.1-1.16.29-1.64,1.11a6.84,6.84,0,0,0-2-4c0-1.62,0-3.24,0-4.86a.55.55,0,0,0,0-.22V46a.41.41,0,0,0,0-.22c0-1.29,0-2.58,0-3.87H12.3Q12.3,49.22,12.29,56.55Z"/><path class="cls-3" d="M8.59,45.77a.41.41,0,0,1,0,.22H7.85C8.1,45.65,8.37,45.82,8.59,45.77Z"/><path class="cls-7" d="M88.43,107.62c-1,0-2.09.06-3.13.06h-25c-.23-1.1-.46-2.2-.7-3.3a1.56,1.56,0,0,0,.66-1.88c-.21-.91-1-1.17-1.81-1.26L57,98.16c10.12,0,20.24,0,30.35,0,1,0,1.14.45,1.11,1.22v7.59Zm-14.18-7c-2.63,0-5.26,0-7.89,0-.92,0-1.26.31-1.2,1.2a19.6,19.6,0,0,1,0,2.3c0,.66.21,1,.93,1H82.23c.59,0,.85-.18.82-.79a21.19,21.19,0,0,1,0-2.52c.08-.89-.21-1.2-1.15-1.17C79.36,100.71,76.8,100.67,74.25,100.67Z"/><path class="cls-2" d="M68.86,59.57a17.23,17.23,0,0,0,5.27,2.58,2.35,2.35,0,0,0,2,0,2.66,2.66,0,0,0,2.21-2.71,84.18,84.18,0,0,0,.22-10.17c-.14-2-.22-4-.33-6a16.19,16.19,0,0,0,5.64.12A19.45,19.45,0,0,0,92,39.7c.66,2.8,0,5.55-.45,8.28a87.89,87.89,0,0,1-2.09,8.58c-.73,2.61.65,4.3,3.38,4.18a10.29,10.29,0,0,0,10.27-10.11,19.44,19.44,0,0,0-3-11c-.22-.39-.58-.73-.55-1.24a2,2,0,0,1,.55.09,10.29,10.29,0,0,1,5.51,6c2.55,6.85,3.5,14,4.27,21.18.05.51-.23.67-.56.89L105.85,69c-2.29,1.48-4.57,3-6.87,4.43a1,1,0,0,0-.41,1.17c.26,1.18.45,2.39.66,3.58-4.1,0-8.2.05-12.3.05q-9.87,0-19.74,0a21.24,21.24,0,0,0,2.68-11.33C69.8,64.35,69.15,62,68.86,59.57ZM85.39,46.43a1.2,1.2,0,0,0-1.32,1.17,1.17,1.17,0,0,0,1.27,1.31,1.15,1.15,0,0,0,1.23-1.23A1.16,1.16,0,0,0,85.39,46.43ZM82.82,59A1.15,1.15,0,0,0,84,60.22a1.17,1.17,0,0,0,1.28-1.29,1.25,1.25,0,0,0-2.49,0Zm-8.93,6.32a1.17,1.17,0,0,0-1.26,1.18,1.15,1.15,0,0,0,1.15,1.3,1.18,1.18,0,0,0,1.35-1.23A1.22,1.22,0,0,0,73.89,65.29Zm6.38,8.76a1.19,1.19,0,0,0,1.26,1.27,1.17,1.17,0,0,0,1.24-1.25,1.15,1.15,0,0,0-1.27-1.2A1.12,1.12,0,0,0,80.27,74.05ZM103.19,64a1.18,1.18,0,0,0,1.22-1.26,1.25,1.25,0,0,0-2.49.07C101.94,63.58,102.41,63.94,103.19,64ZM92.92,69a1.24,1.24,0,0,0-2.48,0,1.16,1.16,0,0,0,1.26,1.23A1.18,1.18,0,0,0,92.92,69Z"/><path class="cls-3" d="M105.85,69l3.55-2.38c.33-.22.61-.38.56-.89-.77-7.19-1.72-14.33-4.27-21.18a10.29,10.29,0,0,0-5.51-6,2,2,0,0,0-.55-.09v0c.06-.2-.1-.23-.23-.27a21.22,21.22,0,0,1-4-11.38,30,30,0,0,0-3.91-13.52c-.18-.34-.33-.69-.49-1l18.6,0c2,0,2.4.41,2.4,2.33V77c0,.39,0,.77,0,1.15l-3.71,0C107.4,75.09,106.5,72.05,105.85,69Z"/><path class="cls-15" d="M79.83,31.5a10.1,10.1,0,0,1-4.29-6.58c-.38-2-.33-4,1.18-5.62a5.77,5.77,0,0,0,1-6.33c-.59-1.64-.57-1.67,1.21-1.46a16.3,16.3,0,0,1,6.17,1.89,5.88,5.88,0,0,1,3.24,5.9,62.55,62.55,0,0,0,.18,9.87c.07.75-.48,1.08-.62,1.64-.32.13-.65.25-1,.41a7.84,7.84,0,0,1-5.48.76C80.92,31.84,80.44,31.43,79.83,31.5Z"/><path class="cls-13" d="M79.83,31.5c.61-.07,1.09.34,1.65.48A7.84,7.84,0,0,0,87,31.22c.31-.16.64-.28,1-.41a29.41,29.41,0,0,0,3.62,7.51A2.32,2.32,0,0,1,92,39.7a19.45,19.45,0,0,1-8.17,3.62,16.19,16.19,0,0,1-5.64-.12c-.39-2.18-.77-4.36-1.17-6.54-.11-.55,0-1,.61-.95,1.66.14,2.06-.78,2-2.16C79.71,32.87,79.79,32.18,79.83,31.5Z"/><path class="cls-2" d="M99.4,38.13c.13,0,.29.07.23.27A.25.25,0,0,1,99.4,38.13Z"/><path class="cls-3" d="M68.86,59.57c.29,2.42.94,4.78,1,7.25a21.24,21.24,0,0,1-2.68,11.33l-21.83,0c-.93,0-1.86,0-2.79,0l-2.81-.9c-.3-.31-.68-.26-1.07-.3-1.7-.16-2.85-.6-2.63-2.71a12.34,12.34,0,0,0,0-1.36,13,13,0,0,0,5.86-6.7,6.58,6.58,0,0,0,2.49-2,2.4,2.4,0,0,0,.82-2.66,2.17,2.17,0,0,0-2.48-1.4,20.21,20.21,0,0,0-1-3.75c-.18-.39,0-.66.18-1a10.14,10.14,0,0,0,1-4.32,3.41,3.41,0,0,0-3.27-3.61c-3.63-.09-7.26-.06-10.89-.08-4.22-.33-8,2.49-8,6.39,0,2.22-.73,4.23-1,6.35-2.08,0-3,1.47-2.07,3.2A5.66,5.66,0,0,0,20.47,66a13.62,13.62,0,0,0,6.11,7,17.65,17.65,0,0,0,0,2.18c.11,1.07-.42,1.56-1.38,1.76a4.08,4.08,0,0,0-1.93.71l-1.83.52-8.38,0c-.43-1.1-.27-2.33-.74-3.43q0-6.89,0-13.77c.23-.91.48-1.82.7-2.73.17-.72.11-1.36-.69-1.71q0-7.32,0-14.65c2.71,0,5.43,0,8.14,0a2.23,2.23,0,0,1,1.45.59c1.47,1.18,2.95,2.34,4.67,3.71,0-1.31,0-2.35,0-3.39,0-.72.23-.94.93-.91,1,0,1.94,0,2.91,0a1.49,1.49,0,0,0,1.7-1.6c0-4.48,0-9,0-13.44,0-1.15-.7-1.69-2-1.69-4.11,0-8.22,0-12.33,0-1.82,0-3.64,0-5.46,0q0-5.3,0-10.57c0-1.86.44-2.29,2.33-2.27,0,1.41,0,2.83,0,4.24,0,1.79.55,2.34,2.35,2.34q11.46,0,22.91-.08a2.86,2.86,0,0,1,2,.69c1.38,1.16,2.82,2.25,4.37,3.47A8.82,8.82,0,0,0,46.45,20c-.05-1,.19-1.42,1.27-1.3a15.29,15.29,0,0,0,2.44,0c1.27,0,1.74-.51,1.76-1.76,0-1.57,0-3.14.06-4.71H70.32c.35,0,.71-.06,1,.25-1.26,5-.56,10.19-.78,15.28a39.53,39.53,0,0,1-2.34,11.82A15.29,15.29,0,0,0,63.24,44l-4.78,6.88a.7.7,0,0,1-.25-.61,38.74,38.74,0,0,0-.25-4.7,3.56,3.56,0,0,1,.64-2.48,32.91,32.91,0,0,0,2.63-5.24c.31-.67.53-1.43-.24-2s-1.46-.23-2,.52a2.64,2.64,0,0,1-.34-1.22,6.32,6.32,0,0,0-.93-2.93,3.55,3.55,0,0,0-6.26-.08,11.46,11.46,0,0,0-1.31,7.21c.27,2.33,1.8,4.51.83,7a8.15,8.15,0,0,0-.26,1.81c-.39,3-.74,6-1,9a66.84,66.84,0,0,0-.35,9.27,17,17,0,0,0,.68,4.4,4,4,0,0,0,4.5,2.54,12.25,12.25,0,0,0,5.69-3.17,6.27,6.27,0,0,0,2.12-2.36c.13-.06.32-.09.4-.19q2.89-4.16,5.77-8.33Z"/><path class="cls-3" d="M33.35,6c-3.84,0-7.68,0-11.51,0-.42,0-1.08.2-1.06-.5s.61-.45,1-.45H44.94c.4,0,1-.15,1,.46S45.28,6,44.87,6C41,6.05,37.19,6,33.35,6Z"/><path class="cls-3" d="M29.28,13.14H21.72c-.39,0-1,.13-.95-.51s.54-.44.91-.44H36.91c.4,0,1-.12,1,.51s-.63.44-1,.44Z"/><path class="cls-13" d="M105.85,69c.65,3.1,1.55,6.14,2.37,9.2l-9,0c-.21-1.19-.4-2.4-.66-3.58A1,1,0,0,1,99,73.38C101.28,71.92,103.56,70.43,105.85,69Z"/><path class="cls-3" d="M14.73,29.69h8.94c.44,0,1.1-.15,1.07.52s-.64.55-1.1.55H5.75c-.45,0-1.08.1-1.06-.56s.66-.51,1.09-.51Z"/><path class="cls-3" d="M10.59,36.81h-5c-.37,0-.88.08-.91-.45s.57-.5.94-.5h10.1c.37,0,.9-.08.92.43s-.55.52-.95.52Z"/><path class="cls-3" d="M115.68,72.9l.09.16-.09.06A.81.81,0,0,1,115.68,72.9Z"/><path class="cls-2" d="M58.46,50.89,63.24,44a15.29,15.29,0,0,1,4.93-4.43c-.7,2.72-1.72,5.35-2.36,8.1a12.8,12.8,0,0,0,2.74,11.67q-2.88,4.17-5.77,8.33c-.08.1-.27.13-.4.19,0-.44-.33-.67-.58-.94-3.12-3.42-3.13-3.42-3.14-8.06C58.65,56.21,58.2,53.56,58.46,50.89Zm2.71,6.82A1.15,1.15,0,0,0,62.4,59a1.23,1.23,0,1,0-1.23-1.24Z"/><path class="cls-13" d="M57,98.16l1.41,3.07c.38,1,.77,2.1,1.15,3.14s.47,2.2.7,3.3c-.3.52-.14,1.12-.26,1.67a4.65,4.65,0,0,1-1.85,2.93c-2.06,1.16-4.26.93-6.46.61a57.55,57.55,0,0,0-5.58-1.8c0-1.86,0-3.71,0-5.56,1.3.16,2.6.38,3.9.45.52,0,1.24.52,1.51.07S51.2,105,51,104.4l-.72-1.62-.45-.91-.44-1.13,6.52-4.84.5.91.45.91Z"/><path class="cls-15" d="M36.08,73a12.34,12.34,0,0,1,0,1.36c-.22,2.11.93,2.55,2.63,2.71.39,0,.77,0,1.07.3a9.89,9.89,0,0,1-16.22,1,3.45,3.45,0,0,1-.3-.61A4.08,4.08,0,0,1,25.17,77c1-.2,1.49-.69,1.38-1.76a17.65,17.65,0,0,1,0-2.18,10.32,10.32,0,0,0,4.61,1A10.36,10.36,0,0,0,36.08,73Z"/><path class="cls-6" d="M13,78.19l8.38,0A26,26,0,0,0,17,81.07a11,11,0,0,0-2.82,3.85A65.49,65.49,0,0,1,13,78.19Z"/><path class="cls-8" d="M12.28,61q0,6.88,0,13.77l-.36.07h0c-.36-3.35-.76-6.69-1.07-10-.07-.79.49-1.49.78-2.23C11.82,62,12.06,61.51,12.28,61Z"/><polygon class="cls-3" points="11.9 74.83 11.93 74.83 11.91 74.82 11.9 74.83"/><path class="cls-3" d="M79.25,114.73c-2.6,0-5.2,0-7.79,0-.93,0-1.26-.3-1.19-1.2a21.53,21.53,0,0,0,0-2.41c0-.68.23-1,.94-1q8.07,0,16.15,0c.56,0,.79.2.75.74V111c-.05,1.18.48,2.66-.2,3.46s-2.19.21-3.33.24C82.81,114.76,81,114.73,79.25,114.73Z"/><path class="cls-3" d="M63.65,110.82a1.74,1.74,0,1,1,0,3.47,1.73,1.73,0,0,1-1.76-1.73A1.71,1.71,0,0,1,63.65,110.82Z"/><path class="cls-3" d="M74.25,100.67c2.55,0,5.11,0,7.66,0,.94,0,1.23.28,1.15,1.17a21.19,21.19,0,0,0,0,2.52c0,.61-.23.79-.82.79H66.1c-.72,0-.95-.32-.93-1a19.6,19.6,0,0,0,0-2.3c-.06-.89.28-1.21,1.2-1.2C69,100.7,71.62,100.67,74.25,100.67Z"/><path class="cls-3" d="M59.58,104.37c-.38-1-.77-2.09-1.15-3.14.84.09,1.6.35,1.81,1.26A1.56,1.56,0,0,1,59.58,104.37Z"/><path class="cls-3" d="M85.39,46.43a1.16,1.16,0,0,1,1.18,1.25,1.15,1.15,0,0,1-1.23,1.23,1.17,1.17,0,0,1-1.27-1.31A1.2,1.2,0,0,1,85.39,46.43Z"/><path class="cls-3" d="M82.82,59a1.25,1.25,0,0,1,2.49,0A1.17,1.17,0,0,1,84,60.22,1.15,1.15,0,0,1,82.82,59Z"/><path class="cls-3" d="M73.89,65.29a1.22,1.22,0,0,1,1.24,1.25,1.18,1.18,0,0,1-1.35,1.23,1.15,1.15,0,0,1-1.15-1.3A1.17,1.17,0,0,1,73.89,65.29Z"/><path class="cls-3" d="M80.27,74.05a1.12,1.12,0,0,1,1.23-1.18,1.15,1.15,0,0,1,1.27,1.2,1.17,1.17,0,0,1-1.24,1.25A1.19,1.19,0,0,1,80.27,74.05Z"/><path class="cls-3" d="M103.19,64c-.78,0-1.25-.39-1.27-1.19a1.25,1.25,0,0,1,2.49-.07A1.18,1.18,0,0,1,103.19,64Z"/><path class="cls-3" d="M92.92,69a1.18,1.18,0,0,1-1.22,1.28,1.16,1.16,0,0,1-1.26-1.23,1.24,1.24,0,0,1,2.48,0Z"/><path class="cls-4" d="M36.08,73A10.36,10.36,0,0,1,31.19,74c-.07-.59-.62-.52-1-.65a10.25,10.25,0,0,1-3.72-2.28,13.09,13.09,0,0,1-3.41-13.9,3.58,3.58,0,0,0,.34-1.76C23,52.8,24.1,50.72,26.05,49c.82-.72,2-.74,2.8-1.48,3.63,0,7.26,0,10.89.08A3.41,3.41,0,0,1,43,51.19a10.14,10.14,0,0,1-1,4.32c-.14.3-.36.57-.18,1a20.21,20.21,0,0,1,1,3.75,18.36,18.36,0,0,1-.83,6A13,13,0,0,1,36.08,73Z"/><path class="cls-13" d="M58.46,50.89c-.26,2.67.19,5.32.2,8,0,4.64,0,4.64,3.14,8.06.25.27.6.5.58.94a6.27,6.27,0,0,1-2.12,2.36,12.25,12.25,0,0,1-5.69,3.17,4,4,0,0,1-4.5-2.54,17,17,0,0,1-.68-4.4,66.84,66.84,0,0,1,.35-9.27c.25-3,.6-6,1-9A8.15,8.15,0,0,1,51,46.4c1-2.49-.56-4.67-.83-7a11.46,11.46,0,0,1,1.31-7.21,3.55,3.55,0,0,1,6.26.08,6.32,6.32,0,0,1,.93,2.93A2.64,2.64,0,0,0,59,36.42c.53-.75,1.19-1.07,2-.52s.55,1.29.24,2A32.91,32.91,0,0,1,58.6,43.1,3.56,3.56,0,0,0,58,45.58a38.74,38.74,0,0,1,.25,4.7A.7.7,0,0,0,58.46,50.89Z"/><path class="cls-9" d="M28.85,47.5c-.8.74-2,.76-2.8,1.48C24.1,50.72,23,52.8,23.42,55.45a3.58,3.58,0,0,1-.34,1.76,13.09,13.09,0,0,0,3.41,13.9,10.25,10.25,0,0,0,3.72,2.28c.36.13.91.06,1,.65a10.32,10.32,0,0,1-4.61-1,13.62,13.62,0,0,1-6.11-7,21.17,21.17,0,0,1-.71-5.77c.31-2.12,1-4.13,1-6.35C20.85,50,24.63,47.17,28.85,47.5Z"/><path class="cls-15" d="M41.94,66.25a18.36,18.36,0,0,0,.83-6,2.17,2.17,0,0,1,2.48,1.4,2.4,2.4,0,0,1-.82,2.66A6.58,6.58,0,0,1,41.94,66.25Z"/><path class="cls-15" d="M19.76,60.24A21.17,21.17,0,0,0,20.47,66a5.66,5.66,0,0,1-2.78-2.57C16.73,61.71,17.68,60.27,19.76,60.24Z"/><path class="cls-3" d="M61.17,57.71a1.15,1.15,0,0,1,1.24-1.22,1.23,1.23,0,1,1,0,2.46A1.15,1.15,0,0,1,61.17,57.71Z"/></g></g></svg>