<svg xmlns="http://www.w3.org/2000/svg" viewBox="0 0 110.23 88.94"><defs><style>.cls-1{fill:#5bc980;}.cls-2{fill:#628eef;}.cls-3{fill:#e9edf5;}.cls-4{fill:#f2f6fc;}.cls-5{fill:#636978;}</style></defs><g id="Layer_2" data-name="Layer 2"><g id="Layer_1-2" data-name="Layer 1"><path class="cls-1" d="M15.94,21.36H63.11A15.92,15.92,0,0,1,79.05,37.27V60.6A15.93,15.93,0,0,1,63.11,76.51l-51-.05q-2.5,5-5,10C6,88.65,4.57,89,3.58,88.92c-2-.17-3.06-3.2-3.14-3.43Q.21,73,0,60.6V37.27A15.93,15.93,0,0,1,15.94,21.36Z"/><path class="cls-2" d="M57.72,21.36H79.05a0,0,0,0,1,0,0V76.51a0,0,0,0,1,0,0H57.72a18.2,18.2,0,0,1-18.2-18.2V39.56A18.2,18.2,0,0,1,57.72,21.36Z" transform="translate(118.58 97.87) rotate(-180)"/><path class="cls-3" d="M94.29,0H47.12A15.92,15.92,0,0,0,31.18,15.91V39.24A15.93,15.93,0,0,0,47.12,55.15l51,0,5,10c1.09,2.16,2.5,2.52,3.49,2.43,2-.17,3.06-3.2,3.14-3.43q.22-12.45.44-24.89V15.91A15.93,15.93,0,0,0,94.29,0Z"/><path class="cls-4" d="M49.37,0H70.7a0,0,0,0,1,0,0V55.15a0,0,0,0,1,0,0H49.37A18.2,18.2,0,0,1,31.18,37V18.2A18.2,18.2,0,0,1,49.37,0Z"/><ellipse class="cls-5" cx="70.7" cy="26.94" rx="3.05" ry="3.04"/><ellipse class="cls-5" cx="90.54" cy="26.94" rx="3.05" ry="3.04"/><ellipse class="cls-5" cx="50.87" cy="26.94" rx="3.05" ry="3.04"/></g></g></svg>