<svg xmlns="http://www.w3.org/2000/svg" viewBox="0 0 100 102.59"><defs><style>.cls-1{fill:#e5f5fd;}.cls-2{fill:#475673;}.cls-3{fill:#5ae070;}.cls-4{fill:#b9c8db;}.cls-5{fill:#50a6ea;}.cls-6{fill:#e0f4ff;}</style></defs><g id="Layer_2" data-name="Layer 2"><g id="Layer_1-2" data-name="Layer 1"><rect class="cls-1" x="23.61" y="4.66" width="76.39" height="91.62" rx="6"/><rect class="cls-2" x="37.36" width="48.89" height="9.31"/><ellipse class="cls-3" cx="43.66" cy="32.35" rx="11.65" ry="11.6"/><rect class="cls-4" x="63.17" y="26.07" width="27.76" height="4.31" rx="1.81"/><rect class="cls-4" x="63.17" y="34.25" width="27.76" height="4.31" rx="1.81"/><rect class="cls-4" x="63.17" y="41.79" width="27.76" height="4.31" rx="1.81"/><rect class="cls-4" x="34.05" y="57.25" width="56.88" height="4.31" rx="1.81"/><rect class="cls-4" x="33.36" y="68.91" width="56.88" height="4.31" rx="1.81"/><ellipse class="cls-5" cx="23.11" cy="55.35" rx="11.55" ry="11.5"/><path class="cls-5" d="M19.12,70.92h7.67A19.43,19.43,0,0,1,46.22,90.36v12.23a0,0,0,0,1,0,0H0a0,0,0,0,1,0,0V90A19.12,19.12,0,0,1,19.12,70.92Z"/><path class="cls-6" d="M49.59,26.94l.42.36a1.4,1.4,0,0,1,.15,2L43,37.61a1.42,1.42,0,0,1-2,.15l-.43-.37a1.41,1.41,0,0,1-.15-2l7.21-8.31A1.42,1.42,0,0,1,49.59,26.94Z"/><path class="cls-6" d="M43.35,37.18,43,37.6a1.42,1.42,0,0,1-2,.15l-3.67-3.16a1.4,1.4,0,0,1-.15-2l.37-.42a1.42,1.42,0,0,1,2-.15l3.67,3.16A1.4,1.4,0,0,1,43.35,37.18Z"/></g></g></svg>