<svg xmlns="http://www.w3.org/2000/svg" viewBox="0 0 109.31 94.92"><defs><style>.cls-1{fill:#f1f1fb;}.cls-2{fill:#e1d8fa;}.cls-3{fill:#c76e59;}.cls-4{fill:#a24f5c;}.cls-5{fill:#91e5a9;}.cls-6{fill:#27bfa6;}.cls-7{fill:#fe8d8d;}.cls-8{fill:#b0bee7;}.cls-9{fill:#6f3c82;}.cls-10{fill:#4a2f61;}</style></defs><g id="Layer_2" data-name="Layer 2"><g id="Layer_1-2" data-name="Layer 1"><path class="cls-1" d="M0,0H12.83c0,6,0,11.94,0,17.91,0,.9.26,1.08,1.12,1.08,9.71,0,19.41,0,29.11,0,1.67,0,3.34,0,5,0q0,6.3,0,12.6c-2.88,0-5.76,0-8.64,0-.76,0-1,.23-1,1,.05,1.47.05,2.95,0,4.42,0,.74.21,1,1,1,2.88,0,5.76,0,8.64,0v6.31c-2.88,0-5.76,0-8.64,0-.76,0-1,.23-1,1,.05,1.47.05,3,0,4.42,0,.74.21,1,1,1,2.88,0,5.76,0,8.64,0v6.31c-2.88,0-5.76,0-8.64,0-.76,0-1,.24-1,1,.05,1.47.05,3,0,4.43,0,.73.21,1,1,1,2.88,0,5.76,0,8.64,0q0,9.48,0,19H0ZM22.35,38c2.92,0,5.83,0,8.74,0,.65,0,1-.1.95-.85C32,35.56,32,34,32,32.4c0-.52-.12-.76-.71-.76H13.52c-.57,0-.73.21-.72.74,0,1.54.06,3.09,0,4.63,0,.83.27,1,1,1C16.67,38,19.51,38,22.35,38Zm.07,12.65c2.87,0,5.75,0,8.63,0,.72,0,1-.19,1-1-.05-1.5,0-3,0-4.52,0-.61-.14-.89-.83-.88q-8.79,0-17.58,0c-.69,0-.83.29-.82.88,0,1.51,0,3,0,4.53,0,.77.28.94,1,.94C16.66,50.61,19.54,50.62,22.42,50.62Zm-.06,12.65c2.91,0,5.83,0,8.74,0,.68,0,.95-.18.93-.89,0-1.54,0-3.09,0-4.63,0-.67-.25-.83-.88-.83q-8.73,0-17.48,0c-.62,0-.89.17-.87.83,0,1.54,0,3.09,0,4.63,0,.72.26.89.94.89C16.61,63.26,19.48,63.27,22.36,63.27Z"/><path class="cls-2" d="M48,44.29V38l0,0c2.87,0,5.74,0,8.61,0,.7,0,1-.13,1-.91,0-1.51,0-3,0-4.52,0-.78-.3-.92-1-.91-2.87,0-5.74,0-8.61,0l0,0q0-6.3,0-12.6V19Q65.3,19,82.57,19c.6,0,.69-.25.69-.75q0-9.12,0-18.23C87.13,0,91,.05,95,0c.89,0,1.13.26,1.13,1.12q0,17.79,0,35.58V52.49a22.33,22.33,0,0,0-9.16-1.84,4.87,4.87,0,0,0-.54,0A22.09,22.09,0,0,0,72.29,56a21.55,21.55,0,0,0-7.8,15.53,21.9,21.9,0,0,0,2.09,10.71H48q0-9.48,0-19h0c2.87,0,5.74,0,8.61,0,.7,0,1-.14,1-.92,0-1.5,0-3,0-4.52,0-.78-.3-.92-1-.91-2.87,0-5.74,0-8.61,0l0,0V50.63l0,0c2.87,0,5.74,0,8.61,0,.7,0,1-.14,1-.92,0-1.51,0-3,0-4.52,0-.78-.3-.92-1-.91-2.87,0-5.74,0-8.61,0ZM73.71,31.65c-2.91,0-5.83,0-8.74,0-.67,0-1,.14-.94.87,0,1.54,0,3.09,0,4.63,0,.65.22.85.86.84q8.74,0,17.48,0c.73,0,.91-.27.89-.93,0-1.47-.05-3,0-4.42,0-.8-.24-1-1-1C79.4,31.67,76.55,31.65,73.71,31.65Z"/><path class="cls-3" d="M48,19c-1.67,0-3.34,0-5,0-9.7,0-19.4,0-29.11,0-.86,0-1.13-.18-1.12-1.08.05-6,0-11.94,0-17.91L48,.05Q48,9.52,48,19Z"/><path class="cls-4" d="M48,19Q48,9.51,48,.05L60,0H83.23q0,9.12,0,18.23c0,.5-.09.75-.69.75Q65.29,19,48,19Z"/><path class="cls-5" d="M66.58,82.25a21.9,21.9,0,0,1-2.09-10.71A21.55,21.55,0,0,1,72.29,56a22.09,22.09,0,0,1,14.07-5.38,4.87,4.87,0,0,1,.54,0q0,3.14,0,6.27a16.43,16.43,0,0,0-12.17,5.57c-4.19,4.57-5.09,12.45-1.93,17.77a16.08,16.08,0,0,0,14.1,8.34q0,3.14,0,6.27A22.11,22.11,0,0,1,72.84,90,23.4,23.4,0,0,1,66.58,82.25Z"/><path class="cls-6" d="M86.9,94.87q0-3.14,0-6.27v0a15.8,15.8,0,1,0,0-31.6v0q0-3.14,0-6.27a22.33,22.33,0,0,1,9.16,1.84,23,23,0,0,1,10.36,9.39c7.65,13.35-.62,30.38-15.92,32.76A13.59,13.59,0,0,1,86.9,94.87Z"/><path class="cls-7" d="M22.35,38c-2.84,0-5.68,0-8.52,0-.77,0-1.08-.15-1-1,.07-1.54,0-3.09,0-4.63,0-.53.15-.74.72-.74h17.8c.59,0,.71.24.71.76,0,1.57-.05,3.16,0,4.73,0,.75-.3.86-.95.85C28.18,38,25.27,38,22.35,38Z"/><path class="cls-2" d="M22.42,50.62c-2.88,0-5.76,0-8.64,0-.71,0-1-.17-1-.94.06-1.51,0-3,0-4.53,0-.59.13-.89.82-.88q8.79,0,17.58,0c.69,0,.84.27.83.88,0,1.51-.05,3,0,4.52,0,.76-.26,1-1,1C28.17,50.6,25.29,50.62,22.42,50.62Z"/><path class="cls-2" d="M22.36,63.27c-2.88,0-5.75,0-8.63,0-.68,0-1-.17-.94-.89.05-1.54,0-3.09,0-4.63,0-.66.25-.83.87-.83q8.74,0,17.48,0c.63,0,.9.16.88.83,0,1.54,0,3.09,0,4.63,0,.71-.25.89-.93.89C28.19,63.26,25.27,63.27,22.36,63.27Z"/><path class="cls-2" d="M48,38c-2.88,0-5.76,0-8.64,0-.76,0-1-.23-1-1,.05-1.47.05-3,0-4.42,0-.74.21-1,1-1,2.88,0,5.76,0,8.64,0l0,0V38Z"/><path class="cls-2" d="M48,50.63c-2.88,0-5.76,0-8.64,0-.76,0-1-.23-1-1,.05-1.47.05-3,0-4.42,0-.74.21-1,1-1,2.88,0,5.76,0,8.64,0l0,0v6.3Z"/><path class="cls-2" d="M48,63.28c-2.88,0-5.76,0-8.64,0-.76,0-1-.23-1-1,.05-1.48.05-3,0-4.43,0-.73.21-1,1-1,2.88,0,5.76,0,8.64,0l0,0v6.31Z"/><path class="cls-8" d="M73.71,31.65c2.84,0,5.69,0,8.53,0,.79,0,1.06.21,1,1-.06,1.47,0,3,0,4.42,0,.66-.16.93-.89.93q-8.73,0-17.48,0c-.64,0-.88-.19-.86-.84,0-1.54,0-3.09,0-4.63,0-.73.27-.88.94-.87C67.88,31.66,70.8,31.65,73.71,31.65Z"/><path class="cls-8" d="M48,38v-6.3c2.87,0,5.74,0,8.61,0,.7,0,1,.13,1,.91,0,1.51,0,3,0,4.52,0,.78-.3.92-1,.91C53.78,38,50.91,38,48,38Z"/><path class="cls-8" d="M48,50.61v-6.3c2.87,0,5.74,0,8.61,0,.7,0,1,.13,1,.91,0,1.51,0,3,0,4.52,0,.78-.3.92-1,.92C53.78,50.6,50.91,50.62,48,50.61Z"/><path class="cls-8" d="M48,63.27V57c2.87,0,5.74,0,8.61,0,.7,0,1,.13,1,.91,0,1.51,0,3,0,4.52,0,.78-.3.92-1,.92C53.78,63.25,50.91,63.27,48,63.27Z"/><path class="cls-1" d="M86.89,88.6a16.08,16.08,0,0,1-14.1-8.34c-3.16-5.32-2.26-13.2,1.93-17.77a16.43,16.43,0,0,1,12.17-5.57v0c0,2.16,0,4.32,0,6.48-.85,0-1.7.06-2.55,0-.51,0-.67.15-.67.65,0,3.79,0,7.57,0,11.36,0,.51.16.67.67.66.85,0,1.7,0,2.55,0V88.6Z"/><path class="cls-2" d="M86.89,63.44c0-2.16,0-4.32,0-6.48a15.8,15.8,0,1,1,0,31.6q0-6.18,0-12.38l0-.08c3,0,6,0,8.94.05.59,0,.7-.23.68-.74,0-.87,0-1.75,0-2.63s.43-2.25-.2-2.8-1.82-.13-2.77-.17c-1.12-.06-2.62.48-3.25-.23s-.13-2.06-.19-3.14.46-2.32-.21-2.79-2-.12-3-.12Z"/><path class="cls-9" d="M86.89,76.18c-.85,0-1.7-.06-2.55,0-.51,0-.67-.15-.67-.66,0-3.79,0-7.57,0-11.36,0-.5.16-.67.67-.65.85,0,1.7,0,2.55,0l0,.09V76.1Z"/><path class="cls-10" d="M86.87,76.1V63.53c1,0,2.31-.36,3,.12s.17,1.82.21,2.79-.37,2.52.19,3.14,2.13.17,3.25.23c.95,0,2.22-.31,2.77.17s.16,1.84.2,2.8,0,1.76,0,2.63c0,.51-.09.75-.68.74C92.83,76.11,89.85,76.11,86.87,76.1Z"/></g></g></svg>