<svg xmlns="http://www.w3.org/2000/svg" viewBox="0 0 90.19 111"><defs><style>.cls-1{fill:#07485e;}.cls-2{fill:#fecc00;}.cls-3{fill:#fcbe00;}.cls-4{fill:#006efe;}.cls-5{fill:#3d34c3;}.cls-6{fill:#ede0db;}.cls-7{fill:#fef3f3;}</style></defs><g id="Layer_2" data-name="Layer 2"><g id="Layer_1-2" data-name="Layer 1"><path class="cls-1" d="M65.76,88.6c0,4.47.11,9,0,13.42-.13,4.17.69,7.19,3,9H87.2c2.3-1.78,3-4.81,3-9-.14-10.3-.07-20.6-.09-30.91a2.43,2.43,0,0,0-.13.38c-1.34,10.72-6,17-12.47,17C73.59,88.54,69.67,88.58,65.76,88.6Z"/><path class="cls-1" d="M24.49,97.7c0,2.66-.11,5.32,0,8,.13,2.48-.69,4.27-3,5.33H3.05c-2.3-1.06-3-2.86-3-5.34C.2,99.55.13,93.43.15,87.32a1,1,0,0,1,.13.22c1.34,6.37,6,10.11,12.46,10.12Z"/><path class="cls-2" d="M80.18,97.62l-14.42.09-7.53-.09a4.51,4.51,0,0,0,3-4.8c-.09-1.81,0-3.63,0-5.45A8.65,8.65,0,0,0,54.46,79c-3-.64-6-.22-9.05-.23l0-.09c0-2.63,0-5.25,0-7.87.53,0,1.06-.08,1.6-.08,7.95,0,15.89,0,23.84,0A10.92,10.92,0,0,0,82.09,59.68c0-11.73,0-23.47,0-35.2,0-2.76-1.74-4.42-4.57-4.42h-19c-4.37,0-8.75,0-13.12-.05V12.1c.62,0,1.24,0,1.86,0L74.6,12c1.9.19,3.82-.18,5.71.23a11.92,11.92,0,0,1,9.84,12c0,.22,0,.44,0,.66v8c0,4.21,0,8.42,0,12.63q0,12.48,0,25V85.92a12,12,0,0,1-9.82,11.53C80.3,97.46,80.24,97.56,80.18,97.62ZM74.06,82a3.4,3.4,0,1,0-6.8-.12,3.42,3.42,0,0,0,3.33,3.46A3.46,3.46,0,0,0,74.06,82Z"/><path class="cls-3" d="M74.6,12l-27.35,0c-.62,0-1.24,0-1.86,0V.09L54.22,0H65.5l5.06,0a3.9,3.9,0,0,1,4,4C74.61,6.7,74.6,9.35,74.6,12Z"/><path class="cls-2" d="M45.39,70.82c0,2.62,0,5.24,0,7.87l-7.62,0a8.76,8.76,0,0,0-8.44,6.67c-.57,2.41-.12,4.86-.27,7.29a4.52,4.52,0,0,0,3.19,4.93l-7.75.08-11.75,0C6.23,97.65,1.62,93.91.28,87.54a1,1,0,0,0-.13-.22c0-.71,0-1.42,0-2.13C.1,65.46.32,45.72,0,26-.14,17.36,5.73,11.35,14,12a14.46,14.46,0,0,0,1.61,0H45.4V20.1c-.36,0-.71-.05-1.07-.05H12.73c-3,0-4.59,1.6-4.59,4.63V59.34c0,6.74,4.65,11.39,11.42,11.43,4.69,0,9.37,0,14.06,0,3.93,0,7.85,0,11.78-.07Zm-29.2,11a3.41,3.41,0,1,0,3.46-3.35A3.46,3.46,0,0,0,16.19,81.85Z"/><path class="cls-2" d="M45.4,12H15.65c0-2.58,0-5.15,0-7.72A4,4,0,0,1,20,.05L25,0H36.55l8.84.08Z"/><path class="cls-4" d="M32.24,97.62a4.52,4.52,0,0,1-3.19-4.93c.15-2.43-.3-4.88.27-7.29a8.76,8.76,0,0,1,8.44-6.67l7.62,0,0,.09V97.62Z"/><path class="cls-5" d="M45.41,97.62V78.78c3,0,6.07-.41,9.05.23a8.65,8.65,0,0,1,6.74,8.36c0,1.82-.07,3.64,0,5.45a4.51,4.51,0,0,1-3,4.8Z"/><path class="cls-6" d="M45.39,20c4.37,0,8.75.05,13.12.05h19c2.83,0,4.56,1.66,4.57,4.42,0,11.73,0,23.47,0,35.2A10.92,10.92,0,0,1,70.83,70.73c-7.95,0-15.89,0-23.84,0-.54,0-1.07.05-1.6.08V20Z"/><path class="cls-4" d="M74.06,82a3.46,3.46,0,0,1-3.47,3.34,3.41,3.41,0,0,1,.12-6.81A3.46,3.46,0,0,1,74.06,82Z"/><path class="cls-7" d="M45.4,20.1V70.7c-3.93,0-7.85.06-11.78.07-4.69,0-9.37,0-14.06,0-6.77,0-11.41-4.69-11.42-11.43V24.68c0-3,1.58-4.62,4.59-4.63h31.6C44.69,20.05,45,20.08,45.4,20.1Z"/><path class="cls-4" d="M16.19,81.85a3.41,3.41,0,1,1,3.34,3.47A3.45,3.45,0,0,1,16.19,81.85Z"/></g></g></svg>