<svg xmlns="http://www.w3.org/2000/svg" viewBox="0 0 108.85 105.68"><defs><style>.cls-1{fill:#e9f5fe;}.cls-2{fill:#5986ca;}.cls-3{fill:#4278c3;}.cls-4{fill:#c7eefd;}.cls-5{fill:#7ca1b0;}.cls-6{fill:#7fa3b3;}.cls-7{fill:#7ca0b0;}.cls-8{fill:#81b4fa;}.cls-9{fill:#63dafa;}.cls-10{fill:#7ca1b1;}.cls-11{fill:#688e99;}.cls-12{fill:#99e5fb;}.cls-13{fill:#80b3fa;}.cls-14{fill:#61a2f8;}.cls-15{fill:#7ea2b2;}</style></defs><g id="Layer_2" data-name="Layer 2"><g id="Layer_1-2" data-name="Layer 1"><path class="cls-1" d="M0,100.16V6.76A7.36,7.36,0,0,0,.36,6,6.59,6.59,0,0,1,6.72,1.48h59c4.3,1.36,5.57,4.14,5.54,8.33-.07,10.81,0,21.62,0,32.43,0,.95,0,1.9,0,2.85A8.45,8.45,0,0,1,71,46q-7,16.2-14.06,32.4a73.55,73.55,0,0,0-2.91,7c-.31.33-.19.74-.18,1.11,0,2.35.11,4.7.17,7,0,1,0,2,0,3a7.59,7.59,0,0,0-.18,2.81,2.19,2.19,0,0,0,3.91,1.6c1.84-1.74,3.75-3.41,5.55-5.18,1.56-1.52,3.28-2.87,4.71-4.52l3-6.75a.86.86,0,0,1,.17.69c0,4.66,0,9.33,0,14a6.54,6.54,0,0,1-1.09,3.45,7.78,7.78,0,0,1-4.19,3H6.36A6.28,6.28,0,0,1,2.24,104,7.68,7.68,0,0,1,0,100.16ZM49.56,18.72c2,0,4,.05,6,0a1.38,1.38,0,0,0,1.51-1.44c0-1.79,0-3.59,0-5.38a1.3,1.3,0,0,0-1.51-1.38c-2,0-4,0-6.05,0l-27.32,0c-1.2,0-1.61.42-1.61,1.58,0,1.59,0,3.17,0,4.76,0,1.43.31,1.73,1.75,1.73H41.92C44.46,18.65,47,18.7,49.56,18.72ZM38.8,27.06H12.44c-1.32,0-2,.59-2,1.64s.7,1.65,2,1.69H64.82a3.49,3.49,0,0,0,1.36-.13A1.63,1.63,0,0,0,66,27.11,4.13,4.13,0,0,0,65,27.06Zm.11,13.54H64.74c.35,0,.71,0,1.06,0A1.45,1.45,0,0,0,67.22,39c0-1.1-.6-1.65-2-1.65H12.36a2.7,2.7,0,0,0-.64,0,1.61,1.61,0,0,0,0,3.15,6.38,6.38,0,0,0,1.16,0Zm-6.73,7h-17c-1,0-1.92,0-2.87,0-1.22,0-1.89.66-1.9,1.68s.69,1.62,1.92,1.64c1,0,2,0,3,0H51.86c1.31,0,2.13-.69,2.1-1.72s-.9-1.6-2.12-1.62H32.18ZM28.08,93c4.52-.12,7.21-1.69,9.12-4.61a1.64,1.64,0,1,0-2.73-1.81c-.24.31-.44.64-.7.93a6.17,6.17,0,0,1-5.18,2.12c-1.69-.11-2.74-1.23-3.85-2.22a9,9,0,0,0-14,1.9,1.66,1.66,0,1,0,2.71,1.83,6.48,6.48,0,0,1,2.84-2.47A5.69,5.69,0,0,1,22.64,90C24.45,91.66,26.38,93.14,28.08,93Zm-8-31.92h7.74c1.22,0,1.95-.62,1.92-1.6s-.73-1.6-2-1.6H12.32c-1.2,0-1.9.62-1.91,1.64s.64,1.56,1.94,1.57Z"/><path class="cls-2" d="M54,85.37a73.55,73.55,0,0,1,2.91-7Q63.92,62.18,71,46a8.45,8.45,0,0,0,.3-.89c.54-1.1,1.08-2.2,1.61-3.3l8.33,3.44a1.34,1.34,0,0,1,0,.2c-.88,2.1-1.74,4.21-2.64,6.3C76.65,56.17,74.69,60.6,72.76,65c-2.4,5.51-4.8,11-7.16,16.53-1,2.45-2.23,4.84-3.08,7.37l-.23,0C59.58,87.65,56.77,86.54,54,85.37Z"/><path class="cls-3" d="M62.52,88.94c.85-2.53,2-4.92,3.08-7.37,2.36-5.52,4.76-11,7.16-16.53,1.93-4.44,3.89-8.87,5.82-13.31.9-2.09,1.76-4.2,2.64-6.3l5.71,2.34q-3.23,7.47-6.44,15c-.84,2-1.66,3.93-2.49,5.9-2.43,5.25-4.67,10.59-7,15.91l-3,6.75Z"/><path class="cls-4" d="M72.88,41.79c-.53,1.1-1.07,2.2-1.61,3.3,0-1,0-1.9,0-2.85,0-10.81,0-21.62,0-32.43,0-4.19-1.24-7-5.54-8.33h5.52A6.65,6.65,0,0,1,78,8.2q0,10,0,19.94c0,.41-.15.85.17,1.22-.6,1.37-1.22,2.74-1.81,4.12Q74.63,37.64,72.88,41.79Z"/><path class="cls-5" d="M49.56,18.72c-2.55,0-5.1-.07-7.64-.07H22.36c-1.44,0-1.74-.3-1.75-1.73,0-1.59,0-3.17,0-4.76,0-1.16.41-1.58,1.61-1.58l27.32,0A4.24,4.24,0,0,1,50,12.81c0,1.3,0,2.6,0,3.9A3.41,3.41,0,0,1,49.56,18.72Z"/><path class="cls-4" d="M71.05,84.54c2.28-5.32,4.52-10.66,7-15.91l0,17.82c0,4.11,0,8.22,0,12.33a6.7,6.7,0,0,1-6.93,6.89c-1.72-.09-3.46,0-5.19,0a7.78,7.78,0,0,0,4.19-3,6.54,6.54,0,0,0,1.09-3.45c0-4.66,0-9.33,0-14A.86.86,0,0,0,71.05,84.54Z"/><path class="cls-6" d="M38.8,27.06H65a4.13,4.13,0,0,1,1.06.05,1.63,1.63,0,0,1,.17,3.15,3.49,3.49,0,0,1-1.36.13H12.41c-1.3,0-2-.63-2-1.69s.71-1.64,2-1.64Z"/><path class="cls-7" d="M38.91,40.6h-26a6.38,6.38,0,0,1-1.16,0,1.61,1.61,0,0,1,0-3.15,2.7,2.7,0,0,1,.64,0H65.27c1.35,0,2,.55,2,1.65a1.45,1.45,0,0,1-1.42,1.54c-.35,0-.71,0-1.06,0Z"/><path class="cls-6" d="M32.18,47.58H51.84c1.22,0,2.08.68,2.12,1.62s-.79,1.71-2.1,1.72H15.3c-1,0-2,0-3,0-1.23,0-1.92-.62-1.92-1.64s.68-1.64,1.9-1.68c.95,0,1.91,0,2.87,0Z"/><path class="cls-8" d="M28.08,93c-1.7.1-3.63-1.38-5.44-3.05a5.69,5.69,0,0,0-6.36-1.28,6.48,6.48,0,0,0-2.84,2.47,1.66,1.66,0,1,1-2.71-1.83,9,9,0,0,1,14-1.9c1.11,1,2.16,2.11,3.85,2.22a6.17,6.17,0,0,0,5.18-2.12c.26-.29.46-.62.7-.93a1.64,1.64,0,1,1,2.73,1.81C35.29,91.35,32.6,92.92,28.08,93Z"/><path class="cls-9" d="M62.52,88.94,68,91.29c-1.43,1.65-3.15,3-4.71,4.52-1.8,1.77-3.71,3.44-5.55,5.18a2.19,2.19,0,0,1-3.91-1.6A7.59,7.59,0,0,1,54,96.58c.44,0,.65-.39.94-.64.86-.78,1.65-1.63,2.52-2.4,1.66-1.47,3.21-3,4.81-4.57Z"/><path class="cls-10" d="M20.1,61.12H12.35c-1.3,0-1.94-.54-1.94-1.57s.71-1.64,1.91-1.64H27.81c1.22,0,1.93.6,2,1.6s-.7,1.6-1.92,1.6Z"/><path class="cls-11" d="M49.56,18.72a3.41,3.41,0,0,0,.42-2c0-1.3,0-2.6,0-3.9a4.24,4.24,0,0,0-.43-2.22c2,0,4,0,6.05,0a1.3,1.3,0,0,1,1.51,1.38c0,1.79,0,3.59,0,5.38a1.38,1.38,0,0,1-1.51,1.44C53.59,18.77,51.57,18.74,49.56,18.72Z"/><path class="cls-12" d="M62.29,89c-1.6,1.53-3.15,3.1-4.81,4.57-.87.77-1.66,1.62-2.52,2.4-.29.25-.5.61-.94.64,0-1,0-2,0-3-.06-2.35-.13-4.7-.17-7,0-.37-.13-.78.18-1.11C56.77,86.54,59.58,87.65,62.29,89Z"/><path class="cls-13" d="M72.88,41.79q1.75-4.15,3.52-8.31c.59-1.38,1.21-2.75,1.81-4.12q4.5-10.39,9-20.77C87.9,7,88.13,7,90.59,7.48a37.92,37.92,0,0,0,6.14,2.65l0,.21c-.29.13-.36.39-.48.66-2,4.51-4,9-5.91,13.52-2.08,4.8-4.11,9.63-6.23,14.42a48.48,48.48,0,0,1-2.92,6.29Z"/><path class="cls-14" d="M81.21,45.23a48.48,48.48,0,0,0,2.92-6.29c2.12-4.79,4.15-9.62,6.23-14.42,2-4.51,4-9,5.91-13.52.12-.27.19-.53.48-.66,1.12.14,2,.95,3.13,1.09.68.63,1.67.67,2.38,1.25l-1.26,3c-1.77,4-3.55,8-5.3,12q-4.19,9.6-8.34,19.22c-.13.29-.29.56-.43.85l-5.71-2.34A1.34,1.34,0,0,0,81.21,45.23Z"/><path class="cls-15" d="M101,15.65l1.26-3c1.7.7,3.4,1.39,5.08,2.12s1.84,1.35,1.17,2.9l-6.93,16L96,46.54c-.53,1.21-1.34,1.66-2.27,1.28s-1.3-1.33-.76-2.57l11.52-26.52c.53-1.24.48-1.37-.74-1.9Z"/><path class="cls-12" d="M96.73,10.13a37.92,37.92,0,0,1-6.14-2.65c.67-1.57,1.26-3.18,2-4.71a4.78,4.78,0,0,1,5-2.75,5.47,5.47,0,0,1,.7,6.24C97.7,7.51,97.25,8.83,96.73,10.13Z"/><path class="cls-9" d="M96.73,10.13c.52-1.3,1-2.62,1.58-3.87A5.47,5.47,0,0,0,97.61,0a5,5,0,0,1,4.51,6.09,32.22,32.22,0,0,1-2.24,5.32c-1.12-.14-2-.95-3.13-1.09Z"/></g></g></svg>