<svg xmlns="http://www.w3.org/2000/svg" viewBox="0 0 395.81 305.38"><defs><style>.cls-1{isolation:isolate;}.cls-2{fill:#d9edff;}.cls-17,.cls-2,.cls-9{mix-blend-mode:multiply;}.cls-3{fill:#4ca9ff;}.cls-4{fill:#04377d;}.cls-22,.cls-5{fill:#fff;}.cls-6{fill:#0084ff;}.cls-7{fill:#ff9d8a;}.cls-8{fill:#7591b7;}.cls-10{fill:#7f99bd;}.cls-11{fill:#d9e1eb;}.cls-12{fill:#708db5;}.cls-13{fill:#f5f7fa;}.cls-14{fill:#d4dde9;}.cls-15{fill:#43699d;}.cls-16{fill:#6987b1;}.cls-17{fill:#b4c3d8;}.cls-18{fill:#5c7daa;}.cls-19{fill:#8ea5c4;}.cls-20{fill:#cce6ff;}.cls-21{fill:#ff5e3f;}.cls-22{font-size:12px;font-family:Quicksand-Bold, Quicksand Bold;font-weight:700;}.cls-23{fill:#54adff;}</style></defs><g class="cls-1"><g id="Layer_2" data-name="Layer 2"><g id="Layer_1-2" data-name="Layer 1"><path class="cls-2" d="M92.32,287.17c-2.37-2.48-37.1-72,1.57-135.72S229.67,95.17,268.35,120s57.62,57.1,61.57,91-22.11,86.9-22.11,86.9Z"/><rect class="cls-3" x="315.03" y="137.86" width="54.62" height="32.28" rx="5"/><polygon class="cls-3" points="342.35 182.76 349.42 166 335.27 166 342.35 182.76"/><polygon class="cls-4" points="342.18 148.46 354.95 148.46 354.95 150.33 361.21 146.72 354.95 143.11 354.95 144.97 342.18 144.97 342.18 148.46"/><polygon class="cls-5" points="361.21 155.8 348.44 155.8 348.44 153.93 342.18 157.54 348.44 161.15 348.44 159.28 361.21 159.28 361.21 155.8"/><path class="cls-4" d="M334.34,159.09l-.61.22a19.1,19.1,0,0,1-2.88-4.52,16.1,16.1,0,0,1-1-5.24l.45-.18-2.71-6.47a5.48,5.48,0,0,0-1.31,1.49c-1.53,2.59-1.37,6.55.16,10.42s3.18,7.33,6.18,9.5a5.93,5.93,0,0,0,4.47,1.32Z"/><path class="cls-4" d="M336.28,158.33l-.84.3,2.76,6.62a5.44,5.44,0,0,0,.84-.36,1.61,1.61,0,0,0,.72-2l-1.44-3.64A1.61,1.61,0,0,0,336.28,158.33Z"/><path class="cls-4" d="M329.69,141.77a6.55,6.55,0,0,0-1.09.51l2.76,6.6.93-.39a1.59,1.59,0,0,0,.88-2.06l-1.45-3.73A1.61,1.61,0,0,0,329.69,141.77Z"/><path class="cls-6" d="M79.41,276V201.52s-.82-20.07,9.73-25.86,55-2.69,55-2.69V276Z"/><path class="cls-7" d="M158.07,103.24s-2.69,22.55-3.73,24.42l-1,1.86L148.14,133s9.93,14.07,22.14,16.35,11.17-5,11.17-5l-1.86-3.93L182.07,119S159.93,108.83,158.07,103.24Z"/><path class="cls-5" d="M141.72,134.9l8.07-3.52S155,139.86,167,144.83s12.2,2.07,12.82,0a7.93,7.93,0,0,0-.2-4.35l.88-7.24,4.8,1.6,16.66,134.75-42.83,2.07Z"/><path class="cls-4" d="M181.24,133.38s2.9,6.69,5.59,22.41S192,198,192.62,216.21s1,59.79,1,59.79h54c.62,0,4.34-20.48,4.34-20.48S228.41,235.31,227.17,232c-.83-2.21-.41-43.1-3.93-61.93s-8.07-22.62-17.58-27.31C195.82,137.91,181.24,133.38,181.24,133.38Z"/><path class="cls-8" d="M209.38,252.29a.5.5,0,0,1-.5-.5c0-1.48-.26-22.49-.52-42.82s-.52-41.35-.52-42.83a.5.5,0,0,1,.5-.5.5.5,0,0,1,.5.5c0,1.48.27,22.49.52,42.82s.52,41.35.52,42.83A.5.5,0,0,1,209.38,252.29Z"/><path class="cls-4" d="M101.79,247.24,101.38,276h62.9s2.69-24.41,1.65-26.69S101.79,247.24,101.79,247.24Z"/><g class="cls-9"><path class="cls-10" d="M171.79,127a32.84,32.84,0,0,0,8.8,4.73L182.07,119s-16.63-7.62-22.27-13.29C161,112.12,163.88,120.65,171.79,127Z"/></g><path class="cls-7" d="M201.52,61.24a44.86,44.86,0,0,1,5.17,16.55c.83,9.11,0,32.49-7.45,42.42s-23,7-30,1c-6.45-5.51-12.83-11.58-14.48-23.58S158.28,62.9,173,58.14,201.52,61.24,201.52,61.24Z"/><path class="cls-7" d="M220.18,263s-.73,0-1.84,0h-.85l-3.68-.1-.88,0c-1.3,0-2.41.13-3.45.07h0c-.22,0-.54,0-.8,0a1.94,1.94,0,0,1-.33,0,4.86,4.86,0,0,1-1.37-.54,93,93,0,0,0-21.46-2.86c-9.24,0-17.53.67-18.88-.46s-2.18-12.76,5.71-13.52l9.7,3.68s22.15-2.63,30.27,3.36S220.18,263,220.18,263Z"/><path class="cls-4" d="M209.45,262.89c-.22,0-.54,0-.8,0a9.39,9.39,0,0,0-.85-1.14c-2.5-2.55-8.54-4.2-10.73-4.73a.38.38,0,0,1-.28-.45.38.38,0,0,1,.46-.28c3.19.77,10,2.74,11.88,6C209.19,262.38,209.35,262.69,209.45,262.89Z"/><path class="cls-4" d="M213.81,262.85c-.29,0-.59,0-.88,0-2.72-5-7.19-6.41-12.71-8.18l-.33-.11a.39.39,0,0,1-.24-.48.38.38,0,0,1,.48-.23l.32.1C206.28,255.8,211,257.3,213.81,262.85Z"/><path class="cls-4" d="M218.34,263h-.85a21.79,21.79,0,0,0-14.38-10.66.38.38,0,0,1-.31-.44.39.39,0,0,1,.44-.3C210.7,253,216.73,259.05,218.34,263Z"/><path class="cls-4" d="M159.72,87.41a19.31,19.31,0,0,0,7.76-8.27,23.58,23.58,0,0,0,2.8-11.59s5.79-.93,14.48,1.66,19,6.1,27.72,1.13,8.69-12.93,4.45-16.24c-4.75-3.7-14.17-1.44-14.17-1.44s3.62-3.52,1.65-5.59-9.1.62-9.1.62-8.69-6.93-25.14-6.1S145.86,53.9,144.93,66.72s3.73,25.66,3.73,25.66Z"/><g class="cls-9"><path class="cls-10" d="M193.09,90.52c-.93,2.3-.91,5-1.14,7.41-.18,1.89-.53,4.11,1.21,5.39.83.61,4.75,2.26,2.73,3.6a5.3,5.3,0,0,1-2.93.33l-1.82-.1c-.65-.05-1.28-.25-1.93-.25a.38.38,0,0,0-.19.7,8.08,8.08,0,0,0,3.79.9A5.73,5.73,0,0,0,196,108a2.25,2.25,0,0,0,1.44-1.61,2.59,2.59,0,0,0-1.24-2.22c-.78-.57-1.74-.85-2.53-1.41-1.1-.78-1-2.11-.93-3.33.19-2.94.86-5.83,1.13-8.76,0-.45-.58-.45-.73-.1Z"/></g><path class="cls-4" d="M201.55,97.4c-.31,1.75-1.58,3-2.83,2.76s-2-1.82-1.72-3.56,1.58-3,2.83-2.76S201.86,95.66,201.55,97.4Z"/><path class="cls-4" d="M185.72,96c-.28,1.88-1.61,3.24-3,3s-2.23-1.89-1.95-3.77,1.61-3.24,3-3S186,94.14,185.72,96Z"/><path class="cls-4" d="M197.87,90.21a28.2,28.2,0,0,0,2.91.07l.7.07c.17,0-.31,0-.08,0l.15,0,.37.07c.21,0,.41.13.61.18a2.38,2.38,0,0,0,.59.07l.32,0-.2,0a2.17,2.17,0,0,0,.4,0,1.08,1.08,0,0,0,.74-1.3,1,1,0,0,0-.21-.42l-.13-.17.12.14a1.09,1.09,0,0,0-.13-.17.58.58,0,0,0-.22-.22l-.23-.18a2.93,2.93,0,0,0-.9-.36,7.12,7.12,0,0,0-1.78-.23,13,13,0,0,0-1.76.14,3.42,3.42,0,0,0-1.51.56,1,1,0,0,0-.46,1,.94.94,0,0,0,.7.81Z"/><path class="cls-4" d="M186.83,87.45a3.84,3.84,0,0,0-.4-.21c-.12-.06-.44-.22-.2-.09L186,87a5.49,5.49,0,0,0-1.25-.45,8.32,8.32,0,0,0-2.9-.2,6.75,6.75,0,0,0-2.87.9,1.54,1.54,0,0,0-.36.25l-.21.28.06-.09a1,1,0,0,0-.44.84.82.82,0,0,0,.45.74,1.27,1.27,0,0,0,1,0h-.53a1.71,1.71,0,0,0,.78,0s.28-.07.1,0,.28,0,.33,0,.37,0,0,0l.18,0,.47-.05c.69,0,1.37-.08,2.05-.11s1.28,0,1.92,0l.81,0c.16,0,.09,0,0,0l.17,0,.33.11a1,1,0,0,0,1.13-.55,1,1,0,0,0-.39-1.2Z"/><path class="cls-4" d="M191.74,116.21a9.36,9.36,0,0,1,4.68-4.21c-1.74-.18-9.92-.93-12,.24-2.31,1.31.43,6.59,5.21,6.85A6.32,6.32,0,0,0,191,119,6.89,6.89,0,0,1,191.74,116.21Z"/><path class="cls-11" d="M153.93,105.1s.83,3.21,5.59,6.93a55,55,0,0,0,11.65,6.45l.55-2.41s-7.13-3.1-10.44-6.52-3.73-5.27-3.73-5.27Z"/><path class="cls-4" d="M172.55,114.28a6,6,0,0,1,6.24,4.81c.26,2-1.58,4.16-5.88,2.23C167.56,118.92,168.72,114.46,172.55,114.28Z"/><path class="cls-11" d="M156.93,81.41s1.65-11.89,9.62-20C181.76,46,194.69,47,194.69,47s-.1-2.18-5-3.83c-4.56-1.56-6.62-.73-6.62-.73s-12.51,1-23.07,12.73-11.69,26.58-11.69,26.58Z"/><path class="cls-5" d="M155.79,80c-10-1.69-15.51,6.1-15.93,14s5.3,13.84,12.93,13.24C170,105.83,168,82,155.79,80Z"/><path class="cls-12" d="M150.83,99.53a6.78,6.78,0,0,1-6.12-3.65,7.57,7.57,0,0,1,.29-7.82.38.38,0,0,1,.62.43,6.79,6.79,0,0,0-.25,7A6,6,0,0,0,151,98.78a6.57,6.57,0,0,0,5.44-2.93,8.3,8.3,0,0,0,.82-7.35,5.59,5.59,0,0,0-5.58-3.67.38.38,0,0,1-.43-.32.37.37,0,0,1,.33-.42A6.26,6.26,0,0,1,158,88.23a9.08,9.08,0,0,1-.9,8,7.31,7.31,0,0,1-6,3.27Z"/><path class="cls-4" d="M143.59,132s-30.21,7.45-40.76,19.45S87.31,222.62,87.1,233.59s7.45,15.51,12,18.62,24.62,8.69,40.76,9.51,31.45,0,31.45,0a21.57,21.57,0,0,1,2.43-8.69c2.3-4.79,5.23-5.79,5.23-5.79l-13.87-5s-2.42-43.5-6.2-64.56C154.55,153.52,143.59,132,143.59,132Z"/><path class="cls-8" d="M193.66,235.33a.54.54,0,0,1-.21-.05.49.49,0,0,1-.25-.65c2.83-6.39,5.76-18.93,7.41-27.72l.14-.71c.5-2.59,1.12-5.81-.12-8-.63-1.13-2.06-3.59-3.44-5.95s-2.77-4.77-3.15-5.46c-.73-1.35,1.57-5,4.89-9.91.9-1.34,1.67-2.49,2.12-3.28,1.19-2,.4-3.92-.51-6.09l-.31-.75c-.83-2-1.77-4.07-2.68-6l-1.11-2.42L195,155a190.78,190.78,0,0,0-9.81-19.76.49.49,0,0,1,.17-.69.51.51,0,0,1,.69.17,193,193,0,0,1,9.87,19.87l1.46,3.26,1.11,2.41c.91,2,1.86,4,2.69,6.07l.31.74c.93,2.21,1.89,4.51.46,7-.47.81-1.25,2-2.16,3.33-1.73,2.59-5.34,8-4.84,8.88.37.68,1.71,3,3.14,5.44s2.81,4.83,3.44,6c1.42,2.54.76,6,.23,8.71l-.14.7c-.6,3.21-3.78,19.6-7.48,27.94A.49.49,0,0,1,193.66,235.33Z"/><path class="cls-8" d="M164.17,237.09a.47.47,0,0,1-.35-.15c-2.35-2.37-13.69-22-14.53-25.69-.47-2,.69-7.15,1.81-12.11.87-3.84,1.77-7.81,1.52-8.89-.39-1.6-3.28-4-6.09-6.26-3.39-2.77-6.89-5.63-7.57-8.21-.77-2.93-.11-21.26.33-33.4.16-4.36.28-7.81.28-9a.5.5,0,0,1,.5-.51h0a.51.51,0,0,1,.5.5c0,1.25-.12,4.71-.28,9.08-.41,11.34-1.09,30.32-.36,33.11.6,2.26,4.12,5.14,7.23,7.68s6,4.88,6.43,6.81c.31,1.3-.53,5-1.51,9.34-1.05,4.62-2.23,9.86-1.82,11.66.83,3.62,12,22.89,14.27,25.21a.5.5,0,0,1,0,.71A.47.47,0,0,1,164.17,237.09Z"/><path class="cls-8" d="M123.52,228.5h-.07a.51.51,0,0,1-.43-.57c.37-2.6,6.11-54.4,6.37-58.37a.5.5,0,0,1,1,.07c-.26,4-6,55.84-6.38,58.44A.5.5,0,0,1,123.52,228.5Z"/><path class="cls-8" d="M164.69,242.57a.43.43,0,0,1-.19,0c-1.27-.51-6.89-2.41-14-4.81-14.36-4.84-34-11.47-37.77-13.41a.5.5,0,0,1,.47-.89c3.67,1.91,24.1,8.8,37.62,13.35,7.13,2.41,12.76,4.31,14.06,4.83a.51.51,0,0,1,.27.66A.5.5,0,0,1,164.69,242.57Z"/><path class="cls-8" d="M157.79,263.19c-12.64,0-37.14-2.27-55.75-8.86a.48.48,0,0,1-.3-.63.5.5,0,0,1,.63-.31c23.51,8.32,56.4,9.74,62.52,8.36a.51.51,0,0,1,.6.38.5.5,0,0,1-.38.6A39.73,39.73,0,0,1,157.79,263.19Z"/><polygon class="cls-13" points="380.38 190.34 340.83 268.69 225.52 269.52 261.1 189.24 380.38 190.34"/><path class="cls-14" d="M149,269l0-6.27h74.65L258,187.45H377.38l3,2.89H263.76L228.07,269S149,268.82,149,269Z"/><path class="cls-14" d="M320.5,233.58c-1.3,3.91-8.37,6.92-15.79,6.74s-12.38-3.51-11.07-7.41,8.37-6.93,15.79-6.74S321.8,229.67,320.5,233.58Z"/><path class="cls-5" d="M228.07,269.47a.54.54,0,0,1-.21-.05.5.5,0,0,1-.25-.66l35.83-78.92H380.38a.5.5,0,0,1,.5.5.5.5,0,0,1-.5.5H264.08l-35.56,78.33A.49.49,0,0,1,228.07,269.47Z"/><rect class="cls-15" x="6.62" y="274.97" width="137.17" height="30.41"/><rect class="cls-16" x="143.01" y="274.97" width="246.8" height="30.41"/><polygon class="cls-17" points="143.79 274.97 143.01 274.97 6.62 274.97 6.62 280.55 143.01 280.55 143.79 280.55 389.81 280.55 389.81 274.97 143.79 274.97"/><rect class="cls-18" y="268.97" width="149.79" height="7.45"/><rect class="cls-19" x="149.01" y="268.97" width="246.8" height="7.45"/><rect class="cls-5" x="55.31" y="74.37" width="59.28" height="35.03" rx="5.43"/><polygon class="cls-5" points="128.39 91.88 110.2 84.21 110.2 99.56 128.39 91.88"/><circle class="cls-4" cx="73.46" cy="91.88" r="3.35"/><circle class="cls-4" cx="84.95" cy="91.88" r="3.35"/><circle class="cls-4" cx="96.44" cy="91.88" r="3.35"/><path class="cls-3" d="M355.69,0H243.9a13,13,0,0,0-13,13V66a13,13,0,0,0,13,13h10c.28,4.81-.41,12-4.42,21.11A56.16,56.16,0,0,0,273.73,79h82a13,13,0,0,0,13-13V13A13,13,0,0,0,355.69,0Z"/><path class="cls-5" d="M308,25.28H252.55a2.77,2.77,0,0,1-2.76-2.76h0a2.76,2.76,0,0,1,2.76-2.76H308a2.76,2.76,0,0,1,2.76,2.76h0A2.77,2.77,0,0,1,308,25.28Z"/><path class="cls-20" d="M347.76,41.35H251.48a1.69,1.69,0,0,1-1.69-1.69h0A1.69,1.69,0,0,1,251.48,38h96.28a1.69,1.69,0,0,1,1.69,1.69h0A1.69,1.69,0,0,1,347.76,41.35Z"/><path class="cls-20" d="M347.76,50.72H251.48A1.69,1.69,0,0,1,249.79,49h0a1.69,1.69,0,0,1,1.69-1.68h96.28A1.69,1.69,0,0,1,349.45,49h0A1.69,1.69,0,0,1,347.76,50.72Z"/><path class="cls-20" d="M326.76,60.72H251.48A1.69,1.69,0,0,1,249.79,59h0a1.69,1.69,0,0,1,1.69-1.68h75.28A1.69,1.69,0,0,1,328.45,59h0A1.69,1.69,0,0,1,326.76,60.72Z"/><path class="cls-5" d="M347,25.28H320.55a2.77,2.77,0,0,1-2.76-2.76h0a2.76,2.76,0,0,1,2.76-2.76H347a2.75,2.75,0,0,1,2.76,2.76h0A2.76,2.76,0,0,1,347,25.28Z"/><rect class="cls-5" x="248.3" y="122.72" width="34.03" height="24.52" rx="2"/><path class="cls-18" d="M265.53,138.65a.74.74,0,0,1-.48-.18L248.7,125a.75.75,0,0,1-.1-1,.76.76,0,0,1,1.06-.1l15.85,13.09L281,123.47a.75.75,0,0,1,1,1.13L266,138.46A.72.72,0,0,1,265.53,138.65Z"/><path class="cls-18" d="M249.18,146.68a.81.81,0,0,1-.52-.2.76.76,0,0,1,0-1.07l11.43-12a.75.75,0,0,1,1.06,0,.75.75,0,0,1,0,1.06l-11.44,12A.74.74,0,0,1,249.18,146.68Z"/><path class="cls-18" d="M281.46,146.24a.71.71,0,0,1-.53-.22l-11.39-11.41a.77.77,0,0,1,0-1.07.75.75,0,0,1,1.06,0L282,145a.75.75,0,0,1,0,1.06A.74.74,0,0,1,281.46,146.24Z"/><circle class="cls-21" cx="283.9" cy="121.97" r="10.03"/><text class="cls-22" transform="translate(276.84 126.2)">85</text><rect class="cls-4" x="322.06" y="101.1" width="66.62" height="17.17" rx="4"/><path class="cls-5" d="M330.29,114.19a.78.78,0,0,1-.63-.28,1,1,0,0,1-.21-.71l.25-2.22c0-.06,0-.09,0-.11s-.08,0-.14,0l-1.83,1.32a.85.85,0,0,1-1.29-.25.82.82,0,0,1,.42-1.27l2.05-.93c.06,0,.09,0,.09-.08s0-.07-.09-.09l-2.05-.93a.86.86,0,0,1-.51-.53,1,1,0,0,1,.09-.73A.86.86,0,0,1,327,107a.9.9,0,0,1,.7.16l1.83,1.35c.06,0,.1,0,.14,0s.05,0,0-.11l-.25-2.22a.92.92,0,0,1,.22-.71.9.9,0,0,1,.68-.28.83.83,0,0,1,.64.28.84.84,0,0,1,.2.71l-.25,2.22c0,.06,0,.1,0,.11s.08,0,.14,0l1.83-1.33a.85.85,0,0,1,.71-.18.79.79,0,0,1,.58.44.86.86,0,0,1,.1.79.9.9,0,0,1-.52.47l-2.06.93c-.05,0-.08.05-.08.09s0,.06.08.08l2.06.93a.88.88,0,0,1,.52.53.86.86,0,0,1-.1.74.77.77,0,0,1-.58.43.91.91,0,0,1-.71-.15l-1.83-1.35c-.06,0-.11-.05-.14,0s-.05,0,0,.11l.25,2.22a.81.81,0,0,1-.21.71A.9.9,0,0,1,330.29,114.19Z"/><path class="cls-5" d="M342.42,114.19a.79.79,0,0,1-.64-.28,1,1,0,0,1-.21-.71l.25-2.22c0-.06,0-.09,0-.11a.13.13,0,0,0-.14,0l-1.83,1.32a.92.92,0,0,1-1.4-1,.91.91,0,0,1,.52-.48l2.06-.93c.05,0,.08,0,.08-.08s0-.07-.08-.09l-2.06-.93a.82.82,0,0,1-.5-.53.9.9,0,0,1,.08-.73.88.88,0,0,1,.59-.44.92.92,0,0,1,.71.16l1.83,1.35a.15.15,0,0,0,.14,0s0,0,0-.11l-.25-2.22a.93.93,0,0,1,.23-.71.88.88,0,0,1,.67-.28.84.84,0,0,1,.85,1l-.26,2.22c0,.06,0,.1,0,.11a.15.15,0,0,0,.14,0l1.83-1.33a.88.88,0,0,1,.72-.18.82.82,0,0,1,.58.44.85.85,0,0,1,.09.79.87.87,0,0,1-.52.47l-2.05.93q-.09,0-.09.09s0,.06.09.08l2.05.93a.85.85,0,0,1,.52.53.82.82,0,0,1-.09.74.81.81,0,0,1-.58.43.94.94,0,0,1-.72-.15l-1.83-1.35a.13.13,0,0,0-.14,0s0,0,0,.11l.26,2.22a.84.84,0,0,1-.22.71A.87.87,0,0,1,342.42,114.19Z"/><path class="cls-5" d="M354.54,114.19a.78.78,0,0,1-.63-.28,1,1,0,0,1-.21-.71L354,111c0-.06,0-.09,0-.11s-.08,0-.14,0L352,112.22a.91.91,0,0,1-1.39-1,.85.85,0,0,1,.52-.48l2.05-.93c.06,0,.09,0,.09-.08s0-.07-.09-.09l-2.05-.93a.84.84,0,0,1-.51-.53,1,1,0,0,1,.09-.73.86.86,0,0,1,.59-.44.9.9,0,0,1,.7.16l1.83,1.35c.06,0,.1,0,.14,0s.05,0,0-.11l-.25-2.22a.92.92,0,0,1,.22-.71.89.89,0,0,1,.68-.28.84.84,0,0,1,.84,1l-.25,2.22c0,.06,0,.1,0,.11s.08,0,.14,0l1.83-1.33a.85.85,0,0,1,.71-.18.79.79,0,0,1,.58.44.86.86,0,0,1,.1.79.9.9,0,0,1-.52.47l-2.06.93c-.05,0-.08.05-.08.09s0,.06.08.08l2.06.93a.9.9,0,0,1,.52.53.86.86,0,0,1-.1.74.77.77,0,0,1-.58.43.91.91,0,0,1-.71-.15l-1.83-1.35c-.06,0-.11-.05-.14,0s-.05,0,0,.11l.25,2.22a.81.81,0,0,1-.21.71A.9.9,0,0,1,354.54,114.19Z"/><path class="cls-5" d="M366.66,114.19a.78.78,0,0,1-.63-.28,1,1,0,0,1-.21-.71l.25-2.22c0-.06,0-.09,0-.11a.15.15,0,0,0-.15,0l-1.82,1.32a.92.92,0,0,1-1.4-1,.88.88,0,0,1,.52-.48l2.06-.93c.05,0,.08,0,.08-.08s0-.07-.08-.09l-2.06-.93a.82.82,0,0,1-.5-.53.9.9,0,0,1,.08-.73.88.88,0,0,1,.59-.44.92.92,0,0,1,.71.16l1.82,1.35a.17.17,0,0,0,.15,0s0,0,0-.11l-.25-2.22a.93.93,0,0,1,.23-.71.92.92,0,0,1,1.32,0,.84.84,0,0,1,.19.71l-.25,2.22c0,.06,0,.1,0,.11s.08,0,.14,0l1.83-1.33A.86.86,0,0,1,370,107a.79.79,0,0,1,.57.44.83.83,0,0,1,.1.79.87.87,0,0,1-.52.47l-2.05.93q-.09,0-.09.09s0,.06.09.08l2.05.93a.88.88,0,0,1,.52.53.83.83,0,0,1-.1.74.78.78,0,0,1-.57.43.92.92,0,0,1-.72-.15l-1.83-1.35c-.06,0-.1-.05-.14,0s0,0,0,.11l.25,2.22a.81.81,0,0,1-.21.71A.89.89,0,0,1,366.66,114.19Z"/><path class="cls-23" d="M378.79,114.19a.78.78,0,0,1-.63-.28,1,1,0,0,1-.22-.71l.26-2.22c0-.06,0-.09,0-.11s-.08,0-.14,0l-1.83,1.32a.85.85,0,0,1-1.29-.25.83.83,0,0,1-.1-.79.85.85,0,0,1,.52-.48l2.05-.93c.06,0,.09,0,.09-.08s0-.07-.09-.09l-2.05-.93a.84.84,0,0,1-.51-.53.9.9,0,0,1,.09-.73.86.86,0,0,1,.59-.44.91.91,0,0,1,.7.16l1.83,1.35c.06,0,.1,0,.14,0s.05,0,0-.11l-.26-2.22a1,1,0,0,1,.23-.71.89.89,0,0,1,.68-.28.84.84,0,0,1,.84,1l-.25,2.22c0,.06,0,.1,0,.11a.17.17,0,0,0,.15,0l1.82-1.33a.88.88,0,0,1,.72-.18.79.79,0,0,1,.58.44.86.86,0,0,1,.1.79.93.93,0,0,1-.52.47l-2.06.93c-.05,0-.08.05-.08.09s0,.06.08.08l2.06.93a.9.9,0,0,1,.52.53.86.86,0,0,1-.1.74.77.77,0,0,1-.58.43.94.94,0,0,1-.72-.15l-1.82-1.35a.15.15,0,0,0-.15,0s0,0,0,.11l.25,2.22a.81.81,0,0,1-.21.71A.9.9,0,0,1,378.79,114.19Z"/></g></g></g></svg>