<svg xmlns="http://www.w3.org/2000/svg" viewBox="0 0 50 50"><defs><style>.cls-1{fill:#00c3ff;}.cls-2{fill:#00aaf0;}.cls-3{fill:#fff;}</style></defs><g id="Layer_2" data-name="Layer 2"><g id="Layer_1-2" data-name="Layer 1"><rect class="cls-1" width="50" height="50" rx="6"/><path class="cls-2" d="M25,0H44a6,6,0,0,1,6,6V44a6,6,0,0,1-6,6H25a0,0,0,0,1,0,0V0A0,0,0,0,1,25,0Z"/><path class="cls-3" d="M27.87,17,25,22l-4.6-8a2.49,2.49,0,0,1,.92-3.41,2.45,2.45,0,0,1,1.25-.34,2.49,2.49,0,0,1,2.16,1.25Z"/><path class="cls-3" d="M37.93,39.41a2.49,2.49,0,0,1-3.41-.92L26.09,23.9l2.89-5L38.85,36A2.5,2.5,0,0,1,37.93,39.41Z"/><path class="cls-3" d="M17.38,35.14l-1.93,3.35A2.5,2.5,0,1,1,11.12,36l.49-.85Z"/><path class="cls-3" d="M29.92,12.76A2.48,2.48,0,0,1,29.58,14L18.49,33.23H12.71L25.25,11.51a2.5,2.5,0,0,1,4.67,1.25Z"/><path class="cls-3" d="M29.63,33.23h-19a2.51,2.51,0,0,1,0-5H27Z"/><rect class="cls-3" x="34.2" y="25.79" width="5" height="9.87" rx="2.5" transform="translate(67.43 -5.97) rotate(90)"/></g></g></svg>