<svg xmlns="http://www.w3.org/2000/svg" viewBox="0 0 90 74.92"><defs><style>.cls-1{fill:#23c131;}</style></defs><g id="Layer_2" data-name="Layer 2"><g id="Layer_1-2" data-name="Layer 1"><circle class="cls-1" cx="5" cy="5" r="5"/><circle class="cls-1" cx="21" cy="5" r="5"/><circle class="cls-1" cx="37" cy="5" r="5"/><circle class="cls-1" cx="53" cy="5" r="5"/><circle class="cls-1" cx="69" cy="5" r="5"/><circle class="cls-1" cx="85" cy="5" r="5"/><circle class="cls-1" cx="5" cy="30.97" r="5"/><circle class="cls-1" cx="21" cy="30.97" r="5"/><circle class="cls-1" cx="37" cy="30.97" r="5"/><circle class="cls-1" cx="53" cy="30.97" r="5"/><circle class="cls-1" cx="69" cy="30.97" r="5"/><circle class="cls-1" cx="85" cy="30.97" r="5"/><circle class="cls-1" cx="5" cy="43.95" r="5"/><circle class="cls-1" cx="21" cy="43.95" r="5"/><circle class="cls-1" cx="37" cy="43.95" r="5"/><circle class="cls-1" cx="53" cy="43.95" r="5"/><circle class="cls-1" cx="69" cy="43.95" r="5"/><circle class="cls-1" cx="85" cy="43.95" r="5"/><circle class="cls-1" cx="5" cy="69.92" r="5"/><circle class="cls-1" cx="21" cy="69.92" r="5"/><circle class="cls-1" cx="37" cy="69.92" r="5"/><circle class="cls-1" cx="53" cy="69.92" r="5"/><circle class="cls-1" cx="69" cy="69.92" r="5"/><circle class="cls-1" cx="85" cy="69.92" r="5"/><circle class="cls-1" cx="5" cy="56.93" r="5"/><circle class="cls-1" cx="21" cy="56.93" r="5"/><circle class="cls-1" cx="37" cy="56.93" r="5"/><circle class="cls-1" cx="53" cy="56.93" r="5"/><circle class="cls-1" cx="69" cy="56.93" r="5"/><circle class="cls-1" cx="85" cy="56.93" r="5"/><circle class="cls-1" cx="5" cy="17.98" r="5"/><circle class="cls-1" cx="21" cy="17.98" r="5"/><circle class="cls-1" cx="37" cy="17.98" r="5"/><circle class="cls-1" cx="53" cy="17.98" r="5"/><circle class="cls-1" cx="69" cy="17.98" r="5"/><circle class="cls-1" cx="85" cy="17.98" r="5"/></g></g></svg>