<svg xmlns="http://www.w3.org/2000/svg" viewBox="0 0 50 49.93"><defs><style>.cls-1{fill:#1976d1;}.cls-2{fill:#f9f9f9;}</style></defs><g id="Layer_2" data-name="Layer 2"><g id="Layer_1-2" data-name="Layer 1"><path class="cls-1" d="M25,49.93H5.27c-.08-.17-.25-.12-.38-.15A6.22,6.22,0,0,1,.15,45.05c0-.13,0-.31-.15-.39V5.29a.16.16,0,0,0,.1-.15A6.42,6.42,0,0,1,6.74,0C18.93.06,31.12,0,43.31,0h.63a6.23,6.23,0,0,1,5.68,4.13c.14.4.25.81.38,1.22V44.66c-.18.12-.13.32-.18.48a6.21,6.21,0,0,1-4.1,4.47,7.13,7.13,0,0,0-1.09.32H34.38q0-8.31,0-16.62c0-.46.14-.56.57-.55,1.23,0,2.47,0,3.71,0a.52.52,0,0,0,.59-.41l2.38-6c.19-.46.37-.92.57-1.43h-.6c-2.25,0-4.49,0-6.74,0-.4,0-.48-.11-.47-.48,0-1.86,0-3.71,0-5.56,0-1.22.42-1.67,1.65-1.75h4.2c.32,0,.4-.09.4-.4,0-2.33,0-4.65,0-7,0-.4-.14-.44-.48-.44-1.86,0-3.71,0-5.57,0A9.36,9.36,0,0,0,25,19c0,1.85,0,3.7,0,5.55,0,.36-.08.47-.45.46-1.79,0-3.58,0-5.37,0-.32,0-.45.05-.45.41q0,3.5,0,7c0,.35.09.43.43.43,1.76,0,3.52,0,5.28,0,.43,0,.56.09.56.55C25,38.85,25,44.39,25,49.93Z"/><path class="cls-2" d="M25,49.93c0-5.54,0-11.08,0-16.62,0-.46-.13-.55-.56-.55-1.76,0-3.52,0-5.28,0-.34,0-.43-.08-.43-.43q0-3.48,0-7c0-.36.13-.41.45-.41,1.79,0,3.58,0,5.37,0,.37,0,.45-.1.45-.46,0-1.85,0-3.7,0-5.55a9.36,9.36,0,0,1,9.59-9.59c1.86,0,3.71,0,5.57,0,.34,0,.48,0,.48.44,0,2.32,0,4.64,0,7,0,.31-.08.41-.4.4H36c-1.23.08-1.65.53-1.65,1.75,0,1.85,0,3.7,0,5.56,0,.37.07.49.47.48,2.25,0,4.49,0,6.74,0h.6c-.2.51-.38,1-.57,1.43l-2.38,6a.52.52,0,0,1-.59.41c-1.24,0-2.48,0-3.71,0-.43,0-.57.09-.57.55q0,8.31,0,16.62Z"/></g></g></svg>