<svg xmlns="http://www.w3.org/2000/svg" viewBox="0 0 50 50.05"><defs><style>.cls-1{fill:#d23d95;}.cls-2{fill:#fecb52;}.cls-3{fill:#feb64f;}.cls-4{fill:#e5466f;}.cls-5{fill:#fe9b4a;}.cls-6{fill:#fe8c48;}.cls-7{fill:#fead4d;}.cls-8{fill:#ed4b5f;}.cls-9{fill:#dd437f;}.cls-10{fill:#fe6e43;}.cls-11{fill:#fe7f45;}.cls-12{fill:#f24e55;}.cls-13{fill:#fefdfd;}.cls-14{fill:#fd5640;}.cls-15{fill:#f8514a;}.cls-16{fill:#fe6241;}</style></defs><g id="Layer_2" data-name="Layer 2"><g id="Layer_1-2" data-name="Layer 1"><path class="cls-1" d="M31.61,0h7.52a2.17,2.17,0,0,0,1,.18c5.56.65,9.24,4.51,9.73,10.19.3,3.44.11,6.9.11,10.36a.52.52,0,0,1-.46-.24l-1.54-1.75-2.87-3.36-2.28-2.65c-.16-.17-.28-.42-.57-.4A9.92,9.92,0,0,0,38.05,8a.52.52,0,0,0-.16-.44c-.78-.9-1.55-1.82-2.33-2.72C34.39,3.44,33.19,2.1,32,.74,31.85.53,31.58.34,31.61,0Z"/><path class="cls-2" d="M15.42,50.05H14.15c-.09-.13-.23-.08-.36-.09-1.55-.06-3.11-.12-4.66-.28A9.66,9.66,0,0,1,3.38,47a11.3,11.3,0,0,1-3-6.07,12.76,12.76,0,0,0-.39-2V32.16c.31.05.45.31.63.51.91,1,1.8,2.12,2.71,3.18s2,2.2,2.91,3.32c1.55,1.8,3.09,3.62,4.64,5.42,1.36,1.58,2.75,3.14,4.11,4.72C15.18,49.52,15.45,49.72,15.42,50.05Z"/><path class="cls-3" d="M15.42,50.05c0-.33-.24-.53-.42-.74-1.36-1.58-2.75-3.14-4.11-4.72C9.34,42.79,7.8,41,6.25,39.17c-1-1.12-1.95-2.21-2.91-3.32S1.54,33.72.63,32.67c-.18-.2-.32-.46-.63-.51V28.84a.49.49,0,0,1,.45.23l2.78,3.25,3.64,4.22a.52.52,0,0,0,.46.22,9.26,9.26,0,0,0,4.78,5.45c-.06.38.27.52.47.74,1.64,1.91,3.3,3.81,4.91,5.74.37.43.88.77,1.05,1.36Z"/><path class="cls-4" d="M18.83,0h7.42a.48.48,0,0,0,.14.39c1.37,1.56,2.74,3.1,4.07,4.68a6.33,6.33,0,0,1,1.15,1.48l-7.51,0A.65.65,0,0,0,23.94,6C22.58,4.49,21.21,3,19.88,1.37A4.68,4.68,0,0,1,18.83,0Z"/><path class="cls-5" d="M28.39,50.05H21.27a.63.63,0,0,0-.17-.39c-.89-1-1.79-2.08-2.7-3.11-.72-.83-1.46-1.64-2.15-2.5-.2-.25-.57-.41-.54-.82a36.18,36.18,0,0,0,4.16.28c1.09,0,2.17,0,3.26,0,.09.61.61.93,1,1.35,1.13,1.37,2.35,2.67,3.48,4C27.87,49.28,28.32,49.54,28.39,50.05Z"/><path class="cls-6" d="M0,19.36V12.71A.54.54,0,0,1,.48,13c.69.83,1.4,1.64,2.11,2.47,1,1.14,1.94,2.29,2.94,3.41.28.31.49.74,1,.79a3.24,3.24,0,0,0,0,1c0,1.87,0,3.75,0,5.63-.24,0-.38-.16-.52-.32-1-1.08-1.9-2.15-2.84-3.24C2.42,21.91,1.74,21,1,20.22.68,19.91.55,19.38,0,19.36Z"/><path class="cls-7" d="M7.33,36.76a.52.52,0,0,1-.46-.22L3.23,32.32.45,29.07A.49.49,0,0,0,0,28.84V22.78c.49.12.66.6,1,.92.76.83,1.49,1.69,2.23,2.55L6,29.55c.13.15.26.3.49.27A26.67,26.67,0,0,0,7.33,36.76Z"/><path class="cls-8" d="M18.83,0a4.68,4.68,0,0,0,1.05,1.37C21.21,3,22.58,4.49,23.94,6a.65.65,0,0,1,.16.49l-5.66,0a.79.79,0,0,0-.22-.48c-1.33-1.53-2.68-3.05-4-4.6A6,6,0,0,1,13.07,0Z"/><path class="cls-9" d="M31.61,6.55a6.33,6.33,0,0,0-1.15-1.48C29.13,3.49,27.76,2,26.39.39A.48.48,0,0,1,26.25,0h5.36c0,.34.24.53.42.74,1.16,1.36,2.36,2.7,3.53,4.05.78.9,1.55,1.82,2.33,2.72a.52.52,0,0,1,.16.44,16,16,0,0,0-2.22-.83A26.1,26.1,0,0,0,31.61,6.55Z"/><path class="cls-10" d="M40.41,49.71c-1.33.15-2.68.18-4,.25-.17,0-.36-.09-.49.09h-.49c0-.47-.38-.68-.63-1-1.2-1.4-2.42-2.77-3.58-4.19-.35-.42-.9-.72-1-1.35A36.59,36.59,0,0,0,35,43.1a11.74,11.74,0,0,0,1.7,2.15c.94,1.13,2,2.19,2.89,3.33C39.91,48.93,40.36,49.18,40.41,49.71Z"/><path class="cls-11" d="M30.25,43.53c.06.63.61.93,1,1.35,1.16,1.42,2.38,2.79,3.58,4.19.25.3.65.51.63,1H30.83a.5.5,0,0,0-.18-.42C29.08,47.83,27.51,46,26,44.22c-.16-.19-.42-.37-.39-.69Z"/><path class="cls-5" d="M6.52,29.82c-.23,0-.36-.12-.49-.27l-2.84-3.3C2.45,25.39,1.72,24.53,1,23.7c-.3-.32-.47-.8-1-.92V19.36c.55,0,.68.55,1,.86.77.81,1.45,1.69,2.18,2.53C4.09,23.84,5,24.91,6,26c.14.16.28.33.52.32C6.51,27.48,6.52,28.65,6.52,29.82Z"/><path class="cls-12" d="M10,.28A9.18,9.18,0,0,1,11.41.1c.14,0,.3.06.4-.1h1.26a6,6,0,0,0,1.16,1.48c1.31,1.55,2.66,3.07,4,4.6a.79.79,0,0,1,.22.48l-3,.29a.8.8,0,0,0-.19-.44c-1.33-1.52-2.67-3-4-4.58A5.93,5.93,0,0,1,10,.28Z"/><path class="cls-11" d="M0,11.05A9.26,9.26,0,0,0,.22,9.77c.18,0,.27.09.39.23.94,1.11,1.9,2.19,2.85,3.29.72.83,1.4,1.69,2.15,2.5.31.34.51.83,1,.93l-.13,2.93c-.5,0-.71-.48-1-.79-1-1.12-2-2.27-2.94-3.41C1.88,14.62,1.17,13.81.48,13A.54.54,0,0,0,0,12.71Z"/><path class="cls-7" d="M15.71,43.23c0,.41.34.57.54.82.69.86,1.43,1.67,2.15,2.5.91,1,1.81,2.07,2.7,3.11a.63.63,0,0,1,.17.39H18.54c-.17-.59-.68-.93-1.05-1.36-1.61-1.93-3.27-3.83-4.91-5.74-.2-.22-.53-.36-.47-.74A14.52,14.52,0,0,0,15.71,43.23Z"/><path class="cls-6" d="M25.57,43.53c0,.32.23.5.39.69,1.55,1.82,3.12,3.61,4.69,5.41a.5.5,0,0,1,.18.42H28.39c-.07-.51-.52-.77-.81-1.12-1.13-1.37-2.35-2.67-3.48-4-.36-.42-.88-.74-1-1.35Z"/><path class="cls-13" d="M25.57,43.53H23.13c-1.09,0-2.17,0-3.26,0a36.18,36.18,0,0,1-4.16-.28,14.52,14.52,0,0,1-3.6-1,9.26,9.26,0,0,1-4.78-5.45,26.67,26.67,0,0,1-.81-6.94c0-1.17,0-2.34,0-3.51,0-1.88,0-3.76,0-5.63a3.24,3.24,0,0,1,0-1c0-1,.09-1.95.13-2.93a14.7,14.7,0,0,1,1.36-5,15.79,15.79,0,0,1,1.39-2,2.62,2.62,0,0,1,.46-.48,17.29,17.29,0,0,1,2.43-1.56c1-.35,2.07-.63,3.13-.88l3-.29,5.66,0,7.51,0a26.1,26.1,0,0,1,4.22.57A16,16,0,0,1,38.05,8a9.92,9.92,0,0,1,4.17,4.38A17,17,0,0,1,43.36,18c.06,1.13,0,2.27.08,3.4v6.06a64.22,64.22,0,0,1-.3,6.94,15.06,15.06,0,0,1-.81,3,11,11,0,0,1-1.69,2.72,10.19,10.19,0,0,1-2.88,2.08A22.14,22.14,0,0,1,35,43.1a36.59,36.59,0,0,1-4.78.43ZM32.78,10a39.23,39.23,0,0,0-5-.11H23c-1.86,0-3.71,0-5.56.13a10.92,10.92,0,0,0-2.84.44,4.65,4.65,0,0,0-3.06,1.94A6.28,6.28,0,0,0,10.5,15a23,23,0,0,0-.54,5.1c-.11,1.43-.11,2.86-.08,4.3,0,1.66-.06,3.32,0,5,0,.74,0,1.47.06,2.19a15.88,15.88,0,0,0,.37,3,3.12,3.12,0,0,0,.2,1,5,5,0,0,0,4,3.88,17.7,17.7,0,0,0,4.58.58c1.47.07,2.93.14,4.4.08l5.07,0a21.89,21.89,0,0,0,3-.05,12.76,12.76,0,0,0,3.31-.45,5.93,5.93,0,0,0,2.83-1.44,2,2,0,0,0,.23-.18,7.36,7.36,0,0,0,1.92-4.91c.14-1.2.15-2.41.18-3.62.1-1.69.14-3.38.11-5.08a48.8,48.8,0,0,0-.14-5.67,18.25,18.25,0,0,0-.66-4,5.73,5.73,0,0,0-3.51-4.13A13.74,13.74,0,0,0,32.78,10Z"/><path class="cls-9" d="M43.44,21.41c0-1.13,0-2.27-.08-3.4a17,17,0,0,0-1.14-5.68c.29,0,.41.23.57.4l2.28,2.65,2.87,3.36,1.54,1.75a.52.52,0,0,0,.46.24v7.62a.46.46,0,0,1-.45-.21c-1-1.15-2-2.28-3-3.42-.71-.82-1.37-1.68-2.1-2.47C44.1,22,43.93,21.49,43.44,21.41Z"/><path class="cls-8" d="M43.14,34.41a64.22,64.22,0,0,0,.3-6.94.5.5,0,0,1,.34.24c.94,1.1,1.87,2.19,2.82,3.28s1.9,2.17,2.83,3.27a.89.89,0,0,0,.5.35,34.23,34.23,0,0,1-.26,6.32c0,.14-.08.28-.11.42-.23,0-.34-.11-.48-.27-.7-.84-1.42-1.67-2.14-2.5s-1.51-1.81-2.31-2.67C44.16,35.39,43.81,34.74,43.14,34.41Z"/><path class="cls-4" d="M49.93,34.61a.89.89,0,0,1-.5-.35c-.93-1.1-1.89-2.17-2.83-3.27s-1.88-2.18-2.82-3.28a.5.5,0,0,0-.34-.24V21.41c.49.08.66.54.94.84.73.79,1.39,1.65,2.1,2.47,1,1.14,2,2.27,3,3.42a.46.46,0,0,0,.45.21C49.93,30.44,49.93,32.52,49.93,34.61Z"/><path class="cls-14" d="M37.76,42.24a10.19,10.19,0,0,0,2.88-2.08,1.06,1.06,0,0,1,.41.34c1.54,1.8,3.07,3.61,4.63,5.4.3.33.5.77.94,1A9.13,9.13,0,0,1,43.34,49a6.15,6.15,0,0,0-1.06-1.32c-1.35-1.6-2.74-3.15-4.1-4.73C38,42.77,37.74,42.58,37.76,42.24Z"/><path class="cls-15" d="M46.62,46.86c-.44-.19-.64-.63-.94-1-1.56-1.79-3.09-3.6-4.63-5.4a1.06,1.06,0,0,0-.41-.34,11,11,0,0,0,1.69-2.72,12.77,12.77,0,0,1,1.87,2c1,1.1,1.89,2.24,2.88,3.33a8.71,8.71,0,0,0,1.41,1.5A8.17,8.17,0,0,1,46.62,46.86Z"/><path class="cls-12" d="M48.49,44.29a8.71,8.71,0,0,1-1.41-1.5c-1-1.09-1.91-2.23-2.88-3.33a12.77,12.77,0,0,0-1.87-2,15.06,15.06,0,0,0,.81-3c.67.33,1,1,1.49,1.5.8.86,1.55,1.78,2.31,2.67s1.44,1.66,2.14,2.5c.14.16.25.3.48.27A9.36,9.36,0,0,1,48.49,44.29Z"/><path class="cls-16" d="M37.76,42.24c0,.34.24.53.42.74,1.36,1.58,2.75,3.13,4.1,4.73A6.15,6.15,0,0,1,43.34,49a7.61,7.61,0,0,1-2.93.68c0-.53-.5-.78-.79-1.13-.93-1.14-1.95-2.2-2.89-3.33A11.74,11.74,0,0,1,35,43.1,22.14,22.14,0,0,0,37.76,42.24Z"/><path class="cls-10" d="M8,11.73a14.7,14.7,0,0,0-1.36,5c-.53-.1-.73-.59-1-.93-.75-.81-1.43-1.67-2.15-2.5-1-1.1-1.91-2.18-2.85-3.29C.49,9.86.4,9.76.22,9.77A10.26,10.26,0,0,1,2,4.88c.71,1,1.57,1.86,2.34,2.79C5.24,8.8,6.2,9.91,7.17,11,7.41,11.3,7.62,11.63,8,11.73Z"/><path class="cls-14" d="M12.29,7.73A17.29,17.29,0,0,0,9.86,9.29a2.62,2.62,0,0,0-.46.48,30.08,30.08,0,0,0-2-2.38C6.7,6.52,6,5.65,5.22,4.82A15,15,0,0,0,3.56,3,7.84,7.84,0,0,1,6.62,1.07c.7.78,1.41,1.56,2.09,2.35,1,1.14,2,2.3,3,3.46A2.26,2.26,0,0,1,12.29,7.73Z"/><path class="cls-15" d="M12.29,7.73a2.26,2.26,0,0,0-.61-.85c-1-1.16-2-2.32-3-3.46C8,2.63,7.32,1.85,6.62,1.07A10.59,10.59,0,0,1,10,.28a5.93,5.93,0,0,0,1.22,1.55c1.3,1.55,2.64,3.06,4,4.58a.8.8,0,0,1,.19.44C14.36,7.1,13.32,7.38,12.29,7.73Z"/><path class="cls-16" d="M3.56,3A15,15,0,0,1,5.22,4.82c.77.83,1.48,1.7,2.2,2.57a30.08,30.08,0,0,1,2,2.38,15.79,15.79,0,0,0-1.39,2c-.39-.1-.6-.43-.84-.71C6.2,9.91,5.24,8.8,4.29,7.67,3.52,6.74,2.66,5.88,2,4.88A8,8,0,0,1,3.56,3Z"/><path class="cls-8" d="M40.2,24.44c0,1.7,0,3.39-.11,5.08-.21,0-.31-.16-.43-.29-.75-.85-1.5-1.69-2.24-2.54S36.07,25,35.35,24.26c-.3-.34-.53-.79-1.05-.88A9.54,9.54,0,0,0,28,16c0-.19-.08-.3-.19-.43-1.29-1.48-2.6-3-3.86-4.47A3.58,3.58,0,0,1,23,9.89h4.78a5.39,5.39,0,0,0,1.11,1.44c.73.89,1.46,1.77,2.25,2.61.45.48.76,1.13,1.42,1.42A2.24,2.24,0,0,0,34,17.22a.46.46,0,0,0,.1.32l2.44,2.84c1,1.12,1.91,2.24,2.88,3.35C39.61,24,39.81,24.34,40.2,24.44Z"/><path class="cls-11" d="M28.59,40.17l-5.07,0a1.17,1.17,0,0,0-.32-.53c-.51-.57-1-1.14-1.5-1.72l-2.81-3.28c-.91-1.06-1.83-2.11-2.74-3.16L13.2,28c-.74-.86-1.45-1.75-2.22-2.57-.34-.36-.51-.94-1.1-1,0-1.44,0-2.87.08-4.3.24,0,.36.21.49.36.62.71,1.23,1.41,1.84,2.13s1.36,1.67,2.11,2.45c.36.39.55,1,1.15,1.11a10.59,10.59,0,0,0,1.22,3.6,9.88,9.88,0,0,0,4.67,4.06A13.35,13.35,0,0,0,24,34.5a.93.93,0,0,0,.26.51c1.18,1.34,2.37,2.67,3.52,4C28.07,39.4,28.51,39.66,28.59,40.17Z"/><path class="cls-6" d="M9.88,24.44c.59.09.76.67,1.1,1,.77.82,1.48,1.71,2.22,2.57l2.95,3.42c.91,1,1.83,2.1,2.74,3.16L21.7,37.9c.49.58,1,1.15,1.5,1.72a1.17,1.17,0,0,1,.32.53c-1.47.06-2.93,0-4.4-.08A2.55,2.55,0,0,0,18.38,39c-.92-1.09-1.87-2.15-2.8-3.22s-2-2.29-2.94-3.43c-.7-.81-1.41-1.61-2.09-2.43a1.43,1.43,0,0,0-.63-.51C9.82,27.76,9.86,26.1,9.88,24.44Z"/><path class="cls-15" d="M39.91,33.14A7.36,7.36,0,0,1,38,38.05a2,2,0,0,1-.23.18c0-.06,0-.14,0-.18l-1.92-2.24C35,34.93,34.3,34,33.52,33.17A19.28,19.28,0,0,0,32,31.46,10.41,10.41,0,0,0,34.26,27c.21,0,.31.17.43.3.7.8,1.41,1.6,2.1,2.4.92,1.06,1.83,2.13,2.74,3.2C39.63,33,39.72,33.14,39.91,33.14Z"/><path class="cls-5" d="M9.92,29.42a1.43,1.43,0,0,1,.63.51c.68.82,1.39,1.62,2.09,2.43,1,1.14,1.95,2.29,2.94,3.43s1.88,2.13,2.8,3.22a2.55,2.55,0,0,1,.74,1.06,17.7,17.7,0,0,1-4.58-.58c-.06-.46-.43-.71-.69-1-.75-.89-1.49-1.8-2.29-2.64-.39-.42-.63-1-1.21-1.22a15.88,15.88,0,0,1-.37-3C9.92,30.89,9.94,30.16,9.92,29.42Z"/><path class="cls-12" d="M23,9.89A3.58,3.58,0,0,0,24,11.12c1.26,1.51,2.57,3,3.86,4.47.11.13.22.24.19.43a9.88,9.88,0,0,0-5.75-.1c-.08-.47-.48-.73-.75-1.05-1.15-1.37-2.36-2.7-3.52-4.06-.19-.23-.51-.42-.51-.79C19.32,9.87,21.17,9.86,23,9.89Z"/><path class="cls-10" d="M15.55,26.19c-.6-.14-.79-.72-1.15-1.11-.75-.78-1.41-1.63-2.11-2.45s-1.22-1.42-1.84-2.13c-.13-.15-.25-.34-.49-.36A23,23,0,0,1,10.5,15a.58.58,0,0,1,.4.25l1.64,1.92c.74.87,1.47,1.76,2.24,2.61a7.93,7.93,0,0,0,1.45,1.5A9.9,9.9,0,0,0,15.55,26.19Z"/><path class="cls-14" d="M11.57,12.4a4.65,4.65,0,0,1,3.06-1.94.49.49,0,0,0,.12.36c.89,1,1.79,2,2.67,3.07s1.72,2,2.58,3l-.38.28a10,10,0,0,0-2.11,1.95c-.78-1.09-1.73-2-2.59-3.08s-1.49-1.79-2.29-2.64C12.3,13.08,12.12,12.55,11.57,12.4Z"/><path class="cls-14" d="M32,31.46a19.28,19.28,0,0,1,1.55,1.71c.78.87,1.51,1.76,2.27,2.64l1.92,2.24s0,.12,0,.18a5.93,5.93,0,0,1-2.83,1.44c0-.21-.11-.33-.23-.46-.32-.34-.64-.69-.94-1.05l-4.13-4.84A13.1,13.1,0,0,0,32,31.46Z"/><path class="cls-4" d="M40.2,24.44c-.39-.1-.59-.44-.83-.71-1-1.11-1.92-2.23-2.88-3.35l-2.44-2.84a.46.46,0,0,1-.1-.32,2.87,2.87,0,0,0,1.2.14A2.33,2.33,0,0,0,37,15.64c.2,0,.31.17.42.3.72.82,1.45,1.64,2.15,2.48a.9.9,0,0,0,.49.35A48.8,48.8,0,0,1,40.2,24.44Z"/><path class="cls-16" d="M11.57,12.4c.55.15.73.68,1.06,1,.8.85,1.54,1.75,2.29,2.64s1.81,2,2.59,3.08a15.26,15.26,0,0,0-1.28,2.17,7.93,7.93,0,0,1-1.45-1.5c-.77-.85-1.5-1.74-2.24-2.61L10.9,15.29a.58.58,0,0,0-.4-.25A6.28,6.28,0,0,1,11.57,12.4Z"/><path class="cls-16" d="M29.63,33.32l4.13,4.84c.3.36.62.71.94,1.05.12.13.26.25.23.46a12.76,12.76,0,0,1-3.31.45.91.91,0,0,0-.28-.55c-1.14-1.31-2.31-2.61-3.42-4-.34-.41-.83-.73-1-1.29A11.88,11.88,0,0,0,29.63,33.32Z"/><path class="cls-12" d="M39.91,33.14c-.19,0-.28-.14-.38-.26-.91-1.07-1.82-2.14-2.74-3.2-.69-.8-1.4-1.6-2.1-2.4-.12-.13-.22-.29-.43-.3a10.13,10.13,0,0,0,0-3.6c.52.09.75.54,1.05.88.72.78,1.38,1.62,2.07,2.43s1.49,1.69,2.24,2.54c.12.13.22.29.43.29C40.06,30.73,40.05,31.94,39.91,33.14Z"/><path class="cls-9" d="M40.06,18.77a.9.9,0,0,1-.49-.35c-.7-.84-1.43-1.66-2.15-2.48-.11-.13-.22-.29-.42-.3a2.53,2.53,0,0,0-.15-1.33,2.35,2.35,0,0,0-2-1.4.73.73,0,0,0-.21-.56,11.91,11.91,0,0,1-.89-1c-.32-.45-.88-.73-.95-1.35a13.74,13.74,0,0,1,3.11.63,5.73,5.73,0,0,1,3.51,4.13A18.25,18.25,0,0,1,40.06,18.77Z"/><path class="cls-15" d="M20,16.92c-.86-1-1.71-2-2.58-3s-1.78-2.05-2.67-3.07a.49.49,0,0,1-.12-.36A10.92,10.92,0,0,1,17.47,10c0,.37.32.56.51.79,1.16,1.36,2.37,2.69,3.52,4.06.27.32.67.58.75,1.05A14.55,14.55,0,0,0,20,16.92Z"/><path class="cls-4" d="M32.78,10c.07.62.63.9.95,1.35a11.91,11.91,0,0,0,.89,1,.73.73,0,0,1,.21.56,2.29,2.29,0,0,0-2.24,2.44c-.66-.29-1-.94-1.42-1.42-.79-.84-1.52-1.72-2.25-2.61a5.39,5.39,0,0,1-1.11-1.44A39.23,39.23,0,0,1,32.78,10Z"/><path class="cls-10" d="M26.93,34.33c.16.56.65.88,1,1.29,1.11,1.34,2.28,2.64,3.42,4a.91.91,0,0,1,.28.55,21.89,21.89,0,0,1-3,.05c-.08-.51-.52-.77-.81-1.12-1.15-1.37-2.34-2.7-3.52-4A.93.93,0,0,1,24,34.5,13.08,13.08,0,0,0,26.93,34.33Z"/><path class="cls-7" d="M10.35,34.61c.58.22.82.8,1.21,1.22.8.84,1.54,1.75,2.29,2.64.26.31.63.56.69,1a5,5,0,0,1-4-3.88A3.12,3.12,0,0,1,10.35,34.61Z"/><path class="cls-13" d="M26.93,34.33A13.08,13.08,0,0,1,24,34.5a13.35,13.35,0,0,1-2.56-.65,9.88,9.88,0,0,1-4.67-4.06,10.59,10.59,0,0,1-1.22-3.6,9.9,9.9,0,0,1,.68-4.87,15.26,15.26,0,0,1,1.28-2.17,10,10,0,0,1,2.11-1.95l.38-.28a14.55,14.55,0,0,1,2.25-1A9.88,9.88,0,0,1,28,16a9.54,9.54,0,0,1,6.3,7.36,10.13,10.13,0,0,1,0,3.6A10.41,10.41,0,0,1,32,31.46a13.1,13.1,0,0,1-2.34,1.86A11.88,11.88,0,0,1,26.93,34.33ZM31,25.22a5.8,5.8,0,0,0-5.37-6.3,5.92,5.92,0,0,0-3.14.42,4.69,4.69,0,0,0-2.34,1.77A6.27,6.27,0,0,0,19,26a5.68,5.68,0,0,0,4.26,5,6.46,6.46,0,0,0,2.73.16,4.35,4.35,0,0,0,2.16-.8c.2,0,.33-.1.47-.2a5.05,5.05,0,0,0,1.69-1.95A5.47,5.47,0,0,0,31,25.22Z"/><path class="cls-13" d="M32.59,15.35a2.29,2.29,0,0,1,2.24-2.44,2.35,2.35,0,0,1,2,1.4A2.53,2.53,0,0,1,37,15.64a2.33,2.33,0,0,1-1.85,1.72,2.87,2.87,0,0,1-1.2-.14A2.24,2.24,0,0,1,32.59,15.35Z"/><path class="cls-16" d="M19,26a6.27,6.27,0,0,1,1.22-4.89c.31.32.63.64.93,1l3.54,4.12c.9,1,1.83,2.06,2.69,3.13.26.32.67.54.77,1a4.35,4.35,0,0,1-2.16.8A6.46,6.46,0,0,1,23.22,31c-.06-.59-.56-.88-.89-1.29-.73-.9-1.48-1.79-2.27-2.64C19.72,26.67,19.52,26.14,19,26Z"/><path class="cls-14" d="M28.11,30.32c-.1-.44-.51-.66-.77-1-.86-1.07-1.79-2.09-2.69-3.13l-3.54-4.12c-.3-.34-.62-.66-.93-1a4.69,4.69,0,0,1,2.34-1.77l2.25,2.6c1.55,1.8,3.08,3.62,4.64,5.4.25.3.44.69.86.83a5.05,5.05,0,0,1-1.69,1.95C28.44,30.22,28.31,30.36,28.11,30.32Z"/><path class="cls-15" d="M30.27,28.17c-.42-.14-.61-.53-.86-.83-1.56-1.78-3.09-3.6-4.64-5.4l-2.25-2.6a5.92,5.92,0,0,1,3.14-.42.54.54,0,0,0,.11.4l2.08,2.37L30.65,25c.11.13.2.26.38.26A5.47,5.47,0,0,1,30.27,28.17Z"/><path class="cls-12" d="M31,25.22c-.18,0-.27-.13-.38-.26l-2.8-3.27-2.08-2.37a.54.54,0,0,1-.11-.4A5.8,5.8,0,0,1,31,25.22Z"/><path class="cls-10" d="M19,26c.56.14.76.67,1.1,1,.79.85,1.54,1.74,2.27,2.64.33.41.83.7.89,1.29A5.68,5.68,0,0,1,19,26Z"/></g></g></svg>