<svg xmlns="http://www.w3.org/2000/svg" viewBox="0 0 50 49.9"><defs><style>.cls-1{fill:#4875b3;}.cls-2{fill:#fdfdfe;}.cls-3{fill:#fcfdfd;}.cls-4{fill:#fdfdfd;}</style></defs><g id="Layer_2" data-name="Layer 2"><g id="Layer_1-2" data-name="Layer 1"><path class="cls-1" d="M0,46.68V3.12c.14-.05.13-.18.16-.28A3.89,3.89,0,0,1,3,.12c.09,0,.2,0,.25-.12H46.68a.83.83,0,0,0,.16.09,3.87,3.87,0,0,1,3,2.84c0,.1,0,.24.13.29V46.68a.87.87,0,0,0-.09.11,4,4,0,0,1-4.3,3.11H3.85A3.94,3.94,0,0,1,.18,47.12C.13,47,.15,46.79,0,46.68ZM26.38,22.83c0-.61,0-1.23,0-1.84,0-.32-.06-.45-.42-.45-1.46,0-2.93,0-4.39,0-.31,0-.42.08-.42.4q0,8.36,0,16.71c0,.35.12.44.45.44,1.5,0,3,0,4.49,0,.43,0,.51-.14.51-.53,0-1.64,0-3.28,0-4.92s-.05-3,.07-4.53c.19-2.29,1.49-3.41,3.71-3.18a2.26,2.26,0,0,1,2,1.63,6.88,6.88,0,0,1,.31,2.3c0,2.91,0,5.81,0,8.72,0,.42.12.52.52.51,1.46,0,2.93,0,4.39,0,.41,0,.56-.08.56-.53,0-3,0-6,0-9.06a17.2,17.2,0,0,0-.37-3.92,5.13,5.13,0,0,0-3.2-4,7.83,7.83,0,0,0-4.18-.37A6.06,6.06,0,0,0,26.38,22.83Zm-8.64,6.52c0-2.78,0-5.55,0-8.33,0-.34-.06-.48-.45-.48-1.53,0-3.06,0-4.58,0-.3,0-.43.05-.43.39q0,8.37,0,16.75c0,.33.11.41.42.41q2.27,0,4.53,0c.42,0,.52-.13.51-.52C17.73,34.83,17.74,32.09,17.74,29.35ZM15,18.14A3.17,3.17,0,1,0,11.82,15,3.16,3.16,0,0,0,15,18.14Z"/><path class="cls-2" d="M26.38,22.83a6.06,6.06,0,0,1,4-2.61,7.83,7.83,0,0,1,4.18.37,5.13,5.13,0,0,1,3.2,4,17.2,17.2,0,0,1,.37,3.92c0,3,0,6,0,9.06,0,.45-.15.54-.56.53-1.46,0-2.93,0-4.39,0-.4,0-.52-.09-.52-.51,0-2.91,0-5.81,0-8.72a6.88,6.88,0,0,0-.31-2.3,2.26,2.26,0,0,0-2-1.63c-2.22-.23-3.52.89-3.71,3.18-.12,1.51-.06,3-.07,4.53s0,3.28,0,4.92c0,.39-.08.54-.51.53-1.49,0-3,0-4.49,0-.33,0-.45-.09-.45-.44q0-8.35,0-16.71c0-.32.11-.41.42-.4,1.46,0,2.93,0,4.39,0,.36,0,.44.13.42.45C26.36,21.6,26.38,22.22,26.38,22.83Z"/><path class="cls-3" d="M17.74,29.35c0,2.74,0,5.48,0,8.23,0,.39-.09.53-.51.52q-2.27,0-4.53,0c-.31,0-.42-.08-.42-.41q0-8.37,0-16.75c0-.34.13-.39.43-.39,1.52,0,3,0,4.58,0,.39,0,.45.14.45.48C17.73,23.8,17.74,26.57,17.74,29.35Z"/><path class="cls-4" d="M15,18.14A3.14,3.14,0,0,1,11.82,15,3.17,3.17,0,1,1,15,18.14Z"/></g></g></svg>