<svg xmlns="http://www.w3.org/2000/svg" viewBox="0 0 50 50.01"><defs><style>.cls-1{fill:#03a8f3;}.cls-2{fill:#fdfefe;}</style></defs><g id="Layer_2" data-name="Layer 2"><g id="Layer_1-2" data-name="Layer 1"><path class="cls-1" d="M0,46.78V3.13c.12,0,.12-.15.14-.24A3.93,3.93,0,0,1,2.89.14c.09,0,.2,0,.23-.14H46.78c0,.1.12.09.19.11a3.93,3.93,0,0,1,3,4V45.93a4.47,4.47,0,0,1-.16,1.21,3.94,3.94,0,0,1-4,2.87H4A3.93,3.93,0,0,1,.16,47.17C.12,47,.15,46.87,0,46.78ZM41,15.07a11.46,11.46,0,0,1-3.34.84,7,7,0,0,0,2.65-3.56,14.53,14.53,0,0,1-3.7,1.5.76.76,0,0,1-.82-.21,6.62,6.62,0,0,0-9.84.88,6.54,6.54,0,0,0-1.23,5c.06.4,0,.49-.41.42s-1-.08-1.5-.16a18.83,18.83,0,0,1-10.83-5.74c-.29-.32-.57-.64-.89-1a6.41,6.41,0,0,0-.88,3.79,6.73,6.73,0,0,0,2.85,5,5.51,5.51,0,0,1-2.52-.59c-.35-.17-.4-.09-.38.26a6.6,6.6,0,0,0,2.4,4.74,7.29,7.29,0,0,0,2.81,1.4,7.35,7.35,0,0,1-2.91.13,6.86,6.86,0,0,0,6.16,4.63,13.85,13.85,0,0,1-9.53,2.81,2,2,0,0,0,.44.31A18.49,18.49,0,0,0,18,38.13a18,18,0,0,0,10.16-2.21c6.51-3.77,9.64-9.56,9.78-17a.9.9,0,0,1,.4-.8,11.29,11.29,0,0,0,2.73-3l.07-.07C41.06,15,41,15.05,41,15.07Z"/><path class="cls-2" d="M41,15.15a11.29,11.29,0,0,1-2.73,3,.9.9,0,0,0-.4.8c-.14,7.46-3.27,13.25-9.78,17A18,18,0,0,1,18,38.13a18.49,18.49,0,0,1-8.46-2.54,2,2,0,0,1-.44-.31,13.85,13.85,0,0,0,9.53-2.81,6.86,6.86,0,0,1-6.16-4.63,7.35,7.35,0,0,0,2.91-.13,7.29,7.29,0,0,1-2.81-1.4,6.6,6.6,0,0,1-2.4-4.74c0-.35,0-.43.38-.26A5.51,5.51,0,0,0,13,21.9a6.73,6.73,0,0,1-2.85-5,6.41,6.41,0,0,1,.88-3.79c.32.34.6.66.89,1A18.83,18.83,0,0,0,22.77,19.8c.49.08,1,.08,1.5.16s.47,0,.41-.42a6.54,6.54,0,0,1,1.23-5,6.62,6.62,0,0,1,9.84-.88.76.76,0,0,0,.82.21,14.53,14.53,0,0,0,3.7-1.5,7,7,0,0,1-2.65,3.56A11.46,11.46,0,0,0,41,15.07Z"/><path class="cls-2" d="M41,15.07s.1-.05.13,0l-.07.07Z"/></g></g></svg>