<svg xmlns="http://www.w3.org/2000/svg" viewBox="0 0 50 50"><defs><style>.cls-1{fill:#f9f9f9;}.cls-2{fill:#f34336;}.cls-3{fill:#f6756c;}</style></defs><g id="Layer_2" data-name="Layer 2"><g id="Layer_1-2" data-name="Layer 1"><rect class="cls-1" width="50" height="50" rx="8.13"/><path class="cls-2" d="M43.81,22.13v.66a4,4,0,0,0,0,1.62v3.46c-.09,0-.06.12-.07.19,0,.92-.11,1.84-.22,2.75a13.16,13.16,0,0,1-1.23,4.51,4,4,0,0,1-3.19,2.3c-.93.11-1.85.16-2.78.19-6.23.17-12.46.17-18.7.09-2.1,0-4.21,0-6.31-.23A4,4,0,0,1,8.12,36,8.39,8.39,0,0,1,7,33.52a23,23,0,0,1-.72-4.94,55.33,55.33,0,0,1,.2-9.37,13.1,13.1,0,0,1,1.23-4.55,3.88,3.88,0,0,1,2.84-2.22,15.41,15.41,0,0,1,1.68-.18c2.45-.14,4.91-.16,7.38-.18,6.06-.05,12.12-.08,18.17.18a6.47,6.47,0,0,1,2.75.55,4.64,4.64,0,0,1,2.1,2.64,17.92,17.92,0,0,1,1,5.28A6.58,6.58,0,0,0,43.81,22.13ZM32.06,25,20.32,17.94V32.06Z"/><path class="cls-3" d="M43.81,24.41a4,4,0,0,1,0-1.62Z"/><path class="cls-1" d="M32.06,25,20.32,32.06V17.94Z"/></g></g></svg>