<svg xmlns="http://www.w3.org/2000/svg" viewBox="0 0 500 500"><defs><style>.cls-1{fill:#fefefe;}.cls-2{fill:#e7eefc;}.cls-3{fill:#e4eafc;}.cls-4{fill:#e0e7fb;}.cls-5{fill:#becffa;}.cls-6{fill:#110870;}.cls-7{fill:#92b2f7;}.cls-8{fill:#4748ea;}.cls-9{fill:#180c87;}.cls-10{fill:#6355cb;}.cls-11{fill:#f5a6af;}.cls-12{fill:#4a4bf1;}.cls-13{fill:#4b4df4;}.cls-14{fill:#f4888d;}.cls-15{fill:#e5615f;}.cls-16{fill:#fc7b71;}</style></defs><g id="Layer_2" data-name="Layer 2"><g id="Layer_1-2" data-name="Layer 1"><path class="cls-1" d="M.07,250Q.07,126.67,0,3.33C0,.71.37,0,3.21,0Q249.9.15,496.59,0c3,0,3.41.78,3.41,3.53Q499.9,250,500,496.47c0,2.73-.38,3.53-3.41,3.53q-246.48-.15-493,0C.51,500,0,499.18,0,496.27Q.14,373.14.07,250ZM385,390.6l1.19-1.23c4.37-4.56,4.07-10.34,4.15-16l-.32-1.17-.45-4.58,1-2.64a3,3,0,0,0,2.41-1.21c5.67-6.6,11-13.44,15.14-21.14,7.64,0,15.27,0,22.9,0,1.32,0,3.07.63,3.47-1.56,3,.12,2.45-2,2.45-3.81q0-25.22,0-50.42c0-1.86,0-3.71-1.2-5.28l-2-2.13c0-.75,0-1.5,0-2.24a6.56,6.56,0,0,0,1.58-3.94,240.5,240.5,0,0,0,3.19-42.37c-.5-1.5-.17-3.47-2.34-4,.94-2.25.84-4.61.84-7,0-17.33,0-34.66,0-52,0-1.49.7-3.2-.81-4.45-4.75-1.11-9.58-.16-14.35-.53.21-4.85-2.83-8.42-4.9-12.36-.92-1.76-2.53-3.34.13-5a1.37,1.37,0,0,0,.51-1.76.89.89,0,0,0-1.32-.4c-2.77,1.31-3.78-.76-5-2.54-1.82-2.76-3.65-5.5-5.48-8.25a4.94,4.94,0,0,1,3.48.54c2.91,1.75,4.58.08,6.3-2s2.71-3.85.71-6.58c-2.23-3,.14-10.89,3.77-12.15,4.2-1.46,3.17-4.47,3.29-7.42s-2-3.2-4.12-3.75c-3.78-1-7.27-8.09-5.92-11.73.67-1.8,2-3.71-.56-5.18-2.36-1.37-3.83-4.87-7.72-2.14-3.59,2.53-11.31.08-12.66-4s-4.06-2.89-6.71-3c-3-.13-3.71,1.74-4.3,4.13-1,3.87-7.78,7.45-11.58,6-2.61-1-4.54-1-6.06,1.69a13.63,13.63,0,0,1-2.5,2.54c-2.62.25-4.06-1.84-5.74-3.17s.43-2.58.66-3.91c.13-.77.41-1.71-.46-2.12s-1.66.36-1.9,1c-1.3,3.55-3.23,2.38-5.75,1.28-7-3.06-13.74-6.73-21-9.23-8.59-3-17.3-5.38-26.16-7.49a151.72,151.72,0,0,0-30.48-4.26,251.56,251.56,0,0,0-27,.48,170.67,170.67,0,0,0-25,3.91,189.28,189.28,0,0,0-46.77,17c-9.93,5.25-19.63,10.84-28.51,17.77-1.35-3.29-2.68-6.59-4.08-9.86-.61-1.41-1-3.23-3.08-3.1s-1.92,2-2.26,3.29a177.5,177.5,0,0,1-9,26.25A5.88,5.88,0,0,0,121,119.7c-1.45,1.63-2.59,3.79-5.12,4.13-2.69-9-5.94-17.82-11-25.87-6.2-10-13.28-19.16-22.6-26.45-.86-.66-1.65-1.46-2.82-.82s-1,1.62-.83,2.76c1.37,10.47.6,21-.67,31.31-1.84,15.11-2.88,30.25-3.57,45.43a166.07,166.07,0,0,0,.61,21c.55,6.86,1.48,13.65,2.4,20.45-1.3.12-1.74,1.13-2.06,2.13-3.53,10.72-5.61,21.8-8.16,32.76a5.29,5.29,0,0,0,.91,3.76c-1.54,4.48-4.39,8.41-5.06,13.26-1.35,9.74,1.37,18.82,4.15,27.92-3.31,1.55-1.69,4.52-1.5,6.65a220.58,220.58,0,0,0,7,38.1,181.12,181.12,0,0,0,24.09,52.84c7.7,11.66,16.62,22.67,27.87,31.34,3.41,2.63,6.28,6.05,10.45,7.65,1.37,3.33.38,7.21,2.43,10.38.12,2.35.25,4.7.37,7.05a13.57,13.57,0,0,0-1.22,5.09l-.17.23.13.26c0,1.18,0,2.36,0,3.54-.19.87-.3,1.71.74,2.15l.75.58c5.39,2,10.84,1,16.2.07,2.11-.35,1.8-2.21.65-3.7-2-5-6-8.12-10.27-11.08a12.69,12.69,0,0,1-1.66-4.82c1.22-.46.6-1.9,1.39-2.58l17,8.32c1.93.95,4.59,1,4.91,3.93l-.15,3.09c-.06.06-.17.13-.16.19a2.66,2.66,0,0,0,.11.47c-.3,1.33-.91,2.65-.07,4-.37,2,.91,2.06,2.37,2,7.37-.09,14.73-.18,22.1-.18,3.16,0,2.88-1.36,1.55-3.33l19.62,3.05c3.48,0,6.85,1.3,10.37.8,2.47-.36,4.78.66,7.2.77,7.8.58,15.47-1,23.22-1.45,8.45-.51,16.71-2.18,25-3.9A204.4,204.4,0,0,0,321,418.47a2.52,2.52,0,0,0,2.43,2.6c-.37,1.71,1.69,3.7-.6,5.18-1.13.38-2.27.73-3.38,1.17-4.43,1.74-8.89,3.46-12.53,6.67-.89.79-2,1.73-1.64,3s1.85.69,2.82.71c5.82.12,11.65.34,17.46.16,9.54-.3,10.38-1.89,6.12-10.64-.11-.24-.23-.47-.35-.71l0-5.62c2.3-2.91.62-6.53,1.73-9.65.24,0,.48,0,.72,0a55.38,55.38,0,0,0,18.4-11.16c2.29-1.23,4.35-3.11,7.27-2.48l5.54-.23c2.1,2.58,2.67,5.89,4.19,8.74,1.62,3,1.88,6.77,4.63,9.24a8.53,8.53,0,0,1,2.11,5.1c-.7,6,1.64,11.2,5,15.8,2,2.68,5.28,1.93,8.17,1.17,1.5-.39,3.1-1.39,2.71-3-1.48-6-2.4-12.32-8.44-15.89-.43-1.59-1.14-3.12-.95-4.83,1.6-.9,1-2.26.64-3.46-1.39-4.76-2.85-9.5-4.28-14.25.64-2.56,3.72-2.37,4.9-4.33ZM388,64c-1.07.14-2.9,0-2.53,1.55s2.46,1.09,3.77,1.47A1.35,1.35,0,0,0,391,65.39C390.67,63.85,389.26,64,388,64Zm46.45,39.17c-.41-1.21-.14-3.08-1.9-3.63-.65-.21-1.45,1-1.13,1.69.6,1.35-.09,3.44,1.72,4C434.4,105.59,434.36,104.23,434.46,103.13Zm-4.1,26.14c-.12-1-.56-1.45-1.32-1.27-2.15.52-1.85,2.6-2.42,4.1-.19.49.34,1.2.85,1C429.11,132.29,429.63,130.6,430.36,129.27Zm-5.65,8.28c.11-.84-.17-1.67-.92-1.36a6.26,6.26,0,0,0-3.3,3.26c-.37.81.46,1.11,1.16,1.11C423.71,140.57,424.11,138.9,424.71,137.55Zm9.78-25.61c-.33-1,.64-2.79-1.11-2.78-1.41,0-1.33,1.68-1.29,2.85s-.1,2.74,1.52,2.58C435,114.46,434.21,112.88,434.49,111.94ZM372.72,69.22c-3-.7-4.49-.09-5.7,1.45a1,1,0,0,0,.23,1C369.43,72.56,370.44,70.75,372.72,69.22Zm26.1-1.84c.78.19,1.94.73,1.85-.53-.15-2.1-2.36-1.09-3.5-1.84a1,1,0,0,0-1.63,1C395.9,67.89,397.81,66.76,398.82,67.38Zm32.55,56.93c1.95-.47,1.24-2.31,1.79-3.49.28-.59.43-1.51-.44-1.52-2.07,0-1.59,2-2.11,3.13A1.24,1.24,0,0,0,431.37,124.31ZM375,67.56c2.45.35,4,1,5.43-.56.17-.19.12-.92,0-1C378.64,65.09,377.14,65.63,375,67.56Zm-15,9.89A5.29,5.29,0,0,0,363.18,75a.79.79,0,0,0-1-1.12,4.4,4.4,0,0,0-3.25,2.61C358.73,77,359.24,77.39,360,77.45Z"/><path class="cls-2" d="M143,100.84c8.88-6.93,18.58-12.52,28.51-17.77a189.28,189.28,0,0,1,46.77-17,170.67,170.67,0,0,1,25-3.91,251.56,251.56,0,0,1,27-.48A151.72,151.72,0,0,1,300.76,66c8.86,2.11,17.57,4.53,26.16,7.49,7.27,2.5,14,6.17,21,9.23,2.52,1.1,4.45,2.27,5.75-1.28.24-.65,1-1.44,1.9-1s.59,1.35.46,2.12c-.23,1.33-2.21,2.68-.66,3.91s3.12,3.42,5.74,3.17a8.71,8.71,0,0,0,.33,2.31c3,6.92,1.92,11-4.19,15.18-1.17.79-2.15,1.55-1.86,3.15-7.54,2.3-14.07,6-18.49,12.83-1.49.6-1.23,2.24-2,3.29-1.74,2.56-3.86,4.35-7.24,3.24-1.43-.47-2.78-.89-3.83.74s-2.12,2.76-.86,4.93c1.47,2.52,0,6.64-2.62,8.09-1.49.84-2.88,1.59-2.35,3.58.46,1.7.49,3.57,3,4.12,3.42.77,4.51,4.21,4.17,6.72a12.12,12.12,0,0,0,.54,5.79q-17.94,0-35.87.09c-1.58,0-3.69-.68-3.62,2.22.23,9.14-.49,18.3.39,27.43a15.24,15.24,0,0,1-2.13,6.89l-.3-1.3c0-11,0-22,.18-33,.05-2.8-.8-3.57-3.57-3.55-15.25.13-30.51.05-45.76.09a16,16,0,0,1-6.61-1.08l0,0-1.43-1-.09.19.13-.17-.73-.81,0,0a1.65,1.65,0,0,0-.89-1.47l-.21.2.22-.18a14.16,14.16,0,0,1,.81-8.41v-.05a4.37,4.37,0,0,0,1.58-3.18l0,0a30.46,30.46,0,0,0,4.28-17c-.11-3.23-.53-6.62-3.38-9h-.05a1.5,1.5,0,0,0-1.06-1.4l0,0A1.52,1.52,0,0,0,226.3,118v-.06a2.08,2.08,0,0,0-1.8-1.33l0,0c-11.07-6.35-22.35-6-33.78-1l-.05,0a2.56,2.56,0,0,0-2.26,1l0,0-1,.66,0,0a2.74,2.74,0,0,0-2.35,1.65l0,0-.84.78,0,.2-.06-.19-.77.82h-.05c-2.75,2.33-2.86,5.61-2.75,8.73a46.83,46.83,0,0,0,6.14,21.11l0,0a11.85,11.85,0,0,1,0,8.67l.07-.06-.79.93-.71.76-.9.8.05-.05-1,.68,0-.06c-2.25.16-4.5.47-6.75.47-17.82,0-35.64.09-53.45-.06-3.17,0-4,.87-4,4,.15,17.82.05,35.64.09,53.46a15.37,15.37,0,0,1-1.27,7l-.78.83-.82.76c-2.75,1.58-5.67,1.42-8.62.8l-.78-.81a3.92,3.92,0,0,0-2.36-1.64l-1.43-1-1-.61-3.08-1.72-1.61-.79-1.64-.76c-4.89-2.47-9.85-3.51-15-.77l-.3,0A1.83,1.83,0,0,0,79,222l0,0a1.7,1.7,0,0,0-1.63.85l0,0-.95.71,0-.06a1.71,1.71,0,0,0-1.51,1l0,0-.91.79.06-.06-.89.83,0-.06-.86.84,0-.07a2.58,2.58,0,0,0-1.63,1.58c-1,.58-1.44,2-2.79,2.09a5.29,5.29,0,0,1-.91-3.76c2.55-11,4.63-22,8.16-32.76.32-1,.76-2,2.06-2.13C78.8,197.3,80,203,81.6,208.54c.87,3,1.05,7.34,3.83,8.22A41.8,41.8,0,0,0,96,218.91c1.51.68,2.89,1.75,4.68,1.55,1.66,2.83,4.86,3.67,7.2,5.63.58.89,1.5.75,2.36.77,4.16,1.41,7.24-1,7.25-5.7,0-13.54,0-27.08,0-40.62l-.15-6.5c.07-3.14.34-6.3.14-9.42-.2-3,.66-4.52,3.82-4.22l1,.12,23.51.06c1.83,0,3.36-.06,3.66-2.53,1.15-9.67.61-19.26-.48-28.91S145.18,110.23,143,100.84Zm202.46,2.09c2-1.06,2.15-2.62,1.86-4.35-.1-.61-.66-1-1.15-.61C344.39,99.25,345,101,345.42,102.93Zm-.29,10.31c1.88-2,1.7-3.55-.25-5.24A4.81,4.81,0,0,0,345.13,113.24Zm3.41-19.88c1.63-.11,1.28-1.7,1.78-2.61.37-.68.36-1.79-.75-1.65-1.45.18-1.27,1.76-1.71,2.78C347.58,92.52,347.6,93.14,348.54,93.36Z"/><path class="cls-3" d="M211.68,436.82l-19.62-3.05c-2.59-2.4-4.94-5.11-8.34-6.47-3-1.7-5.95-3.41-9.45-3.81,1-2.09-.14-4.05-.33-6.07,1.79-1,1.87-2.62,1.68-4.46q-2.62-25.18-5.16-50.38c-.76-7.36-1.56-14.72-2.34-22.08l1.19-.16c3.26,0,6.6,1,9.72-.8v.08a1.57,1.57,0,0,0,1.6-.91l0,0,.91-.79-.05.05.81-.9,0,.05c3.09-3.53,2.4-7.05,0-10.57l0,.05a1.76,1.76,0,0,0-.76-1.7l.05,0a6.9,6.9,0,0,0-1.68-4l.05,0c0-.66-.06-1.31-.75-1.67h0a21.09,21.09,0,0,0-2.5-7.51l0-.3c-.33-2.22-.44-4.51-1.75-6.47l0,0,.24-9.44-.23-.18.22.19a1.82,1.82,0,0,0,.65-1.71l0,.07c.33-.55.66-1.09,1-1.63,1.58-1.64,3.25-3.18,5.63-3.52,14.73-2.1,29.27-1.64,42.94,4.83,11,5.19,12.11,12.22,4,21.28-3.44,3.87-7.24,7.44-10.49,11.46s-2.93,7.51.29,11.48l1.18.83h-.06a1.56,1.56,0,0,0,1.61.89v-.08c.88,1.09,2.15.92,3.31.92,18.74,0,37.47,0,56.2.08,2.76,0,2.9-1.29,2.89-3.41,0-18.73,0-37.46,0-56.2,0-1.69.2-3.5-1.45-4.71h0l-.76-.9-.08.22.1-.22-.9-.76v0c-2.49-2.23-4.94-1.92-7.37.1l0,0-1,.68,0-.07a1.64,1.64,0,0,0-1.57.9l0,0a1.78,1.78,0,0,0-1.63.85l.05,0a1.75,1.75,0,0,0-1.63.87l.05,0a1.79,1.79,0,0,0-1.66.82l0-.05c-.66.05-1.3.15-1.63.84l0,0a1.72,1.72,0,0,0-1.67.77l0,0a2.8,2.8,0,0,0-2.37,1l0-.05c-7.05,2.22-14.12,3.94-21.36.71l0,0a1.67,1.67,0,0,0-1.6-.85l0,.06-.92-.74,0,.05-.93-.73h0l-1.49-1,.06.06-.87-.82,0,.05-.86-.83,0,.05-.85-.85.06.05-.84-.87.06.05-.81-.88.07,0a1.76,1.76,0,0,0-1-1.49l0,0-.76-.92.08.06a1.85,1.85,0,0,0-.93-1.58l0,0-.71-1,.08.05a1.74,1.74,0,0,0-.89-1.6l0,0a1.81,1.81,0,0,0-.8-1.66l.05,0c-.1-.48-.21-1-.31-1.44l1.52-1.52a6,6,0,0,0,1.61,3.28l0,0a1.73,1.73,0,0,0,.88,1.6l0-.05a1.75,1.75,0,0,0,.89,1.6l0,0,.72.93-.05,0a1.76,1.76,0,0,0,1,1.5l0,0,.78.89,0-.05.79.9-.05,0,.85.84,0,0,.84.84,0,0,.87.81,0,0,.88.79,0,0a3.33,3.33,0,0,0,2.4,1.64v0a6.18,6.18,0,0,0,4.06,1.84l.32-.09c5.6,2.69,10.69.51,15.78-1.66V279a6.57,6.57,0,0,0,4-1.68l0,.05a1.77,1.77,0,0,0,1.65-.82l0,0a1.82,1.82,0,0,0,1.65-.82l0,0a1.71,1.71,0,0,0,1.6-.87l0,0a1.73,1.73,0,0,0,1.64-.84l0,0a1.81,1.81,0,0,0,1.6-.89l0,0,1-.66v0a13.9,13.9,0,0,1,8.51-1l-.06,0,1.62,1,.74.56.91.9.57.74,1,1.62,0-.06c.1,2.13.27,4.25.27,6.37,0,18.1.08,36.2-.05,54.3,0,2.9.61,4,3.72,3.86,5-.25,10.11-.05,15.16-.05.46,1.23.93,2.45,1.39,3.67l1.18,2.88c-2,0-4,0-5-2.38a1.32,1.32,0,0,0-1.68-.73c-4.31,1.32-8.72.41-13.07.74-1.84.13-3.5.66-3.39,3,.07,1.61-.72,2.53-1.91,3.62-2.89,2.64-5.51,5.57-8.14,8.48-4.48,4.95-7.56,11-12.43,15.66-8.37,8-15.65,16.9-23.18,25.64-6.17,7.17-11.9,15.15-19.88,20.74a3,3,0,0,0-1.53,2.66c.1,1.67-1,2.45-2,3.56C213.12,430.7,209.29,432.52,211.68,436.82Z"/><path class="cls-4" d="M211.68,436.82c-2.39-4.3,1.44-6.12,3.59-8.4,1-1.11,2.12-1.89,2-3.56a3,3,0,0,1,1.53-2.66c8-5.59,13.71-13.57,19.88-20.74,7.53-8.74,14.81-17.66,23.18-25.64,4.87-4.64,7.95-10.71,12.43-15.66,2.63-2.91,5.25-5.84,8.14-8.48,1.19-1.09,2-2,1.91-3.62-.11-2.35,1.55-2.88,3.39-3,4.35-.33,8.76.58,13.07-.74a1.32,1.32,0,0,1,1.68.73c.93,2.36,2.93,2.39,5,2.38h0c-.14,2.46,1.16,3.39,3.43,3.16a3.72,3.72,0,0,1,4.27,4c-.21,2.12.84,4.15,0,6.21-1,2.54.36,3.67,2.62,4.21l.12,1.58c-1,2.27-2.13,4.55.69,6.41l.16,2.36c-1.9,1.82-.43,3.28.53,4.8A327.42,327.42,0,0,1,321,418.47,204.4,204.4,0,0,1,277.48,433c-8.3,1.72-16.56,3.39-25,3.9-7.75.47-15.42,2-23.22,1.45-1.93-3.94-4.25-4.19-7.2-.77C218.53,438.12,215.16,436.79,211.68,436.82Z"/><path class="cls-2" d="M135.11,408.08c-4.17-1.6-7-5-10.45-7.65-11.25-8.67-20.17-19.68-27.87-31.34A181.12,181.12,0,0,1,72.7,316.25a220.58,220.58,0,0,1-7-38.1c-.19-2.13-1.81-5.1,1.5-6.65l0,0,.65.84A1.46,1.46,0,0,1,68,273c-.06,1.28,0,2.51,1.76,2.45l2.59,2L74,279.13l.9.68.92.67c5.37,3.81,11.07,3.91,17,1.54l0,0c1.78,0,3.51-.19,4.77-1.69l0,0c.89,0,1.85.11,2.45-.81l0,0,1-.63,0,.07a3.46,3.46,0,0,0,3.07-1.89,14.11,14.11,0,0,0,2.52-1c5.85-3.64,10.51-2.12,13,4.28l.12,51.61c0,8.65,0,8.65,8.87,8.35.73,8.57,1.36,17.15,2.22,25.71C132.09,380.14,133.63,394.1,135.11,408.08Z"/><path class="cls-5" d="M96,218.91a41.8,41.8,0,0,1-10.55-2.15c-2.78-.88-3-5.27-3.83-8.22C80,203,78.8,197.3,77.43,191.67c-.92-6.8-1.85-13.59-2.4-20.45a166.07,166.07,0,0,1-.61-21c.69-15.18,1.73-30.32,3.57-45.43,1.27-10.35,2-20.84.67-31.31-.16-1.14-.31-2.13.83-2.76s2,.16,2.82.82C91.63,78.8,98.71,88,104.91,98c5,8.05,8.27,16.84,11,25.87a30,30,0,0,0,2.35,8.76c-5.57,13.5-14,25.83-16.84,40.47-.15.77-.75,1-1.43,1.15-.86-27-3.09-53.82-11-79.85A106.68,106.68,0,0,0,90.63,106c3,15.87,5.13,31.86,5.19,48,.05,13,.66,26-.61,39C94.37,201.66,95.46,210.3,96,218.91Z"/><path class="cls-6" d="M135.11,408.08c-1.48-14-3-27.94-4.41-41.92-.86-8.56-1.49-17.14-2.22-25.71,0-.35,0-.69,0-1,0-.53,0-1.06,0-1.6.12-2.13.41-4.28-.48-6.34l0-2.46q-.06-4.38-.13-8.76l.11-9.6.17-1.45c.95-1.47.42-3.17.73-4.74a50.48,50.48,0,0,0,34.16-.16q.54,2.71,1.07,5.44,2.05,15.38,4.1,30.75c.78,7.36,1.58,14.72,2.34,22.08q2.58,25.2,5.16,50.38c.19,1.84.11,3.44-1.68,4.46l-6.18.66c-2.1-.54-2.2-2.26-2.59-4q-7.86-35.37-15.85-70.71c-.31-1.38-.45-2.91-2.36-3.55-2.44,7.35-1.6,15-2.13,22.49s-.29,14.84-.42,22.27c-.19,10.23-1,20.45,0,30.68-.79.68-.17,2.12-1.39,2.58-2-.82-3.61.94-5.51.63C135.49,415.29,136.48,411.41,135.11,408.08Z"/><path class="cls-4" d="M438.42,230.84a240.5,240.5,0,0,1-3.19,42.37,6.56,6.56,0,0,1-1.58,3.94c-2.53-.11-5.28-.41-7.38,1.07-4.72,3.33-10.22,4.3-15.59,5.58-7.4,1.76-14.05.25-19-6a49.07,49.07,0,0,1-4.65-7.65c-2.9-5.55-3.9-11.65-4.93-17.75-1.53-9.09.9-16.88,7-23.68,1.47-1.64,4.08-1.15,5.12-2.68,2.58-3.77,6.34-3.73,10.17-4.05,6.58-.55,11.51,3.46,17.08,5.78,4.64,1.93,8.94,6.14,14.62,2.52C436.61,230,437.65,230.65,438.42,230.84Z"/><path class="cls-7" d="M355.4,110.22c-.29-1.6.69-2.36,1.86-3.15,6.11-4.15,7.19-8.26,4.19-15.18a8.71,8.71,0,0,1-.33-2.31,13.63,13.63,0,0,0,2.5-2.54c1.52-2.66,3.45-2.7,6.06-1.69,3.8,1.45,10.62-2.13,11.58-6,.59-2.39,1.32-4.26,4.3-4.13,2.65.12,5.4-.9,6.71,3s9.07,6.49,12.66,4c3.89-2.73,5.36.77,7.72,2.14,2.54,1.47,1.23,3.38.56,5.18-1.35,3.64,2.14,10.73,5.92,11.73,2.09.55,4.25.67,4.12,3.75s.91,6-3.29,7.42c-3.63,1.26-6,9.11-3.77,12.15,2,2.73,1,4.48-.71,6.58s-3.39,3.77-6.3,2a4.94,4.94,0,0,0-3.48-.54c-2.8,2.13-7.62,1.84-8.3,6.44-.5,3.44-2.37,4.32-5.44,4-1.58-.17-3.17-.13-4.75-.19a3.4,3.4,0,0,0-1.29-3.3,1,1,0,0,0-.12-.59c-.71-3.36-3.51-2.06-5.53-2.49l0,0-1.57-.79a2.9,2.9,0,0,0-4-.09c-3.05,2.84-5.24,1.18-7.89-.78s-2.12-4-1-6.48c1-2.32-2.45-10.42-4.86-10.63C355.84,117.24,355.45,114,355.4,110.22Zm47.12-14.33.8.8a1.47,1.47,0,0,0,1.6,1.6c2.54,6.57,3.47,13.2.8,20l-.8.8a2.48,2.48,0,0,0-1.6,2.4l-.8.8c-4.65,3.18-9.7,5.31-15.53,5.21,5.2,2.25,13.07-.59,15.52-5.23l.8-.8c1.6-.08,1.62-1.22,1.59-2.39l.8-.8c4.57-4.81,4.17-14.72-.79-20a1.47,1.47,0,0,0-1.6-1.59l-.8-.8-.8-.8c-.26-1.87-1.74-2.12-3.19-2.4-3.46-3.85-14.62-4.1-19.21.81,6.33-3.33,12.75-2.94,19.22-.82a3.87,3.87,0,0,0,3.19,2.4ZM377,95.09l.19-.33-.18.35-.8.8c-1.59.09-1.62,1.23-1.59,2.4-2.26.45-2.29,2.24-2.4,4-3.07,3.75-2.71,10.82.8,16l.8.8c.2.27-.36,1.07.57.84-.19-.28-.39-.55-.59-.83l-.8-.8c-.77-5.3-2.51-10.55-.79-16,1-1.18,2.18-2.31,2.39-4a2.47,2.47,0,0,0,1.6-2.4Zm20,14a7.59,7.59,0,1,0-15.17,0,7.28,7.28,0,0,0,7.45,7.52C393.92,116.7,396.93,113.76,396.93,109.13Z"/><path class="cls-7" d="M100,174.21c.68-.14,1.28-.38,1.43-1.15,2.85-14.64,11.27-27,16.84-40.47a100.11,100.11,0,0,0,6.32-15.17,177.5,177.5,0,0,0,9-26.25c.34-1.27.23-3.17,2.26-3.29s2.47,1.69,3.08,3.1c1.4,3.27,2.73,6.57,4.08,9.86,2.22,9.39,4.92,18.65,6,28.3s1.63,19.24.48,28.91c-.3,2.47-1.83,2.54-3.66,2.53q-11.76,0-23.51-.05c1.78-10.08,6.4-19.28,10-29.88a6.81,6.81,0,0,0-3.56,4.34c-2.24,5.78-4.46,11.57-6.43,17.44-.85,2.52-2.4,5.1-1,8-3.16-.3-4,1.25-3.82,4.22.2,3.12-.07,6.28-.14,9.42-.4.3-1.1.54-1.18.91-2.59,11.54-4.41,23.2-5.88,34.93-.68,5.42-.74,10.93-2.37,16.21-2.34-2-5.54-2.8-7.19-5.63-.71-8.43-2.87-16.74-2.34-25.27C98.77,188.19,99.4,181.2,100,174.21Z"/><path class="cls-6" d="M373.86,415.41c-2.75-2.47-3-6.2-4.63-9.24-1.52-2.85-2.09-6.16-4.19-8.74-2.13-7.42-5.76-14.22-8.83-21.24-4.52-10.32-9.23-20.54-13.85-30.81,6.16-1.28,12.53-1.17,18.64-2.78l1.83,1.07a3.35,3.35,0,0,0,.64,2.92l.81,2.41a7.79,7.79,0,0,0,1.45,4c.19.56.39,1.11.58,1.67a2.27,2.27,0,0,0,.2.72,40.9,40.9,0,0,0,2.34,6.69l.19,1.29.63,1.14.14,1.24a6,6,0,0,0,1.43,3.56c1.48,8.1,4.74,15.68,6.88,23.59.24,1.06.48,2.12.73,3.18,1.43,4.75,2.89,9.49,4.28,14.25.35,1.2,1,2.56-.64,3.46C379.61,414.3,376.88,415.65,373.86,415.41Z"/><path class="cls-4" d="M144.44,415.25c-1-10.23-.22-20.45,0-30.68.13-7.43-.1-14.91.42-22.27s-.31-15.14,2.13-22.49c1.91.64,2,2.17,2.36,3.55q8,35.36,15.85,70.71c.39,1.75.49,3.47,2.59,4,0,1.8.05,3.59.07,5.39l-1.52,4c-.32-2.94-3-3-4.91-3.93Z"/><path class="cls-6" d="M321,418.47a327.42,327.42,0,0,0-1.73-38.35,10.85,10.85,0,0,0-.53-4.8l-.16-2.36c0-2.17.17-4.34-.69-6.41L317.8,365l-1.6-16a65.08,65.08,0,0,1,17.06-2.24c.16,3.67.33,7.35.49,11q0,13.38,0,26.76c-.11,1-.23,2-.35,3a14.8,14.8,0,0,0-.1,6.11q-.1,8.82-.2,17.66c-1.11,3.12.57,6.74-1.73,9.65a27.3,27.3,0,0,1-7.92.13A2.52,2.52,0,0,1,321,418.47Z"/><path class="cls-8" d="M333.76,384.52q0-13.38,0-26.76c1.74-3.61,3.5-7.21,3.26-11.39,1.77-.38,3.44-1.31,5.35-1,4.62,10.27,9.33,20.49,13.85,30.81,3.07,7,6.7,13.82,8.83,21.24l-5.54.23c-1.42-.25-2.84-.47-4.25-.76C346.71,395.17,337.84,394,333.76,384.52Z"/><path class="cls-3" d="M387.21,142.87c1.58.06,3.17,0,4.75.19,3.07.32,4.94-.56,5.44-4,.68-4.6,5.5-4.31,8.3-6.44,1.83,2.75,3.66,5.49,5.48,8.25,1.18,1.78,2.19,3.85,5,2.54a.89.89,0,0,1,1.32.4,1.37,1.37,0,0,1-.51,1.76c-2.66,1.64-1.05,3.22-.13,5,2.07,3.94,5.11,7.51,4.9,12.36H401.65a2.65,2.65,0,0,0-3.86,0h-2.53c-1.32-1.33-3.19-.82-4.77-1.35-3.7-1.24-5.82-3.34-5.5-7.42a7.25,7.25,0,0,1,1.14.26c1.34.51,2.7,1,4,0a1.07,1.07,0,0,0,.06-1c-1-1.24-2.38-.56-3.61-.71a10.08,10.08,0,0,0-1.55,0c-.07-1.9,1.61-2.95,2.18-4.55s1.81-3.11-.2-4.55A1.35,1.35,0,0,1,387.21,142.87Zm13.56,9.82a3.67,3.67,0,0,0-4.63-.26c-.48.28-.72,1-.22,1.3C397.65,154.7,399.16,154.06,400.77,152.69Z"/><path class="cls-3" d="M438.42,230.84c-.77-.19-1.81-.8-2.27-.51-5.68,3.62-10-.59-14.62-2.52-5.57-2.32-10.5-6.33-17.08-5.78-3.83.32-7.59.28-10.17,4.05-1,1.53-3.65,1-5.12,2.68-6.12,6.8-8.55,14.59-7,23.68,1,6.1,2,12.2,4.93,17.75a49.07,49.07,0,0,0,4.65,7.65c4.91,6.21,11.56,7.72,19,6,5.37-1.28,10.87-2.25,15.59-5.58,2.1-1.48,4.85-1.18,7.38-1.07,0,.74,0,1.49,0,2.24-2.73-.78-5.24-.53-7.37,1.56l.08,0a1.76,1.76,0,0,0-1.65.82l0,0c-8.44,3-16.86,6.25-26.11,4l-2.23-1c-3.73-2.06-6.33-5.33-9-8.5l0,0a20.8,20.8,0,0,0-3.06-5.68l0,0a7.46,7.46,0,0,0-1.61-3.94l0-.06c-2.21-9.61-5-19.17-2.44-29.17l-.23-.16.24.14a5,5,0,0,0,1.52-3.23l0,0a3.79,3.79,0,0,0,1.49-2.5l0,0,1-1.5-.06.05.76-.92-.05.05.86-.9.67-.72.88-.9.72-.69,1-.86.71-.55.9-.89,0,.07a1.66,1.66,0,0,0,1.52-.91l0,0a1.88,1.88,0,0,0,1.6-.88l0,0a1.88,1.88,0,0,0,1.67-.79l-.05,0c7.46-2.52,14.77-1.4,22,.91l.08,0,1.53.77,0-.06,1.05.61.3.07,1.24.72,0,0,1.62.86-.05,0a1.86,1.86,0,0,0,1.57.93l0,0a1.7,1.7,0,0,0,1.54.91v0l.91.71-.05-.06,1,.71.31.09a4.16,4.16,0,0,0,5.27-.06l0,0,.93-.74,0,0,.82-.86.06.05a2.1,2.1,0,0,0,.61-.15C438.25,227.37,437.92,229.34,438.42,230.84Z"/><path class="cls-4" d="M408.09,342.62c-4.14,7.7-9.47,14.54-15.14,21.14a3,3,0,0,1-2.41,1.21,25.83,25.83,0,0,0-4.23-11.37c-4.26-6.32-1.07-10.81,6.35-11C397.8,342.54,403,342.62,408.09,342.62Z"/><path class="cls-9" d="M331.36,426.56c.12.24.24.47.35.71,4.26,8.75,3.42,10.34-6.12,10.64-5.81.18-11.64,0-17.46-.16-1,0-2.43.5-2.82-.71s.75-2.16,1.64-3c3.64-3.21,8.1-4.93,12.53-6.67,1.11-.44,2.25-.79,3.37-1.17C325.67,426.8,328.39,430,331.36,426.56Z"/><path class="cls-9" d="M383.44,418.64c6,3.57,7,9.93,8.44,15.89.39,1.56-1.21,2.56-2.71,3-2.89.76-6.19,1.51-8.17-1.17-3.39-4.6-5.73-9.78-5-15.8C379.56,422.84,381.89,422.26,383.44,418.64Z"/><path class="cls-4" d="M352.23,400.14a55.38,55.38,0,0,1-18.4,11.16c.77-1.32.53-2.8.75-4.2.84-5.24-.33-10.52.2-15.94,4.63,4,10.07,5.31,15.23,7.22C351,398.76,352.15,398.7,352.23,400.14Z"/><path class="cls-6" d="M138.13,437.36l-.75-.58c-.24-.72-.49-1.43-.74-2.15,0-1.18,0-2.36,0-3.54l.25-.24-.21-.25a13.57,13.57,0,0,1,1.22-5.09c3.45,1.85,5.37.08,6.8-2.86,4.22,3,8.27,6.07,10.27,11.08.11,1.57-.39,2.43-2.21,2.39-3-.06-6.09,0-9.12.21C141.8,436.47,139.65,435.39,138.13,437.36Z"/><path class="cls-10" d="M435.72,281.52c1.22,1.57,1.19,3.42,1.19,5.28q0,25.21,0,50.42c0,1.79.52,3.93-2.45,3.81-15.71-.26-31.43-.37-47.14.1.44-2.47,2.41-1.65,3.82-1.65,13.42-.06,26.84-.11,40.26,0,2.85,0,4-.62,3.94-3.73-.15-17.94-.1-35.87-.11-53.81C435.4,281.82,435.56,281.67,435.72,281.52Z"/><path class="cls-9" d="M183.72,427.3c3.4,1.36,5.75,4.07,8.34,6.47,1.33,2,1.61,3.33-1.55,3.33-7.37,0-14.73.09-22.1.18-1.46,0-2.74,0-2.37-2a30.81,30.81,0,0,1,4.31.21c6.65,1.24,6.71,1.29,7.77-5.57.31-2,1.22-2.79,3.14-2.51C182.1,427.49,182.93,428.38,183.72,427.3Z"/><path class="cls-6" d="M183.72,427.3c-.79,1.08-1.62.19-2.46.07-1.92-.28-2.83.52-3.14,2.51-1.06,6.86-1.12,6.81-7.77,5.57a30.81,30.81,0,0,0-4.31-.21c-.84-1.34-.23-2.66.07-4a1.63,1.63,0,0,0,0-.66l.15-3.09c.51-1.34,1-2.69,1.52-4,2.14,1.82,4.29,2.32,6.44,0C177.77,423.89,180.75,425.6,183.72,427.3Z"/><path class="cls-10" d="M436.08,226.85a2.1,2.1,0,0,1-.61.15c-.06-19.4-.2-38.8-.12-58.2,0-3.24-.8-4.36-4.19-4.31-13.16.19-26.32.09-39.48.06-2.07,0-4.41.37-5.13-2.49l3.11,1a4.37,4.37,0,0,0,1.43.57q22.5,0,45-.16c1.51,1.25.81,3,.81,4.45.06,17.33,0,34.66,0,52C436.92,222.24,437,224.6,436.08,226.85Z"/><path class="cls-2" d="M387.32,341.13c15.71-.47,31.43-.36,47.14-.1-.4,2.19-2.15,1.55-3.47,1.56-7.63.05-15.26,0-22.9,0-5.14,0-10.29-.08-15.43,0-7.42.15-10.61,4.64-6.35,11A25.83,25.83,0,0,1,390.54,365l-1,2.64c-1.65-4.43-2.17-9.31-5.3-13.14v.06l-.72-.94.06,0a1.77,1.77,0,0,0-.83-1.57l-.18.14.19-.12a13.76,13.76,0,0,1,.66-7.8l0,.05a1.7,1.7,0,0,0,1-1.42l-.2-.12.17.16,1.4-1.05-.06,0,1.24-.74Z"/><path class="cls-3" d="M352.23,400.14c-.08-1.44-1.21-1.38-2.22-1.76-5.16-1.91-10.6-3.26-15.23-7.22-.53,5.42.64,10.7-.2,15.94-.22,1.4,0,2.88-.75,4.2-.24,0-.48,0-.72,0q.11-8.84.2-17.66a12.51,12.51,0,0,0,.1-6.11c.12-1,.24-2,.35-3,4.08,9.49,12.95,10.65,21.49,12.38,1.41.29,2.83.51,4.25.76C356.58,397,354.52,398.91,352.23,400.14Z"/><path class="cls-10" d="M68,273a1.46,1.46,0,0,0-.16-.72l-.65-.84,0,0c-2.78-9.1-5.5-18.18-4.15-27.92.67-4.85,3.52-8.78,5.06-13.26,1.35-.13,1.77-1.51,2.79-2.09l.28.27c0,.5,0,1-.08,1.52-3.8,4-6.32,8.68-6.38,14.39-1.72,3.46.17,6.92,0,10.38.23,1.6-.62,3.39.78,4.81-.23,1.68.53,3.18.84,4.77.82,1.05.35,3,2.29,3.26.14,1.09-.27,2.32.84,3.15,0,2.66,2.89,3.87,3.25,6.36l-.42.37-2.58-2A3,3,0,0,0,68,273Z"/><path class="cls-3" d="M124.54,117.42a100.11,100.11,0,0,1-6.32,15.17,30,30,0,0,1-2.35-8.76c2.53-.34,3.67-2.5,5.12-4.13A5.88,5.88,0,0,1,124.54,117.42Z"/><path class="cls-11" d="M383.44,418.64c-1.55,3.62-3.88,4.2-7.47,1.87a8.53,8.53,0,0,0-2.11-5.1c3,.24,5.75-1.11,8.63-1.6C382.3,415.52,383,417.05,383.44,418.64Z"/><path class="cls-11" d="M331.36,426.56c-3,3.48-5.69.24-8.51-.31,2.3-1.48.24-3.47.61-5.18a27.3,27.3,0,0,0,7.92-.13C331.37,422.81,331.36,424.69,331.36,426.56Z"/><path class="cls-10" d="M384.29,354.47c3.13,3.83,3.65,8.71,5.3,13.14l.45,4.58c.11.39.21.78.32,1.17-.08,5.67.22,11.45-4.15,16-.15-.15-.3-.31-.47-.45,4.08-7.33,3.77-14.9,2-22.86C386.85,362.07,384.25,358.67,384.29,354.47Z"/><path class="cls-11" d="M144.71,422.65c-1.43,2.94-3.35,4.71-6.8,2.86-.12-2.35-.25-4.7-.37-7.05,1.9.31,3.56-1.45,5.51-.63A12.69,12.69,0,0,0,144.71,422.65Z"/><path class="cls-10" d="M138.13,437.36c1.52-2,3.67-.89,5.52-1,3-.23,6.08-.27,9.12-.21,1.82,0,2.32-.82,2.21-2.39,1.15,1.49,1.46,3.35-.65,3.7C149,438.32,143.52,439.33,138.13,437.36Z"/><path class="cls-5" d="M436.07,163.44q-22.49.09-45,.16a4.37,4.37,0,0,1-1.43-.57l5.6-.12h26.46C426.49,163.28,431.32,162.33,436.07,163.44Z"/><path class="cls-2" d="M388,64c1.25.06,2.66-.11,3,1.43A1.35,1.35,0,0,1,389.25,67c-1.31-.38-3.42,0-3.77-1.47S386.94,64.1,388,64Z"/><path class="cls-3" d="M222.05,437.62c2.95-3.42,5.27-3.17,7.2.77C226.83,438.28,224.52,437.26,222.05,437.62Z"/><path class="cls-3" d="M434.46,103.13c-.1,1.1-.06,2.46-1.31,2.07-1.81-.57-1.12-2.66-1.72-4-.32-.72.48-1.9,1.13-1.69C434.32,100.05,434.05,101.92,434.46,103.13Z"/><path class="cls-3" d="M430.36,129.27c-.73,1.33-1.25,3-2.89,3.79-.51.24-1-.47-.85-1,.57-1.5.27-3.58,2.42-4.1C429.8,127.82,430.24,128.32,430.36,129.27Z"/><path class="cls-3" d="M424.71,137.55c-.6,1.35-1,3-3.06,3-.7,0-1.53-.3-1.16-1.11a6.26,6.26,0,0,1,3.3-3.26C424.54,135.88,424.82,136.71,424.71,137.55Z"/><path class="cls-3" d="M434.49,111.94c-.28.94.53,2.52-.88,2.65-1.62.16-1.49-1.45-1.52-2.58s-.12-2.85,1.29-2.85C435.13,109.15,434.16,111,434.49,111.94Z"/><path class="cls-10" d="M426.32,281c2.13-2.09,4.64-2.34,7.37-1.56l2,2.13c-.16.15-.32.3-.49.44C432.46,279.9,429.37,280.56,426.32,281Z"/><path class="cls-4" d="M372.72,69.22c-2.28,1.53-3.29,3.34-5.47,2.4a1,1,0,0,1-.23-1C368.23,69.13,369.77,68.52,372.72,69.22Z"/><path class="cls-3" d="M398.82,67.38c-1-.62-2.92.51-3.28-1.38a1,1,0,0,1,1.63-1c1.14.75,3.35-.26,3.5,1.84C400.76,68.11,399.6,67.57,398.82,67.38Z"/><path class="cls-3" d="M431.37,124.31a1.24,1.24,0,0,1-.76-1.88c.52-1.15,0-3.16,2.11-3.13.87,0,.72.93.44,1.52C432.61,122,433.32,123.84,431.37,124.31Z"/><path class="cls-3" d="M375,67.56c2.14-1.93,3.64-2.47,5.39-1.56.16.08.21.81,0,1C379,68.55,377.45,67.91,375,67.56Z"/><path class="cls-3" d="M360,77.45c-.76-.06-1.27-.43-1.08-1a4.4,4.4,0,0,1,3.25-2.61.79.79,0,0,1,1,1.12A5.29,5.29,0,0,1,360,77.45Z"/><path class="cls-10" d="M378.85,396.1c-.25-1.06-.49-2.12-.73-3.18,2,.29,3.57-.78,5.22-1.61.13.16.27.32.41.47C382.57,393.73,379.49,393.54,378.85,396.1Z"/><path class="cls-10" d="M136.64,434.63c.25.72.5,1.43.74,2.15C136.34,436.34,136.45,435.5,136.64,434.63Z"/><path class="cls-10" d="M386.21,389.37,385,390.6l-.22-.22.94-1.46C385.91,389.06,386.06,389.22,386.21,389.37Z"/><path class="cls-10" d="M385,390.6l-1.27,1.18c-.14-.15-.28-.31-.41-.47l1.46-.93Z"/><path class="cls-2" d="M390.36,373.36c-.11-.39-.21-.78-.32-1.17C390.15,372.58,390.25,373,390.36,373.36Z"/><polygon class="cls-10" points="136.69 430.6 136.9 430.85 136.65 431.09 136.52 430.83 136.69 430.6"/><path class="cls-9" d="M166.16,430.59a1.63,1.63,0,0,1,0,.66,2.66,2.66,0,0,1-.11-.47C166,430.72,166.1,430.65,166.16,430.59Z"/><path class="cls-8" d="M386.55,162.06c.72,2.86,3.06,2.48,5.13,2.49,13.16,0,26.32.13,39.48-.06,3.39-.05,4.2,1.07,4.19,4.31-.08,19.4.06,38.8.12,58.2l-.06-.05-.82.86,0,0-.93.74,0,0-5.27.06-.31-.09-1-.71.05.06a.76.76,0,0,0-.91-.71v0c-.11-1-.77-1-1.54-.9l0,0c-.19-.88-.83-1-1.57-.93l0,0a1.38,1.38,0,0,0-1.61-.86l0,0-1.24-.72-.31-.07-1-.61,0,.06c-.13-1-.73-1.08-1.53-.77l-.07,0c-5.18-4.1-11.21-3.75-17.19-3.05-1.68.2-3.84.07-4.85,2.14l0,0c-.75-.15-1.38,0-1.66.79l0,0c-.75-.11-1.39,0-1.6.88l0,0c-.76-.13-1.43-.09-1.52.91l0-.07a.87.87,0,0,0-.9.89l-.71.55c-.32.29-.64.58-1,.86l-.72.69-.88.9-.67.72-.86.9.05-.05-.76.92.06-.05c-.9.12-1,.76-1,1.5l0,0c-1.75.08-1.72,1.23-1.49,2.5l0,0c-1.75.5-2,1.71-1.52,3.23l-.24-.14.23.15c-1.66,1.09-1.72,2.86-1.83,4.52a66.66,66.66,0,0,0,2.48,22.3c.27,1,.49,2.11,1.79,2.36l-.05.06c-.26,1.65-.78,3.39,1.62,3.94l0,0c-.65,1.51.5,2.75.6,4.15-5-1.5-10.17-1.76-14.95.32-3.79,1.65-7.27,3-11.28,1-1.44-.72-3-1.22-4.8-2,2.15,5.07.46,8.33-4.64,9.85l-.34.85-1.25-3.44A46.93,46.93,0,0,0,352,265.32c.11-1.32.23-2.64.33-4,1.06-14-4.18-26.42-10.32-38.34-5.61-10.89-17.26-16.09-27.78-13.76a33.54,33.54,0,0,0-2.36-3.58c-2.51-2.94-4.15-5.94-1.48-9.65,2.29-1.35,3.51-3.14,2.32-5.84-.67-1.53.45-2.38,1.11-3.48,1.72-2.87,1.33-5.14-2.06-6.4-3.71-.91-7.14-2.05-7.24-6.86,0-.61-.88-1.31-1.49-1.79-2.8-2.24-5.37-1.62-7.81.71-3.17,3-3.23,4.41-.25,8.46-1.4,4-4.4,7.37-5.16,11.68l-3.16.78c-.88-9.13-.16-18.29-.39-27.43-.07-2.9,2-2.22,3.62-2.22q17.94-.09,35.87-.09c2.7,1.37,5.42-.13,8.13.08,1.95.15,4.09-.21,5,2.25.6,1.59,1.44,2.85,3.49,2.5a4.77,4.77,0,0,0,4.06-3,6.45,6.45,0,0,1,7.56-4c1.43.3,2.68,1.08,3.8-.66,1-1.56,2.21-2.74,1-4.94-1.34-2.4.3-7.36,2.76-8.39,2.26-.94,1.83-2.51,1.92-4.2s-.85-2.45-2.41-3c-3.19-1.15-5.33-5.16-4-8.08,1-2.16-.32-2.8-1.45-3.87s-2.28-2.09-4.07-.79a5.5,5.5,0,0,1-7.92-1.67c-1.9-3-4-2.86-6.67-2.71,4.42-6.79,10.95-10.53,18.49-12.83.05,3.77.44,7,5.47,7.47,2.41.21,5.89,8.31,4.86,10.63-1.11,2.48-1.75,4.43,1,6.48s4.84,3.62,7.89.78a2.9,2.9,0,0,1,4,.09c.26.78.86.9,1.57.79l0,0A13.34,13.34,0,0,0,385.8,139a1,1,0,0,1,.12.59c-.14,1.81-.41,3.63.34,5.38h-.13c-1.57.07-1,1.25-1.12,2.12l0-.05c-.76.31-.87.94-.82,1.65l0-.05a1.38,1.38,0,0,0-.84,1.63l0,0A1.12,1.12,0,0,0,383,152l-.06.31-1.13-.46c-1.75.47-4.61-2-4.9-.12-.37,2.45,2.91,2.11,4.86,2.46.29,2.1-.33,4.61,2.5,5.57l0,0a1.42,1.42,0,0,0,1.61,1.66Zm-38.39-41.23c-.84-.71,0-2.78-1.91-3.15-1-.2-1.34.84-1.13,1.62.36,1.3.16,3.09,1.87,3.52C348,123.06,348.17,122,348.16,120.83Zm21.39,27.07c-.61.07-1.2.31-1,.91a2.55,2.55,0,0,0,2.51,2,1,1,0,0,0,.93-1.35C371.58,148.36,370.49,148.17,369.55,147.9Z"/><path class="cls-12" d="M128.79,304.47c-.31,1.57.22,3.27-.73,4.74a6.91,6.91,0,0,1-2.29-4.42c-.24-7.24-.19-14.49-.37-21.74-.05-1.95,1-4.32-1.78-5.52a.91.91,0,0,1,.07-1.63c2.44-1,1.75-3,1.72-4.76-.17-8.51,2.15-16.69,3.49-25,.81-4.93,3.84-9.56.61-14.62-.12-.2.23-.69.46-1.32,1.34.51,1.87,2.73,3.58,1.93a2,2,0,0,0,1.17-2.34c-1.46-3.64,1.27-5.62,3.23-8.12-1.28-.46-2.6,1-3.46-.35a1,1,0,0,1,.35-1.39c4.35-1.35,5.14-7.24,10.13-7.84,1.15-.14,1.54-1.65,1.09-2.65-1.11-2.42.68-2.7,2.15-3.11s3.13-.48,3.82-2.35c.52-1.4-1.58-10.95-2.75-11.8-.11-.08-.23-.21-.34-.2-3.71.22-7.7-.92-11,1.42-3.66,2.59-9.35.46-12,5.32-.06.11-.81,0-1.11-.18-1.51-.95-2.82.27-4.22.33,0-10.09.15-20.2-.11-30.29-.1-3.75.84-5,4.78-5,17.67.21,35.34.1,53,.08,1.91,0,4.08.49,5.22-1.83l0,.06,1-.68-.05.05.9-.8.71-.76.79-.93-.07.06a6,6,0,0,0,0-8.67l0,0a6.53,6.53,0,0,0-.44-3.48c-3.67-8.48-5.87-17.13-3-26.36h.05c.55,0,.82-.26.77-.82l.06.19,0-.2c.56,0,.82-.23.84-.78l0,0c1.37.28,2.27-.11,2.35-1.65l0,0a.81.81,0,0,0,1-.66l0,0c.92,0,2,.38,2.26-1l.06,0a4.33,4.33,0,0,0,3.11,0c4.11-1.7,8.47-1.7,12.81-2.14,6.32-.65,11.89,2.23,17.85,3.22l0,0c0,1.21.53,1.79,1.8,1.33V118c0,1,.67,1.06,1.39,1.07l0,0c0,.72.1,1.39,1.06,1.39l.05,0a28.7,28.7,0,0,1-.39,22.49,4.64,4.64,0,0,0-.51,3.44l0,0c-1.9.38-2,1.65-1.58,3.18v0c-3,2.5-3.3,5.55-.81,8.42l-.22.18.21-.19c-.2.79-.21,1.46.89,1.46l0,0c-.09.58.18.83.74.81l-.13.17.09-.19c0,.94.7,1,1.43,1l0,0c1.25,2.73,3.74,2.42,6,2.42,14.74,0,29.49.11,44.23-.06,3.59,0,5,.93,4.87,4.71-.25,8.76-.1,17.53-.05,26.3,0,1.41-.5,2.95.66,4.19l.3,1.3c-.06,1.16-.11,2.31-.16,3.47v11.27l-4.19,5.46-2.28,2.33-.94.86-1.1.14-10-5.34c-2.24-3.68-6.35-2.86-9.46-3.1-4.28-.32-9.07-.5-12.71,2.95l0,0c-3.53-.44-7.28.68-10.55-1.53l-.12-.08c-.54-1.11-.94-.91-1.25.13l0,0c-2.48-.32-4.94-.8-7.42-.91-1.37-.06-3.34-1-3.89,1.44a.71.71,0,0,1-.54.2.87.87,0,0,0-.95.81l.06,0c-.87.13-1,.76-1,1.48h0l-.79.84,0,0-.82.82,0,0-.83.82,0,0-.84.83-.81.74c-1.21,0-2.42,0-2.26,1.75v0l-.87.79h0c-1.23-.1-2.44-.16-2.4,1.62v0c-3.07-.32-5.33,1.12-7.26,3.31a.26.26,0,0,1-.42,0,23.27,23.27,0,0,0-2.76-.19c-8,.42-14.54-2.74-20.07-8.4-2.93-3-5-6.78-8.61-9.19-1.23-.83-.7-2.15-1-3.25l0,0c.82-.26.93-.88.83-1.62l0,0c1.86-1.18,3.49-2.81,6-2.45,1,.14,1.7-.61,1.93-1.66l0,.05.84-.75.75-.83c1.42-.37,1.69-1.45,1.74-2.73A36,36,0,0,0,176.36,182c2.75-2.3,4.18-5.09,3.33-8.76-.71-3.06-3.77-5-5.86-3.29-3.28,2.69-7.21,3.16-11,4.29-4,1.2-7.86,2.77-9.31,7.29a2.26,2.26,0,0,1-1.54,1.6c-3.5,1.27-3.56,4.23-1.89,6.45,2.59,3.42,2.7,8.63,7.46,10.46-.83,3.2-3.66,5.2-4.91,8.15-9.3,6.95-14.51,16.72-18.29,27.3-7.19,20.1-8,41-6.89,62C127.58,299.83,127.5,302.32,128.79,304.47Z"/><path class="cls-7" d="M336.91,123.05c2.64-.15,4.77-.32,6.67,2.71a5.5,5.5,0,0,0,7.92,1.67c1.79-1.3,2.86-.36,4.07.79s2.41,1.71,1.45,3.87c-1.29,2.92.85,6.93,4,8.08,1.56.57,2.51,1.19,2.41,3s.34,3.26-1.92,4.2c-2.46,1-4.1,6-2.76,8.39,1.22,2.2,0,3.38-1,4.94-1.12,1.74-2.37,1-3.8.66a6.45,6.45,0,0,0-7.56,4,4.77,4.77,0,0,1-4.06,3c-2.05.35-2.89-.91-3.49-2.5-.92-2.46-3.06-2.1-5-2.25-2.71-.21-5.43,1.29-8.13-.08a12.12,12.12,0,0,1-.54-5.79c.34-2.51-.75-5.95-4.17-6.72-2.49-.55-2.52-2.42-3-4.12-.53-2,.86-2.74,2.35-3.58,2.58-1.45,4.09-5.57,2.62-8.09-1.26-2.17-.13-3.39.86-4.93s2.4-1.21,3.83-.74c3.38,1.11,5.5-.68,7.24-3.24C335.68,125.29,335.42,123.65,336.91,123.05Zm14.5,29.54c4.07-4.29,4.07-10,0-14.38-2.28-4.84-7.88-7.14-14.15-5.44-4.86,1.31-7.78,4.66-9.09,9.61a11,11,0,0,0,2.58,10.55,11.08,11.08,0,0,0-1-4.06c-1.65-4.21-.44-7.84,2.42-11,3-3.34,6.47-4.91,11.32-3.94,3.29.66,4.86,3.62,7.86,4.3,1.45,4.78,1.8,9.57,0,14.36-3.71,2.37-7.3,5-12.06,5.14C343.91,159.53,349.36,157,351.41,152.59Zm-10.23-12c-3.52,0-5.74,2-5.71,5.16,0,2.39,3.06,5.38,5.57,5.12,2.9-.3,4.93-1.72,4.81-5.09C345.73,142.65,344.89,140.27,341.18,140.6Z"/><path class="cls-4" d="M100,174.21c-.55,7-1.18,14-1.62,21-.53,8.53,1.63,16.84,2.34,25.27-1.8.2-3.18-.87-4.69-1.55-.52-8.61-1.61-17.25-.77-25.84,1.27-13,.66-26,.61-39-.06-16.16-2.18-32.15-5.19-48A106.68,106.68,0,0,1,89,94.36C96.86,120.39,99.09,147.21,100,174.21Z"/><path class="cls-6" d="M284.36,203.65c.05-1.16.1-2.31.16-3.47a15.24,15.24,0,0,0,2.13-6.89l3.16-.78c1.63.61,2.28,2.13,3.15,3.43,2,2.92,4,2.65,5.91,0,1.28-1.8,2.07-4,3.57-5.59,2.23-2.33,1.92-4.4.28-6.71,3.38-.1,6.24-1.63,9-3.33,3.39,1.26,3.78,3.53,2.06,6.4-.66,1.1-1.78,1.95-1.11,3.48,1.19,2.7,0,4.49-2.32,5.84-3.07-3-4.48-2.9-6.85.43a15.12,15.12,0,0,1-1.65,2.64c-2.47,2.24-3,6.45-7,7.09-3.09.42-5.76-1.31-8.7-1.7Z"/><path class="cls-10" d="M183.57,161.91c-1.14,2.32-3.31,1.82-5.22,1.83-17.68,0-35.35.13-53-.08-3.94,0-4.88,1.2-4.78,5,.26,10.09.1,20.2.11,30.29v24l-.78,3.18-1.55.91-.16-.19a15.37,15.37,0,0,0,1.27-7c0-17.82.06-35.64-.09-53.46,0-3.14.85-4,4-4,17.81.15,35.63.1,53.45.06C179.07,162.38,181.32,162.07,183.57,161.91Z"/><path class="cls-7" d="M117.44,180.54c0,13.54.06,27.08,0,40.62,0,4.75-3.09,7.11-7.25,5.7.27-.58.77-1.15.76-1.73,0-8.31,1.27-16.5,2.56-24.65C114.6,193.8,114.92,187,117.44,180.54Z"/><path class="cls-10" d="M284.22,198.88c-1.16-1.24-.66-2.78-.66-4.19-.05-8.77-.2-17.54.05-26.3.1-3.78-1.28-4.75-4.87-4.71-14.74.17-29.49.08-44.23.06-2.31,0-4.8.31-6-2.42a16,16,0,0,0,6.61,1.08c15.25,0,30.51,0,45.76-.09,2.77,0,3.62.75,3.57,3.55C284.21,176.87,284.26,187.88,284.22,198.88Z"/><path class="cls-5" d="M117.44,180.54c-2.52,6.41-2.84,13.26-3.9,19.94-1.29,8.15-2.6,16.34-2.56,24.65,0,.58-.49,1.15-.76,1.73-.86,0-1.78.12-2.36-.77,1.63-5.28,1.69-10.79,2.37-16.21,1.47-11.73,3.29-23.39,5.88-34.93.08-.37.78-.61,1.18-.91Z"/><path class="cls-12" d="M80.76,221.12l.3,0,2.06.18c.67,1.36-3.58,2.46-.23,3.91.85.37,2,.35,1.21,1.69-.53.85-1.3,1.89-2.5.83-.8-.71-1.89-1.23-2.21-.07-1.67,6-4.24,2.54-6.69.76l-.16-1.74,0,.07a.87.87,0,0,0,.86-.84l0,.06.89-.83-.05.06.9-.79,0,0c.73,0,1.37-.1,1.51-1l0,.06.95-.71,0,0c.73.07,1.36,0,1.63-.85l0,0A1.44,1.44,0,0,0,80.76,221.12Z"/><path class="cls-5" d="M121.25,160.4c-1.39-2.87.16-5.45,1-8,2-5.87,4.19-11.66,6.43-17.44a6.81,6.81,0,0,1,3.56-4.34c-3.57,10.6-8.19,19.8-10,29.88Z"/><path class="cls-10" d="M224.52,116.6c-6-1-11.53-3.87-17.85-3.22-4.34.44-8.7.44-12.81,2.14a4.33,4.33,0,0,1-3.11,0C202.17,110.6,213.45,110.25,224.52,116.6Z"/><path class="cls-10" d="M183.45,120.44c-2.92,9.23-.72,17.88,3,26.36a6.53,6.53,0,0,1,.44,3.48,46.83,46.83,0,0,1-6.14-21.11C180.59,126.05,180.7,122.77,183.45,120.44Z"/><path class="cls-10" d="M227.87,146.36a4.64,4.64,0,0,1,.51-3.44,28.7,28.7,0,0,0,.39-22.49c2.85,2.32,3.27,5.71,3.38,8.94A30.46,30.46,0,0,1,227.87,146.36Z"/><path class="cls-10" d="M83.12,221.27l-2.06-.18c5.15-2.74,10.11-1.7,15,.77l-.22.27A43.92,43.92,0,0,1,90.07,221c-1.83-.62-3.3-.67-4.53,1C84.92,221.08,84,221.25,83.12,221.27Z"/><path class="cls-4" d="M345.42,102.93c-.43-2-1-3.68.71-5,.49-.36,1.05,0,1.15.61C347.57,100.31,347.4,101.87,345.42,102.93Z"/><path class="cls-10" d="M108,229.15c3,.62,5.87.78,8.62-.8l.15.16-1.7,2.31c-2.41-.46-5.27,1.19-7.2-1.53Z"/><path class="cls-10" d="M225.51,158c-2.49-2.87-2.2-5.92.81-8.42A14.2,14.2,0,0,0,225.51,158Z"/><path class="cls-4" d="M345.13,113.24a4.81,4.81,0,0,1-.25-5.24C346.83,109.69,347,111.2,345.13,113.24Z"/><path class="cls-4" d="M348.54,93.36c-.94-.22-1-.84-.68-1.48.44-1,.26-2.6,1.71-2.78,1.11-.14,1.12,1,.75,1.65C349.82,91.66,350.17,93.25,348.54,93.36Z"/><path class="cls-10" d="M186.8,150.24a6,6,0,0,1,0,8.67A11.85,11.85,0,0,0,186.8,150.24Z"/><path class="cls-10" d="M226.33,149.56c-.42-1.53-.32-2.8,1.58-3.18A4.37,4.37,0,0,1,226.33,149.56Z"/><path class="cls-10" d="M99.31,223.41l3.08,1.72-.19.22c-1.21-.24-2.85.34-3.17-1.64Z"/><path class="cls-10" d="M187.46,117.16c-.08,1.54-1,1.93-2.35,1.65A2.74,2.74,0,0,1,187.46,117.16Z"/><path class="cls-10" d="M104.81,226.69a4,4,0,0,1,2.36,1.65l-.16.18-2.31-.12-.11-1.47Z"/><path class="cls-10" d="M226.3,117.9c-1.27.46-1.77-.12-1.8-1.33A2.08,2.08,0,0,1,226.3,117.9Z"/><path class="cls-10" d="M72.54,226.65c.06.58.11,1.16.16,1.74l-1.51.11-.28-.27A2.58,2.58,0,0,1,72.54,226.65Z"/><path class="cls-10" d="M190.69,115.54c-.26,1.42-1.34,1.06-2.26,1A2.56,2.56,0,0,1,190.69,115.54Z"/><path class="cls-10" d="M97.7,222.62l1.61.79-.28.3-1.57-.82Z"/><path class="cls-10" d="M227.68,119c-.72,0-1.39-.11-1.39-1.07A1.5,1.5,0,0,1,227.68,119Z"/><path class="cls-10" d="M96.06,221.86l1.64.76-.24.27-1.62-.76Z"/><path class="cls-10" d="M228.72,120.41c-1,0-1.05-.67-1.06-1.39A1.48,1.48,0,0,1,228.72,120.41Z"/><path class="cls-10" d="M79.08,221.94c-.27.8-.9.92-1.63.85A1.7,1.7,0,0,1,79.08,221.94Z"/><path class="cls-10" d="M226.39,159.47c-1.1,0-1.09-.67-.89-1.46A1.63,1.63,0,0,1,226.39,159.47Z"/><path class="cls-10" d="M228.49,161.34c-.73,0-1.39-.1-1.43-1Z"/><path class="cls-10" d="M80.76,221.12A1.44,1.44,0,0,1,79,222,1.83,1.83,0,0,1,80.76,221.12Z"/><path class="cls-10" d="M103.38,225.74l1.43,1-.22.23-1.52-.88Z"/><path class="cls-10" d="M76.58,223.42c-.14.89-.78,1-1.51,1A1.71,1.71,0,0,1,76.58,223.42Z"/><path class="cls-10" d="M188.47,116.55a.81.81,0,0,1-1,.66Z"/><path class="cls-10" d="M185.14,118.83c0,.55-.28.82-.84.78Z"/><path class="cls-10" d="M184.27,119.62c0,.56-.22.82-.77.82Z"/><path class="cls-10" d="M186.84,158.85l-.79.93Z"/><path class="cls-10" d="M227.1,160.32c-.56,0-.83-.23-.74-.81Z"/><path class="cls-10" d="M185.34,160.54l-.9.8Z"/><path class="cls-10" d="M184.49,161.29l-1,.68Z"/><path class="cls-10" d="M107.17,228.34l.78.81-.13.14-.81-.77Z"/><path class="cls-10" d="M102.39,225.13l1,.61-.31.31-.87-.7Z"/><path class="cls-10" d="M74.26,225.11l-.89.83Z"/><path class="cls-10" d="M73.42,225.88a.87.87,0,0,1-.86.84Z"/><path class="cls-10" d="M77.49,222.77l-.95.71Z"/><path class="cls-10" d="M117.39,227.59l.78-.83.16.19-.79.78Z"/><path class="cls-10" d="M75.11,224.38l-.9.79Z"/><path class="cls-10" d="M116.57,228.35l.82-.76.15.14-.82.78Z"/><path class="cls-13" d="M168.12,340.5q-2.06-15.37-4.1-30.75c.42-3,1.85-5.83,1.12-8.92a27.69,27.69,0,0,1-.07-10.62c1.36-9.33,4.17-18.29,6.44-27.39.84-3.41,2.29-3.68,5.06-2.56a51.55,51.55,0,0,0,24.23,3.23c5-.44,9.82-3.05,14.95-.8l0,0c.25.83.88.94,1.61.85l0,0c.27.81.9.92,1.63.83v0c1.61,3.48,4.68,2.23,7.35,2.29l-.05,0c-.16.76-.07,1.4.8,1.66l0,0c-.12.77,0,1.42.89,1.6l-.08-.05.71,1,0,0c0,.73.08,1.37.93,1.58l-.08-.06.76.92,0,0c0,.74.09,1.39,1,1.49l-.07,0a.82.82,0,0,0,.81.87l-.06,0,.84.86-.06-.05.85.85,0-.05.86.83,0-.05a.84.84,0,0,0,.87.82l-.06-.06c.13.88.77,1,1.49,1h0l.93.73,0-.05a.85.85,0,0,0,.92.74l0-.06c.18,1,.83,1,1.6.85l0,0a2,2,0,0,0,1.43,1.71c6.67,2.49,13.08,1.28,19.36-1.42.28-.12.39-.65.57-1l0,.05c.94.07,2,.36,2.37-1l0,0c.77.2,1.41.12,1.67-.77l0,0c.76.14,1.4,0,1.63-.84l0,.05c.75.12,1.4,0,1.66-.82l-.05,0c.76.11,1.4,0,1.63-.87l-.05,0c.76.13,1.41,0,1.63-.85l0,0c.77.15,1.43.08,1.56-.9v.08l.95-.69,0,0,7.37-.1h0a.79.79,0,0,0,.9.75l-.1.22.08-.22a.8.8,0,0,0,.76.9h0c-.58,5.59,1,11.06.72,16.66-.58,13.79.3,27.59-.46,41.4-.25,4.61-1.48,5.21-5.34,5.2-18.61-.09-37.23,0-55.84.06v.08c-.2-.91-.85-1-1.61-.89h.06l-1.18-.83c-3.22-4-3.53-7.49-.29-11.48s7-7.59,10.49-11.46c8.09-9.06,7-16.09-4-21.28-13.67-6.47-28.21-6.93-42.94-4.83-2.38.34-4.05,1.88-5.63,3.52-.92.18-1.08.83-1,1.63l0-.07a1.16,1.16,0,0,0-.65,1.71l-.22-.19.23.18c-1.9,3.1-1.46,6.26-.24,9.44l0,0c.12,2.29-.62,4.8,1.76,6.47l0,.3c-.11,2.82,0,5.54,2.5,7.51h0c-.21.77-.12,1.4.75,1.67l-.05,0c-.11,1.61-.53,3.36,1.68,4l-.05,0c-.15.75,0,1.38.76,1.7l0-.05c.42,3.53,1,7.05,0,10.57l0-.05-.81.9.05-.05-.91.79,0,0c-.76-.08-1.4,0-1.6.91v-.08c-3.24.27-6.62-1.1-9.72.8Z"/><path class="cls-8" d="M243.93,280.56l-.32.09c-.64-2.19-2.4-1.91-4.06-1.84v0c0-1.73-1.18-1.71-2.4-1.64l0,0-.88-.79,0,0-.87-.81,0,0-.84-.84,0,0-.85-.84.05,0-.79-.9,0,.05-.78-.89,0,0c0-.72-.12-1.35-1-1.5l.05,0-.72-.93,0,0c.05-.72-.08-1.35-.89-1.6l0,.05c.11-.76,0-1.39-.88-1.6l0,0c0-1.68,0-3.35,0-5h0c3-4.19,7.44-3,11.52-3.09,1.45,0,3.07.4,4.32-.1,3-1.21,6.94,1,9.32-2.49a63.59,63.59,0,0,0,30.54-12.59c1.52-1.15,2.8-2.55,3.91.69,4.7,13.67,9.75,27.22,14.39,40.91,1.65,4.86,3.42,9.78,3.56,15-1.95.23-4.17-.35-5.48,1.81l0,0-.88.73-.68.83a1.48,1.48,0,0,0-1.69,1.71c.11,2.9,0,5.79.31,8.71.77,7.64,4.55,14.57,4.81,22.38.09,2.85-.56,3.15-2.8,3.09a70.47,70.47,0,0,0-8.35,0c-3.47.34-4.55-.8-4.51-4.38.19-17.78.09-35.57.09-53.35,0-2,.3-4-1.71-5.38l0,.06c.1-.79-.07-1.42-1-1.62l-.57-.74-.91-.9-.74-.56c-.19-.91-.83-1.07-1.62-1l.06,0c-2.68-2.56-6.08-2.17-8.51,1v0l-1,.66,0,0c-.74-.07-1.38,0-1.6.89l0,0c-.75-.12-1.39,0-1.64.84l0,0c-.76-.13-1.4,0-1.6.87l0,0c-.77-.15-1.4-.06-1.65.82l0,0c-.76-.15-1.4-.05-1.65.82l0-.05c-1.61-.1-3.36-.56-4,1.68v-.05C254.44,279.38,249.28,280.86,243.93,280.56Z"/><path class="cls-11" d="M227.48,263.62,226,265.14a15.61,15.61,0,0,1-7-.85v0a1.66,1.66,0,0,0-1.63-.83l0,0a1.62,1.62,0,0,0-1.61-.85l0,0c-2.48-2.66-5.47-2.84-8.76-1.93a44.76,44.76,0,0,1-17.3,1.43c-6.32-.73-12-3.15-17.91-5.12l-1.6-.72c-2.46-1.54-5-3.05-7.38-4.64-2.24-1.46-2.58-3.24-.63-5.22,3.08-3.12,6.24-6.17,9.25-9.36,1.67-1.77,2.94-1.66,4.65,0,1.87,1.81,3.21,4.32,6,5,.26,2,1.73,2.76,3.37,3.35,5.73,5,12.1,8.46,19.91,8.6,1.58,0,3.08,0,4.22-1.55,1.86-2.59,4.65-3.26,7.71-3.09-.22,2,1.09,2.58,2.73,3.2,3.54,1.34,7.24,2.4,10.33,4.74l-1.26,4.48h0Z"/><path class="cls-14" d="M299.65,303.57l.68-.83.88-.73,0,0c1.87-.16,3.84.42,5.54-.84a20.78,20.78,0,0,0,7.07-.71c4.82-1.12,5.88-3.66,3.26-7.37,1.47-1,.05-3.09,1.59-4,.07,1.85-.63,4.13,2.46,4.22.05,1.53-.55,3.23,1.13,4.34,2.93,2,18,.49,20.8-2h.38l.38-.09.41.92c-1.49,1.2-1.95,3.12-5,2.94-2.15-.13-4.85.09-7.16-.09-2-.14-1.65,2.67-3.74,1.85s-4.63.45-6.69-1.59c-.74-.74-3.1-.33-3.59.8-1.73,3.93-4.8,2.52-7.63,2.37-6.84-.37-9.74,2.28-9.22,8.66.19,2.39,1.43,4.78,1.23,7.08-.22,2.62,4,3.62,1.93,6.54.77,6.39,3.19,12.58,2.41,19.17l-.42.34c-.46-1.22-.93-2.44-1.38-3.67a36.92,36.92,0,0,0-2.13-14.35C300.12,319,299.47,311.38,299.65,303.57Z"/><path class="cls-10" d="M299.65,303.57c-.18,7.81.47,15.4,3.13,22.95a36.92,36.92,0,0,1,2.13,14.35c-5.06,0-10.13-.2-15.17.05-3.11.16-3.74-1-3.72-3.86.13-18.1.07-36.2.05-54.3,0-2.12-.17-4.24-.27-6.37,2,1.34,1.7,3.42,1.71,5.38,0,17.78.1,35.57-.09,53.35,0,3.58,1,4.72,4.51,4.38a70.47,70.47,0,0,1,8.35,0c2.24.06,2.89-.24,2.8-3.09-.26-7.81-4-14.74-4.81-22.38-.29-2.92-.2-5.81-.31-8.71A1.48,1.48,0,0,1,299.65,303.57Z"/><path class="cls-10" d="M222,339.56c18.61,0,37.23-.15,55.84-.06,3.86,0,5.09-.59,5.34-5.2.76-13.81-.12-27.61.46-41.4.24-5.6-1.3-11.07-.72-16.66,1.65,1.21,1.45,3,1.45,4.71,0,18.74,0,37.47,0,56.2,0,2.12-.13,3.43-2.89,3.41-18.73-.11-37.46-.05-56.2-.08C224.1,340.48,222.83,340.65,222,339.56Z"/><path class="cls-11" d="M174.27,423.49c-2.15,2.3-4.3,1.8-6.44,0,0-1.8-.05-3.59-.07-5.39l6.18-.66C174.13,419.44,175.26,421.4,174.27,423.49Z"/><path class="cls-10" d="M261.12,281c-.18.35-.29.88-.57,1-6.28,2.7-12.69,3.91-19.36,1.42a2,2,0,0,1-1.43-1.71C247,284.93,254.07,283.21,261.12,281Z"/><path class="cls-10" d="M243.93,280.56c5.35.3,10.51-1.18,15.78-1.66C254.62,281.07,249.53,283.25,243.93,280.56Z"/><path class="cls-10" d="M182.22,337.14c1-3.52.4-7,0-10.57C184.62,330.09,185.31,333.61,182.22,337.14Z"/><path class="cls-10" d="M272.59,272.64c2.43-3.13,5.83-3.52,8.51-1A13.9,13.9,0,0,0,272.59,272.64Z"/><path class="cls-10" d="M218.92,264.29a15.61,15.61,0,0,0,7,.85c.1.48.21,1,.31,1.44C223.6,266.52,220.53,267.77,218.92,264.29Z"/><path class="cls-10" d="M281.26,274.6l-7.37.1C276.32,272.68,278.77,272.37,281.26,274.6Z"/><path class="cls-10" d="M179.18,319.33c-2.45-2-2.61-4.69-2.5-7.51A21.09,21.09,0,0,1,179.18,319.33Z"/><path class="cls-14" d="M307.47,347.42l-1.18-2.88.42-.34c4.27-1.34,1.51,2.21,2.3,3.3l-1.53-.07Z"/><path class="cls-10" d="M169.31,340.34c3.1-1.9,6.48-.53,9.72-.8C175.91,341.29,172.57,340.36,169.31,340.34Z"/><path class="cls-10" d="M175,305.09c-1.22-3.18-1.66-6.34.24-9.44Z"/><path class="cls-10" d="M176.72,311.52c-2.38-1.67-1.64-4.18-1.76-6.47C176.28,307,176.39,309.3,176.72,311.52Z"/><path class="cls-10" d="M227.48,263.62l1.65-1.75c0,1.68,0,3.35,0,5A6,6,0,0,1,227.48,263.62Z"/><path class="cls-10" d="M239.55,278.81c1.66-.07,3.42-.35,4.06,1.84A6.18,6.18,0,0,1,239.55,278.81Z"/><path class="cls-10" d="M181.53,325c-2.21-.64-1.79-2.39-1.68-4A6.9,6.9,0,0,1,181.53,325Z"/><path class="cls-10" d="M259.7,279c.63-2.24,2.38-1.78,4-1.68A6.52,6.52,0,0,1,259.7,279Z"/><path class="cls-10" d="M237.16,277.2c1.22-.07,2.41-.09,2.4,1.64A3.33,3.33,0,0,1,237.16,277.2Z"/><path class="cls-10" d="M263.45,280.09c-.39,1.31-1.43,1-2.37,1A2.8,2.8,0,0,1,263.45,280.09Z"/><path class="cls-10" d="M268.45,274.92c.25-.85.89-1,1.64-.84A1.73,1.73,0,0,1,268.45,274.92Z"/><path class="cls-10" d="M284.88,274.83c.89.2,1.06.83,1,1.62Z"/><path class="cls-10" d="M266.89,275.76c.2-.91.84-1,1.6-.87A1.71,1.71,0,0,1,266.89,275.76Z"/><path class="cls-10" d="M227,268.28c-.87-.26-1-.9-.8-1.66A1.81,1.81,0,0,1,227,268.28Z"/><path class="cls-10" d="M229.05,266.87c.88.21,1,.84.88,1.6A1.73,1.73,0,0,1,229.05,266.87Z"/><path class="cls-10" d="M227.87,269.83c-.92-.18-1-.83-.89-1.6A1.74,1.74,0,0,1,227.87,269.83Z"/><path class="cls-10" d="M229.9,268.42c.81.25.94.88.89,1.6A1.75,1.75,0,0,1,229.9,268.42Z"/><path class="cls-10" d="M229.41,272.28c-.85-.21-1-.85-.93-1.58A1.85,1.85,0,0,1,229.41,272.28Z"/><path class="cls-10" d="M231.44,270.89c.86.15,1,.78,1,1.5A1.76,1.76,0,0,1,231.44,270.89Z"/><path class="cls-10" d="M281,271.65c.79-.09,1.43.07,1.62,1Z"/><path class="cls-10" d="M231.08,274.59c-.92-.1-1-.75-1-1.49A1.76,1.76,0,0,1,231.08,274.59Z"/><path class="cls-10" d="M270.05,274.12c.22-.85.86-1,1.6-.89A1.81,1.81,0,0,1,270.05,274.12Z"/><path class="cls-10" d="M239.78,281.74c-.77.17-1.42.11-1.6-.85A1.67,1.67,0,0,1,239.78,281.74Z"/><path class="cls-10" d="M269.88,277c-.23.88-.87,1-1.63.87A1.75,1.75,0,0,1,269.88,277Z"/><path class="cls-10" d="M268.3,277.79c-.26.85-.91.94-1.66.82A1.79,1.79,0,0,1,268.3,277.79Z"/><path class="cls-10" d="M236.45,279.54c-.72,0-1.36-.13-1.49-1Z"/><path class="cls-10" d="M266.68,278.56c-.23.88-.87,1-1.63.84C265.38,278.71,266,278.61,266.68,278.56Z"/><path class="cls-10" d="M265.09,279.36c-.26.89-.9,1-1.67.77A1.72,1.72,0,0,1,265.09,279.36Z"/><path class="cls-10" d="M271.46,276.15c-.22.89-.87,1-1.63.85A1.78,1.78,0,0,1,271.46,276.15Z"/><path class="cls-10" d="M263.66,277.32c.25-.87.89-1,1.65-.82A1.77,1.77,0,0,1,263.66,277.32Z"/><path class="cls-10" d="M175.83,294c-.08-.8.08-1.45,1-1.63C176.49,292.93,176.16,293.47,175.83,294Z"/><path class="cls-10" d="M175.22,295.66a1.16,1.16,0,0,1,.65-1.71A1.82,1.82,0,0,1,175.22,295.66Z"/><path class="cls-10" d="M273,275.28c-.13,1-.79,1.05-1.56.9A1.62,1.62,0,0,1,273,275.28Z"/><path class="cls-10" d="M265.27,276.54c.25-.88.88-1,1.65-.82A1.82,1.82,0,0,1,265.27,276.54Z"/><path class="cls-10" d="M179.9,321c-.87-.27-1-.9-.75-1.67C179.84,319.68,179.88,320.33,179.9,321Z"/><path class="cls-10" d="M182.24,326.62c-.81-.32-.91-.95-.76-1.7A1.76,1.76,0,0,1,182.24,326.62Z"/><path class="cls-10" d="M179,339.62c.2-.88.84-1,1.6-.91A1.57,1.57,0,0,1,179,339.62Z"/><path class="cls-10" d="M220.34,338.75c.76-.12,1.41,0,1.61.89A1.56,1.56,0,0,1,220.34,338.75Z"/><path class="cls-10" d="M234.2,277.82l-.86-.83Z"/><path class="cls-10" d="M232.6,276.24l-.84-.86Z"/><path class="cls-10" d="M283.4,273.19l.91.9Z"/><path class="cls-10" d="M181.44,338l.81-.9Z"/><path class="cls-10" d="M233.14,273.2l.79.9Z"/><path class="cls-10" d="M180.58,338.73l.91-.79Z"/><path class="cls-10" d="M219.22,337.92l1.18.83Z"/><path class="cls-10" d="M271.61,273.26l1-.66Z"/><path class="cls-10" d="M238.22,281a.85.85,0,0,1-.92-.74Z"/><path class="cls-10" d="M237.35,280.26l-.93-.73Z"/><path class="cls-10" d="M282.16,275.34a.79.79,0,0,1-.9-.75Z"/><path class="cls-10" d="M236.31,276.43l.88.79Z"/><path class="cls-10" d="M232.4,272.36l.78.89Z"/><path class="cls-10" d="M233.39,277l-.85-.85Z"/><path class="cls-10" d="M230.09,273.14l-.76-.92C229.59,272.52,229.84,272.83,230.09,273.14Z"/><path class="cls-10" d="M233.88,274.06l.85.84Z"/><path class="cls-10" d="M273.92,274.67l-.95.69Z"/><path class="cls-10" d="M282.9,276.24a.8.8,0,0,1-.76-.9Z"/><path class="cls-10" d="M234.68,274.86l.84.84Z"/><path class="cls-10" d="M235,278.59a.84.84,0,0,1-.87-.82Z"/><path class="cls-10" d="M230.77,270l.72.93Z"/><path class="cls-10" d="M231.82,275.42a.82.82,0,0,1-.81-.87Z"/><path class="cls-10" d="M228.5,270.74l-.71-1Z"/><path class="cls-10" d="M235.48,275.66l.87.81Z"/><path class="cls-3" d="M307.48,347.43l1.53.07c2,2.45,4.82.86,7.19,1.47l1.6,16c-2.26-.54-3.66-1.67-2.62-4.21.84-2.06-.21-4.09,0-6.21a3.72,3.72,0,0,0-4.27-4C308.64,350.82,307.34,349.89,307.48,347.43Z"/><path class="cls-3" d="M317.92,366.55c.86,2.07.73,4.24.69,6.41C315.79,371.1,316.93,368.82,317.92,366.55Z"/><path class="cls-3" d="M318.77,375.32a10.85,10.85,0,0,1,.53,4.8C318.34,378.6,316.87,377.14,318.77,375.32Z"/><path class="cls-12" d="M119.49,280.49c-2.46-6.4-7.12-7.92-13-4.28a14.11,14.11,0,0,1-2.52,1c-1.39,0-2.91-.15-3.07,1.89l0-.07-1,.63,0,0c-.93-.07-1.88-.2-2.45.81l0,0c-1.59.56-4.08-1.42-4.77,1.69l0,0-4.09-.09a12.7,12.7,0,0,1,13.48-7.06,7.85,7.85,0,0,1,1.13.37c1.61.5,2.43-.15,2.93-1.72,1.16-3.62,2.81-4.14,6.35-2.58,1.65.72,3.17,2.54,5,1.95,3-1,3.14.49,3.06,2.68-.05,1.59,0,3.19,0,4.78Z"/><path class="cls-10" d="M119.49,280.49l1.15-.14V334c0,5.51,0,5.51,5.59,5.46h2.21c0,.34,0,.68,0,1-8.87.3-8.86.3-8.87-8.35Z"/><path class="cls-10" d="M88.7,281.93l4.09.09c-5.93,2.37-11.63,2.27-17-1.54l.23-.23c2.15-.49,3.55,1.48,5.49,1.68H88.7Z"/><path class="cls-10" d="M92.77,282.06c.69-3.11,3.18-1.13,4.77-1.69C96.28,281.87,94.55,282,92.77,282.06Z"/><path class="cls-10" d="M100.93,279.06c.16-2,1.68-1.86,3.07-1.89A3.46,3.46,0,0,1,100.93,279.06Z"/><path class="cls-1" d="M68,273a3,3,0,0,1,1.76,2.45C67.94,275.55,67.92,274.32,68,273Z"/><path class="cls-10" d="M74,279.13l-1.63-1.62c.13-.13.27-.25.41-.37a1.52,1.52,0,0,1,1.62,1.58C74.22,278.85,74.09,279,74,279.13Z"/><path class="cls-10" d="M97.5,280.4c.57-1,1.52-.88,2.45-.81C99.35,280.51,98.39,280.37,97.5,280.4Z"/><path class="cls-10" d="M75.79,280.48l-.92-.67.29-.31H76a6.34,6.34,0,0,0,.07.75Z"/><path class="cls-10" d="M99.91,279.62l1-.63Z"/><path class="cls-10" d="M74.87,279.81l-.9-.68a5,5,0,0,1,.39-.41l.8.78Z"/><path class="cls-1" d="M67.17,271.48l.65.84Z"/><path class="cls-13" d="M76,280.25a6.34,6.34,0,0,1-.07-.75c2-3.34-.21-5.75-1.83-8.31-1.39-2.2-3.07-.45-4.63-.41-1.11-.83-.7-2.06-.84-3.15,2-3-.24-3.08-2.29-3.26-.31-1.59-1.07-3.09-.84-4.78,2.72-2.08,1.85-3.59-.78-4.8.16-3.46-1.73-6.92,0-10.38,2.32-.89,4.51-2.58,6.53.91.78,1.37,3.21,1.14,4.67,0,1.23-1,1-2.37.09-3.54a3.34,3.34,0,0,1-.51-3.68c.6-1.28.38-2.54-.76-3.13-2.09-1.1-2.42-3.32-3.64-4.95,0-.51,0-1,.08-1.52l1.51-.11c2.45,1.78,5,5.28,6.69-.76.32-1.16,1.41-.64,2.21.07,1.2,1.06,2,0,2.5-.83.83-1.34-.36-1.32-1.21-1.69-3.35-1.45.9-2.55.23-3.91.88,0,1.8-.19,2.42.71.06,1.85,1.17,2.38,2.86,2.49,2.07.15,4.13.54,6.21.78,1,.11,2,.23,2,1.42-.06,3.37,1,4.09,3.85,2,.83-.6,1.71.18,2.48.72,1.21.84,1.62.1,1.78-1l2.31.12.81.77c1.93,2.72,4.79,1.07,7.2,1.53,1.68,0,3.43.23,4.88-.85,1.67-1.26,2.71-2.64,0-3.93l.78-3.18c1.59,0,3.07-.28,3.11-2.21.06-2.45-.53-4.69-3.11-5.79v-16c1.4-.06,2.71-1.28,4.22-.33.3.19,1.05.29,1.11.18,2.6-4.86,8.29-2.73,12-5.32,3.3-2.34,7.29-1.2,11-1.42.11,0,.23.12.34.2,1.17.85,3.27,10.4,2.75,11.8-.69,1.87-2.29,1.93-3.82,2.35s-3.26.69-2.15,3.11c.45,1,.06,2.51-1.09,2.65-5,.6-5.78,6.49-10.13,7.84a1,1,0,0,0-.35,1.39c.86,1.37,2.18-.11,3.46.35-2,2.5-4.69,4.48-3.23,8.12a2,2,0,0,1-1.17,2.34c-1.71.8-2.24-1.42-3.58-1.93-.23.63-.58,1.12-.46,1.32,3.23,5.06.2,9.69-.61,14.62-1.34,8.28-3.66,16.46-3.49,25,0,1.73.72,3.79-1.72,4.76a.91.91,0,0,0-.07,1.63c2.74,1.2,1.73,3.57,1.78,5.52.18,7.25.13,14.5.37,21.74a6.91,6.91,0,0,0,2.29,4.42c-.06.48-.11,1-.17,1.45-1.32,3.18-4.48,6.35-.11,9.6q.07,4.38.13,8.76c-1.14.84-1.12,1.66,0,2.46.89,2.06.6,4.21.49,6.34-1.14,0-2.16.12-2.21,1.59-5.59,0-5.59,0-5.59-5.46v-53.6c0-1.59,0-3.19,0-4.78.08-2.19-.08-3.66-3.06-2.68-1.83.59-3.35-1.23-5-1.95-3.54-1.56-5.19-1-6.35,2.58-.5,1.57-1.32,2.22-2.93,1.72a7.85,7.85,0,0,0-1.13-.37,12.7,12.7,0,0,0-13.48,7.06H83.92c-.12-.82-.32-1.58-1.39-1.45-.83.11-.91.8-1,1.44C79.57,281.73,78.17,279.76,76,280.25Zm50.42-62.8a1,1,0,0,0-.83,1.1.92.92,0,0,0,1,.94,1,1,0,0,0,1-1.31A1,1,0,0,0,126.44,217.45ZM93.35,228c0-.66-.47-1-1-.77a1.71,1.71,0,0,0-.89,1.08c-.13.69.49.81,1,.77S93.31,228.55,93.35,228Zm34-6.28c-.62-.21-.87.12-.91.48a1.2,1.2,0,0,0,.28,1c.55.3,1,0,1-.62A2.11,2.11,0,0,0,127.35,221.72Zm-2.13,4.63c-.1.22-.32.49-.26.65s.41.21.63.31c.1-.22.32-.49.26-.65S125.44,226.45,125.22,226.35Z"/><path class="cls-14" d="M170.18,256.35l1.59.72c-1.17,4.21-2.44,8.4-3.51,12.64-2.71,10.61-6.79,21-4.61,32.37.13.67-.45,1.48-.7,2.23a50.48,50.48,0,0,1-34.16.16c-1.29-2.15-1.21-4.64-1.33-7-1.09-21.05-.3-41.93,6.89-62,3.78-10.58,9-20.35,18.29-27.31.28.61.56,1.21.83,1.82a4.2,4.2,0,0,0-3.29,2.44,5.39,5.39,0,0,0-2.41,2.45,52.75,52.75,0,0,0-8.74,13.9,101.23,101.23,0,0,0-8.95,38.51c-.14,4.59-.32,8.24,5,9.61.33.09.59.52.86.81,3.29,3.5,6.33,7.31,9.4,10.91s7.3,4.85,10.31,8c.52.55,1.71,1.81,2.21.55,1.16-2.91,4.48-4.47,4.39-8.21-.17-6.63,2.66-12.73,4.11-19.07C167.37,265.36,169.06,260.92,170.18,256.35Z"/><path class="cls-10" d="M163,304.31c.25-.75.83-1.56.7-2.23-2.18-11.33,1.9-21.76,4.61-32.37,1.07-4.24,2.34-8.43,3.51-12.64,5.9,2,11.6,4.39,17.92,5.12a44.76,44.76,0,0,0,17.3-1.43c3.29-.91,6.28-.73,8.76,1.93-5.13-2.25-10,.36-14.95.8a51.55,51.55,0,0,1-24.23-3.23c-2.77-1.12-4.22-.85-5.06,2.56-2.27,9.1-5.08,18.06-6.44,27.39a27.69,27.69,0,0,0,.07,10.62c.73,3.09-.7,5.95-1.12,8.92Q163.49,307,163,304.31Z"/><path class="cls-12" d="M127.78,320.26c-4.37-3.25-1.21-6.42.11-9.6Q127.85,315.46,127.78,320.26Z"/><path class="cls-12" d="M126.23,339.41c0-1.47,1.07-1.62,2.21-1.59v1.6Z"/><path class="cls-12" d="M128,331.48c-1.16-.8-1.18-1.62,0-2.46C127.92,329.84,127.93,330.66,128,331.48Z"/><path class="cls-5" d="M396.93,109.13c0,4.63-3,7.57-7.72,7.54a7.28,7.28,0,0,1-7.45-7.52,7.59,7.59,0,1,1,15.17,0Zm-1.61,0c0-2.93-3.13-6-6.23-6-2.9-.06-5.75,2.92-5.73,6a6,6,0,0,0,12,0Z"/><path class="cls-5" d="M405.72,118.26c2.67-6.77,1.74-13.4-.8-20h0c5,5.23,5.36,15.14.79,20Z"/><path class="cls-5" d="M402.51,122.24c-2.45,4.64-10.32,7.48-15.52,5.23,5.83.1,10.88-2,15.53-5.21Z"/><path class="cls-5" d="M398.53,92.7c-6.47-2.12-12.89-2.51-19.22.82,4.59-4.91,15.75-4.66,19.21-.81Z"/><path class="cls-5" d="M372.17,102.28c-1.72,5.43,0,10.68.79,16h0c-3.51-5.13-3.87-12.2-.8-16Z"/><path class="cls-10" d="M385.8,139a13.34,13.34,0,0,1-5.53-2.49C382.29,136.92,385.09,135.62,385.8,139Z"/><path class="cls-10" d="M386.26,145c-.75-1.75-.48-3.57-.34-5.38a3.4,3.4,0,0,1,1.29,3.3,1.25,1.25,0,0,0-.19.7C386.76,144,386.51,144.49,386.26,145Z"/><path class="cls-5" d="M374.56,98.29c-.21,1.68-1.35,2.81-2.39,4v0c.11-1.75.14-3.54,2.4-4Z"/><path class="cls-5" d="M401.72,95.1a3.87,3.87,0,0,1-3.19-2.4h0c1.45.28,2.93.53,3.19,2.4Z"/><path class="cls-5" d="M374.58,98.31c0-1.17,0-2.31,1.59-2.4v0a2.47,2.47,0,0,1-1.6,2.4Z"/><path class="cls-5" d="M403.32,121.46a2.48,2.48,0,0,1,1.6-2.4h0c0,1.17,0,2.31-1.59,2.39Z"/><path class="cls-5" d="M404.92,98.29a1.47,1.47,0,0,1-1.6-1.6v0a1.47,1.47,0,0,1,1.6,1.59Z"/><path class="cls-5" d="M373.76,119.06l.59.83c-.93.23-.37-.57-.57-.84Z"/><path class="cls-10" d="M380.22,136.46c-.71.11-1.31,0-1.57-.79Z"/><path class="cls-5" d="M377,95.11l.18-.35-.19.33Z"/><path class="cls-5" d="M376.17,95.91c.27-.27.53-.54.8-.8v0l-.8.8Z"/><path class="cls-5" d="M402.52,95.89l-.8-.79h0c.27.26.53.53.8.8Z"/><path class="cls-5" d="M402.51,95.91l.8.8v0l-.8-.8Z"/><path class="cls-5" d="M373,118.26l.8.8h0l-.8-.8Z"/><path class="cls-5" d="M405.7,118.25l-.8.8h0l.8-.8Z"/><path class="cls-5" d="M403.31,121.44l-.8.8v0l.8-.8Z"/><path class="cls-12" d="M349.33,284c5.1-1.53,6.79-4.79,4.64-9.86,1.81.74,3.36,1.24,4.8,2,4,2,7.49.64,11.28-1,4.78-2.08,9.93-1.82,14.95-.32.81.52,1.14,1.82,2.46,1.53l0,0c.15,4.73,3.61,6.82,7.09,8.89,1,2.87,2.91,3.58,5.62,2.35a47.89,47.89,0,0,0,21-3.12c1.44-.57,3.15-.75,3.68-2.61l0,0c.75.13,1.39,0,1.65-.82l-.08,0c3.05-.39,6.14-1.05,8.91,1,0,17.94,0,35.87.11,53.81,0,3.11-1.09,3.76-3.94,3.73-13.42-.13-26.84-.08-40.26,0-1.41,0-3.38-.82-3.82,1.65l-.32,0-1.23.74.06,0c-.75,0-1.42,0-1.4,1.05l-.17-.16.2.12c-1,0-1.08.67-1,1.42l0-.05c-3.2,2.35-3.12,5-.66,7.8l-.19.12.17-.14c-.2.78-.15,1.43.84,1.57h-.07a.84.84,0,0,0,.73.93v-.06c0,4.2,2.56,7.6,3.45,11.59,1.77,8,2.08,15.53-2,22.86l-.94,1.46-1.46.93c-1.65.83-3.23,1.9-5.22,1.61-2.14-7.91-5.4-15.49-6.88-23.6-.05-1.35.87-3.1-1.43-3.55-.05-.41-.09-.83-.14-1.25l-.63-1.13c-.06-.43-.12-.86-.19-1.29-.06-1.33.85-3-1.39-3.51a5.38,5.38,0,0,1-.95-3.18c.71-.46.43-.64-.2-.72-.19-.56-.39-1.11-.58-1.67.95-1.85.43-3.17-1.45-4l-.81-2.41c1-.78.69-1.84.65-2.84,1.13-1,2.48-.91,3.83-.84,3,2.1,4.51,1.37,4.88-2.38l.84-2.64c4.57-2.23,2.06-6.77,3.19-10.14.77-2.31-.75-3.71-3.32-3.51l-.29-4.55c1.82-1.2,1.81-2.42,0-3.65l0-2.74c1.71-1.71,2.5-3.28-.67-4.22l-1-4.57c1.54-.85,2.44-2.14,1.81-3.86-.68-1.88-1.62-3.69-4.16-3.41l-1.26-2c0-.62.26-1.38-.55-1.67s-.84.43-1.12.84h-5.14c-3.35-2.66-7.17-.77-10.76-1.12l0,0c.11-1.61.75-3.36-1.11-4.49Z"/><path class="cls-15" d="M316.2,349c-2.37-.61-5.2,1-7.19-1.47-.79-1.09,2-4.64-2.3-3.3.78-6.59-1.64-12.78-2.41-19.17,7.76.54,15.54,1,23.29,1.67,3.24.29,4-.86,3-3.71-.67-1.91-1-3.86,1.7-4.27a53.9,53.9,0,0,1,9.85-.94c2.29.07,2.9,1,2.95,3.11.12,4.75.23,4.75,4.77,3.25L371.29,317c.37,6.52.64,13,.44,19.56-.11,3.56-1.81,4.32-4.51,4.45-2.22.1-4.4.09-6.22,1.6-6.11,1.61-12.48,1.5-18.64,2.78-1.91-.32-3.58.61-5.33,1a3.65,3.65,0,0,0-3.77.36A65.08,65.08,0,0,0,316.2,349Zm27.22-25.17c-.2-1.9.68-5.44-2.7-4.61-2.8.68-7.94-2.13-8.24,3.37-.12,2.36-.3,6.55,3.54,7C341.71,330.33,343.42,328.72,343.42,323.8Z"/><path class="cls-14" d="M361,342.6c1.82-1.51,4-1.5,6.22-1.6,2.7-.13,4.4-.89,4.51-4.45.2-6.54-.07-13-.44-19.56.7-6.6-1.28-12.72-3.42-18.81-.72-2-2.11-3.13-4.23-2.51-3.77,1.11-7.59.49-11.38.63l0-1.16c3-.07,6.09.49,9-.75h5.14l1.67.83,1.26,2c.71,2.45.94,5.05,2.35,7.27.33,1.52.66,3.05,1,4.57-.19,1.47-.36,2.94.66,4.22,0,.91,0,1.83,0,2.74a2.58,2.58,0,0,0,0,3.65c.09,1.52.19,3,.29,4.55q.06,6.83.13,13.65l-.84,2.64L368,342.91c-1.35-.07-2.7-.12-3.83.84l-1.29-.08Z"/><path class="cls-8" d="M364.28,349c1.88.85,2.4,2.17,1.45,4A7.79,7.79,0,0,1,364.28,349Z"/><path class="cls-8" d="M369.81,365.77c2.3.45,1.38,2.2,1.43,3.55A6,6,0,0,1,369.81,365.77Z"/><path class="cls-8" d="M367.46,358.59c2.24.47,1.33,2.18,1.39,3.51A5.41,5.41,0,0,1,367.46,358.59Z"/><path class="cls-8" d="M362.83,343.67l1.29.08c0,1,.31,2.06-.65,2.84A3.35,3.35,0,0,1,362.83,343.67Z"/><path class="cls-8" d="M366.31,354.69c.63.08.91.26.2.72A2.27,2.27,0,0,1,366.31,354.69Z"/><path class="cls-8" d="M369,363.39l.63,1.13Z"/><path class="cls-4" d="M333.26,346.73a3.65,3.65,0,0,1,3.77-.36c.22,4.18-1.54,7.78-3.28,11.39C333.59,354.08,333.42,350.4,333.26,346.73Z"/><path class="cls-8" d="M333.41,387.52a12.51,12.51,0,0,1-.1,6.11A14.8,14.8,0,0,1,333.41,387.52Z"/><path class="cls-1" d="M386.26,145c.25-.46.5-.92.76-1.38,2,1.44.75,3,.19,4.55s-2.25,2.65-2.18,4.55c0,.49,0,1,0,1.47-.32,4.08,1.8,6.18,5.5,7.42,1.58.53,3.45,0,4.77,1.35l-5.6.12-3.11-1-.74-.69-1.61-1.66,0,0c-.57-2.46-2.29-4.71-1.33-7.45L383,152l.48-1.75,0,0c.78-.28.77-1,.84-1.63l0,.05c.83-.27.76-1,.82-1.65l0,.05c1-.39.77-1.41,1.12-2.12Z"/><path class="cls-5" d="M385,154.14c0-.49,0-1,0-1.47a10.08,10.08,0,0,1,1.55,0c1.23.15,2.64-.53,3.61.71a1.07,1.07,0,0,1-.06,1c-1.3,1.08-2.66.54-4,0A7.25,7.25,0,0,0,385,154.14Z"/><path class="cls-5" d="M400.77,152.69c-1.61,1.37-3.12,2-4.85,1-.5-.29-.26-1,.22-1.3A3.67,3.67,0,0,1,400.77,152.69Z"/><path class="cls-1" d="M401.65,162.91h-3.86A2.65,2.65,0,0,1,401.65,162.91Z"/><path class="cls-10" d="M382.86,266.56c-1.3-.25-1.52-1.38-1.79-2.36a66.66,66.66,0,0,1-2.48-22.3c.11-1.66.17-3.43,1.83-4.52C377.9,247.39,380.65,257,382.86,266.56Z"/><path class="cls-10" d="M424.78,281.76c-.53,1.86-2.24,2-3.68,2.61a47.89,47.89,0,0,1-21,3.12L398.47,286l.2-.26C407.92,288,416.34,284.8,424.78,281.76Z"/><path class="cls-10" d="M395.42,221.45c1-2.07,3.17-1.94,4.85-2.14,6-.7,12-1.05,17.19,3.05C410.19,220.05,402.88,218.93,395.42,221.45Z"/><path class="cls-10" d="M394.52,285.14c-3.48-2.07-6.94-4.16-7.09-8.89,2.68,3.17,5.28,6.44,9,8.5l-.32.39Z"/><path class="cls-10" d="M387.46,276.27c-1.32.29-1.65-1-2.46-1.53-.1-1.4-1.25-2.64-.6-4.15A20.8,20.8,0,0,1,387.46,276.27Z"/><path class="cls-10" d="M384.43,270.56c-2.4-.55-1.88-2.29-1.62-3.94A7.4,7.4,0,0,1,384.43,270.56Z"/><path class="cls-10" d="M380.43,237.37c-.45-1.52-.23-2.73,1.52-3.23A5,5,0,0,1,380.43,237.37Z"/><path class="cls-10" d="M428.44,228.55l5.27-.06A4.16,4.16,0,0,1,428.44,228.55Z"/><path class="cls-10" d="M381.92,234.17c-.23-1.27-.26-2.42,1.49-2.5A3.79,3.79,0,0,1,381.92,234.17Z"/><path class="cls-10" d="M396.44,284.75l2.23,1-.2.26c-.86-.1-1.79,0-2.35-.87Z"/><path class="cls-10" d="M417.53,222.39c.8-.31,1.4-.25,1.53.77Z"/><path class="cls-10" d="M392.24,223.05c.21-.88.85-1,1.6-.88A1.88,1.88,0,0,1,392.24,223.05Z"/><path class="cls-10" d="M423.2,225.32c.74-.07,1.38.05,1.57.93A1.86,1.86,0,0,1,423.2,225.32Z"/><path class="cls-10" d="M393.8,222.2c.28-.83.91-.94,1.66-.79A1.85,1.85,0,0,1,393.8,222.2Z"/><path class="cls-10" d="M383.39,231.69c0-.74.09-1.38,1-1.5Z"/><path class="cls-10" d="M390.76,223.93c.09-1,.76-1,1.52-.91A1.66,1.66,0,0,1,390.76,223.93Z"/><path class="cls-10" d="M424.72,226.22c.77-.13,1.43-.09,1.54.9A1.67,1.67,0,0,1,424.72,226.22Z"/><path class="cls-10" d="M426.4,281c-.26.86-.9.95-1.65.82A1.76,1.76,0,0,1,426.4,281Z"/><path class="cls-10" d="M421.63,224.48a1.38,1.38,0,0,1,1.61.86Z"/><path class="cls-10" d="M384.32,230.24l.76-.92Z"/><path class="cls-10" d="M385,229.37l.86-.9Z"/><path class="cls-10" d="M433.69,228.51l.93-.74Z"/><path class="cls-10" d="M386.56,227.75l.88-.9Z"/><path class="cls-10" d="M419.08,223.1l1,.61Z"/><path class="cls-10" d="M426.26,227.1a.76.76,0,0,1,.91.71Z"/><path class="cls-10" d="M388.16,226.16c.33-.28.65-.57,1-.86C388.81,225.59,388.49,225.88,388.16,226.16Z"/><path class="cls-10" d="M420.43,223.78l1.24.72Z"/><path class="cls-10" d="M389.84,224.75a.87.87,0,0,1,.9-.89Z"/><path class="cls-10" d="M434.59,227.81l.82-.86Z"/><path class="cls-10" d="M427.12,227.75l1,.71Z"/><path class="cls-10" d="M382.8,352.06c-2.46-2.83-2.54-5.45.66-7.8A13.76,13.76,0,0,0,382.8,352.06Z"/><path class="cls-10" d="M384.43,342.93c0-1,.65-1.07,1.4-1.05Z"/><path class="cls-10" d="M383.43,344.31c-.05-.75,0-1.43,1-1.42A1.7,1.7,0,0,1,383.43,344.31Z"/><path class="cls-10" d="M383.62,353.61c-1-.14-1-.79-.84-1.57A1.76,1.76,0,0,1,383.62,353.61Z"/><path class="cls-10" d="M385.77,341.9l1.23-.74Z"/><path class="cls-10" d="M384.28,354.53a.84.84,0,0,1-.73-.93Z"/><path class="cls-12" d="M71.11,230c1.22,1.63,1.55,3.85,3.64,4.95,1.14.59,1.36,1.85.76,3.13a3.34,3.34,0,0,0,.51,3.68c.9,1.17,1.14,2.58-.09,3.54-1.46,1.14-3.89,1.37-4.67,0-2-3.49-4.21-1.8-6.53-.91C64.79,238.7,67.31,234.07,71.11,230Z"/><path class="cls-12" d="M69.49,270.78c1.56,0,3.24-1.79,4.63.41,1.62,2.56,3.83,5,1.83,8.31h-.79l-.8-.78a1.52,1.52,0,0,0-1.62-1.58C72.38,274.65,69.52,273.44,69.49,270.78Z"/><path class="cls-12" d="M64.74,254.79c2.63,1.21,3.5,2.72.78,4.8C64.12,258.18,65,256.39,64.74,254.79Z"/><path class="cls-12" d="M66.36,264.37c2,.18,4.29.23,2.29,3.26C66.71,267.37,67.18,265.42,66.36,264.37Z"/><path class="cls-9" d="M280.17,220.38l4.19-5.46c1.12-.39,1.57-1.38,2.06-2.33,2.81-1.63,6-1.86,9.07-2.77,3.07,5,7.94,3.26,12.22,3,2.46-.16,5.45-.37,6.52-3.55,10.52-2.33,22.17,2.87,27.78,13.76,6.14,11.92,11.38,24.35,10.32,38.34-.1,1.32-.22,2.64-.32,4L349,263.25c-1.76-3.29-4.89-1.85-7.47-2-2-.13-3-.34-4-2.63-2.4-5.71-3.93-11.81-7.45-17.06A130.21,130.21,0,0,0,320,227.9c-.91,1.64.23,2.28.73,3.13,3.07,5.22,7,9.91,9.39,15.55,1.78,4.26,3.54,8.53,5.09,12.88.44,1.23.95,3-.76,3.88-1.52.74-1.71-1-2.53-1.66-2.75-2.29-6.34-3.75-6.92-7.94,0-.21-.65-.42-1-.5-2.5-.55-4-2.47-5.76-4.07-2.83-2.57-5-5.7-8.05-8.14-5.93-4.8-12.09-9.48-17.21-15.08C289.23,221.89,286.1,218.49,280.17,220.38Z"/><path class="cls-11" d="M349,263.25l3.06,2.07a47.17,47.17,0,0,1-4.27,16.05c-.65,2.8-3,4.87-3.39,7.79l-.13.37a6.89,6.89,0,0,0-3.81,3.56c-5,4-9.44,4-14.51,0l1.63-1.44c1.85-.12,4-.8,3.51-2.77a3.72,3.72,0,0,0-5-2.55c-2.47.87-5.15,1.23-7.36,2.78-1.54.94-.12,3.06-1.59,4l0,0-.58-.79c-.78-2.43.13-3.88,2.33-5.18,2.49-1.46,6.2-.76,7.6-4.21.06-.15,1-.13,1.45.07,3.07,1.57,5.95-.47,8.94-.48,1.79,0,2.08-1.59,2.1-3.22a54.43,54.43,0,0,0-1.54-12.78c-.51-2.19-.21-3.74,2.55-4.19A19.25,19.25,0,0,1,349,263.25Z"/><path class="cls-11" d="M314.23,209.26c-1.07,3.18-4.06,3.39-6.52,3.55-4.28.27-9.15,2-12.22-3l-.63-3.63c4.07-.64,4.56-4.85,7-7.09a15.12,15.12,0,0,0,1.65-2.64c2.37-3.33,3.78-3.41,6.85-.43-2.67,3.71-1,6.71,1.48,9.65A33.54,33.54,0,0,1,314.23,209.26Z"/><path class="cls-11" d="M302.72,183.64c1.64,2.31,1.95,4.38-.28,6.71-1.5,1.56-2.29,3.79-3.57,5.59-1.9,2.65-3.94,2.92-5.91,0-.87-1.3-1.52-2.82-3.15-3.43.76-4.31,3.76-7.65,5.16-11.68C297.57,181.72,300.37,182.05,302.72,183.64Z"/><path class="cls-9" d="M302.72,183.64c-2.35-1.59-5.15-1.92-7.75-2.81-3-4.05-2.92-5.43.25-8.46,2.44-2.33,5-3,7.81-.71.61.48,1.48,1.18,1.49,1.79.1,4.81,3.53,6,7.24,6.86C309,182,306.1,183.54,302.72,183.64Z"/><path class="cls-14" d="M344.35,289.16c.4-2.92,2.74-5,3.39-7.79.41,1.15.83,2.29,1.25,3.43,0,1.39-.05,2.79-.08,4.2Z"/><path class="cls-13" d="M348.16,120.83c0,1.21-.19,2.23-1.17,2-1.71-.43-1.51-2.22-1.87-3.52-.21-.78.15-1.82,1.13-1.62C348.12,118.05,347.32,120.12,348.16,120.83Z"/><path class="cls-13" d="M381.72,154.16c-2-.35-5.23,0-4.86-2.46.29-1.89,3.15.59,4.9.12Z"/><path class="cls-13" d="M369.55,147.9c.94.27,2,.46,2.41,1.6a1,1,0,0,1-.93,1.35,2.55,2.55,0,0,1-2.51-2C368.35,148.21,368.94,148,369.55,147.9Z"/><path class="cls-10" d="M381.72,154.16l0-2.34,1.13.46c-1,2.74.76,5,1.33,7.45C381.39,158.77,382,156.26,381.72,154.16Z"/><path class="cls-15" d="M348.91,289c0-1.41,0-2.81.08-4.2l.34-.84v4.84a.28.28,0,0,0-.32.32Z"/><path class="cls-10" d="M386.13,145c-.35.71-.14,1.73-1.12,2.12C385.09,146.21,384.56,145,386.13,145Z"/><path class="cls-10" d="M384.2,159.71l1.61,1.66A1.42,1.42,0,0,1,384.2,159.71Z"/><path class="cls-10" d="M384.25,148.63c-.07.65-.06,1.35-.84,1.63A1.38,1.38,0,0,1,384.25,148.63Z"/><path class="cls-10" d="M383.43,150.22,383,152A1.12,1.12,0,0,1,383.43,150.22Z"/><path class="cls-10" d="M385,147c-.06.66,0,1.38-.82,1.65C384.17,148,384.28,147.34,385,147Z"/><path class="cls-6" d="M349,263.25a19.25,19.25,0,0,0-9-.89c-2.76.45-3.06,2-2.55,4.19a54.43,54.43,0,0,1,1.54,12.78c0,1.63-.31,3.22-2.1,3.22-3,0-5.87,2.05-8.94.48-.41-.2-1.39-.22-1.45-.07-1.4,3.45-5.11,2.75-7.6,4.21-2.2,1.3-3.11,2.75-2.33,5.18-.08.46.07.76.58.79l0,0c2.62,3.71,1.56,6.25-3.26,7.37a20.78,20.78,0,0,1-7.07.71l-.06-1c-.14-5.25-1.91-10.17-3.56-15-4.64-13.69-9.69-27.24-14.39-40.91-1.11-3.24-2.39-1.84-3.91-.69a63.59,63.59,0,0,1-30.54,12.59l-.21-.13c-1.34-3.77-2.88-7.48-3.61-11.45,2.41-2.74,5.84-4.05,8.66-6.24,5.2-4,10.86-7.53,14.86-12.94a1.91,1.91,0,0,0,1.88-1.72l1.1-.14.94-.86,2.28-2.33c5.93-1.89,9.06,1.51,12.77,5.57,5.12,5.6,11.28,10.28,17.21,15.08,3,2.44,5.22,5.57,8.05,8.14,1.77,1.6,3.26,3.52,5.76,4.07.38.08,1,.29,1,.5.58,4.19,4.17,5.65,6.92,7.94.82.69,1,2.4,2.53,1.66,1.71-.84,1.2-2.65.76-3.88-1.55-4.35-3.31-8.62-5.09-12.88-2.36-5.64-6.32-10.33-9.39-15.55-.5-.85-1.64-1.49-.73-3.13A130.21,130.21,0,0,1,330,241.54c3.52,5.25,5,11.35,7.45,17.06,1,2.29,2,2.5,4,2.63C344.06,261.4,347.19,260,349,263.25Z"/><path class="cls-11" d="M153.47,210c-.27-.61-.55-1.21-.83-1.82,1.25-2.94,4.08-4.94,4.9-8.14,4.26-.86,4.24-.85,1.39-4.42-1.08-1.34-2.4-2.92-1.19-4.63,1.6-2.23,2.91.38,4.71.77-1.64-4.53.8-6,4.59-6.73a52.75,52.75,0,0,0,7.1-2.45c1.36.31,1.79,1.43,2.21,2.54,2.17,5.71,3.39,11.55,2.44,17.68l-.74.83-.85.75,0-.05a27,27,0,0,1-4.23.74c-2.32.05-3.78.81-3.75,3.37l0,0a1.52,1.52,0,0,0-.83,1.62l0,0a3.94,3.94,0,0,0-1.38,3.84c-1.26.81-2.3,2.15-4.08,1.73A5.33,5.33,0,0,0,159.8,214v0a6,6,0,0,0-3.8-1.8C155.62,211,154.43,210.62,153.47,210Z"/><path class="cls-9" d="M174.14,182.57A52.75,52.75,0,0,1,167,185c-3.79.77-6.23,2.2-4.59,6.73-1.8-.39-3.11-3-4.71-.77-1.21,1.71.11,3.29,1.19,4.63,2.85,3.57,2.87,3.56-1.39,4.42-4.75-1.83-4.86-7-7.45-10.46-1.67-2.22-1.61-5.18,1.89-6.45a2.26,2.26,0,0,0,1.54-1.6c1.45-4.52,5.3-6.09,9.31-7.29,3.79-1.13,7.72-1.6,11-4.29,2.09-1.71,5.15.23,5.86,3.29.85,3.67-.58,6.46-3.33,8.76C175.58,182,174.74,181.83,174.14,182.57Z"/><path class="cls-11" d="M214.06,223.64l.81-.74.84-.83,0,0,.83-.82,0,0,.82-.82,0,0,.79-.84h0a1.63,1.63,0,0,0,1-1.48l-.06,0,.95-.81a.71.71,0,0,0,.54-.2c2.48.14,5,.15,7.44.44,1.49.18,2.86.52,3.87-1l0,0,1.25-.13.12.08c-.94,2.39-.66,3.89,2.36,2.82,1.48-.53,2.23-.29,2.51,1.25a3.54,3.54,0,0,0-.72,3.05l0,0a1.39,1.39,0,0,0-1.66.54l-3.18,1.1c-2.58-.6-5.21-1-7.7-1.84-2.19-.73-3.17-.28-4.18,1.9-7.05,15.17-17.37,21.05-34.33,19.81,0-.7.08-1.53,1-1.33,5.15,1.19,9.88-.6,14.68-1.92,3.31-.91,5.69-3.78,4.82-6.14-1.14-3.12-3.35-3.76-6.67-2.94-3.85.95-8,1.91-11.55-1.26,4.12-.42,8.38,2,12.38-.64a.26.26,0,0,0,.42,0,10.76,10.76,0,0,0,7.26-3.31v0a2.91,2.91,0,0,0,2.4-1.62h0l.87-.79v0A2.79,2.79,0,0,0,214.06,223.64Z"/><path class="cls-4" d="M275.85,223.71a1.91,1.91,0,0,1-1.88,1.72c-9.42-7.38-19.76-8.77-30.93-4.77a1.48,1.48,0,0,1-.94-1.46l1.63-1,0,0a34.9,34.9,0,0,1,22.17.15Z"/><path class="cls-10" d="M200.88,231c-4,2.66-8.26.22-12.38.64l-1.6-.73c-5.12-2.78-10.08-5.72-13.23-10.91a19.1,19.1,0,0,0-6.57-6.19,3.94,3.94,0,0,1,1.38-3.84c.26,1.1-.27,2.42,1,3.25,3.57,2.41,5.68,6.18,8.61,9.19,5.53,5.66,12,8.82,20.07,8.4A23.27,23.27,0,0,1,200.88,231Z"/><path class="cls-10" d="M174.14,182.57c.6-.74,1.44-.54,2.22-.58a36,36,0,0,1,4.17,18.07c-.05,1.28-.32,2.36-1.74,2.73,1-6.13-.27-12-2.44-17.68C175.93,184,175.5,182.88,174.14,182.57Z"/><path class="cls-10" d="M265.86,218.37a34.9,34.9,0,0,0-22.17-.15c3.64-3.45,8.43-3.27,12.71-2.95C259.51,215.51,263.62,214.69,265.86,218.37Z"/><path class="cls-10" d="M243.73,218.18l-1.63,1-4,1.52c-.29-1.54-1-1.78-2.52-1.25-3,1.07-3.3-.43-2.36-2.82C236.45,218.86,240.2,217.74,243.73,218.18Z"/><path class="cls-3" d="M286.42,212.59c-.49.95-.94,1.94-2.06,2.33V203.65l1.8.84Q286.29,208.54,286.42,212.59Z"/><path class="cls-10" d="M231.79,216.68c-1,1.49-2.38,1.15-3.87,1-2.46-.29-5-.3-7.44-.44.55-2.43,2.52-1.5,3.89-1.44C226.85,215.88,229.31,216.36,231.79,216.68Z"/><path class="cls-10" d="M169.26,208.43c0-2.56,1.43-3.32,3.75-3.37a27,27,0,0,0,4.23-.74c-.24,1.05-1,1.8-1.94,1.66C172.75,205.62,171.12,207.25,169.26,208.43Z"/><path class="cls-10" d="M208.56,227.72A10.76,10.76,0,0,1,201.3,231C203.23,228.84,205.49,227.4,208.56,227.72Z"/><path class="cls-10" d="M214.06,223.64a2.79,2.79,0,0,1-2.26,1.75C211.64,223.63,212.85,223.63,214.06,223.64Z"/><path class="cls-10" d="M211,226.12a2.91,2.91,0,0,1-2.4,1.62C208.51,226,209.72,226,211,226.12Z"/><path class="cls-10" d="M168.45,210a1.52,1.52,0,0,1,.83-1.62C169.38,209.15,169.27,209.77,168.45,210Z"/><path class="cls-10" d="M219.05,218.19a1.63,1.63,0,0,1-1,1.48C218.05,219,218.18,218.32,219.05,218.19Z"/><path class="cls-10" d="M233.06,216.57l-1.25.13C232.12,215.66,232.52,215.46,233.06,216.57Z"/><path class="cls-10" d="M177.2,204.37l.85-.75Z"/><path class="cls-9" d="M277.89,222.71l-.94.86Z"/><path class="cls-10" d="M215.71,222.07l-.84.83Z"/><path class="cls-10" d="M216.51,221.28l-.83.82Z"/><path class="cls-10" d="M211.79,225.34l-.87.79Z"/><path class="cls-10" d="M217.31,220.48l-.82.82Z"/><path class="cls-10" d="M218.07,219.66l-.79.84Z"/><path class="cls-10" d="M219.94,217.41l-.95.81A.87.87,0,0,1,219.94,217.41Z"/><path class="cls-5" d="M351.4,138.23c-3-.68-4.57-3.64-7.86-4.3-4.85-1-8.31.6-11.32,3.94-2.86,3.16-4.07,6.79-2.42,11a11.08,11.08,0,0,1,1,4.06,11,11,0,0,1-2.58-10.55c1.31-4.95,4.23-8.3,9.09-9.61,6.27-1.7,11.87.6,14.15,5.44Z"/><path class="cls-5" d="M341.18,140.6c3.71-.33,4.55,2.05,4.67,5.19.12,3.37-1.91,4.79-4.81,5.09-2.51.26-5.55-2.73-5.57-5.12C335.44,142.63,337.66,140.58,341.18,140.6Zm3.65,4.9c-.44-2.32-1.85-3.87-4-3.87a3.6,3.6,0,0,0-3.68,3.86,3.8,3.8,0,0,0,3.83,3.8C343.43,149.39,344.17,147.34,344.83,145.5Z"/><path class="cls-5" d="M351.42,138.21c4.06,4.35,4.06,10.09,0,14.38h0c1.79-4.79,1.44-9.58,0-14.36Z"/><path class="cls-5" d="M351.41,152.59c-2.05,4.44-7.5,6.94-12.06,5.14,4.76-.11,8.35-2.77,12.06-5.14Z"/><path class="cls-8" d="M286.42,212.59q-.12-4.05-.26-8.1c2.94.39,5.61,2.12,8.7,1.7l.63,3.63C292.46,210.73,289.23,211,286.42,212.59Z"/><path class="cls-12" d="M120.66,214.86c2.58,1.1,3.17,3.34,3.11,5.79,0,1.93-1.52,2.24-3.11,2.21Z"/><path class="cls-12" d="M119.88,226c2.73,1.29,1.69,2.67,0,3.93-1.45,1.08-3.2.89-4.88.85l1.7-2.31.82-.78.79-.78Z"/><path class="cls-12" d="M104.7,228.4c-.16,1.11-.57,1.85-1.78,1-.77-.54-1.65-1.32-2.48-.72-2.82,2.07-3.91,1.35-3.85-2,0-1.19-1-1.31-2-1.42-2.08-.24-4.14-.63-6.21-.78-1.69-.11-2.8-.64-2.86-2.49,1.23-1.65,2.7-1.6,4.53-1a43.92,43.92,0,0,0,5.77,1.13l1.62.76,1.57.82c.32,2,2,1.4,3.17,1.64l.87.7,1.52.88C104.62,227.42,104.66,227.91,104.7,228.4Z"/><path class="cls-10" d="M215.72,262.66a1.62,1.62,0,0,1,1.61.85C216.6,263.6,216,263.49,215.72,262.66Z"/><path class="cls-10" d="M217.3,263.48a1.66,1.66,0,0,1,1.63.83C218.2,264.4,217.57,264.29,217.3,263.48Z"/><path class="cls-10" d="M229.11,261.87l1.26-4.48c7.88-.72,15.88.62,23.7-1.33l.2.13c-2.38,3.45-6.29,1.28-9.32,2.49-1.25.5-2.87.06-4.32.1C236.55,258.91,232.1,257.68,229.11,261.87Z"/><path class="cls-10" d="M306.67,300.23l.06,1c-1.7,1.26-3.67.68-5.54.84C302.5,299.88,304.72,300.46,306.67,300.23Z"/><path class="cls-10" d="M301.21,302l-.88.73Z"/><path class="cls-16" d="M167.1,213.84a19.1,19.1,0,0,1,6.57,6.19c3.15,5.19,8.11,8.13,13.23,10.91-.45,4.23-3.39,7.39-4.8,11.2-2.82-.68-4.16-3.19-6-5-1.71-1.67-3-1.78-4.65,0-3,3.19-6.17,6.24-9.25,9.36-1.95,2-1.61,3.76.63,5.22,2.43,1.59,4.92,3.1,7.38,4.64-1.12,4.57-2.81,9-3.84,13.55-1.45,6.34-4.28,12.44-4.11,19.07.09,3.74-3.23,5.3-4.39,8.21-.5,1.26-1.69,0-2.21-.55-3-3.16-7.24-4.42-10.31-8s-6.11-7.41-9.4-10.91c-.27-.29-.53-.72-.86-.81-5.3-1.37-5.12-5-5-9.61A101.23,101.23,0,0,1,139,228.78a52.75,52.75,0,0,1,8.74-13.9c4-.81,7.93-2,12-.84v0c.13,1.95,1.68,2.15,3.1,2.51.15.7-.2,1.62.79,2a.64.64,0,0,0,.54-.32c.18-1-.57-1.33-1.21-1.75v-.85C164.8,216,165.84,214.65,167.1,213.84Zm4.69,17.74-.4-.31.3.41a1.69,1.69,0,0,0,.82,1.58l.36,1,.29-.22c-.18-.3-.37-.6-.57-.89A1.74,1.74,0,0,0,171.79,231.58Zm-3.2-5.58-.39-.31.3.4a3.92,3.92,0,0,0,2.12,3.91C170.61,227.92,169.91,226.78,168.59,226Zm-3.19-5.59-.39-.31.29.4a3.94,3.94,0,0,0,2.14,3.92A4.16,4.16,0,0,0,165.4,220.41Z"/><path class="cls-8" d="M186.26,245.26c17,1.24,27.28-4.64,34.33-19.81,1-2.18,2-2.63,4.18-1.9,2.49.83,5.12,1.24,7.7,1.84a31.84,31.84,0,0,0-9.82,21.79c-2,.23-3.63,1.34-5.34,2.27-3.06-.17-5.85.5-7.71,3.09-1.14,1.59-2.64,1.58-4.22,1.55-7.81-.14-14.18-3.64-19.91-8.6Z"/><path class="cls-14" d="M217.31,249.45c1.71-.93,3.34-2,5.34-2.27a2,2,0,0,0,2,.2c1.75,4.22,4.76,5.11,8.86,3.5a54.59,54.59,0,0,1,6-1.86c3.82-1,6.9-3.86,10.9-4.41.73,4,2.27,7.68,3.61,11.45-7.81,1.95-15.81.61-23.69,1.33-3.09-2.34-6.79-3.4-10.33-4.74C218.4,252,217.09,251.49,217.31,249.45Z"/><path class="cls-14" d="M186.26,245.26l-.79.23c-1.64-.59-3.11-1.36-3.37-3.35,1.41-3.81,4.35-7,4.8-11.2l1.6.73c3.54,3.17,7.7,2.21,11.55,1.26,3.32-.82,5.53-.18,6.67,2.94.87,2.36-1.51,5.23-4.82,6.14-4.8,1.32-9.53,3.11-14.68,1.92C186.34,243.73,186.23,244.56,186.26,245.26Z"/><path class="cls-16" d="M352.26,296.3c3.79-.14,7.61.48,11.38-.63,2.12-.62,3.51.47,4.23,2.51,2.14,6.09,4.12,12.21,3.42,18.81l-21.44,7.15c-4.54,1.5-4.65,1.5-4.77-3.25-.05-2.16-.66-3-2.95-3.11a53.9,53.9,0,0,0-9.85.94c-2.67.41-2.37,2.36-1.7,4.27,1,2.85.25,4-3,3.71-7.75-.69-15.53-1.13-23.29-1.67,2.11-2.92-2.15-3.92-1.93-6.54.2-2.3-1-4.69-1.23-7.08-.52-6.38,2.38-9,9.22-8.66,2.83.15,5.9,1.56,7.63-2.37.49-1.13,2.85-1.54,3.59-.8,2.06,2,4.6.78,6.69,1.59s1.78-2,3.74-1.85c2.31.18,5,0,7.16.09,3.09.18,3.55-1.74,5-2.94Z"/><path class="cls-6" d="M325.9,293.07c5.07,4.06,9.48,4.06,14.51,0,1.54.16,1.67,1.77,2.63,2.53-2.77,2.52-17.87,4-20.8,2-1.68-1.11-1.08-2.81-1.13-4.34l.09-.09Z"/><path class="cls-16" d="M318.65,289.09c2.21-1.55,4.89-1.91,7.36-2.78a3.72,3.72,0,0,1,5,2.55c.48,2-1.66,2.65-3.51,2.77-2.24,0-4.68-.78-6.33,1.59l-.09.09C318,293.22,318.72,290.94,318.65,289.09Z"/><path class="cls-15" d="M352.26,296.3l-8.05.17-.41-.92c2.41-1.85,2.58-3.85.42-6l.13-.37,4.56-.16.1.12c-.47,1.71-.82,3.39,1.43,4.17l0,0,1.76,1.87Z"/><path class="cls-10" d="M344.22,289.53c2.16,2.17,2,4.17-.42,6l-.38.09H343c-1-.77-1.09-2.38-2.63-2.54A6.89,6.89,0,0,1,344.22,289.53Z"/><path class="cls-12" d="M81.51,281.93c.11-.64.19-1.33,1-1.44,1.07-.13,1.27.63,1.39,1.45Z"/><path class="cls-12" d="M126.44,217.45a1,1,0,0,1,1.18.73,1,1,0,0,1-1,1.31.92.92,0,0,1-1-.94A1,1,0,0,1,126.44,217.45Z"/><path class="cls-12" d="M93.35,228c0,.55-.23,1-.86,1.08s-1.16-.08-1-.77a1.71,1.71,0,0,1,.89-1.08C92.88,227,93.32,227.34,93.35,228Z"/><path class="cls-12" d="M127.35,221.72a2.11,2.11,0,0,1,.33.82c0,.59-.41.92-1,.62a1.2,1.2,0,0,1-.28-1C126.48,221.84,126.73,221.51,127.35,221.72Z"/><path class="cls-12" d="M125.22,226.35c.22.1.56.15.63.31s-.16.43-.26.65c-.22-.1-.56-.15-.63-.31S125.12,226.57,125.22,226.35Z"/><path class="cls-15" d="M159.8,214c-4.1-1.12-8.06,0-12,.84a5.39,5.39,0,0,1,2.41-2.45l5.82-.19A6,6,0,0,1,159.8,214Z"/><path class="cls-16" d="M156,212.24l-5.82.19a4.2,4.2,0,0,1,3.29-2.44C154.43,210.62,155.62,211,156,212.24Z"/><path class="cls-7" d="M395.32,109.15a6,6,0,0,1-12,0c0-3.08,2.83-6.06,5.73-6C392.19,103.2,395.32,106.22,395.32,109.15Z"/><path class="cls-8" d="M373.67,337.89q-.06-6.83-.13-13.65c2.57-.2,4.09,1.2,3.32,3.51C375.73,331.12,378.24,335.66,373.67,337.89Z"/><path class="cls-8" d="M371.64,304.51c-1.41-2.22-1.64-4.82-2.35-7.27,2.54-.28,3.48,1.53,4.16,3.41C374.08,302.37,373.18,303.66,371.64,304.51Z"/><path class="cls-8" d="M352.22,295.14l-1.76-1.87c3.59.35,7.41-1.54,10.76,1.12C358.31,295.63,355.24,295.07,352.22,295.14Z"/><path class="cls-8" d="M396.12,285.14c.56.89,1.49.77,2.35.87l1.67,1.48c-2.71,1.23-4.61.52-5.62-2.35Z"/><path class="cls-8" d="M368,342.91l4.88-2.38C372.46,344.28,371,345,368,342.91Z"/><path class="cls-8" d="M373.3,313.3c-1-1.28-.85-2.75-.66-4.22C375.8,310,375,311.59,373.3,313.3Z"/><path class="cls-8" d="M350.44,293.29c-2.25-.78-1.9-2.46-1.43-4.17a.28.28,0,0,1,.32-.32C351.19,289.93,350.55,291.68,350.44,293.29Z"/><path class="cls-8" d="M373.25,319.69a2.58,2.58,0,0,1,0-3.65C375.06,317.27,375.07,318.49,373.25,319.69Z"/><path class="cls-8" d="M368,295.22l-1.67-.83c.28-.41.44-1.08,1.12-.84S368,294.6,368,295.22Z"/><path class="cls-16" d="M343.42,323.8c0,4.92-1.71,6.53-7.4,5.8-3.84-.49-3.66-4.68-3.54-7,.3-5.5,5.44-2.69,8.24-3.37C344.1,318.36,343.22,321.9,343.42,323.8Z"/><path class="cls-14" d="M321.2,293.22c1.65-2.37,4.09-1.58,6.33-1.59l-1.63,1.44Z"/><path class="cls-14" d="M317.08,293.14c-.51,0-.66-.33-.58-.79C316.69,292.62,316.88,292.88,317.08,293.14Z"/><path class="cls-8" d="M250.45,244.61c-4,.55-7.08,3.39-10.9,4.41a54.59,54.59,0,0,0-6,1.86c-4.1,1.61-7.11.72-8.85-3.5.34-9,4.22-16.32,11-22.18a2.51,2.51,0,0,0,1.66-1.45l0,0,5.71-3.11c11.17-4,21.51-2.61,30.93,4.77-4,5.41-9.66,8.91-14.86,12.94C256.29,240.56,252.86,241.87,250.45,244.61Z"/><path class="cls-15" d="M162.9,216.53c-1.42-.36-3-.56-3.1-2.51a5.33,5.33,0,0,1,3.22,1.55v.85Z"/><path class="cls-4" d="M235.65,225.2c-6.76,5.86-10.64,13.15-11,22.18a2.06,2.06,0,0,1-2-.2,31.84,31.84,0,0,1,9.82-21.79l3.18-1.1Z"/><path class="cls-5" d="M243,220.66l-5.71,3.11a3.54,3.54,0,0,1,.72-3.05l4-1.52A1.48,1.48,0,0,0,243,220.66Z"/><path class="cls-5" d="M235.65,225.2v-.91a1.39,1.39,0,0,1,1.66-.54A2.51,2.51,0,0,1,235.65,225.2Z"/><path class="cls-7" d="M344.83,145.5c-.66,1.84-1.4,3.89-3.84,3.79a3.8,3.8,0,0,1-3.83-3.8,3.6,3.6,0,0,1,3.68-3.86C343,141.63,344.39,143.18,344.83,145.5Z"/><path class="cls-15" d="M165.4,220.4a4.18,4.18,0,0,1,2,4,3.94,3.94,0,0,1-2.14-3.92Z"/><path class="cls-15" d="M168.6,226c1.31.78,2,1.92,2,4a3.92,3.92,0,0,1-2.12-3.91Z"/><path class="cls-15" d="M163,216.42c.64.42,1.39.79,1.21,1.75a.64.64,0,0,1-.54.32c-1-.34-.64-1.26-.79-2Z"/><path class="cls-15" d="M172.59,233.19c.2.29.39.59.57.89l-.29.22-.36-1Z"/><path class="cls-15" d="M171.79,231.58a1.74,1.74,0,0,1,.8,1.61l-.08.07a1.69,1.69,0,0,1-.82-1.58Z"/><path class="cls-15" d="M165.3,220.5l-.29-.4.39.31Z"/><path class="cls-15" d="M168.5,226.09l-.3-.4.4.31Z"/><path class="cls-15" d="M171.69,231.68l-.3-.41.4.31Z"/></g></g></svg>